<?xml version="1.0" encoding="utf-8"?>
<!-- Generator: Adobe Illustrator 22.0.1, SVG Export Plug-In . SVG Version: 6.00 Build 0)  -->
<svg version="1.1" id="Capa_1" xmlns="http://www.w3.org/2000/svg" xmlns:xlink="http://www.w3.org/1999/xlink" x="0px" y="0px"
	 viewBox="0 0 168 57" style="enable-background:new 0 0 168 57;" xml:space="preserve">
<style type="text/css">
	.st0{fill:#FFFFFF;}
	.st1{fill:#FFAA24;}
	.st2{fill:#E58E00;}
	.st3{fill:none;stroke:#FFFFFF;stroke-width:0.8242;stroke-linecap:round;stroke-miterlimit:10;}
</style>
<g>
	<path class="st0" d="M46.8,4.1l1.3,0.1l6.3,45.3c-0.2,0.2-0.5,0.4-0.8,0.6l-27.5,5c-0.3-0.1-0.6-0.3-0.8-0.6L18.4,9.7
		c0.1-0.3,0.2-0.7,0.4-1l26.9-4.3L46.8,4.1z M43.1,15.4l-2.8,1l-2.2,1.3l-1.9,1.7l-0.6,1.1L35.2,22L35,23.6l1.2,9.6v1.5L36.1,35
		c-0.1,0.4-0.2,0.9-0.3,1.4l-0.5,1.3l-1.4,2.2l-0.8,1L32,41.7c0.1-0.4,0.2-0.8,0.4-1.2l0.5-1.3c0.2-0.4,0.4-0.8,0.5-1.3l0.3-1.5
		l0.1-1.7l-0.7-6.5l-0.3-1.4l-0.2-3.5l0.2-1.6l0.5-1.3l1.5-2.1l0.9-0.9l-2.6,0.6l-1.4,0.1l-0.3-0.1l-3.3-0.3l-1.6,0.2l-1.2,0.5
		l-1,0.8l-0.7,1L23,21.4v0.4l0.8-0.6c0.4-0.2,0.9-0.4,1.3-0.5h1.4l0.2,0.1l1.5,0.3l1.6-0.1l1.3-0.6c0,0.3-0.1,0.7-0.2,1l-0.8,1
		l-0.6,1.2c-0.2,0.4-0.4,0.8-0.5,1.3l-0.3,1.4l-0.1,1.6h0.1c-0.2,0.4-0.5,0.7-1,0.8c-0.4,0.2-0.8,0.4-1.2,0.6
		c-0.4,0.2-0.7,0.4-1.1,0.7l-0.7,1.1l-0.2,1l0.4-0.1l1.3-0.5l1.6-0.1c0.4,0.1,0.9,0.3,1.4,0.5l0.8,0.9l0.2,1.6l-2.1,1.5
		c-0.2,0.4-0.4,0.8-0.6,1.2l-0.1,1.2l0.3,0.1c0.3-0.3,0.6-0.6,1-0.8c0.4-0.2,0.8-0.3,1.3-0.3c0.3,0.3,0.6,0.6,0.8,1l0.1,0.4
		l-0.6,2.4l-2.2,3.4c-0.2,0.4-0.4,0.8-0.5,1.2l-0.4,1.4c0,0.4,0.1,0.9,0.3,1.4l1,0.3l0.3-0.2l0.2-0.3c0-0.3,0-0.6-0.1-0.9l-0.5-1.3
		c0-0.4,0.1-0.9,0.2-1.4l0.9-0.9l2.5-1.1l3.1-0.5l6.6,0.7c0.3-0.2,0.7-0.4,1-0.7l5.4-3.7l2.5-1.1c0.4-0.2,0.6-0.6,0.6-1.1l-0.9-6.3
		L50,28.8c-0.2-0.4-0.5-0.7-0.8-1c-0.3-0.2-0.7-0.5-1.1-0.7l-1.3-0.4l-1.7-0.1l-0.4-0.3l1.2-1.7c0.2-0.3,0.5-0.7,0.7-1.1l0.7-1.1
		l0.5-1.3l0.2-1.5l-0.3-1.5l-0.6-1.2l-0.9-0.8l-1.3-0.5H43.1z M40.5,17.6c0.5,0.1,1.1,0.4,1.7,0.7l1.3,1.1l0.9,1.5
		c0.1,0.6,0.2,1.4,0.3,2.1c-0.1,0.6-0.3,1.2-0.5,1.9c-0.2,0.4-0.5,0.9-0.9,1.4l-1.2,1.2c-0.2,0.1-0.4,0.2-0.7,0.3l-0.6-3.4
		c-0.1-0.2-0.2-0.4-0.4-0.5l-0.1,0.8l0.1,0.3l0.9,6.4c0,0.6,0.1,1.3,0.3,2c0,0.7,0.1,1.4,0.3,2.1l0.2,2.1l0.1,0.4l-0.1,0.2l-0.4,0.1
		l-1.1-0.1l-2.2,0.2l-2.9,0.7l-0.3-0.1l0.3-0.5c0.5-0.3,0.9-0.6,1.3-1.1l1.2-1.1c0.3-0.4,0.6-0.9,0.9-1.5c0.2-0.6,0.3-1.3,0.4-2
		v-2.4l-1.3-9.5l0.2-1c0.2-0.5,0.5-1.1,0.9-1.6L40.5,17.6z M43.4,27.4c0.5,0.1,1.1,0.2,1.7,0.5c0.3,0.4,0.6,0.9,0.8,1.4l0.2,1.1
		c-0.1,0.1-0.2,0.3-0.4,0.4c-0.5,0.3-1,0.5-1.6,0.6c-0.2,0.1-0.5,0.1-0.8,0.1l-0.2-0.1h-1c-0.3-0.5-0.5-1-0.5-1.6
		c0.1-0.5,0.3-1,0.7-1.4L43.4,27.4z M45.5,31.4c0.6,0.1,0.9,0.5,1,1.1l0.2,1.5l-0.1,0.3c-0.5,0.1-1.1,0.2-1.8,0.3L43,35
		c-0.5-0.2-0.8-0.5-0.9-1l-0.2-1.6l0.1-0.2c0.5-0.2,1.1-0.3,1.8-0.3C44.3,31.7,44.9,31.6,45.5,31.4z M44.3,35h1.7l0.4,0.1
		c0.3,0.5,0.5,1.1,0.6,1.7l0.1,0.9L47.1,38l-1.8,1.2l-1.9-0.3c-0.4-0.4-0.6-0.9-0.7-1.6l-0.2-1.5l0.3-0.2L44.3,35z"/>
	<path class="st2" d="M59.3,42.4l1.3,0.2l0.8,0.6l0.7,0.7l0.3,1c0,0.4-0.1,0.8-0.2,1.3c-0.1,0.3-0.3,0.6-0.5,0.8
		c-0.2,0.2-0.5,0.5-0.8,0.7l-1,0.3c-0.4,0-0.8-0.1-1.3-0.2c-0.3-0.1-0.6-0.3-0.8-0.5l-0.7-0.8l-0.3-1.1l0.1-1.2l0.6-0.8l0.8-0.6
		L59.3,42.4z"/>
	<path class="st0" d="M70.6,5.4l0.8,0.1l0.3-0.1H72l0.3,0.1l0.1-0.1l5,0.4l0.4-0.2l1,0.2l5,0.3l0.3,0.1l0.1-0.1l0.3,0.1h2.1l0.4,0.2
		l1.6,0.1l0.4-0.1l5,0.3l0.3,0.1h2.6l0.3,0.4l-0.4,1.4l0.3,1.1c-0.2,0-0.3,0.1-0.4,0.3l0.4,1.3l-0.6,1.1c0,0.2-0.1,0.5-0.3,0.7
		l0.6,0.4c0,0.1-0.1,0.2-0.3,0.3l-0.6,0.1c0.1,0.2,0.2,0.4,0.4,0.4c0.2,0.2,0.2,0.4,0.3,0.6l0.3,1l-0.7,0.3l0.2,1
		c0.1-0.2,0.3-0.4,0.6-0.6l-0.4,0.7l0.2,1.4l0.1,0.4h-0.3l0.2,0.9l-0.3,0.1l-0.2-0.1l0.4,0.8l0.3,1v5l-0.2,0.4l-0.3,20.8l-0.4,2.4
		l-1,0.6l-1.2-0.1l-0.6,0.1l-1.6-0.1h-7.6L84.1,51l-0.4,0.2L82.1,51l-0.6,0.2l-4-0.3L77,51l-1.2-0.1L75.4,51H75l-0.4-0.1L73.4,51
		l-0.3-0.1h-1c-0.5-0.5-0.7-1.3-0.7-2.1l-0.2-7.5l-0.2-0.3l-0.7-17l0.2-0.4l-0.2-5.3L70.2,18l0.2-1.3v-3.4l-0.2-0.4l0.2-0.1
		l-0.2-2.3l0.2-0.9l-0.2-0.3V5.8L70.6,5.4z M71,8c0,0.3,0.1,0.5,0.3,0.7L71,8z M71,9.7c0,0.1,0.1,0.2,0.3,0.3
		C71.2,9.9,71.1,9.8,71,9.7z M71.1,11.4v-0.3H71L71.1,11.4z M71,13.4c0,0.1,0.1,0.2,0.3,0.3C71.2,13.5,71.1,13.4,71,13.4z M71,15.1
		c0,0.1,0.1,0.2,0.3,0.3C71.2,15.3,71.1,15.2,71,15.1z M71,16.5c0,0.3,0.1,0.5,0.3,0.7L71,16.5z M71.1,17.4L71,18.1h0.4
		C71.4,17.8,71.3,17.6,71.1,17.4z M71,18.4c0,0.3,0.1,0.5,0.3,0.7L71,18.4z M71,22.5l0.3,0.1l0.2-0.3l-0.3-0.1L71,22.5z M71,23.7
		c0.1,0.6,0.3,1.2,0.6,1.7l-0.3-1.3l0.3-0.4H71z M71,25.2l0.1,1.6l0.4-0.9L71,25.2z M71,27.2c0,0.3,0.2,0.5,0.4,0.7
		C71.3,27.7,71.2,27.4,71,27.2z M71,28.5c0,0.5,0.2,1,0.4,1.4C71.3,29.4,71.2,29,71,28.5z M71.5,8.2l-0.4,0.9
		C71.3,8.9,71.5,8.6,71.5,8.2z M71.4,10.1l-0.3,0.6l0.7,0.1C71.8,10.6,71.6,10.3,71.4,10.1z M71.2,12.2V12h-0.2L71.2,12.2z
		 M71.1,13.8v0.3l0.3-0.1L71.1,13.8z M71.1,15.5c0,0.1,0.1,0.2,0.3,0.3C71.4,15.7,71.3,15.6,71.1,15.5z M71.1,16.2h0.3V16h-0.2
		L71.1,16.2z M71.1,19.2v0.3l0.3-0.1L71.1,19.2z M71.2,20.8v-0.3h-0.2L71.2,20.8z M71.1,21c0,0.1,0.1,0.2,0.3,0.3
		C71.4,21.1,71.3,21,71.1,21z M71.1,22.8c0,0.1,0.1,0.2,0.3,0.3C71.4,23,71.3,22.9,71.1,22.8z M71.1,30.9c0,0.4,0.1,0.8,0.3,1.2
		C71.4,31.7,71.3,31.3,71.1,30.9z M71.1,32.6l0.3,1.1C71.3,33.4,71.2,33,71.1,32.6z M71.2,7.4c0,0.1,0.1,0.2,0.3,0.3
		C71.5,7.6,71.4,7.5,71.2,7.4z M71.2,9.2v0.3l0.3-0.1L71.2,9.2z M71.4,12.7v-0.3h-0.2L71.4,12.7z M71.2,12.8c0,0.1,0.1,0.2,0.3,0.3
		C71.5,13,71.4,12.9,71.2,12.8z M71.4,14.5v-0.3h-0.2L71.4,14.5z M71.2,16.7h0.3v-0.3h-0.1L71.2,16.7z M71.2,18.2
		c0,0.1,0.1,0.2,0.3,0.3C71.5,18.4,71.4,18.3,71.2,18.2z M71.2,19.7V20l0.3-0.2L71.2,19.7z M71.2,23.2c0,0.1,0.1,0.2,0.3,0.3
		C71.5,23.4,71.4,23.3,71.2,23.2z M71.5,10V9.7h-0.1L71.5,10z M71.4,12.1h0.3v-0.3h-0.2L71.4,12.1z M71.4,13.2
		c0,0.1,0.1,0.2,0.3,0.3C71.6,13.4,71.6,13.3,71.4,13.2z M71.5,19v-0.3h-0.1L71.5,19z M71.5,20.4v-0.3h-0.1L71.5,20.4z M71.5,22.1
		v-0.3h-0.1L71.5,22.1z M71.7,14v-0.3h-0.2L71.7,14z M71.8,7.7V7.4h-0.1L71.8,7.7z M78.4,28.1c0.2,0.4,0.3,0.8,0.3,1.3
		c-0.3,0.1-0.5,0.3-0.7,0.6l-0.4-0.3l-0.7,0.6l-0.2-0.7c0.2-0.3,0.3-0.6,0.3-1l-0.3,0.4l-0.6-0.7l0.2,0.7l-0.2,0.2l0.2,0.8
		c0,0.4,0.2,0.6,0.4,0.7l0.4,1.4h-0.4v0.1l-0.1-0.1c0.2,0.3,0.4,0.7,0.7,1c-0.2,0.3-0.4,0.6-0.7,0.8l-0.2-0.6h0.3l0.2-0.3l-0.2-0.4
		c-0.3,0.2-0.5,0.4-0.6,0.7l0.3,2.4l-0.1,0.3l-0.4,1.3c0.2,0.1,0.4,0.4,0.6,0.7L76,37.6l0.3,1.4L76,38.6l-0.2,1.6
		c0.1,0.1,0.2,0.2,0.3,0.4L75.8,41h0.3v-0.1l1.4,0.1l1-1.1c0.3-0.1,0.6-0.3,0.8-0.6l0.7,0.3L78.8,40l-0.7,1l1.4,0.1l0.4-0.3l0.9-0.1
		c0.3,0,0.6,0.1,0.8,0.3l0.9,0.1L81.9,41l0.4-0.1c0.2-0.2,0.3-0.5,0.3-0.9l-0.3,0.6l-0.7-0.4l0.6-0.3l0.7-0.6c0.2,0,0.3-0.1,0.4-0.3
		l-0.4-0.4l0.2-0.4l-0.4-0.8l0.2,0.8L82.5,38l-0.6-1l-1,0.1l0.3-0.1l0.4-0.6c0.2-0.3,0.3-0.5,0.3-0.7l-1.3-1.8h0.6
		c-0.2,0.1-0.3,0.2-0.3,0.4l0.7,0.3l0.3-0.9l0.6,0.7c0-0.2-0.1-0.4-0.3-0.7c-0.2-0.3-0.4-0.5-0.7-0.6l-1-1.1l-0.6,0.6l0.6,2.1
		l-0.7,0.2l0.1-0.4l-0.1-0.1l-0.2-0.7l-0.8-0.3l0.2,0.8c0.1,0.3,0.2,0.5,0.4,0.7l0.2,0.8l-1-1.1c-0.2-0.5-0.6-0.9-1.2-1.2
		c0.4,0,0.7-0.2,1-0.6c0.1-0.5,0.2-1,0.4-1.6c0,0.3-0.1,0.5-0.3,0.8l0.1,0.2l0.4-0.2l-0.3,0.3l-0.2,0.3l0.2,0.4l1-0.4l0.6-1l0.4,0.4
		l0.7,0.3l-0.2-1c-0.3-0.2-0.5-0.4-0.7-0.7l0.6,0.4l-0.2-0.6l-0.3-0.6l-0.9,1.1l0.6-1.3c-0.2-0.2-0.4-0.3-0.6-0.4
		c-0.1-0.4-0.2-0.9-0.4-1.3c-0.3,0.2-0.5,0.4-0.7,0.7C78.8,28.6,78.6,28.3,78.4,28.1z M76.1,30.8v-0.3H76L76.1,30.8z M76,30.9
		c0,0.1,0.1,0.2,0.3,0.3C76.2,31.1,76.1,31,76,30.9z M76.1,34.4v-0.3H76L76.1,34.4z M76.1,36.2v-0.3H76L76.1,36.2z M78.4,7.4L78,8
		l0.1,0.3c-0.3-0.1-0.7-0.3-1-0.6c-0.3,0.4-0.5,0.8-0.6,1.3l0.7,0.4L77.4,9l-0.3,0.9l0.3,0.3l-0.1,0.3L76.8,10
		c0,0.2-0.1,0.5-0.3,0.7c0.3,0.1,0.5,0.3,0.7,0.6L76.7,11c-0.2,0.1-0.2,0.2-0.3,0.4c0,0.4,0.1,0.8,0.3,1.3L76.2,13
		c0.3,0.3,0.6,0.6,1,0.8l0.8,1.3l-0.6,0.6V15l-1,0.8l0.6,0.4c-0.4,0.2-0.6,0.6-0.7,1l-0.1,1c0,0.4,0.1,0.8,0.3,1.1
		c0,0.1-0.1,0.2-0.3,0.3l0.1,0.8l-0.3,0.1l0.3,0.3l-0.3,1.7l0.3-0.1l-0.3,0.8c0,0.1,0.1,0.2,0.3,0.3l-0.3,0.6
		c0.1,0.1,0.2,0.2,0.4,0.3c-0.2,0.2-0.3,0.4-0.4,0.6l0.3,0.4l-0.3,1.1c0.1,0.3,0.2,0.7,0.3,1.2c-0.1,0-0.2,0.1-0.3,0.3l0.7,0.3
		l-0.2-0.7c0.3,0,0.6-0.1,1-0.3c-0.1,0.4-0.1,0.8-0.1,1.3l0.4,0.3l0.3-0.3c0-0.3,0.1-0.7,0.3-1l-0.4,0.2l0.3-0.6L78,27.4l-0.2-0.1
		l0.3-0.1l-0.3-0.6l-0.3,0.4l-0.3-0.6c0.4,0,0.7,0.1,1,0.3l0.7,1.2l0.6,0.3l0.4-1.3l0.2-1.3l-0.4-1.9l0.4-0.7l0.4,0.8v-0.6
		c0.1,0,0.2,0.1,0.3,0.3l-0.3,1l0.3-0.2l0.4-0.4c-0.2-0.4-0.3-0.8-0.4-1.3l0.3,0.4l0.7-1l0.8-0.8c-0.1-0.2-0.3-0.4-0.6-0.4l0.6-0.7
		l0.2-0.3l-0.3-0.7c0-0.1,0.1-0.2,0.3-0.3l-0.2-1.4l0.2-0.4l-0.2-1.1l0.3-0.4c0-0.3-0.2-0.5-0.4-0.6c0-0.3,0.1-0.7,0.3-1L82.7,13
		l0.2-0.3L82.5,12l0.4,0.4l-0.1-1.1l0.1-0.4l-0.1-1.3l-0.4-1.1l0.6,0.4l0.2-0.7l-0.7-0.3l-0.3,0.4l-0.2-0.4l-0.4-0.3l-1.2,0.3
		c-0.1-0.1-0.3-0.3-0.6-0.3L79.7,8L78.4,7.4z M76.2,31.6v-0.3h-0.2L76.2,31.6z M76.1,31.8c0,0.1,0.1,0.2,0.3,0.3
		C76.4,31.9,76.3,31.8,76.1,31.8z M76.7,14.1l-0.4,0.4C76.4,14.4,76.6,14.3,76.7,14.1z M76.2,14.7c0.2,0.3,0.3,0.5,0.6,0.6
		C76.7,15,76.5,14.8,76.2,14.7z M76.2,38.2c0.1,0,0.2,0.1,0.3,0.3C76.4,38.5,76.3,38.4,76.2,38.2z M76.2,39.6h0.3l-0.2,0.3
		L76.2,39.6z M76.4,7.7c0.2,0,0.3-0.1,0.3-0.3L76.4,7.7z M76.4,13.2c0,0.3,0.1,0.5,0.3,0.7C76.6,13.7,76.5,13.5,76.4,13.2z
		 M76.7,23.2c-0.1,0-0.2-0.1-0.3-0.3L76.7,23.2z M76.4,24.8c0.1,0,0.2,0.1,0.3,0.3C76.6,25.1,76.5,25,76.4,24.8z M76.4,26.5
		c0.1,0,0.2,0.1,0.3,0.3C76.6,26.8,76.5,26.7,76.4,26.5z M76.4,40.5c0.1,0,0.2,0.1,0.3,0.3C76.6,40.7,76.5,40.7,76.4,40.5z
		 M76.5,8.1c0.1,0,0.2,0.1,0.3,0.3C76.7,8.4,76.6,8.3,76.5,8.1z M76.5,16.7h0.3L76.7,17L76.5,16.7z M76.7,31.5v-0.3h-0.1L76.7,31.5z
		 M77.8,33.8l0.2,1.4c0.2,0.1,0.4,0.3,0.6,0.6c-0.3,0.1-0.5,0.3-0.7,0.6c-0.3,0.1-0.7,0.2-1,0.3l-0.2-0.7l0.9,0.3l-0.2-0.7l-0.8,0.3
		c0.3-0.3,0.6-0.8,0.8-1.3C77.4,34.2,77.6,34,77.8,33.8z M76.7,8.5H77l-0.2,0.3L76.7,8.5z M76.7,12.1c0.1,0,0.2,0.1,0.3,0.3
		L76.7,12.1z M76.8,12.5h0.3L77,12.8L76.8,12.5z M76.8,18c0.1,0,0.2,0.1,0.3,0.3L76.8,18z M77.1,23.1c-0.1,0-0.2-0.1-0.3-0.3
		L77.1,23.1z M76.8,38.6c0.2,0.1,0.2,0.3,0.3,0.6L76.8,38.6z M77,8c0.1,0,0.2,0.1,0.3,0.3C77.1,8.2,77,8.1,77,8z M77,20.1
		c0.3,0.1,0.6,0.3,0.8,0.6L77,20.1z M77.1,29.6v-0.3H77L77.1,29.6z M77.1,36.4v-0.3H77L77.1,36.4z M77.2,39.8l0.3,0.7L77,40.6
		L77.2,39.8z M77.5,11.5l0.4,0.9l-0.4,0.3L77.1,12C77.3,11.9,77.4,11.8,77.5,11.5z M77.2,28.2v-0.3h-0.2L77.2,28.2z M77.1,28.4
		c0,0.1,0.1,0.2,0.3,0.3C77.3,28.6,77.2,28.5,77.1,28.4z M77.8,30.2l0.2,1.9c0,0.3-0.2,0.5-0.4,0.7c0-0.3,0.1-0.5,0.3-0.7l-0.7-1.4
		C77.4,30.6,77.6,30.5,77.8,30.2z M77.1,38c0.1,0,0.2,0.1,0.3,0.3C77.3,38.3,77.2,38.2,77.1,38z M77.5,10.8c-0.1,0-0.2-0.1-0.3-0.3
		L77.5,10.8z M77.2,29.9c0.1,0,0.2,0.1,0.3,0.3C77.4,30.2,77.3,30.1,77.2,29.9z M77.4,9.7c0.1,0,0.2,0.1,0.3,0.3L77.4,9.7z
		 M77.5,29.5v-0.3h-0.2L77.5,29.5z M77.5,13.7c0.1,0,0.2,0.1,0.3,0.3L77.5,13.7z M77.7,8.7l0.6,0.1L77.7,9V8.7z M77.7,9.1
		c0.1,0,0.2,0.1,0.3,0.3C77.8,9.4,77.7,9.3,77.7,9.1z M77.7,14.1H78l-0.2,0.3L77.7,14.1z M78,18c-0.1,0-0.2-0.1-0.3-0.3L78,18z
		 M77.8,9.5c0.1,0,0.2,0.1,0.3,0.3C78,9.8,77.9,9.7,77.8,9.5z M77.8,13.1c0.1,0,0.2,0.1,0.3,0.3C78,13.4,77.9,13.3,77.8,13.1z
		 M78.1,18.4c-0.1,0-0.2-0.1-0.3-0.3L78.1,18.4z M78,21.7l0.1,0.4l-0.3-0.3L78,21.7z M78,29.4v-0.3h-0.2L78,29.4z M78,25.2
		c0.3,0.1,0.5,0.3,0.7,0.6C78.4,25.7,78.1,25.5,78,25.2z M78.1,15.8h0.3l-0.1,0.3L78.1,15.8z M78.4,38.5c-0.1,0-0.2-0.1-0.3-0.3
		L78.4,38.5z M78.2,9.4c0.1,0,0.2,0.1,0.3,0.3C78.4,9.7,78.3,9.6,78.2,9.4z M78.2,24.8h0.3l-0.2,0.3L78.2,24.8z M79,36.2
		c0.3,0.3,0.4,0.6,0.4,1l0.3,0.8L79,38.2l0.3-0.7l-0.2-0.3c-0.5,0-0.7,0.3-0.8,0.8C78.4,37.4,78.6,36.7,79,36.2z M78.4,8.1h0.3
		l-0.1,0.3L78.4,8.1z M78.7,10.1c-0.1,0-0.2-0.1-0.3-0.3L78.7,10.1z M78.7,12.5l0.6,0.4l-0.6,1l-0.3-1
		C78.5,12.9,78.6,12.7,78.7,12.5z M78.4,18.5l0.4,1C78.6,19.3,78.5,18.9,78.4,18.5z M78.4,23.8h0.7c-0.2,0.1-0.4,0.3-0.6,0.6
		L78.4,23.8z M78.4,33.5c0.1,0.2,0.2,0.4,0.4,0.6C78.7,33.9,78.6,33.7,78.4,33.5z M78.5,13.4h0.3v-0.3h-0.2L78.5,13.4z M78.5,15.7
		c0.1,0,0.2,0.1,0.3,0.3L78.5,15.7z M78.7,16.1H79l-0.2,0.3L78.7,16.1z M78.7,19.7c0.1,0,0.2,0.1,0.3,0.3
		C78.8,19.9,78.7,19.8,78.7,19.7z M79,38.8c-0.1,0-0.2-0.1-0.3-0.3L79,38.8z M78.8,11.5c0.1,0,0.2,0.1,0.3,0.3L78.8,11.5z
		 M79.2,16.4L79,17.2l-0.2-0.7h0.4V16.4z M78.8,25.5c0.1,0,0.2,0.1,0.3,0.3L78.8,25.5z M78.8,27.9c0,0.1,0.1,0.2,0.3,0.3
		C79.1,28.1,79,28,78.8,27.9z M79.1,30.6c-0.1,0-0.2-0.1-0.3-0.3L79.1,30.6z M78.8,35.8c0.1,0,0.2,0.1,0.3,0.3L78.8,35.8z M79.2,7.8
		l0.3,0.7L79,8.7V8.4L79.2,7.8z M79,8.8c0.1,0,0.2,0.1,0.3,0.3L79,8.8z M79,17.4h0.3l-0.2,0.3L79,17.4z M79.2,21.5l0.3,0.8L79,22.5
		C79.1,22.2,79.2,21.9,79.2,21.5z M79.1,24.5l0.7,2.3l-0.6,0.1l-0.2-0.6c0.1,0,0.2-0.1,0.3-0.3H79l0.3-0.1L79.1,24.5z M79.1,17.8
		c0.1,0,0.2,0.1,0.3,0.3C79.3,18.1,79.2,18,79.1,17.8z M79.5,29.8c-0.1,0.1-0.2,0.2-0.4,0.3L79.5,29.8z M79.1,31.2
		c0.1,0.3,0.2,0.7,0.3,1.2C79.3,32.1,79.2,31.7,79.1,31.2z M79.4,38.6c-0.1,0-0.2-0.1-0.3-0.3L79.4,38.6z M79.1,40.2
		c0.1,0,0.2,0.1,0.3,0.3C79.3,40.5,79.2,40.4,79.1,40.2z M79.2,16.8c0.1,0,0.2,0.1,0.3,0.3C79.4,17.1,79.3,17,79.2,16.8z M79.5,20.2
		c-0.1,0-0.2-0.1-0.3-0.3L79.5,20.2z M79.4,8.7c0.1,0,0.2,0.1,0.3,0.3L79.4,8.7z M79.7,17.5c-0.1,0-0.2-0.1-0.3-0.3L79.7,17.5z
		 M79.4,26.5v0.3h0.2v-0.3H79.4z M79.7,33.1l-0.3,0.4l0.6-0.1C79.9,33.3,79.8,33.2,79.7,33.1z M79.5,9.1c0.1,0,0.2,0.1,0.3,0.3
		C79.7,9.4,79.6,9.3,79.5,9.1z M79.5,12.2l0.7,0.1l-0.6,0.1L79.5,12.2z M79.5,14.1h0.3l-0.2,0.3L79.5,14.1z M79.5,40
		c0.3,0.1,0.5,0.3,0.7,0.6C80,40.5,79.7,40.3,79.5,40z M79.7,9.5l0.3,0.7C79.8,10.1,79.7,9.8,79.7,9.5z M79.8,8.5l0.4,0.2l0.3-0.2
		l-0.6,0.7L79.8,8.5z M79.8,28.1l0.1,0.4l0.2-0.3L79.8,28.1z M80.2,21.4c-0.1,0-0.2-0.1-0.3-0.3L80.2,21.4z M79.9,27.4h0.3l-0.2-0.3
		L79.9,27.4z M80.2,31.4l0.4,0.1l-0.7,0.2L80.2,31.4z M79.9,35.1c0.2,0.2,0.3,0.4,0.3,0.7L79.9,35.1z M80.1,9.8
		c0.1,0,0.2,0.1,0.3,0.3L80.1,9.8z M80.1,13c0.1,0,0.2,0.1,0.3,0.3L80.1,13z M80.4,21.8c-0.1,0-0.2-0.1-0.3-0.3L80.4,21.8z
		 M80.2,24.4v-0.3h-0.2L80.2,24.4z M80.1,27.6c0,0.3,0.1,0.5,0.3,0.7C80.4,28.1,80.3,27.8,80.1,27.6z M80.2,10.2
		c0.2,0.2,0.2,0.4,0.3,0.7L80.2,10.2z M80.4,24.8v-0.3h-0.1L80.4,24.8z M80.7,24.8l-0.4,1.7l0.8-1.2C81,25.2,80.9,25,80.7,24.8z
		 M81.1,26.4l-0.8,0.4l0.3,0.1l0.4-0.3l0.3,0.2l0.6-0.4H81.1z M80.2,30.9c0.1,0,0.2,0.1,0.3,0.3C80.4,31.2,80.3,31.1,80.2,30.9z
		 M80.2,39.5h0.3l-0.2,0.3L80.2,39.5z M80.5,28.8v-0.3h-0.2L80.5,28.8z M80.7,33.4c-0.1,0-0.2-0.1-0.3-0.3L80.7,33.4z M80.4,34.9
		c0.1,0,0.2,0.1,0.3,0.3C80.5,35.2,80.5,35.1,80.4,34.9z M80.5,8c0.1,0,0.2,0.1,0.3,0.3L80.5,8z M80.5,16.5c0.1,0,0.2,0.1,0.3,0.3
		C80.7,16.8,80.6,16.7,80.5,16.5z M80.7,27.8v-0.3h-0.1L80.7,27.8z M80.8,33.1l0.3,0.6l-0.6,0.1L80.8,33.1z M80.8,35.6
		c-0.1,0-0.2-0.1-0.3-0.3L80.8,35.6z M80.8,37.4c-0.1,0-0.2-0.1-0.3-0.3L80.8,37.4z M80.7,12c0.1,0,0.2,0.1,0.3,0.3L80.7,12z
		 M80.8,28.2v-0.3h-0.2L80.8,28.2z M80.7,37.5l1.2,0.3c-0.3,0.2-0.6,0.3-1,0.4L80.7,37.5z M81.1,10.8c-0.1,0-0.2-0.1-0.3-0.3
		L81.1,10.8z M80.9,9.1l0.7,0.1l-0.6,0.2L80.9,9.1z M81.1,25.5l-0.2,0.6l0.3,0.2L81.1,25.5z M81.4,27.2l-0.4,0.4
		C81.1,27.6,81.3,27.4,81.4,27.2z M80.9,35.2c0.1,0,0.2,0.1,0.3,0.3C81.1,35.5,81,35.4,80.9,35.2z M81.5,7.7l0.3,0.7l-0.7-0.3
		L81.5,7.7z M81.1,9.5l0.6,0.3C81.5,9.8,81.3,9.7,81.1,9.5z M81.1,27.8c0,0.2,0.1,0.5,0.3,0.7L81.1,27.8z M81.2,29.9v-0.3h-0.2
		L81.2,29.9z M81.2,8.7h0.3L81.4,9L81.2,8.7z M81.2,10.4h0.7l-0.6,0.7L81.2,10.4z M81.2,20.8c0.1,0,0.2,0.1,0.3,0.3
		C81.4,21.1,81.3,21,81.2,20.8z M81.2,23.2c0,0.1,0.1,0.2,0.3,0.3C81.5,23.4,81.4,23.3,81.2,23.2z M81.2,24.6c0,0.2,0.1,0.4,0.3,0.6
		l0.3-0.6H81.2z M81.2,28.6c0,0.3,0.2,0.5,0.4,0.7C81.6,29.1,81.4,28.9,81.2,28.6z M81.4,12.7c0.1,0,0.2,0.1,0.3,0.3
		C81.5,12.9,81.5,12.9,81.4,12.7z M81.5,25.8v-0.3h-0.2L81.5,25.8z M81.7,26.2c0-0.1-0.1-0.2-0.3-0.3C81.4,26,81.5,26.1,81.7,26.2z
		 M81.4,30.4c0,0.2,0.1,0.4,0.2,0.4l0.4-0.4l-0.4,0.1L81.4,30.4z M81.8,17c-0.1,0-0.2-0.1-0.3-0.3L81.8,17z M81.7,29.8v-0.3h-0.1
		L81.7,29.8z M81.8,23.5v-0.3h-0.2L81.8,23.5z M81.8,25.2v-0.3h-0.2L81.8,25.2z M81.8,30.2v-0.3h-0.2L81.8,30.2z M81.8,12.5h0.3
		l-0.2,0.3L81.8,12.5z M81.9,25.6v-0.3h-0.1L81.9,25.6z M81.8,26.1h0.3v-0.3h-0.2L81.8,26.1z M81.8,27.2v0.3l0.3-0.2L81.8,27.2z
		 M81.8,29.6c0.1,0,0.2-0.1,0.3-0.3C82,29.4,81.9,29.5,81.8,29.6z M81.9,9.8c0.1,0,0.2,0.1,0.3,0.3L81.9,9.8z M82.1,22.5v-0.3h-0.2
		L82.1,22.5z M82.1,23v-0.3h-0.2L82.1,23z M81.9,26.5h0.3v-0.3h-0.2L81.9,26.5z M81.9,29.8c0,0.1,0.1,0.2,0.3,0.3
		C82.2,29.9,82.1,29.8,81.9,29.8z M82.2,30.6c-0.2,0.2-0.3,0.5-0.3,0.8C82.1,31.3,82.2,31,82.2,30.6z M82.2,31.9
		c0-0.1-0.1-0.2-0.3-0.3C82,31.7,82.1,31.8,82.2,31.9z M81.9,34.8v0.3l0.3-0.2L81.9,34.8z M82.2,26.9v-0.3h-0.2L82.2,26.9z
		 M82.1,28.5l0.3,0.7l0.2-0.7H82.1z M82.1,35.2v0.3l0.3-0.1L82.1,35.2z M82.2,16.1c0.1,0,0.2,0.1,0.3,0.3L82.2,16.1z M82.4,27.4
		v-0.3h-0.1L82.4,27.4z M82.2,29.5c0.1,0,0.2-0.1,0.3-0.3C82.4,29.3,82.3,29.4,82.2,29.5z M82.2,32.5l0.3,0.7
		C82.5,32.9,82.4,32.7,82.2,32.5z M82.5,24.2v-0.3h-0.2L82.5,24.2z M82.5,24.6v-0.3h-0.2L82.5,24.6z M82.5,31.4v-0.3h-0.2L82.5,31.4
		z M82.5,34.9v-0.3h-0.2L82.5,34.9z M82.7,23.2V23h-0.1L82.7,23.2z M82.8,20.5v-0.3h-0.2L82.8,20.5z M82.8,41.2v-0.3h-0.2L82.8,41.2
		z M82.9,36.2v-0.3h-0.1L82.9,36.2z M82.8,36.4c0,0.1,0.1,0.2,0.3,0.3C83.1,36.5,83,36.4,82.8,36.4z M83.1,37v-0.3h-0.2L83.1,37z
		 M82.9,40.3c0,0.1,0.1,0.2,0.3,0.3C83.2,40.5,83.1,40.4,82.9,40.3z M83.2,37.5v-0.3h-0.2L83.2,37.5z M83.2,41v-0.3h-0.2L83.2,41z
		 M83.4,36.5v-0.3h-0.1L83.4,36.5z M83.7,39.4L83.2,40l0.4-0.1l0.2,0.3h-0.2l-0.3,0.7l0.7,0.3l0.1-0.3L83.7,39.4z M83.5,36.9v-0.3
		h-0.2L83.5,36.9z M84.7,36.8l-1,1c0,0.3-0.1,0.5-0.3,0.9c0.4,0,0.8,0.1,1.2,0.3l0.3,0.6l-0.6,0.1l-0.1-0.1l0.3,1.3l0.8-0.3l0.4-0.8
		l-0.6,0.1l0.4-0.7l1-0.3l0.6,0.6l0.6-0.6c-0.2-0.4-0.4-0.7-0.7-1c0.2,0,0.3-0.1,0.4-0.3l-0.7,0.1l0.4,0.7l-0.7,0.1
		c-0.3-0.1-0.5-0.2-0.7-0.4c-0.2,0.1-0.4,0.3-0.6,0.4c-0.5-0.1-0.8-0.4-1-0.8l1,0.3C85,37.5,84.9,37.1,84.7,36.8z M83.7,37.4V37
		h-0.1L83.7,37.4z M84.2,36.4l-0.6,0.4l0.2,0.2l0.4-0.2c0.2-0.1,0.4-0.2,0.6-0.4l-0.4,0.1L84.2,36.4z M84.4,40.9
		c0,0.1,0.1,0.2,0.3,0.3C84.6,41.1,84.5,41,84.4,40.9z M85.1,41c0-0.1-0.1-0.2-0.3-0.3C84.8,40.9,84.9,41,85.1,41z M85.4,35.9
		l-0.3,0.6l0.6-0.1L85.4,35.9z M85.5,36.5l-0.4,0.4C85.3,36.9,85.5,36.7,85.5,36.5z M85.8,36.9c-0.2,0.1-0.4,0.2-0.6,0.4
		C85.4,37.3,85.6,37.1,85.8,36.9z M85.7,40.5l-0.4,0.4l0.4-0.1l0.2,0.3l0.1-0.6H85.7z M86.1,38c0-0.1-0.1-0.2-0.3-0.3
		C85.8,37.9,85.9,38,86.1,38z M86.1,39.9l0.1-0.1l-0.4-0.1C85.8,39.7,85.9,39.8,86.1,39.9z M85.9,36.4c0,0.1,0.1,0.2,0.3,0.3
		C86.2,36.5,86.1,36.4,85.9,36.4z M86.6,36.6L86.1,37C86.3,37,86.5,36.9,86.6,36.6z M86.1,37.5h0.3v-0.3h-0.2L86.1,37.5z M86.2,37.9
		h0.3v-0.3h-0.2L86.2,37.9z M86.4,39.4V39h-0.2L86.4,39.4z M86.5,39.8c0-0.1-0.1-0.2-0.3-0.3C86.3,39.6,86.4,39.7,86.5,39.8z
		 M86.2,40.9v0.3h0.2v-0.3H86.2z M86.4,36.4v0.3l0.3-0.1L86.4,36.4z M86.4,39.9v0.3l0.3-0.1L86.4,39.9z M86.8,40.6
		c0-0.1-0.1-0.2-0.3-0.3C86.6,40.4,86.6,40.5,86.8,40.6z M86.8,36.2v0.3l0.3-0.1L86.8,36.2z M86.9,39.6v-0.3h-0.1L86.9,39.6z
		 M86.8,39.8c0,0.1,0.1,0.2,0.3,0.3C87.1,39.9,87,39.8,86.8,39.8z M87.4,40.5c-0.3,0.2-0.5,0.5-0.6,0.8l0.4-0.4l1-0.4H87.4z
		 M87.1,36.9v-0.3h-0.2L87.1,36.9z M87.2,37.4c0-0.1-0.1-0.2-0.3-0.3C87,37.1,87.1,37.3,87.2,37.4z M86.9,40.2v0.3l0.3-0.2
		L86.9,40.2z M87.4,36.4v-0.3h-0.2L87.4,36.4z M87.2,39.6c0,0.1,0.1,0.2,0.3,0.3C87.5,39.8,87.4,39.7,87.2,39.6z M87.4,41.3V41h-0.2
		L87.4,41.3z M87.5,36.8v-0.3h-0.2L87.5,36.8z M87.4,37.2h0.3v-0.3h-0.1L87.4,37.2z M87.4,40c0,0.1,0.1,0.2,0.3,0.3
		C87.6,40.2,87.5,40.1,87.4,40z M87.5,37.4c0,0.1,0.1,0.2,0.3,0.3C87.8,37.5,87.7,37.4,87.5,37.4z M87.5,41.2c0.1,0,0.2-0.1,0.3-0.3
		C87.7,41,87.6,41,87.5,41.2z M87.9,36.6v-0.3h-0.1L87.9,36.6z M88.1,38.9v-0.3h-0.2L88.1,38.9z M89.9,36.2
		c-0.2,0.3-0.4,0.5-0.7,0.7l0.3,0.4c-0.3,0-0.5,0.1-0.8,0.3l-0.2-1l-0.4,1l0.7,0.6l-0.2-0.4l0.3,0.2l-0.1,0.8l-0.3,0.7l-0.1,1
		c0.2,0.3,0.5,0.5,0.8,0.8L88.8,40l0.6-0.3c0.3,0.3,0.4,0.7,0.4,1.3l1,0.3l0.1-0.3c-0.2-0.4-0.4-0.9-0.8-1.3
		c-0.3-0.2-0.4-0.5-0.6-0.8l0.3,0.7c0-0.5,0.2-1,0.6-1.4c0.4-0.2,0.6-0.5,0.7-0.8C90.9,36.9,90.5,36.5,89.9,36.2z M88.4,38.4V38
		h-0.2L88.4,38.4z M88.5,36.2l0.3,0.6c0.3,0,0.6-0.1,0.8-0.3L88.5,36.2z M88.6,39h0.3l-0.1,0.3L88.6,39z M88.9,36.1
		c0,0.1,0.1,0.2,0.3,0.3C89.2,36.2,89.1,36.1,88.9,36.1z M89.5,37.5l0.2,1.1l-0.6-0.9L89.5,37.5z M89.1,40.3h0.3V40h-0.2L89.1,40.3z
		 M89.6,40.3l-0.4,0.2l0.2,0.7C89.5,41,89.6,40.7,89.6,40.3z M89.9,37.4c0.1,0,0.2,0.1,0.3,0.3C90.1,37.6,90,37.5,89.9,37.4z
		 M90.1,41.5v-0.3h-0.2L90.1,41.5z M90.5,38.4l-0.4,0.4l0.7,0.3L90.5,38.4z M90.5,39.6v-0.3h-0.1L90.5,39.6z M90.8,38.5h0.3v-0.3
		h-0.2L90.8,38.5z M90.9,39.5v-0.3h-0.1L90.9,39.5z M91.2,39.5l-0.4,0.3l0.4,0.6c0.2,0.4,0.4,0.7,0.7,1l-0.2-1
		C91.7,40.1,91.5,39.8,91.2,39.5z M91.2,8V7.7h-0.1L91.2,8z M91.2,37.2v-0.3h-0.1L91.2,37.2z M91.2,38.9v-0.3h-0.1L91.2,38.9z
		 M91.2,40.8v-0.3h-0.1L91.2,40.8z M91.2,36.4c0,0.1,0.1,0.2,0.3,0.3C91.5,36.5,91.4,36.4,91.2,36.4z M91.2,38.2
		c0.1,0.3,0.3,0.6,0.6,0.8C91.7,38.7,91.5,38.4,91.2,38.2z M91.4,41.2v-0.3h-0.2L91.4,41.2z M91.4,36.8c0,0.1,0.1,0.2,0.3,0.3
		C91.6,36.9,91.5,36.8,91.4,36.8z M91.5,37.2c0,0.1,0.1,0.2,0.3,0.3C91.8,37.4,91.7,37.3,91.5,37.2z M91.8,8.2V8h-0.1L91.8,8.2z
		 M91.6,35.9c0.1,0.3,0.2,0.5,0.4,0.6L91.6,35.9z M92.1,37.5l-0.4,0.4C91.9,37.8,92,37.7,92.1,37.5z M91.9,8.7V8.4h-0.2L91.9,8.7z
		 M92.6,37.8c-0.3,0.1-0.6,0.3-0.9,0.6l0.9-0.2l-0.7,1.3l0.8-0.3l0.3-0.4L92.6,37.8z M92.1,9.5V9.2h-0.2L92.1,9.5z M91.9,40.6
		c0,0.1,0.1,0.2,0.3,0.3C92.2,40.8,92.1,40.7,91.9,40.6z M92.1,41c0,0.1,0.1,0.2,0.3,0.3C92.3,41.2,92.2,41.1,92.1,41z M92.4,40
		c0,0.1,0.1,0.2,0.3,0.3C92.6,40.2,92.5,40.1,92.4,40z M92.4,40.6c0.1,0.2,0.2,0.4,0.4,0.6C92.7,41,92.6,40.8,92.4,40.6z M92.6,9.8
		V9.5h-0.2L92.6,9.8z M92.8,10.2V10h-0.1L92.8,10.2z M92.9,36.8c0-0.1-0.1-0.2-0.3-0.3C92.7,36.6,92.8,36.7,92.9,36.8z M92.8,39.9
		v-0.3h-0.1L92.8,39.9z M92.9,40.3c0-0.1-0.1-0.2-0.3-0.3C92.7,40.1,92.8,40.2,92.9,40.3z M93.1,40.8c0-0.1-0.1-0.2-0.3-0.3
		C92.8,40.6,92.9,40.7,93.1,40.8z M93.1,8V7.7h-0.2L93.1,8z M93.1,11.5v-0.3h-0.2L93.1,11.5z M93.1,39.4V39h-0.2L93.1,39.4z
		 M93.4,36.6c0-0.1-0.1-0.2-0.3-0.3C93.1,36.4,93.2,36.5,93.4,36.6z M93.2,39.8v-0.3h-0.1L93.2,39.8z M93.4,11v-0.3h-0.2L93.4,11z
		 M93.2,38.5c0,0.1,0.1,0.2,0.3,0.3C93.5,38.7,93.4,38.6,93.2,38.5z M93.4,40.2v-0.3h-0.2L93.4,40.2z M93.2,40.3
		c0,0.1,0.1,0.2,0.3,0.3C93.5,40.5,93.4,40.4,93.2,40.3z M93.4,37.2v0.3l0.3-0.1L93.4,37.2z M93.4,38.9c0,0.1,0.1,0.2,0.3,0.3
		C93.6,39.1,93.5,39,93.4,38.9z M93.6,37.9v-0.3h-0.2L93.6,37.9z M93.6,39.6v-0.3h-0.2L93.6,39.6z M93.5,40h0.3v-0.3h-0.1L93.5,40z
		 M93.5,41.2v0.3l0.3-0.1L93.5,41.2z M93.8,8.7V8.4h-0.1L93.8,8.7z M93.8,9.1V8.8h-0.1L93.8,9.1z M93.8,12.2V12h-0.1L93.8,12.2z
		 M93.9,12.7c0-0.1-0.1-0.2-0.3-0.3C93.7,12.5,93.8,12.6,93.9,12.7z M93.9,9.5V9.2h-0.2L93.9,9.5z M93.9,13.1v-0.3h-0.2L93.9,13.1z
		 M93.9,37.4V37h-0.2L93.9,37.4z M93.8,37.8h0.3v-0.3h-0.2L93.8,37.8z M93.8,38.8c0,0.1,0.1,0.2,0.3,0.3C94,39,93.9,38.9,93.8,38.8z
		 M93.8,40.6l0.3,0.7C94,41.1,93.9,40.8,93.8,40.6z M93.9,8.2c0,0.1,0.1,0.2,0.3,0.3C94.2,8.4,94.1,8.3,93.9,8.2z M93.9,39.9h0.3
		v-0.3h-0.1L93.9,39.9z M94.2,9V8.7h-0.1L94.2,9z M94.1,12.2c0,0.1,0.1,0.2,0.3,0.3C94.3,12.4,94.2,12.3,94.1,12.2z M94.2,38.2v-0.3
		h-0.1L94.2,38.2z M94.1,38.4c0,0.2,0.2,0.5,0.4,0.7C94.4,38.8,94.3,38.6,94.1,38.4z M94.1,40c0,0.1,0.1,0.2,0.3,0.3
		C94.3,40.2,94.2,40.1,94.1,40z M94.4,9.4V9.1h-0.2L94.4,9.4z M94.5,9.8c0-0.1-0.1-0.2-0.3-0.3C94.2,9.6,94.3,9.7,94.5,9.8z
		 M94.4,13v-0.3h-0.2L94.4,13z M94.4,14.8v-0.3h-0.2L94.4,14.8z M94.2,36.9c0,0.1,0.1,0.2,0.3,0.3l0.2-0.1L94.2,36.9z M94.2,37.6
		l0.3,0.4v-0.6l-0.1-0.1L94.2,37.6z M94.5,39.5c0-0.1-0.1-0.2-0.3-0.3C94.2,39.3,94.3,39.4,94.5,39.5z M94.2,40.5
		c0,0.1,0.1,0.2,0.3,0.3C94.5,40.7,94.4,40.6,94.2,40.5z M94.6,10.2c0-0.1-0.1-0.2-0.3-0.3C94.4,10.1,94.5,10.2,94.6,10.2z
		 M94.5,13.4v-0.3h-0.1L94.5,13.4z M94.8,9.2V9h-0.1L94.8,9.2z M94.8,11.1v-0.3h-0.1L94.8,11.1z M94.8,12.8v-0.3h-0.1L94.8,12.8z
		 M94.8,14.2V14h-0.1L94.8,14.2z M94.8,7.8c0.1,0.2,0.2,0.3,0.3,0.4L94.8,7.8z M94.9,9.7V9.4h-0.2L94.9,9.7z M94.8,9.8
		c0,0.1,0.1,0.2,0.3,0.3C95,10,94.9,9.9,94.8,9.8z M95.1,12c0-0.1-0.1-0.2-0.3-0.3C94.8,11.8,94.9,11.9,95.1,12z M95.1,8.7V8.4h-0.2
		L95.1,8.7z M94.9,10.2v0.3l0.3-0.1L94.9,10.2z M94.9,14.1h0.3v-0.3h-0.1L94.9,14.1z M95.2,17.8c0-0.1-0.1-0.2-0.3-0.3
		C95,17.6,95.1,17.7,95.2,17.8z M95.1,9.5h0.3V9.2h-0.2L95.1,9.5z M95.2,11v-0.3h-0.1L95.2,11z M95.1,14.2c0,0.1,0.1,0.2,0.3,0.3
		C95.3,14.4,95.2,14.3,95.1,14.2z M95.2,16v-0.3h-0.1L95.2,16z M95.4,8.2V8h-0.2L95.4,8.2z M95.4,15v-0.3h-0.2L95.4,15z M95.6,16.4
		l-0.4,0.4C95.4,16.7,95.6,16.6,95.6,16.4z M95.5,11.8v-0.3h-0.1L95.5,11.8z M95.8,9.5c0-0.1-0.1-0.2-0.3-0.3
		C95.5,9.3,95.6,9.4,95.8,9.5z M95.6,16.2V16h-0.2L95.6,16.2z M95.8,17.2c-0.2,0.2-0.3,0.4-0.3,0.7C95.7,17.8,95.8,17.5,95.8,17.2z
		 M95.8,8.1V7.8h-0.1L95.8,8.1z M95.6,18.2v0.3l0.3-0.1L95.6,18.2z M95.8,8.2v0.3l0.3-0.1L95.8,8.2z M95.9,11.7v-0.3h-0.2L95.9,11.7
		z M95.8,11.8c0,0.1,0.1,0.2,0.3,0.3C96,12,95.9,11.9,95.8,11.8z M95.8,15.7h0.3v-0.3h-0.1L95.8,15.7z M95.9,17.1v-0.3h-0.2
		L95.9,17.1z M95.9,19v-0.3h-0.2L95.9,19z M96.1,9V8.7h-0.1L96.1,9z M95.9,12.2v0.3l0.3-0.1L95.9,12.2z M95.9,15.8
		c0,0.1,0.1,0.2,0.3,0.3C96.2,16,96.1,15.9,95.9,15.8z M95.9,17.7c0,0.1,0.1,0.2,0.3,0.3C96.2,17.8,96.1,17.7,95.9,17.7z M96.1,11.2
		c0,0.1,0.1,0.2,0.3,0.3C96.3,11.4,96.2,11.3,96.1,11.2z M96.2,13v-0.3h-0.2L96.2,13z M96.1,18.1c0,0.1,0.1,0.2,0.3,0.3
		C96.3,18.3,96.2,18.2,96.1,18.1z M96.4,8.4V8.1h-0.2L96.4,8.4z M96.2,13.5c0,0.1,0.1,0.2,0.3,0.3C96.5,13.7,96.4,13.6,96.2,13.5z
		 M96.4,15.2V15h-0.2L96.4,15.2z M96.2,15.4c0.1,0.2,0.2,0.4,0.4,0.6C96.6,15.8,96.4,15.6,96.2,15.4z M96.4,18.8v-0.3h-0.2
		L96.4,18.8z M96.5,19.2c0-0.1-0.1-0.2-0.3-0.3C96.2,19,96.3,19.1,96.5,19.2z M96.5,8.8V8.5h-0.1L96.5,8.8z M96.5,12.4v-0.3h-0.1
		L96.5,12.4z M96.5,9.4c0,0.1,0.1,0.2,0.3,0.3C96.8,9.6,96.7,9.5,96.5,9.4z M96.5,14.4v0.3l0.3-0.1L96.5,14.4z M97.1,13.4
		c-0.1,0-0.2-0.1-0.3-0.3L97.1,13.4z"/>
	<path class="st2" d="M100.8,42.4l1.3,0.2l0.8,0.6l0.7,0.7l0.3,1c0,0.4-0.1,0.8-0.2,1.3c-0.1,0.3-0.3,0.6-0.5,0.8
		c-0.2,0.2-0.5,0.5-0.8,0.7l-1,0.3c-0.4,0-0.8-0.1-1.3-0.2c-0.3-0.1-0.6-0.3-0.8-0.5l-0.7-0.8l-0.3-1.1l0.1-1.2l0.6-0.8l0.8-0.6
		L100.8,42.4z"/>
	<path class="st0" d="M126.4,8.8l13,0.1l1.3-0.1l0.3,0.1h0.5c0.6,0.1,1,0.5,1.2,1.2l0.1,1.8l-0.4,0.1h-1l0.6,0.7
		c0.4,0.4,0.6,0.9,0.6,1.6l-0.5,24.8l-0.1,0.1l0.1,0.4l-0.2,3.9l-0.1,0.2l-0.4,7c0,0.7-0.4,1.1-1.1,1.1l-2.3-0.1
		c-0.6,0-1.3-0.1-2.2-0.2l-20.1-1.3l-1.2,0.1l-0.4-0.1h-0.5l-1-0.2v-3.8l0.4-6.5v-4.4l0.1-0.4v-4.8l0.1-2.1v-2.4l0.1-1.9v-2.4
		l0.2-6.8v-4.4l0.1-0.4l0.1-0.7l1-0.1l0.4,0.1l1.6-0.1l0.4,0.1l1.1-0.1h3.6l1,0.1l0.4-0.1h3V8.8z M115.9,13.2l-0.9,5.7h0.5l0.7-1.7
		c0.5-0.4,1-0.7,1.6-1l2-0.1l2.2,0.2c0.6,0.1,1.3,0.2,2.2,0.2c0.6,0.1,1.3,0.2,2,0.5l-0.8,6.2c0,0.6-0.1,1.3-0.2,2.2l-0.7,6.5
		c-0.1,0.6-0.2,1.3-0.2,2.2l-0.4,2.2c0,0.6-0.1,1.3-0.2,2c0,0.6-0.1,1.4-0.2,2.2l-0.2,2.3c-0.1,0.6-0.2,1.3-0.4,2.1
		c-0.1,0.6-0.5,1-1.1,1.3c-0.3,0.1-0.6,0.1-1,0.1l-0.2-0.1h-0.4v0.5l8.4,1h0.9c-0.2-0.2-0.4-0.4-0.7-0.5c-0.5-0.2-1.1-0.5-1.6-0.8
		l-0.1-0.5l0.1-1.3l0.1-0.4c0-0.6,0.1-1.3,0.2-2l0.7-6.7c0.1-0.6,0.2-1.3,0.2-2.2l1-7.7l0.1-0.4c0-0.7,0.1-1.5,0.2-2.3l0.6-5.4
		l7.4,0.8c0.5,0.2,1.1,0.6,1.6,1l0.9,1.6c0.1,0.4,0.3,0.8,0.6,1.1v-0.6l0.2-2.2c0-0.6,0.1-1.3,0.2-2.2c-0.2-0.6-0.7-0.9-1.4-1
		l-1.8-0.1l-0.4-0.1c-0.6,0-1.3-0.1-2.2-0.2l-6.5-0.7c-0.6-0.1-1.4-0.2-2.2-0.2l-2-0.4c-0.6,0-1.3-0.1-2.2-0.2L115.9,13.2z"/>
	<path class="st2" d="M146.4,42.4l1.3,0.2l0.8,0.6l0.7,0.7l0.3,1c0,0.4-0.1,0.8-0.2,1.3c-0.1,0.3-0.3,0.6-0.5,0.8
		c-0.2,0.2-0.5,0.5-0.8,0.7l-1,0.3c-0.4,0-0.8-0.1-1.3-0.2c-0.3-0.1-0.6-0.3-0.8-0.5l-0.7-0.8l-0.3-1.1l0.1-1.2l0.6-0.8l0.8-0.6
		L146.4,42.4z"/>
</g>
</svg>
