<?xml version="1.0" encoding="utf-8"?>
<!-- Generator: Adobe Illustrator 22.0.1, SVG Export Plug-In . SVG Version: 6.00 Build 0)  -->
<svg version="1.1" id="Capa_1" xmlns="http://www.w3.org/2000/svg" xmlns:xlink="http://www.w3.org/1999/xlink" x="0px" y="0px"
	 viewBox="0 0 168 57" style="enable-background:new 0 0 168 57;" xml:space="preserve">
<style type="text/css">
	.st0{fill:#FFFFFF;}
	.st1{fill:#FFAA24;}
</style>
<g>
	<g>
		<path class="st0" d="M25.6,12.2l0.5,7.7h-0.5c-0.7-2.3-1.7-4-3-5c-1.3-1-2.8-1.5-4.6-1.5c-1.5,0-2.9,0.4-4.1,1.1
			c-1.2,0.8-2.2,2-2.9,3.7c-0.7,1.7-1,3.8-1,6.3c0,2.1,0.3,3.8,1,5.3c0.7,1.5,1.7,2.7,3,3.5s2.8,1.2,4.5,1.2c1.5,0,2.8-0.3,3.9-0.9
			c1.1-0.6,2.4-1.9,3.7-3.8l0.5,0.3c-1.1,2-2.5,3.5-4,4.4c-1.5,0.9-3.3,1.4-5.4,1.4c-3.8,0-6.7-1.4-8.8-4.2
			c-1.5-2.1-2.3-4.5-2.3-7.3c0-2.3,0.5-4.4,1.5-6.3c1-1.9,2.4-3.4,4.2-4.4c1.8-1,3.7-1.6,5.8-1.6c1.6,0,3.3,0.4,4.9,1.2
			c0.5,0.2,0.8,0.4,1,0.4c0.3,0,0.6-0.1,0.8-0.3c0.3-0.3,0.5-0.7,0.6-1.3H25.6z"/>
		<path class="st0" d="M34.2,11.6v20.4c0,1,0.1,1.6,0.2,1.9c0.1,0.3,0.4,0.6,0.6,0.7c0.3,0.2,0.8,0.2,1.6,0.2v0.6h-7.5v-0.6
			c0.7,0,1.2-0.1,1.4-0.2c0.3-0.1,0.5-0.4,0.6-0.7c0.1-0.3,0.2-1,0.2-1.9V18c0-1.7,0-2.8-0.1-3.2c-0.1-0.4-0.2-0.7-0.4-0.8
			c-0.2-0.1-0.4-0.2-0.7-0.2c-0.3,0-0.7,0.1-1.1,0.3l-0.3-0.6l4.6-1.9H34.2z"/>
		<path class="st0" d="M47.1,33.2c-1.6,1.2-2.6,1.9-3,2.1c-0.6,0.3-1.2,0.4-1.9,0.4c-1.1,0-1.9-0.4-2.6-1.1c-0.7-0.7-1-1.7-1-2.9
			c0-0.7,0.2-1.4,0.5-1.9c0.5-0.8,1.3-1.5,2.4-2.1c1.1-0.7,3-1.5,5.7-2.4v-0.6c0-1.5-0.2-2.6-0.7-3.2s-1.2-0.9-2.1-0.9
			c-0.7,0-1.3,0.2-1.7,0.6C42.2,21.6,42,22,42,22.5l0,1c0,0.5-0.1,0.9-0.4,1.2c-0.3,0.3-0.6,0.4-1,0.4c-0.4,0-0.8-0.1-1-0.4
			c-0.3-0.3-0.4-0.7-0.4-1.2c0-1,0.5-1.8,1.5-2.6c1-0.8,2.4-1.2,4.1-1.2c1.4,0,2.5,0.2,3.4,0.7c0.7,0.3,1.1,0.9,1.5,1.6
			c0.2,0.5,0.3,1.5,0.3,3v5.2c0,1.5,0,2.4,0.1,2.7c0.1,0.3,0.1,0.6,0.3,0.7c0.1,0.1,0.3,0.2,0.4,0.2c0.2,0,0.3,0,0.5-0.1
			c0.2-0.1,0.7-0.6,1.4-1.2v0.9c-1.3,1.7-2.4,2.5-3.6,2.5c-0.5,0-1-0.2-1.3-0.6C47.3,34.8,47.1,34.1,47.1,33.2z M47.1,32.1v-5.9
			c-1.7,0.7-2.8,1.1-3.3,1.4c-0.9,0.5-1.5,1-1.9,1.5c-0.4,0.5-0.6,1.1-0.6,1.8c0,0.8,0.2,1.5,0.7,2c0.5,0.5,1,0.8,1.7,0.8
			C44.6,33.8,45.8,33.2,47.1,32.1z"/>
		<path class="st0" d="M63.6,19.6v5.2H63c-0.4-1.6-1-2.8-1.6-3.4c-0.7-0.6-1.5-0.9-2.5-0.9c-0.8,0-1.4,0.2-1.9,0.6
			c-0.5,0.4-0.7,0.9-0.7,1.4c0,0.6,0.2,1.2,0.5,1.6c0.3,0.5,1.1,0.9,2.1,1.5l2.4,1.2c2.3,1.1,3.4,2.6,3.4,4.4c0,1.4-0.5,2.5-1.6,3.4
			s-2.2,1.3-3.5,1.3c-0.9,0-2-0.2-3.2-0.5c-0.4-0.1-0.7-0.2-0.9-0.2c-0.3,0-0.5,0.1-0.6,0.4h-0.6v-5.5h0.6c0.3,1.6,0.9,2.7,1.8,3.5
			c0.9,0.8,1.9,1.2,3,1.2c0.8,0,1.4-0.2,1.9-0.7c0.5-0.5,0.7-1,0.7-1.6c0-0.8-0.3-1.4-0.8-1.9c-0.5-0.5-1.6-1.2-3.2-2
			c-1.6-0.8-2.7-1.5-3.2-2.2c-0.5-0.6-0.8-1.4-0.8-2.4c0-1.3,0.4-2.3,1.3-3.2c0.9-0.8,2-1.3,3.4-1.3c0.6,0,1.3,0.1,2.2,0.4
			c0.6,0.2,0.9,0.3,1.1,0.3c0.2,0,0.3,0,0.4-0.1c0.1-0.1,0.2-0.3,0.4-0.5H63.6z"/>
		<path class="st0" d="M77,19.6v5.2h-0.6c-0.4-1.6-1-2.8-1.6-3.4c-0.7-0.6-1.5-0.9-2.5-0.9c-0.8,0-1.4,0.2-1.9,0.6
			c-0.5,0.4-0.7,0.9-0.7,1.4c0,0.6,0.2,1.2,0.5,1.6c0.3,0.5,1.1,0.9,2.1,1.5l2.4,1.2c2.3,1.1,3.4,2.6,3.4,4.4c0,1.4-0.5,2.5-1.6,3.4
			s-2.2,1.3-3.5,1.3c-0.9,0-2-0.2-3.2-0.5c-0.4-0.1-0.7-0.2-0.9-0.2c-0.3,0-0.5,0.1-0.6,0.4h-0.6v-5.5h0.6c0.3,1.6,0.9,2.7,1.8,3.5
			c0.9,0.8,1.9,1.2,3,1.2c0.8,0,1.4-0.2,1.9-0.7c0.5-0.5,0.7-1,0.7-1.6c0-0.8-0.3-1.4-0.8-1.9c-0.5-0.5-1.6-1.2-3.2-2
			c-1.6-0.8-2.7-1.5-3.2-2.2c-0.5-0.6-0.8-1.4-0.8-2.4c0-1.3,0.4-2.3,1.3-3.2c0.9-0.8,2-1.3,3.4-1.3c0.6,0,1.3,0.1,2.2,0.4
			c0.6,0.2,0.9,0.3,1.1,0.3c0.2,0,0.3,0,0.4-0.1c0.1-0.1,0.2-0.3,0.4-0.5H77z"/>
		<path class="st0" d="M85.7,19.6v12.3c0,1,0.1,1.6,0.2,1.9c0.1,0.3,0.3,0.6,0.6,0.7c0.3,0.2,0.8,0.2,1.5,0.2v0.6h-7.5v-0.6
			c0.7,0,1.3-0.1,1.5-0.2c0.3-0.1,0.5-0.4,0.6-0.7c0.2-0.3,0.2-1,0.2-1.9V26c0-1.7-0.1-2.7-0.2-3.2c-0.1-0.4-0.2-0.6-0.4-0.7
			c-0.2-0.1-0.4-0.2-0.7-0.2c-0.3,0-0.7,0.1-1.1,0.3l-0.2-0.6l4.6-1.9H85.7z M84.3,11.6c0.5,0,0.9,0.2,1.2,0.5
			c0.3,0.3,0.5,0.7,0.5,1.2c0,0.5-0.2,0.9-0.5,1.2c-0.3,0.3-0.7,0.5-1.2,0.5c-0.5,0-0.9-0.2-1.2-0.5c-0.3-0.3-0.5-0.7-0.5-1.2
			c0-0.5,0.2-0.9,0.5-1.2C83.4,11.7,83.8,11.6,84.3,11.6z"/>
		<path class="st0" d="M103,29.6c-0.4,2-1.2,3.6-2.4,4.7s-2.5,1.6-4,1.6c-1.7,0-3.3-0.7-4.6-2.2c-1.3-1.5-1.9-3.4-1.9-5.9
			c0-2.4,0.7-4.4,2.2-5.9s3.2-2.3,5.2-2.3c1.5,0,2.7,0.4,3.7,1.2c1,0.8,1.5,1.6,1.5,2.5c0,0.4-0.1,0.8-0.4,1
			c-0.3,0.3-0.7,0.4-1.1,0.4c-0.7,0-1.2-0.2-1.5-0.6c-0.2-0.2-0.3-0.7-0.4-1.3c-0.1-0.7-0.3-1.2-0.7-1.5c-0.4-0.3-0.9-0.5-1.6-0.5
			c-1.1,0-2,0.4-2.7,1.2c-0.9,1.1-1.4,2.5-1.4,4.3c0,1.8,0.4,3.5,1.3,4.9c0.9,1.4,2.1,2.1,3.6,2.1c1.1,0,2.1-0.4,3-1.1
			c0.6-0.5,1.2-1.4,1.8-2.8L103,29.6z"/>
	</g>
	<g>
		<g>
			<path class="st1" d="M107.1,36.3l-0.2,0l-0.2-0.1l0-0.2l0.1-0.1l0.2,0.1l0,0.1L107.1,36.3z M126.5,44l-0.2,0.2l-0.4,0.1l-0.1-0.2
				l-0.2-0.4l-0.2-0.7l-0.3-0.7l-0.4-1.2l-0.2-1.1l0-0.8l-0.2-0.5L124,37l-0.3-0.6l-0.2-0.9l-0.3-0.9l-0.3-0.4l-0.7-1.2l-0.1-0.6
				l-0.6-0.7l-0.9-0.4l-1-0.1l-1.1,0l-0.8,0.2l-0.9,0.6l-0.8,0.2l-0.2,0.3l-0.7,0.3l-1.4,0.5l-0.3,0.2l-0.4,0.9l-0.1,0.6l-0.4,0.3
				l-0.1,0.8l-0.3,0.8l-0.1,1.3l-0.3,0.9l-0.4,0.9l-0.6,0.7l-0.6,0.5l-0.9,0.6l-0.8,0l-0.7-0.1l-0.2-0.2l-0.4-0.1l-0.2-0.4l-0.2-0.2
				l0.1-0.4l-0.2-0.4l0.2-0.9l0.3-0.5L107,38l0.2-0.3l0.3-0.1l0.1-0.4l0.5-0.1l0.2-0.4l0.4-0.5l0.4-0.1l0.5-0.7l0.3-0.9l0.2-0.1
				l0-0.6l0.3-0.9l0.1-0.6l-0.2-0.9l-0.1-0.8l0.1-0.9l0.1-0.6l0.2-0.1l0-0.3l0-0.2l0.8-0.7l0.1-0.3l0.4-0.3l0.6-0.7l0.7-0.7l0.2-0.6
				l0.1-0.4l0-0.4l0.4-1.1l0.4-1l0.6-1.3l0.2-0.7l0.2-0.3l0.2-1.2l0.1-1l0.3-1l0.5-0.7l0.4-0.6l0.4-0.2l0.2-0.6l0.4-0.3l0.2-0.3
				l-0.1-0.3l0.2-0.6l-0.2-0.8l0.2-0.7l-0.2-0.4l0.2-0.5l0.3,0.1l0.5-0.3l0.3,0l0.3-0.3l0.7,0L121,11l0.4,0.9l0.2,0.2l0.2,0.7
				l0.3,0.9l0,0.8l0.2,0.9l0.4,0.8l0,0.4l0.3,0.5l0.1,0.5l0.3,0.6l-0.1,0.5l0.2,0.9l0,0.4l0.2,0.5l0.1,0.8l0.2,0.7l-0.1,1.1l0,0.8
				l0.1,1.1l-0.1,0.4l0.1,0.6l0.1,1.1l0.1,1l-0.1,0.8l0.1,0.6l0.5,0.5l0.7,0.4l0.9,0.1l0.8,0.2l0.8,0.3l0.1,0.3l0.1,0.3l-0.2,0.1
				l-0.2,0.2l-0.4,0.3l-0.5,0l-0.2,0.2l-0.7,0l-0.8,0.2l-0.4,0.2l-0.1,0.5l0,0.7l0.2,0.7l0.2,0.7l0.1,0.9l0.1,0.6l0.1,0.9l0.2,0.8
				l0.3,1l0.2,0.8l-0.1,1.2l0.2,0.2l0.2,0.7l0.2,0.7l-0.1,0.4l0.2,0.3L126.5,44z M106.8,42.2l-0.1,0.2l-0.3-0.1l-0.1-0.3l0.2,0
				l0.3,0.1L106.8,42.2z M112,25.9l-0.1,0.2l-0.2,0.1l-0.2-0.2l0-0.2l0.3-0.2l0.3,0l0,0.1L112,25.9z M121.1,28.4l-0.1-0.5l-0.3-0.9
				l0.1-0.8l-0.1-0.4l-0.1-0.5l-0.2-0.5l0.3-1.1l-0.4-0.9l0.2-0.3l-0.1-0.6l0-1.6l-0.2-0.8l0.1-0.6l-0.4-0.7l-0.1-0.4l-0.3-1
				l-1.1,0.7l0,0.6l-0.4,0.4l-0.1,0.5l-0.1,0.3l-0.3,0.9l-0.2,0.8l0,0.2l-0.3,0.3l-0.1,0.6l-0.3,1.2l-0.1,0.6l-0.3,0.5l0,0.6
				l-0.4,0.6l0.3,0.6l0.9,0.7l1,0.6l0.8,0.7l0.4,0.4l0.8,0.3l0.6,0l0.2-0.1L121.1,28.4z M119,28.1l-0.3,0l-0.2-0.2l0.1-0.2l0.2,0
				l0.1-0.1l0.1,0.1L119,28.1z M128.6,31.2l-0.1,0.2l-0.2,0.1l-0.1,0l0-0.1l0.1-0.2l0.1,0L128.6,31.2z M126.2,45.6c0,0-0.1,0-0.2,0
				l-0.1-0.1l0-0.1l0.2-0.1l0.2,0.1L126.2,45.6z"/>
			<path class="st1" d="M150.4,20l-0.4,0.1l-0.3-0.1l-0.9-0.3l-1.2-0.4l-1.4-0.3l-1.8-0.2l-1.9-0.1l-1.7-0.3l-1.5,0l-1.2,0l-1.4,0.2
				l-1,0.1l-1,0l-0.4,0.3l-0.7,0.2l-0.8,0.3l-0.9,0.1l-1.2-0.1l-1.2-0.2l-1-0.6l-0.5-0.5l-0.5-0.6l-0.5-0.6l0-0.6l0.2-0.7l0.5-0.5
				l0.4-0.3l0.6-0.1l1-0.3l0.9-0.1l1.4,0.1l1.5,0.3l1.8,0.5l1.9,0.4l2,0.3l1.7,0.3l0.7,0l0.9,0.3l1.1,0l1.1,0.4l1,0.2l0.9,0.3
				l1.7,0.6l0.8,0.2l1.3,1l0.1,0.4L150.4,20z M134.4,12.1l-0.3,0.3l-0.3-0.4l0.3-0.4l0.4,0.2L134.4,12.1z M138.3,21.4l-0.3,0.3
				l-0.3,0.9l-0.2,0.8l-0.3,1l-0.2,0.9l-0.2,0.7l-0.3,0.6l0.1,0.5l-0.4,0.5l-0.2,0.7l-0.1,0.7l-0.3,0.8l-0.3,1l-0.2,0.7l-0.1,0.9
				l-0.4,1l-0.2,1l-0.2,0.8l-0.2,1l-0.1,1.1l-0.3,1l-0.2,1.1l-0.3,1l-0.1,0.9l-0.2,1l-0.1,0.9l-0.2,0.9l-0.4,0.2l0-0.2l0-0.4
				l0.2-0.7l0.2-0.8l-0.1-0.5l0.2-0.8l0-0.5l0-0.7l0.4-2.2l0-0.7l0.2-0.8l0.1-0.9l0.2-1l0.1-0.9l0.2-0.9l0.3-0.9l0.2-1.2l0.1-1.2
				l0.4-1.9l0.1-0.7l0.3-0.6l0.2-0.8l0.2-1.1l-0.2-1.1l0-1l-0.2-0.8l0.1-0.7l0.1-0.6l0.4-0.4l0.6-0.4l0.7,0l0.5,0.3l0.5,0.6l0.4,0.7
				L138.3,21.4z"/>
			<path class="st1" d="M162.8,52.5l-0.1,0.1l-0.3-0.1l-0.3-0.2l-0.4-0.3l-1-1.1l-0.7-0.9l-0.6-1.2l-0.5-1l-0.4-1l-0.5-0.8l-0.7-1.3
				l-0.9-1.2l-0.8-1.1l-0.6-1.1l-0.9-1.5l-0.6-1.3l-0.6-1.2l-0.6-1.1l-0.8-1l-0.9-0.8l-1-0.2l-0.2,0.6l-0.5,1l-0.6,1.6l-0.2,1
				l-0.4,0.8L147,41l-0.3,1.3l-0.2,0.8l-0.5,1.8l-0.1,0.4l0.1,0.4l0.3,0.5l0.1,0.6l-0.2,0.3l-0.3,0.3l-0.4,0.1l-0.4-0.2L145,47
				l-0.1-0.4l-0.4-1l0.1-1.1l0.3-1.3l0.5-2.1l0.4-0.8l0.2-0.5l0.2-1.1l0.3-0.6l0.3-0.6l0.2-0.7l0.4-0.9l0.3-1l0.4-1.1l0.3-1.2
				l0.4-0.7l0.2-0.8l0.2-1l0.3-1l0.3-1.1l0.9-2.2l0.3-0.8l0.2-0.8l0.3-1.2l0.5-0.7l0.4-0.7l0-0.8l0.3-0.8l-0.2-0.9l0.3-0.7l0.5-0.6
				l0.9,0.1l1.1-0.4l0.9,0l1.3,0.2l1.3,0.3l1.4,0.4l0.7,0.4l0.6,0.4l0.5,0.6l0.6,0.8l0.3,0.9l0.3,0.9l0.2,1.2l-0.1,0.7l0.2,0.9
				l-0.2,1l0,0.5l-0.3,1l-0.3,0.8l-0.3,0.9l-0.2,0.9l-0.3,0.7l-0.6,0.9l-0.8,0.6l-0.7,0.3l-0.8,0.4l-0.7,0.2l-0.7,0.3l-0.2,0.8
				l0.1,0.7l0.1,0.7l0,0.7l0.3,1.6l0.6,1.7l0.3,0.8l0.2,1l0.4,1.3l0.2,0.8l0.4,1l0.1,1l0.2,0.9l0.4,1l0.3,0.8l0.5,1l0.7,1l0.5,0.7
				l0.3,0.6l0.1,0.3L162.8,52.5z M158.7,26l-0.1-1l0.4-0.9l-0.1-0.4l0.3-1.6l-0.3-0.8l-0.8-0.4l-0.7-0.4l-0.4,0.1l-0.3-0.1l-1.5,0.2
				l-0.3,0.4l-0.3,0.5l-0.3,0.7l-0.4,0.9l-0.2,0.8l-0.9,2.2l-0.7,1l-0.5,0.9l-0.3,1l0,0.5l-0.2,0.7l0.4,0.5l0.6,0.3l0.6-0.2l1.1-0.1
				l1.4,0l0.8-0.4l0.9-0.5l0.4-0.6l-0.1-0.4l0.2-0.4l0.2-0.8l0.2-0.7L158.7,26z M150.6,37.9l-0.1,0.3l-0.3-0.2l0-0.2l0.4-0.2
				L150.6,37.9z M158.6,24.7l-0.4,0.1l-0.2-0.3l0.3-0.3l0.3,0.2L158.6,24.7z"/>
		</g>
	</g>
</g>
</svg>
