<?xml version="1.0" encoding="utf-8"?>
<!-- Generator: Adobe Illustrator 22.0.1, SVG Export Plug-In . SVG Version: 6.00 Build 0)  -->
<svg version="1.1" id="Capa_1" xmlns="http://www.w3.org/2000/svg" xmlns:xlink="http://www.w3.org/1999/xlink" x="0px" y="0px"
	 viewBox="0 0 168 57" style="enable-background:new 0 0 168 57;" xml:space="preserve">
<style type="text/css">
	.st0{fill:#FFFFFF;}
	.st1{fill:#FFAA24;}
	.st2{fill:#E58E00;}
	.st3{fill:none;stroke:#FFFFFF;stroke-width:0.8242;stroke-linecap:round;stroke-miterlimit:10;}
</style>
<g>
	<g>
		<path class="st2" d="M41.6,25.3c0,0.8-0.1,1.6-0.1,2.4c-0.2,1.6-1.7,2.8-3.1,2.8c-1.2,0-2.2-0.8-2.2-2.9v-0.2
			c0.1-1.2,0.1-2.6,0.1-3.9c0-3.8-0.5-7.5-3.1-7.5h0c-3.5,0-5.2,7.6-5.2,14.8c0,6.6,1.4,13,4.2,13.1h0.1c1.3,0,3.1-0.8,3.3-3.8
			c0.1-1.2,1.1-1.7,2.1-1.7s1.9,0.6,1.9,1.7v0.1c-0.1,1.7-1.8,6-7.5,6.2c-6.5-0.1-9.9-8.2-9.9-16.2c0-8.1,3.5-16.2,11.2-16.2h0.2
			C39.4,13.8,41.6,19.7,41.6,25.3z"/>
		<path class="st2" d="M48.5,17.5c1,0,2,0.4,2.4,1c0.6,1.2,0.9,2.8,0.9,4.7c0,3.7-0.9,8.3-0.9,11.8c0,2.8,0.6,4.8,2.7,4.8h0.1
			c2,0,3.1-3.2,3.2-5.3c0.2-2.2,0.9-10.5,0.9-14.4c0-0.4,0-0.7,0-1v0c0-0.7,0.7-1,1.5-1c0.9,0,2,0.4,2.3,1.1c0.5,1.2,0.7,3.4,0.7,6
			c0,6.2-1.2,14.6-2.8,16.8c-0.3,0.4-0.6,0.6-1.1,0.8c-0.2,0.1-0.3,0.1-0.5,0.1c-1,0-1.1-1.4-1.1-2.5c0-0.4,0-0.7,0-1
			c-1,1.5-2.8,2.2-4.6,2.2c-1.9,0-3.9-0.9-5.1-2.6c-1.4-2.1-2-7.1-2-11.7c0-3.6,0.4-7,1.1-8.7C46.5,17.9,47.4,17.5,48.5,17.5z"/>
		<path class="st2" d="M75.2,14.1c0.7,0,1.6,0.1,2.5,0.6c3.1,1.4,4.6,4.7,4.6,8.1c0,4.5-2.6,9.2-7.4,10.5c3.1,0.6,6.1,1.7,6.9,4.8
			c0.1,0.5,0.2,1,0.2,1.5c0,3.4-3,6.1-7,6.1c-0.9,0-1.8-0.1-2.7-0.4c-0.2-0.1-0.3-0.1-0.4-0.1s-0.3,0.1-0.5,0.3
			c-0.2,0.2-1.2,0.6-2.2,0.6c-1.1,0-2.2-0.4-2.5-1.7c-1.3-4.6-1.8-10.4-1.8-16.8c0-3.8,0.2-7.7,0.4-11.8c0.2-1.6,1.9-2.2,3.6-2.2
			c1.6,0,3.2,0.6,3.2,1.3v0.1C72.3,14.9,73.5,14.1,75.2,14.1z M74.1,35.3c-0.1,0-0.3,0-0.5,0c-0.8,0-2.1,0.2-2.1,1.4v0
			c0,0.3,0,0.6,0,0.9c0,1.6,0.2,3.3,0.3,5c0,1.1,1.4,1.4,2.5,1.5h0.4c2.1,0,3.5-1.4,3.5-4.4C78.1,38,77,35.6,74.1,35.3z M78,21.7
			c0-2.9-1-5.3-3.1-5.5h-0.2c-1.2,0-2.6,0.5-2.7,1.2c-0.2,1.2-0.4,7.3-0.4,11.6c0,1.2,0,2.3,0.1,3.1v0.1c0,0.1,0.2,0.2,0.4,0.2
			c0.3,0,0.7-0.1,0.9-0.2C76.2,30.3,78,25.5,78,21.7z"/>
		<path class="st2" d="M88.1,41.7c-1,0-2.1-0.6-2.3-1.9c-0.3-1.6-0.5-3.4-0.5-5.3c0-7,2.2-14.6,5.1-17.2c0.8-0.7,1.8-1.1,2.8-1.1
			c0.9,0,1.8,0.3,2.6,1c2.8,2.5,3.6,9.3,3.6,15.2c0,2.8-0.2,5.4-0.4,7.2c-0.1,0.9-1,1.6-1.8,1.6c-0.6,0-1.1-0.3-1.2-1.1
			c0-1.5,0.1-2.7,0.1-4.1c0-0.4,0-0.8,0-1.3v0c0-0.5-1.4-0.9-2.8-0.9c-0.8,0-1.7,0.1-2.3,0.5c-0.2,0.1-0.3,0.5-0.3,0.7
			c0,0.2-0.1,1.9-0.1,3.4c0,0.6,0,1.2,0.1,1.7C90.3,41.1,89.2,41.7,88.1,41.7z M90.8,31.1v0.5c0,0.3,0.1,0.3,0.4,0.3
			c0.5,0,2.1-0.1,3.3-0.1c0.7,0,1.3,0,1.5,0.1c0,0,0.1,0,0.1,0c0.1,0,0.2-0.1,0.2-0.3c0-0.5,0-1.1,0-1.7c0-3.3-0.3-7.8-1.2-9.4
			c-0.3-0.4-0.8-0.7-1.3-0.7c-0.5,0-1,0.2-1.2,0.8C91.2,23.3,90.8,28.4,90.8,31.1z"/>
		<path class="st2" d="M121.2,14c1.2,0,2.3,0.9,2.6,2.4c0.2,0.8,0.3,2.5,0.3,4.7c0,7.2-1.2,19.6-5.1,19.6h-0.2
			c-4.4-0.5-8-15.6-8.8-16.2c-0.1,0.8-0.2,16.1-1.5,19c-0.5,1.1-1.2,1.6-1.9,1.6c-0.9,0-1.8-0.8-2.1-2c-1-3.2-1.5-8.6-1.5-13.9
			c0-4.8,0.4-9.6,1.2-12.3c0.2-0.8,1.4-2,2.7-2c0.9,0,1.9,0.6,2.8,2.2c2.8,5.5,4.8,11.3,7.5,18.3c0,0,0.7-15.4,1.4-19
			C119,14.8,120.1,14,121.2,14z"/>
		<path class="st2" d="M126.7,28.6c0-6,2.2-12.1,7.3-12.1h0.2c4.2,0.1,6.4,5.5,6.4,11.2c0,6.2-2.6,12.6-7.8,12.6h-0.1
			C128.8,40.2,126.7,34.5,126.7,28.6z M132.6,20.2c-1.9,0-3.2,4.7-3.2,9c0,3.6,0.8,6.9,2.8,6.9h0.1c1.8,0,2.9-4.6,2.9-8.8
			C135.1,23.7,134.3,20.3,132.6,20.2L132.6,20.2z"/>
	</g>
	<path class="st3" d="M22.3,18.1c0.2-2.5,1.5-4.8,3.5-6.3s4.6-2.1,7-1.7"/>
	<path class="st3" d="M22.2,11.2c0.2-1.6,1.2-3,2.6-3.8c1.4-0.8,3.1-0.9,4.6-0.3"/>
	<path class="st3" d="M103.9,45.6c0.2,0.9,1,1.5,1.9,1.7c2,0.5,4.3-0.7,5-2.7"/>
	<path class="st3" d="M105.4,49.4c0.7,0.6,1.5,1,2.4,0.9c0.9-0.1,1.7-0.6,2-1.4"/>
	<path class="st3" d="M118.8,11.8c0.5-0.7,1.5-1.1,2.4-1c0.9,0.2,1.6,0.9,1.8,1.8"/>
	<path class="st3" d="M119.1,8.5c0.4-0.6,1.2-1,1.9-1c0.8,0.1,1.5,0.6,1.7,1.3"/>
	<path class="st3" d="M56.9,44.7c0.6,0.5,1.4,0.7,2.2,0.5c0.7-0.2,1.3-0.9,1.5-1.6"/>
	<path class="st3" d="M58.5,47.1c0.5,0.3,1.1,0.4,1.6,0.2c0.5-0.2,0.9-0.6,1.1-1.2"/>
	<path class="st3" d="M65.9,11.9c1.7-1.3,4.1-1.4,5.9-0.4"/>
	<path class="st3" d="M66.9,8.8c1.7-0.7,3.7-0.5,5.2,0.6"/>
	<path class="st3" d="M142.4,22c1.4,3.8,1.3,8.2-0.4,11.9"/>
	<path class="st3" d="M145.8,25.5c0.4,2.4,0.1,4.9-0.9,7.2"/>
</g>
</svg>
