<?xml version="1.0" encoding="utf-8"?>
<!-- Generator: Adobe Illustrator 22.0.1, SVG Export Plug-In . SVG Version: 6.00 Build 0)  -->
<svg version="1.1" id="Capa_1" xmlns="http://www.w3.org/2000/svg" xmlns:xlink="http://www.w3.org/1999/xlink" x="0px" y="0px"
	 viewBox="0 0 168 57" style="enable-background:new 0 0 168 57;" xml:space="preserve">
<style type="text/css">
	.st0{fill:#FFFFFF;}
	.st1{fill:#FFAA24;}
</style>
<g>
	<path class="st0" d="M17.4,14c2.2,0,4.2,0.4,6,1.1c1.8,0.7,3.3,1.7,4.6,2.9c1.3,1.3,2.2,2.7,2.9,4.5c0.7,1.7,1,3.6,1,5.7
		c0,1.3-0.1,2.6-0.4,3.8c-0.3,1.2-0.6,2.4-1.1,3.5c-0.5,1.1-1.1,2.1-1.8,3c-0.7,0.9-1.5,1.7-2.3,2.3c-0.9,0.6-1.8,1.1-2.9,1.5
		c-1,0.4-2.1,0.5-3.3,0.5c-1.2,0-2.4-0.1-3.6-0.3c-1.2-0.2-2.4-0.5-3.6-0.7c-0.4,0.2-0.8,0.4-1.3,0.6c-0.4,0.2-0.9,0.3-1.3,0.4
		c-0.4,0.1-0.9,0.2-1.3,0.3C8.6,43,8.2,43,7.9,43c-1.1,0-2-0.1-2.5-0.4c-0.6-0.3-0.9-0.6-0.9-1.1c0-0.3,0.1-0.6,0.2-0.8
		c0.2-0.2,0.4-0.4,0.8-0.6C5.9,40,6.4,39.8,7,39.8c0.6-0.1,1.4-0.1,2.2-0.1c0.7,0,1.4,0,2.1,0.1c0.7,0.1,1.3,0.2,2,0.3l0.4-0.5
		c0.2-0.3,0.4-0.6,0.5-1.1c0.1-0.4,0.2-1,0.3-1.7c0.1-0.7,0.1-1.5,0.1-2.5c0-1,0-2.2,0-3.6c0-1.3,0-2.5,0-3.5c0-1,0.1-1.8,0.1-2.5
		c0.1-0.7,0.2-1.3,0.3-1.8c0.1-0.5,0.3-0.9,0.5-1.3c0.2-0.4,0.5-0.8,0.9-1.2c0.3-0.4,0.8-0.8,1.2-1.4l0.8,0.7
		c-0.2,0.2-0.4,0.5-0.6,0.9c-0.1,0.3-0.2,0.7-0.3,1.2c-0.1,0.5-0.1,1-0.1,1.6c0,0.6,0,1.2,0,2v9.3c0,0.7-0.1,1.3-0.2,1.9
		c-0.2,0.5-0.4,1-0.6,1.4c-0.3,0.4-0.6,0.8-0.9,1.1s-0.7,0.6-1,0.9c0.7,0.1,1.3,0.3,1.9,0.4c0.6,0.1,1.2,0.3,1.8,0.4
		c0.6,0.1,1.1,0.2,1.7,0.3c0.5,0.1,1,0.1,1.5,0.1c0.9,0,1.7-0.2,2.4-0.6c0.7-0.4,1.3-0.9,1.8-1.6c0.5-0.7,1-1.5,1.3-2.4
		c0.4-0.9,0.7-1.9,0.9-3c0.2-1.1,0.4-2.2,0.5-3.4c0.1-1.2,0.1-2.3,0.1-3.5c0-1.8-0.2-3.5-0.7-4.9c-0.5-1.4-1.2-2.7-2.1-3.7
		c-0.9-1-2-1.8-3.4-2.3c-1.4-0.5-2.9-0.8-4.7-0.8c-1.3,0-2.4,0.1-3.4,0.3c-1,0.2-1.8,0.5-2.4,0.8c-0.7,0.3-1.2,0.7-1.7,1.2
		c-0.4,0.4-0.8,0.9-1,1.3c-0.2,0.5-0.4,0.9-0.5,1.4c-0.1,0.5-0.1,0.9-0.1,1.2c0,0.4,0,0.9,0.1,1.3c0.1,0.4,0.2,0.8,0.4,1.1
		c0.2,0.3,0.5,0.6,0.9,0.8c0.4,0.2,0.9,0.3,1.6,0.3c0.2,0,0.4,0,0.5,0c0.1,0,0.3-0.1,0.4-0.1c0.1,0,0.2-0.1,0.3-0.1l0.2,1
		c-0.2,0.1-0.4,0.2-0.8,0.3C12,26,11.6,26,11.1,26c-0.7,0-1.3-0.1-1.9-0.3c-0.6-0.2-1.1-0.6-1.5-1c-0.4-0.4-0.7-0.9-1-1.4
		c-0.2-0.5-0.4-1.1-0.4-1.7c0-1,0.3-2,0.8-2.9c0.5-0.9,1.3-1.7,2.3-2.4c1-0.7,2.1-1.3,3.5-1.7C14.3,14.2,15.8,14,17.4,14z M7.2,40.8
		c-0.2,0-0.4,0-0.6,0c-0.2,0-0.4,0-0.6,0.1c-0.2,0-0.3,0.1-0.4,0.2c-0.1,0.1-0.2,0.2-0.2,0.4c0,0.2,0.2,0.4,0.5,0.5
		c0.4,0.1,1,0.2,1.8,0.2c0.7,0,1.3-0.1,1.9-0.2c0.6-0.1,1.2-0.4,1.7-0.6c-0.7-0.1-1.5-0.2-2.2-0.3C8.6,40.9,7.9,40.8,7.2,40.8z"/>
	<path class="st0" d="M47.8,34.9l-0.2,0.3c-0.4,0.8-0.9,1.4-1.5,1.8c-0.6,0.4-1.3,0.7-2,0.9c-0.2,0.6-0.5,1.1-0.8,1.6
		c-0.3,0.5-0.7,0.9-1.1,1.3c-0.4,0.4-0.9,0.6-1.4,0.8c-0.5,0.2-1,0.3-1.6,0.3c-0.9,0-1.6-0.2-2.3-0.5c-0.7-0.4-1.3-0.8-1.7-1.5
		c-0.5-0.6-0.8-1.3-1.1-2.2c-0.3-0.8-0.4-1.7-0.4-2.6c0-0.8,0.1-1.6,0.3-2.2c0.2-0.7,0.4-1.3,0.7-1.8c0.3-0.5,0.6-1,1-1.4
		c0.4-0.4,0.7-0.7,1-1c0.3-0.3,0.7-0.4,0.9-0.6c0.3-0.1,0.5-0.2,0.6-0.2l0.2,0.6c-0.5,0.3-0.9,0.8-1.2,1.4c-0.3,0.5-0.6,1.2-0.8,2
		c-0.2,0.8-0.4,1.9-0.4,3.1c0,0.8,0.1,1.5,0.2,2.2c0.1,0.7,0.4,1.4,0.6,1.9c0.3,0.6,0.6,1,1,1.3c0.4,0.3,0.9,0.5,1.4,0.5
		c0.7,0,1.3-0.3,1.7-0.8c0.5-0.6,0.8-1.3,1-2.3c-0.6-0.1-1.1-0.3-1.6-0.7c-0.5-0.3-1-0.7-1.4-1.2c-0.4-0.5-0.7-1.1-1-1.7
		c-0.2-0.6-0.4-1.3-0.4-2.1c0-0.6,0.1-1.2,0.2-1.6c0.2-0.5,0.4-0.9,0.6-1.2s0.6-0.6,0.9-0.7c0.3-0.2,0.7-0.2,1.1-0.2
		c0.5,0,0.9,0.1,1.4,0.4c0.5,0.3,0.9,0.6,1.3,1.2c0.4,0.5,0.7,1.2,0.9,1.9c0.2,0.8,0.4,1.7,0.4,2.7c0,0.4,0,0.8-0.1,1.1
		c0,0.4-0.1,0.7-0.2,1.1c0.5-0.2,1-0.4,1.5-0.7c0.4-0.3,0.8-0.8,1.1-1.4l0.2-0.3L47.8,34.9z M38.9,32c0,0.7,0.1,1.3,0.3,1.8
		c0.2,0.5,0.4,1,0.7,1.4c0.3,0.4,0.7,0.8,1.1,1c0.4,0.3,0.8,0.5,1.3,0.6c0.1-0.3,0.1-0.6,0.1-1c0-0.3,0-0.7,0-1
		c0-0.8-0.1-1.5-0.2-2.1c-0.1-0.6-0.3-1.2-0.5-1.6c-0.2-0.4-0.4-0.8-0.7-1c-0.3-0.2-0.5-0.4-0.8-0.4c-0.4,0-0.7,0.2-1,0.6
		C39,30.7,38.9,31.3,38.9,32z"/>
	<path class="st0" d="M53.5,29.4c-0.3,0-0.7,0.1-1,0.4c-0.4,0.3-0.8,0.6-1.2,1.1c-0.4,0.4-0.8,0.9-1.1,1.5c-0.4,0.5-0.7,1.1-0.9,1.6
		c0,1-0.1,2-0.1,3.2c0,1.2,0,2.4,0,3.7c0,0.2-0.1,0.3-0.2,0.4c-0.1,0.1-0.3,0.2-0.5,0.3c-0.2,0.1-0.4,0.1-0.6,0.2
		c-0.2,0-0.4,0.1-0.5,0.1c-0.2,0-0.3,0-0.5-0.1c-0.1-0.1-0.2-0.3-0.2-0.7c0-0.2,0-0.4,0-0.6c0-0.2,0.1-0.5,0.1-0.8
		c0-0.3,0.1-0.6,0.2-0.9c0.1-0.3,0.1-0.6,0.2-0.9v-8.1c0-0.2,0-0.4,0-0.5c0-0.1,0-0.2,0.1-0.3c0.1-0.2,0.2-0.3,0.3-0.4
		c0.2-0.1,0.3-0.2,0.5-0.2c0.2,0,0.4-0.1,0.5-0.1c0.2,0,0.3,0,0.4,0c0.2,0,0.3,0,0.4,0.1c0.1,0.1,0.1,0.3,0.1,0.5c0,0,0,0.2-0.1,0.8
		c0,0.6-0.1,1.4-0.1,2.5c0.3-0.5,0.7-1,1.1-1.5c0.4-0.5,0.8-0.9,1.2-1.3c0.4-0.4,0.9-0.7,1.3-0.9c0.4-0.2,0.9-0.3,1.4-0.3
		c0.8,0,1.4,0.3,1.8,0.8c0.4,0.5,0.6,1.2,0.6,2.1c0,0.6,0,1.2-0.1,1.9c-0.1,0.7-0.2,1.4-0.2,2.1c-0.1,0.7-0.2,1.4-0.2,2.1
		C56,37.9,56,38.6,56,39.1c0,0.7,0.2,1.1,0.7,1.1c0.1,0,0.3-0.1,0.5-0.2c0.2-0.1,0.4-0.4,0.7-0.8c0.3-0.4,0.6-1,1.1-1.7
		c0.4-0.7,0.9-1.6,1.5-2.8l0.2-0.3l0.7,0.5l-0.2,0.3c-0.7,1.3-1.3,2.4-1.8,3.3c-0.5,0.9-1,1.5-1.4,2c-0.4,0.5-0.8,0.8-1.2,1
		c-0.4,0.2-0.7,0.3-1.1,0.3c-0.2,0-0.5,0-0.7-0.1c-0.2-0.1-0.4-0.2-0.6-0.3c-0.2-0.2-0.3-0.4-0.4-0.7c-0.1-0.3-0.2-0.6-0.2-1.1
		c0-0.7,0-1.4,0.1-2.2c0.1-0.8,0.2-1.7,0.3-2.5c0.1-0.8,0.2-1.6,0.3-2.3c0.1-0.7,0.1-1.3,0.1-1.8c0-0.4-0.1-0.7-0.3-1
		C54.2,29.5,53.9,29.4,53.5,29.4z"/>
	<path class="st0" d="M70.9,29.2c0,2,0.2,3.7,0.7,5.2c0.5,1.5,1.1,2.7,1.8,3.7c0.7,1,1.6,1.7,2.6,2.2c1,0.5,1.9,0.7,2.9,0.7
		c0.7,0,1.4-0.1,2.1-0.4c0.7-0.3,1.4-0.7,2-1.2c0.7-0.5,1.3-1.2,1.9-2c0.6-0.8,1.2-1.7,1.7-2.8l0.2-0.3l0.7,0.5l-0.2,0.3
		c-0.6,1.2-1.3,2.3-2,3.2c-0.7,0.9-1.5,1.7-2.3,2.3c-0.8,0.6-1.7,1.1-2.6,1.4c-0.9,0.3-1.8,0.5-2.7,0.5c-0.8,0-1.6-0.1-2.4-0.3
		c-0.8-0.2-1.5-0.6-2.2-1c-0.7-0.5-1.4-1-2-1.7c-0.6-0.7-1.1-1.5-1.6-2.4c-0.4-0.9-0.8-2-1-3.2s-0.4-2.5-0.4-3.9
		c0-1.9,0.2-3.6,0.5-5.1c0.3-1.5,0.7-2.9,1.3-4.1c0.5-1.2,1.2-2.2,1.9-3.1c0.7-0.9,1.5-1.6,2.2-2.2c0.8-0.6,1.6-1,2.4-1.3
		c0.8-0.3,1.6-0.4,2.4-0.4c1,0,1.9,0.2,2.7,0.5c0.8,0.3,1.5,0.8,2.1,1.4c0.6,0.6,1.1,1.4,1.4,2.2c0.3,0.9,0.5,1.9,0.5,2.9
		c0,1-0.2,2-0.5,2.9c-0.3,0.9-0.7,1.7-1.3,2.4c-0.5,0.7-1.1,1.2-1.8,1.6c-0.7,0.4-1.4,0.6-2.1,0.6c-0.5,0-1-0.1-1.4-0.3
		c-0.4-0.2-0.8-0.4-1.1-0.7c-0.3-0.3-0.6-0.7-0.8-1.2c-0.2-0.5-0.3-1-0.3-1.5c0-0.5,0.1-1.1,0.2-1.6c0.2-0.5,0.4-1,0.6-1.4
		c0.3-0.4,0.5-0.8,0.8-1.1c0.3-0.3,0.6-0.6,0.9-0.8l0.4,0.4c-0.2,0.3-0.5,0.6-0.7,0.9c-0.2,0.3-0.4,0.6-0.5,1
		c-0.2,0.3-0.3,0.7-0.4,1.1c-0.1,0.4-0.1,0.8-0.1,1.3c0,0.5,0.1,0.9,0.2,1.3c0.1,0.4,0.3,0.7,0.5,1c0.2,0.3,0.4,0.5,0.7,0.6
		c0.3,0.1,0.5,0.2,0.8,0.2c0.4,0,0.8-0.2,1.2-0.5c0.4-0.3,0.8-0.8,1.1-1.3c0.3-0.6,0.6-1.3,0.8-2.2c0.2-0.9,0.3-1.9,0.3-3
		c0-1-0.1-1.9-0.3-2.6c-0.2-0.7-0.5-1.4-0.9-1.9c-0.4-0.5-0.9-0.8-1.4-1.1c-0.5-0.2-1.1-0.4-1.7-0.4c-0.4,0-0.9,0.1-1.5,0.3
		c-0.6,0.2-1.1,0.5-1.7,1c-0.6,0.4-1.2,1-1.7,1.8c-0.6,0.7-1.1,1.6-1.5,2.7c-0.4,1.1-0.8,2.3-1.1,3.8C71.1,25.7,70.9,27.4,70.9,29.2
		z"/>
	<path class="st0" d="M100.8,34.9l-0.2,0.3c-0.4,0.8-0.9,1.4-1.5,1.8c-0.6,0.4-1.3,0.7-2,0.9c-0.2,0.6-0.5,1.1-0.8,1.6
		s-0.7,0.9-1.1,1.3c-0.4,0.4-0.9,0.6-1.4,0.8c-0.5,0.2-1,0.3-1.6,0.3c-0.9,0-1.6-0.2-2.3-0.5c-0.7-0.4-1.3-0.8-1.7-1.5
		c-0.5-0.6-0.8-1.3-1.1-2.2c-0.3-0.8-0.4-1.7-0.4-2.6c0-0.8,0.1-1.6,0.3-2.2c0.2-0.7,0.4-1.3,0.7-1.8c0.3-0.5,0.6-1,1-1.4
		c0.4-0.4,0.7-0.7,1-1c0.3-0.3,0.7-0.4,0.9-0.6c0.3-0.1,0.5-0.2,0.6-0.2l0.2,0.6c-0.5,0.3-0.9,0.8-1.2,1.4c-0.3,0.5-0.6,1.2-0.8,2
		c-0.2,0.8-0.4,1.9-0.4,3.1c0,0.8,0.1,1.5,0.2,2.2c0.1,0.7,0.4,1.4,0.6,1.9c0.3,0.6,0.6,1,1,1.3c0.4,0.3,0.9,0.5,1.4,0.5
		c0.7,0,1.3-0.3,1.7-0.8c0.5-0.6,0.8-1.3,1-2.3c-0.6-0.1-1.1-0.3-1.6-0.7c-0.5-0.3-1-0.7-1.4-1.2c-0.4-0.5-0.7-1.1-1-1.7
		c-0.2-0.6-0.4-1.3-0.4-2.1c0-0.6,0.1-1.2,0.2-1.6c0.2-0.5,0.4-0.9,0.6-1.2s0.6-0.6,0.9-0.7c0.3-0.2,0.7-0.2,1.1-0.2
		c0.5,0,0.9,0.1,1.4,0.4c0.5,0.3,0.9,0.6,1.3,1.2c0.4,0.5,0.7,1.2,0.9,1.9c0.2,0.8,0.4,1.7,0.4,2.7c0,0.4,0,0.8-0.1,1.1
		c0,0.4-0.1,0.7-0.2,1.1c0.5-0.2,1-0.4,1.5-0.7c0.4-0.3,0.8-0.8,1.1-1.4l0.2-0.3L100.8,34.9z M91.9,32c0,0.7,0.1,1.3,0.3,1.8
		s0.4,1,0.7,1.4c0.3,0.4,0.7,0.8,1.1,1c0.4,0.3,0.8,0.5,1.3,0.6c0.1-0.3,0.1-0.6,0.1-1c0-0.3,0-0.7,0-1c0-0.8-0.1-1.5-0.2-2.1
		c-0.1-0.6-0.3-1.2-0.5-1.6c-0.2-0.4-0.4-0.8-0.7-1c-0.3-0.2-0.5-0.4-0.8-0.4c-0.4,0-0.7,0.2-1,0.6C92,30.7,91.9,31.3,91.9,32z"/>
	<path class="st0" d="M100,34.7l0.2-0.3c0.2-0.3,0.3-0.7,0.5-1c0.1-0.4,0.3-0.7,0.4-1c0.1-0.3,0.2-0.6,0.2-0.8
		c0.1-0.2,0.1-0.4,0.1-0.6c-0.3,0-0.6-0.1-0.8-0.2c-0.3-0.1-0.5-0.3-0.7-0.4c-0.2-0.2-0.4-0.4-0.5-0.7c-0.1-0.3-0.2-0.5-0.2-0.9
		c0-0.3,0-0.5,0.1-0.7c0.1-0.2,0.2-0.4,0.4-0.5c0.1-0.1,0.3-0.2,0.5-0.3c0.2-0.1,0.4-0.1,0.6-0.1c0.3,0,0.5,0.1,0.7,0.2
		c0.2,0.1,0.4,0.3,0.5,0.4c0.1,0.2,0.2,0.4,0.3,0.6c0.1,0.2,0.1,0.5,0.1,0.7c0.3,0,0.6,0,1-0.1c0.4-0.1,0.7-0.2,1.1-0.3
		c0.4-0.1,0.7-0.2,1.1-0.3c0.4-0.1,0.7-0.1,1-0.1c0.3,0,0.5,0.1,0.6,0.2c0.2,0.1,0.2,0.3,0.2,0.5c0,0.2-0.1,0.5-0.2,0.9
		c-0.1,0.4-0.2,0.9-0.4,1.4c-0.2,0.5-0.3,1.1-0.5,1.8c-0.2,0.6-0.4,1.3-0.5,1.9c-0.2,0.6-0.3,1.3-0.4,1.9c-0.1,0.6-0.2,1.2-0.2,1.6
		c0,0.6,0.1,1,0.2,1.2c0.1,0.2,0.4,0.3,0.7,0.3c0.1,0,0.3-0.1,0.5-0.2c0.2-0.1,0.5-0.4,0.8-0.7c0.3-0.4,0.7-0.9,1.1-1.6
		c0.4-0.7,0.9-1.6,1.5-2.7l0.2-0.3l0.7,0.5l-0.2,0.3c-0.7,1.3-1.3,2.4-1.8,3.3c-0.5,0.9-1,1.5-1.4,2c-0.4,0.5-0.8,0.8-1.2,1
		c-0.4,0.2-0.8,0.3-1.2,0.3c-0.7,0-1.2-0.2-1.6-0.7c-0.4-0.5-0.6-1.3-0.6-2.3c0-0.6,0.1-1.2,0.2-1.8c0.2-0.6,0.3-1.2,0.6-1.8
		c0.2-0.6,0.5-1.2,0.8-1.8c0.3-0.6,0.6-1.1,0.8-1.7c0.3-0.5,0.5-1,0.7-1.5c0.2-0.5,0.4-0.9,0.4-1.2l-0.1-0.1c-0.2,0-0.4,0.1-0.7,0.3
		c-0.3,0.2-0.6,0.4-1,0.6c-0.4,0.2-0.8,0.5-1.2,0.7c-0.4,0.2-0.8,0.3-1.3,0.4c0,0.2-0.1,0.4-0.1,0.7c-0.1,0.3-0.2,0.6-0.3,1
		c-0.1,0.4-0.3,0.7-0.4,1.1c-0.2,0.4-0.3,0.8-0.5,1.1l-0.2,0.3L100,34.7z M100.8,28c-0.1,0-0.2,0-0.2,0.1c-0.1,0.1-0.1,0.1-0.1,0.2
		c0,0.1,0,0.2,0.1,0.3c0.1,0.1,0.1,0.2,0.2,0.2c0.1,0.1,0.2,0.1,0.3,0.1c0.1,0,0.2,0,0.3,0c0-0.3,0-0.6-0.1-0.8
		C101.1,28.1,101,28,100.8,28z"/>
	<path class="st0" d="M113.7,39.7c0.2,0,0.4-0.1,0.7-0.4c0.3-0.3,0.5-0.6,0.8-1.1c0.3-0.5,0.6-1,0.9-1.6c0.3-0.6,0.7-1.3,1-2
		l0.2-0.3l0.7,0.5l-0.2,0.3c-0.6,1.2-1.1,2.2-1.6,3c-0.5,0.8-0.9,1.5-1.3,2.1c-0.4,0.5-0.8,0.9-1.1,1.2c-0.4,0.2-0.7,0.4-1.1,0.4
		c-0.5,0-0.9-0.2-1.3-0.5c-0.4-0.3-0.7-0.9-0.9-1.6c-0.2-0.8-0.4-1.8-0.5-3c-0.1-1.3-0.2-2.8-0.2-4.7c0-2.6,0.1-4.9,0.3-6.8
		c0.2-1.9,0.5-3.4,0.9-4.6s0.8-2.1,1.3-2.7c0.5-0.6,1-0.9,1.6-0.9c0.3,0,0.6,0.1,0.8,0.4c0.2,0.3,0.3,0.8,0.3,1.5
		c0,0.6,0,1.2-0.1,1.9c-0.1,0.7-0.2,1.5-0.3,2.3c-0.1,0.8-0.3,1.6-0.5,2.5c-0.2,0.9-0.4,1.7-0.6,2.6c-0.2,0.9-0.4,1.7-0.7,2.5
		c-0.2,0.8-0.5,1.6-0.7,2.3c0.1,1.4,0.1,2.5,0.2,3.3c0.1,0.9,0.2,1.6,0.3,2c0.1,0.5,0.3,0.8,0.4,1C113.4,39.6,113.5,39.7,113.7,39.7
		z M114.2,19.3c0-0.2,0-0.4-0.1-0.5c-0.1-0.1-0.1-0.2-0.3-0.2c-0.1,0-0.2,0.2-0.4,0.5c-0.1,0.3-0.2,0.8-0.4,1.4
		c-0.1,0.6-0.2,1.3-0.3,2c-0.1,0.8-0.2,1.6-0.3,2.5c-0.1,0.9-0.1,1.8-0.2,2.7c0,0.9-0.1,1.8-0.1,2.6c0.3-1,0.5-2,0.7-3
		c0.2-1,0.4-2,0.6-3c0.2-1,0.3-1.9,0.4-2.7C114.1,20.7,114.2,19.9,114.2,19.3z"/>
	<path class="st0" d="M122.3,40c0.4,0,0.8-0.1,1.2-0.3c0.4-0.2,0.8-0.5,1.2-0.9c0.4-0.4,0.8-1,1.3-1.6c0.4-0.7,0.9-1.5,1.4-2.4
		l0.2-0.3l0.7,0.5l-0.2,0.3c-0.6,1.2-1.2,2.2-1.8,3c-0.6,0.8-1.2,1.5-1.7,2.1c-0.6,0.5-1.1,0.9-1.7,1.2c-0.6,0.2-1.1,0.4-1.6,0.4
		c-0.7,0-1.4-0.1-1.9-0.4c-0.6-0.3-1-0.7-1.4-1.2c-0.4-0.5-0.7-1.1-0.9-1.8c-0.2-0.7-0.3-1.4-0.3-2.1c0-1.2,0.2-2.3,0.5-3.3
		c0.3-1,0.8-1.8,1.3-2.5c0.5-0.7,1.2-1.2,1.9-1.6c0.7-0.4,1.4-0.6,2.2-0.6c0.8,0,1.3,0.2,1.8,0.6c0.4,0.4,0.6,0.9,0.6,1.5
		c0,0.6-0.2,1.1-0.5,1.6c-0.3,0.5-0.8,1-1.3,1.4c-0.5,0.5-1.2,0.9-1.9,1.4c-0.7,0.5-1.5,0.9-2.3,1.4c0.1,0.6,0.2,1.1,0.4,1.6
		c0.2,0.5,0.4,0.9,0.7,1.2c0.3,0.3,0.6,0.6,1,0.8C121.4,39.9,121.8,40,122.3,40z M122.8,30.8c0-0.4-0.1-0.8-0.4-1
		c-0.2-0.3-0.5-0.4-0.9-0.4c-0.3,0-0.6,0.1-0.9,0.3c-0.3,0.2-0.6,0.5-0.9,1c-0.3,0.4-0.5,1-0.7,1.7c-0.2,0.7-0.3,1.5-0.3,2.5v0.4
		c0.4-0.2,0.8-0.5,1.3-0.8c0.5-0.3,0.9-0.7,1.3-1.1s0.7-0.8,1-1.3C122.7,31.7,122.8,31.2,122.8,30.8z"/>
	<path class="st0" d="M141.4,34.9l-0.2,0.3c-0.4,0.8-0.9,1.4-1.5,1.8c-0.6,0.4-1.3,0.7-2,0.9c-0.2,0.6-0.5,1.1-0.8,1.6
		c-0.3,0.5-0.7,0.9-1.1,1.3c-0.4,0.4-0.9,0.6-1.4,0.8c-0.5,0.2-1,0.3-1.6,0.3c-0.9,0-1.6-0.2-2.3-0.5c-0.7-0.4-1.3-0.8-1.7-1.5
		c-0.5-0.6-0.8-1.3-1.1-2.2c-0.3-0.8-0.4-1.7-0.4-2.6c0-0.8,0.1-1.6,0.3-2.2c0.2-0.7,0.4-1.3,0.7-1.8c0.3-0.5,0.6-1,1-1.4
		c0.4-0.4,0.7-0.7,1-1c0.3-0.3,0.7-0.4,0.9-0.6c0.3-0.1,0.5-0.2,0.6-0.2l0.2,0.6c-0.5,0.3-0.9,0.8-1.2,1.4c-0.3,0.5-0.6,1.2-0.8,2
		c-0.2,0.8-0.4,1.9-0.4,3.1c0,0.8,0.1,1.5,0.2,2.2c0.1,0.7,0.4,1.4,0.6,1.9c0.3,0.6,0.6,1,1,1.3c0.4,0.3,0.9,0.5,1.4,0.5
		c0.7,0,1.3-0.3,1.7-0.8c0.5-0.6,0.8-1.3,1-2.3c-0.6-0.1-1.1-0.3-1.6-0.7c-0.5-0.3-1-0.7-1.4-1.2c-0.4-0.5-0.7-1.1-1-1.7
		c-0.2-0.6-0.4-1.3-0.4-2.1c0-0.6,0.1-1.2,0.2-1.6c0.2-0.5,0.4-0.9,0.6-1.2s0.6-0.6,0.9-0.7c0.3-0.2,0.7-0.2,1.1-0.2
		c0.5,0,0.9,0.1,1.4,0.4c0.5,0.3,0.9,0.6,1.3,1.2c0.4,0.5,0.7,1.2,0.9,1.9c0.2,0.8,0.4,1.7,0.4,2.7c0,0.4,0,0.8-0.1,1.1
		c0,0.4-0.1,0.7-0.2,1.1c0.5-0.2,1-0.4,1.5-0.7c0.4-0.3,0.8-0.8,1.1-1.4l0.2-0.3L141.4,34.9z M132.5,32c0,0.7,0.1,1.3,0.3,1.8
		s0.4,1,0.7,1.4c0.3,0.4,0.7,0.8,1.1,1c0.4,0.3,0.8,0.5,1.3,0.6c0.1-0.3,0.1-0.6,0.1-1c0-0.3,0-0.7,0-1c0-0.8-0.1-1.5-0.2-2.1
		c-0.1-0.6-0.3-1.2-0.5-1.6c-0.2-0.4-0.4-0.8-0.7-1c-0.3-0.2-0.5-0.4-0.8-0.4c-0.4,0-0.7,0.2-1,0.6C132.6,30.7,132.5,31.3,132.5,32z
		"/>
	<path class="st0" d="M147.2,29.4c-0.3,0-0.7,0.1-1,0.4c-0.4,0.3-0.8,0.6-1.2,1.1c-0.4,0.4-0.8,0.9-1.1,1.5
		c-0.4,0.5-0.7,1.1-0.9,1.6c0,1-0.1,2-0.1,3.2c0,1.2,0,2.4,0,3.7c0,0.2-0.1,0.3-0.2,0.4c-0.1,0.1-0.3,0.2-0.5,0.3
		c-0.2,0.1-0.4,0.1-0.6,0.2c-0.2,0-0.4,0.1-0.5,0.1c-0.2,0-0.3,0-0.5-0.1c-0.1-0.1-0.2-0.3-0.2-0.7c0-0.2,0-0.4,0-0.6
		c0-0.2,0.1-0.5,0.1-0.8c0-0.3,0.1-0.6,0.2-0.9c0.1-0.3,0.1-0.6,0.2-0.9v-8.1c0-0.2,0-0.4,0-0.5c0-0.1,0-0.2,0.1-0.3
		c0.1-0.2,0.2-0.3,0.3-0.4c0.2-0.1,0.3-0.2,0.5-0.2c0.2,0,0.4-0.1,0.5-0.1c0.2,0,0.3,0,0.4,0c0.2,0,0.3,0,0.4,0.1
		c0.1,0.1,0.1,0.3,0.1,0.5c0,0,0,0.2-0.1,0.8c0,0.6-0.1,1.4-0.1,2.5c0.3-0.5,0.7-1,1.1-1.5c0.4-0.5,0.8-0.9,1.2-1.3
		c0.4-0.4,0.9-0.7,1.3-0.9c0.4-0.2,0.9-0.3,1.4-0.3c0.8,0,1.4,0.3,1.8,0.8c0.4,0.5,0.6,1.2,0.6,2.1c0,0.6,0,1.2-0.1,1.9
		c-0.1,0.7-0.2,1.4-0.2,2.1c-0.1,0.7-0.2,1.4-0.2,2.1c-0.1,0.7-0.1,1.3-0.1,1.9c0,0.7,0.2,1.1,0.7,1.1c0.1,0,0.3-0.1,0.5-0.2
		c0.2-0.1,0.4-0.4,0.7-0.8c0.3-0.4,0.6-1,1.1-1.7c0.4-0.7,0.9-1.6,1.5-2.8l0.2-0.3l0.7,0.5l-0.2,0.3c-0.7,1.3-1.3,2.4-1.8,3.3
		c-0.5,0.9-1,1.5-1.4,2c-0.4,0.5-0.8,0.8-1.2,1c-0.4,0.2-0.7,0.3-1.1,0.3c-0.2,0-0.5,0-0.7-0.1c-0.2-0.1-0.4-0.2-0.6-0.3
		c-0.2-0.2-0.3-0.4-0.4-0.7c-0.1-0.3-0.2-0.6-0.2-1.1c0-0.7,0-1.4,0.1-2.2c0.1-0.8,0.2-1.7,0.3-2.5c0.1-0.8,0.2-1.6,0.3-2.3
		c0.1-0.7,0.1-1.3,0.1-1.8c0-0.4-0.1-0.7-0.3-1C147.8,29.5,147.5,29.4,147.2,29.4z"/>
	<path class="st0" d="M159.1,40c0.4,0,0.8-0.1,1.2-0.3c0.4-0.2,0.8-0.5,1.2-0.9c0.4-0.4,0.8-1,1.3-1.6c0.4-0.7,0.9-1.5,1.4-2.4
		l0.2-0.3l0.7,0.5l-0.2,0.3c-0.6,1.2-1.2,2.2-1.8,3c-0.6,0.8-1.2,1.5-1.7,2.1c-0.6,0.5-1.1,0.9-1.7,1.2c-0.6,0.2-1.1,0.4-1.6,0.4
		c-0.7,0-1.4-0.1-1.9-0.4c-0.6-0.3-1-0.7-1.4-1.2c-0.4-0.5-0.7-1.1-0.9-1.8c-0.2-0.7-0.3-1.4-0.3-2.1c0-1.2,0.2-2.3,0.5-3.3
		c0.3-1,0.8-1.8,1.3-2.5c0.5-0.7,1.2-1.2,1.9-1.6c0.7-0.4,1.4-0.6,2.2-0.6c0.8,0,1.3,0.2,1.8,0.6c0.4,0.4,0.6,0.9,0.6,1.5
		c0,0.6-0.2,1.1-0.5,1.6c-0.3,0.5-0.8,1-1.3,1.4c-0.5,0.5-1.2,0.9-1.9,1.4c-0.7,0.5-1.5,0.9-2.3,1.4c0.1,0.6,0.2,1.1,0.4,1.6
		c0.2,0.5,0.4,0.9,0.7,1.2c0.3,0.3,0.6,0.6,1,0.8C158.2,39.9,158.6,40,159.1,40z M159.6,30.8c0-0.4-0.1-0.8-0.4-1
		c-0.2-0.3-0.5-0.4-0.9-0.4c-0.3,0-0.6,0.1-0.9,0.3c-0.3,0.2-0.6,0.5-0.9,1s-0.5,1-0.7,1.7c-0.2,0.7-0.3,1.5-0.3,2.5v0.4
		c0.4-0.2,0.8-0.5,1.3-0.8c0.5-0.3,0.9-0.7,1.3-1.1s0.7-0.8,1-1.3C159.5,31.7,159.6,31.2,159.6,30.8z"/>
</g>
</svg>
