<?xml version="1.0" encoding="utf-8"?>
<!-- Generator: Adobe Illustrator 22.0.1, SVG Export Plug-In . SVG Version: 6.00 Build 0)  -->
<svg version="1.1" id="Capa_1" xmlns="http://www.w3.org/2000/svg" xmlns:xlink="http://www.w3.org/1999/xlink" x="0px" y="0px"
	 viewBox="0 0 30 30" style="enable-background:new 0 0 30 30;" xml:space="preserve">
<style type="text/css">
	.st0{fill-rule:evenodd;clip-rule:evenodd;fill:#E58E00;}
</style>
<circle class="st0" cx="15" cy="15" r="15"/>
<path id="instagram-6" d="M22.1,6H7.6C6.4,6,5.5,7,5.5,8.2v14.4c0,1.2,1,2.2,2.2,2.2h14.4c1.2,0,2.2-1,2.2-2.2V8.2
	C24.2,7,23.3,6,22.1,6z M14.9,11.8c2,0,3.6,1.6,3.6,3.6c0,2-1.6,3.6-3.6,3.6c-2,0-3.6-1.6-3.6-3.6C11.2,13.4,12.9,11.8,14.9,11.8z
	 M21.9,21.7c0,0.4-0.3,0.7-0.7,0.7H8.5c-0.4,0-0.7-0.3-0.7-0.7v-7.9h1.5c-0.1,0.2-0.1,0.5-0.2,0.8c0,0.3-0.1,0.5-0.1,0.8
	c0,3.2,2.6,5.8,5.8,5.8c3.2,0,5.8-2.6,5.8-5.8c0-0.3,0-0.5-0.1-0.8c0-0.3-0.1-0.5-0.2-0.8h1.5V21.7z M21.9,10.8
	c0,0.4-0.3,0.7-0.7,0.7h-1.7c-0.4,0-0.7-0.3-0.7-0.7V9.1c0-0.4,0.3-0.7,0.7-0.7h1.7c0.4,0,0.7,0.3,0.7,0.7V10.8z"/>
</svg>
