<?xml version="1.0" encoding="utf-8"?>
<!-- Generator: Adobe Illustrator 22.0.1, SVG Export Plug-In . SVG Version: 6.00 Build 0)  -->
<svg version="1.1" id="Capa_1" xmlns="http://www.w3.org/2000/svg" xmlns:xlink="http://www.w3.org/1999/xlink" x="0px" y="0px"
	 viewBox="0 0 149 149" style="enable-background:new 0 0 149 149;" xml:space="preserve">
<style type="text/css">
	.st0{fill:#FFFFFF;}
	.st1{fill:#FFFFFF;stroke:#FFFFFF;stroke-width:10.5503;stroke-miterlimit:10;}
	.st2{fill:#4FB5AB;}
	.st3{fill:none;stroke:#000000;stroke-width:1.9815;stroke-miterlimit:10;}
	.st4{fill:none;stroke:#000000;stroke-width:2.7764;stroke-miterlimit:10;}
	.st5{fill:none;stroke:#000000;stroke-width:1.6659;stroke-miterlimit:10;}
	.st6{fill:#9C1F16;}
	.st7{fill:#E9A735;}
	.st8{fill:#B91818;}
	.st9{fill:none;stroke:#1D1E1C;stroke-width:1.5341;stroke-miterlimit:10;}
	.st10{fill:#E97437;}
	.st11{fill:none;stroke:#000000;stroke-width:1.1105;stroke-linecap:round;stroke-miterlimit:10;}
	.st12{fill:#1D1E1C;}
	.st13{fill:none;stroke:#1D1E1C;stroke-width:1.5341;stroke-linecap:round;stroke-miterlimit:10;}
	.st14{fill:#FFE736;}
	.st15{fill:#594415;stroke:#000000;stroke-width:0.5553;stroke-miterlimit:10;}
</style>
<g>
	<ellipse class="st0" cx="64.4" cy="18.1" rx="5.6" ry="5.8"/>
	<ellipse class="st0" cx="64.4" cy="18.1" rx="5.6" ry="5.8"/>
	<ellipse class="st0" cx="71.2" cy="13.4" rx="5.6" ry="5.8"/>
	<ellipse class="st0" cx="77.9" cy="13.7" rx="5.6" ry="5.8"/>
	<ellipse class="st0" cx="84.1" cy="17.5" rx="5.6" ry="5.8"/>
	<ellipse class="st0" cx="64.4" cy="18.1" rx="5.6" ry="5.8"/>
	<g>
		<g>
			<path class="st1" d="M108.9,103V58.5h-0.1c-0.1-0.6-0.2-1.2-0.4-1.8c6.3-3,12.8-11.9,16.3-23.1c-8.2-2.6-15.8-1.2-20.9,0.6
				c0.3-6.3-0.8-13.8-3.3-21.2c-6,1.9-10.7,5.3-14.4,8.8c-1.3-0.5-2.4-0.4-2.4-0.4s-0.4,0-0.9,0c-0.4-0.5-0.9-1.1-1.4-1.7
				c-1.9-2.2-5.1-3.2-6.3-3.2c-2.3,0-4.6,1.4-6.9,3.4c-0.8,0.8-1.3,1.5-1.7,2.1c-0.5,0-0.9,0-1.3,0c-3.6-3.5-8.3-6.7-14.2-8.7
				c-2.3,6.6-3.4,13.2-3.4,19.2c0,0.9,0,1.7,0,2.5c-5.9-2.3-14.4-2.9-23.3-1.3c2.4,14.1,14.2,21.7,16,22.9c-0.1,0.6-0.2,1.2-0.3,1.7
				H40V103c-6.1,3.2-12.4,12-15.7,22.8c8.2,2.6,15.8,1.2,21-0.7c0.3,5.2,1.4,10.7,3.3,16.3c17.6-5.7,24.2-23.1,24.2-23.1
				s-0.3-0.3-0.7-0.9c0.6,0,1.3,0,1.8,0c-0.2,0.2-0.3,0.4-0.3,0.4s6.7,17.3,24.2,23.1c1.9-5.7,3-11.5,3.3-16.6
				c5.9,2.3,14.4,2.9,23.3,1.3C122.3,112.2,111.5,104.6,108.9,103z"/>
			<path class="st1" d="M64.7,19.4c0.8,0,1.5-0.7,1.5-1.5s-0.7-1.5-1.5-1.5c-0.8,0-1.5,0.7-1.5,1.5S63.9,19.4,64.7,19.4z"/>
			<path class="st1" d="M84.3,19.4c0.8,0,1.5-0.7,1.5-1.5s-0.7-1.5-1.5-1.5c-0.8,0-1.5,0.7-1.5,1.5S83.5,19.4,84.3,19.4z"/>
			<path class="st1" d="M77.8,15c0.8,0,1.5-0.7,1.5-1.5c0-0.8-0.7-1.4-1.5-1.4c-0.8,0-1.5,0.7-1.5,1.5C76.3,14.5,77,15,77.8,15z"/>
			<path class="st1" d="M71.2,15c0.8,0,1.5-0.7,1.5-1.5c0-0.8-0.7-1.4-1.5-1.4c-0.8,0-1.5,0.7-1.5,1.5C69.7,14.5,70.4,15,71.2,15z"
				/>
		</g>
		<g>
			<g>
				<g>
					<path class="st2" d="M73.8,117.8c0,0,6.7,17.3,24.2,23.1c5.5-16.1,4.1-32-2.9-37.5C88.2,98,73.8,117.8,73.8,117.8z"/>
					<line class="st3" x1="98" y1="140.9" x2="83.5" y2="107.1"/>
					<polyline class="st3" points="90.4,137.3 94.4,132.4 100.2,133.3 101,127.8 91.9,126.6 86.2,134.3 82.2,130.6 89.9,121.7 
						101.5,123.5 101.3,117.5 87.2,115.4 79.3,126.3 75.8,121.8 84.7,109.9 100.3,112.2 98,106.6 86.3,105 					"/>
					<path class="st4" d="M73.8,117.8c0,0,6.7,17.3,24.2,23.1c5.5-16.1,4.1-32-2.9-37.5C88.2,98,73.8,117.8,73.8,117.8z"/>
				</g>
				<g>
					<path class="st2" d="M108.4,102.4c0,0,13.5,7.7,16.3,23c-14,2.6-27.1-0.5-30.8-6.9S108.4,102.4,108.4,102.4z"/>
					<line class="st5" x1="124.6" y1="125.4" x2="98.2" y2="109.2"/>
					<polyline class="st5" points="122.6,118.6 118,121.4 118,126.3 113.4,126.3 113.4,118.6 120.6,114.7 118,111 109.7,116.3 
						109.7,126.1 104.8,125.2 104.8,113.2 114.8,108.1 111.5,104.6 100.5,110.6 100.5,123.8 96.2,121.2 96.2,111.3 					"/>
					<path class="st4" d="M108.4,102.4c0,0,13.5,7.7,16.3,23c-14,2.6-27.1-0.5-30.8-6.9S108.4,102.4,108.4,102.4z"/>
				</g>
				<g>
					<path class="st2" d="M52.2,122c0,0-13,8.6-27.8,3.8c4.1-13.6,12.9-23.8,20.3-24.1S52.2,122,52.2,122z"/>
					<line class="st5" x1="24.4" y1="125.8" x2="50.9" y2="109.8"/>
					<polyline class="st5" points="31.4,127.1 31,121.8 26.6,119.6 28.8,115.5 35.6,119.1 35.8,127.1 40.2,126.6 39.4,116.7 
						30.6,112.3 33.7,108.3 44.3,113.8 44.3,125 49,123.7 48.6,111.2 36.9,105.2 41.2,102.4 50.1,107 					"/>
					<path class="st4" d="M52.2,122c0,0-13,8.6-27.8,3.8c4.1-13.6,12.9-23.8,20.3-24.1S52.2,122,52.2,122z"/>
				</g>
				<g>
					<path class="st2" d="M72.9,118.4c0,0-6.7,17.3-24.2,23.1c-5.5-16.1-4.1-32,2.9-37.5S72.9,118.4,72.9,118.4z"/>
					<line class="st3" x1="48.6" y1="141.5" x2="63.2" y2="107.7"/>
					<polyline class="st3" points="56.4,137.9 52.3,133 46.6,133.9 45.7,128.4 54.8,127.1 60.6,134.8 64.5,131.1 56.9,122.3 
						45.3,124 45.5,118 59.6,116 67.4,126.9 71,122.4 61.9,110.5 46.4,112.7 48.7,107.2 60.5,105.4 					"/>
					<path class="st4" d="M72.9,118.4c0,0-6.7,17.3-24.2,23.1c-5.5-16.1-4.1-32,2.9-37.5S72.9,118.4,72.9,118.4z"/>
				</g>
			</g>
			<g>
				<g>
					<path class="st2" d="M75.2,36.5c0,0-6.7-17.3-24.2-23.1c-5.5,16.1-4.1,32,2.9,37.5S75.2,36.5,75.2,36.5z"/>
					<line class="st3" x1="51" y1="13.4" x2="65.5" y2="47.2"/>
					<polyline class="st3" points="58.6,17 54.6,21.9 48.8,21 48,26.4 57.1,27.7 62.8,20 66.8,23.7 59.1,32.6 47.5,30.8 47.7,36.7 
						61.8,38.9 69.7,28 73.2,32.5 64.3,44.3 48.7,42.1 51,47.6 62.7,49.4 					"/>
					<path class="st4" d="M75.2,36.5c0,0-6.7-17.3-24.2-23.1c-5.5,16.1-4.1,32,2.9,37.5S75.2,36.5,75.2,36.5z"/>
				</g>
				<g>
					<path class="st2" d="M40.6,56.8c0,0-13.5-7.7-16.3-23c14-2.6,27.1,0.5,30.8,6.9C58.8,47.3,40.6,56.8,40.6,56.8z"/>
					<line class="st5" x1="24.4" y1="33.8" x2="50.8" y2="50"/>
					<polyline class="st5" points="26.4,40.6 31,37.8 31,33 35.6,33 35.6,40.6 28.4,44.5 31,48.2 39.3,43 39.3,33.1 44.2,34 
						44.2,46 34.2,51.2 37.5,54.7 48.5,48.6 48.5,35.4 52.8,38 52.8,48 					"/>
					<path class="st4" d="M40.6,56.8c0,0-13.5-7.7-16.3-23c14-2.6,27.1,0.5,30.8,6.9C58.8,47.3,40.6,56.8,40.6,56.8z"/>
				</g>
				<g>
					<path class="st2" d="M96.8,37.2c0,0,13-8.6,27.8-3.8c-4.1,13.6-12.9,23.8-20.3,24.1C96.9,57.9,96.8,37.2,96.8,37.2z"/>
					<line class="st5" x1="124.6" y1="33.4" x2="98.1" y2="49.4"/>
					<polyline class="st5" points="117.6,32.1 118,37.4 122.4,39.7 120.2,43.8 113.4,40.2 113.2,32.1 108.8,32.7 109.6,42.5 
						118.4,47 115.3,51 104.7,45.4 104.7,34.2 100,35.6 100.4,48 112.1,54.1 107.8,56.8 98.9,52.2 					"/>
					<path class="st4" d="M96.8,37.2c0,0,13-8.6,27.8-3.8c-4.1,13.6-12.9,23.8-20.3,24.1C96.9,57.9,96.8,37.2,96.8,37.2z"/>
				</g>
				<g>
					<path class="st2" d="M76.1,35.9c0,0,6.7-17.3,24.2-23.1c5.5,16.1,4.1,32-2.9,37.5S76.1,35.9,76.1,35.9z"/>
					<line class="st3" x1="100.4" y1="12.8" x2="85.8" y2="46.7"/>
					<polyline class="st3" points="92.6,16.4 96.7,21.3 102.4,20.4 103.3,25.8 94.2,27.1 88.4,19.4 84.5,23.1 92.1,32 103.7,30.2 
						103.5,36.3 89.4,38.3 81.6,27.4 78,31.9 87.1,43.8 102.6,41.5 100.3,47.1 88.5,48.8 					"/>
					<path class="st4" d="M76.1,35.9c0,0,6.7-17.3,24.2-23.1c5.5,16.1,4.1,32-2.9,37.5S76.1,35.9,76.1,35.9z"/>
				</g>
			</g>
			<g>
				<path class="st6" d="M40.5,101.5c0,4.9,3.9,4.6,6.6,4.6c2.6,0,57.2,0,57.2,0s4.1,0.6,4.1-4.1c0-4.7-3.3-4.9-4.9-4.9
					s-59.5,0-59.5,0S40.5,98.1,40.5,101.5z"/>
				<path class="st4" d="M40.5,101.5c0,4.9,3.9,4.6,6.6,4.6c2.6,0,57.2,0,57.2,0s4.1,0,4.1-4.1c0-4.7-3.3-4.9-4.9-4.9H45.2
					c-1.3,0-2.4,0.4-3.4,1.3C41.1,99,40.5,100.1,40.5,101.5z"/>
			</g>
			<g>
				<path class="st7" d="M44.8,105.3h61.1c0,0,3.6,0.6,2.3,5.4c-1.3,4.8-6.5,7.1-11.7,6.9c-8.6-0.3-45.6,0-45.6,0s-8.8,0-10.4-6.9
					C39.3,105.3,43.8,105.3,44.8,105.3z"/>
				<g>
					<path class="st4" d="M44.8,105.3h61.1c0,0,3.6,0.6,2.3,5.4c-1.3,4.8-6.5,7.1-11.7,6.9c-8.6-0.3-45.6,0-45.6,0s-8.8,0-10.4-6.9
						C39.3,105.3,43.8,105.3,44.8,105.3z"/>
				</g>
			</g>
			<g>
				<path class="st8" d="M60.9,26.8c0,0-0.2-5.3,6-4.8c6.2,0.6,3.8,3.2,3.8,3.2s-9.6,5.8-9.8,5.3C60.8,29.8,60.9,26.8,60.9,26.8z"/>
				<path class="st8" d="M83.5,21.3c0,0,5.3-0.6,5.2,5.6s-2.9,4-2.9,4s-6.5-9.1-5.9-9.3C80.5,21.3,83.5,21.3,83.5,21.3z"/>
				<path class="st8" d="M92.8,40.3c0,0,3.3,4.1-2,7.4c-5.4,3.3-4.9-0.3-4.9-0.3s4.3-10.4,4.8-10C91.1,37.8,92.8,40.3,92.8,40.3z"/>
				<path class="st8" d="M59.1,48.6c0,0-5.1-1.7-2.3-7.3c2.6-5.6,4.3-2.4,4.3-2.4s2.1,11.1,1.6,11C61.9,49.8,59.1,48.6,59.1,48.6z"
					/>
				<path class="st8" d="M79.9,56.5c0,0-3.1,4.3-7.7-0.1s-1-4.8-1-4.8s11.2,1.5,10.9,1.9C81.9,54.1,79.9,56.5,79.9,56.5z"/>
				<g>
					<circle cx="64.8" cy="18" r="1.5"/>
					<circle cx="84.5" cy="18" r="1.5"/>
					<circle cx="77.9" cy="13.7" r="1.5"/>
					<circle cx="71.4" cy="13.7" r="1.5"/>
				</g>
				<path class="st5" d="M60.9,26.8c0,0-0.2-5.3,6-4.8c6.2,0.6,3.8,3.2,3.8,3.2s-9.6,5.8-9.8,5.3C60.8,29.8,60.9,26.8,60.9,26.8z"/>
				<path class="st5" d="M83.5,21.3c0,0,5.3-0.6,5.2,5.6s-2.9,4-2.9,4s-6.5-9.1-5.9-9.3C80.5,21.3,83.5,21.3,83.5,21.3z"/>
				<path class="st9" d="M92.8,40.3c0,0,3.3,4.1-2,7.4c-5.4,3.3-4.9-0.3-4.9-0.3s4.3-10.4,4.8-10C91.1,37.8,92.8,40.3,92.8,40.3z"/>
				<path class="st9" d="M59.1,48.6c0,0-5.1-1.7-2.3-7.3c2.6-5.6,4.3-2.4,4.3-2.4s2.1,11.1,1.6,11C61.9,49.8,59.1,48.6,59.1,48.6z"
					/>
				<path class="st9" d="M79.9,56.5c0,0-3.1,4.3-7.7-0.1s-1-4.8-1-4.8s11.2,1.5,10.9,1.9C81.9,54.1,79.9,56.5,79.9,56.5z"/>
				<g>
					<path class="st10" d="M80.7,40.1c0,0,6.9,0.9,8.5,2.1c1.6,1.4,2.6,2.9,2.3,6c-0.5,3.1-1.3,5.4-3.1,7c-1,1-3.9,2.1-6.9,1.7
						c-3-0.5-5.2-0.9-6.2-3s-0.1-9.7-0.1-9.7S79.4,44.6,80.7,40.1z"/>
					<path class="st10" d="M77.2,43.9c0,0,0.2,2.8,2.5,6.5C79.4,47.7,78.3,45.6,77.2,43.9z"/>
					<path class="st10" d="M78.5,43.3c0,0,1.1,2.6,4.5,5.4C81.7,46.2,80,44.5,78.5,43.3"/>
					<path class="st10" d="M79.5,42c0,0,2.8,0.6,6.1,3.4C83,44.5,81,43.3,79.5,42z"/>
				</g>
				<g>
					<g>
						<path class="st10" d="M71.1,33.1c0,0-4.8-5.2-5.1-7.1c-0.4-2-0.1-4,2-6.1c2.3-2.1,4.5-3.4,6.9-3.4c1.4-0.1,4.4,0.9,6.3,3.2
							c1.9,2.3,3.4,4,2.8,6.3c-0.6,2.3-6.2,7.5-6.2,7.5S75.1,30.5,71.1,33.1z"/>
						<path class="st10" d="M76.3,32.4c0,0,1.7-2.3,2.3-6.6C77.1,28.2,76.4,30.4,76.3,32.4z"/>
						<path class="st10" d="M74.9,32.1c0,0,0.9-2.7,0.1-7C74.3,27.8,74.4,30.1,74.9,32.1"/>
						<path class="st10" d="M73.2,32.5c0,0-1.8-2.2-2.5-6.5C72.3,28.3,72.9,30.4,73.2,32.5z"/>
					</g>
					<g>
						<path class="st5" d="M71.1,33.1c0,0-4.8-5.2-5.1-7.1c-0.4-2-0.1-4,2-6.1c2.3-2.1,4.5-3.4,6.9-3.4c1.4-0.1,4.4,0.9,6.3,3.2
							c1.9,2.3,3.4,4,2.8,6.3c-0.6,2.3-6.2,7.5-6.2,7.5S75.1,30.5,71.1,33.1z"/>
						<g>
							<path d="M78.6,26.5L78.6,26.5L78.6,26.5z M78.6,26.5c-1.5,2.3-2,4.6-2.3,6.6C76.3,33.1,77.9,30.9,78.6,26.5L78.6,26.5z"/>
						</g>
						<path class="st11" d="M74.9,32.9c0,0,0.9-2.7,0.1-7C74.3,28.6,74.4,30.9,74.9,32.9"/>
						<g>
							<path d="M70.6,26.1c0.8,4.3,2.5,6.5,2.5,6.5C72.8,30.6,72.2,28.4,70.6,26.1L70.6,26.1z"/>
						</g>
					</g>
				</g>
				<g>
					<path class="st9" d="M80.7,40.1c0,0,6.9,0.9,8.5,2.1c1.6,1.4,2.6,2.9,2.3,6c-0.5,3.1-1.3,5.4-3.1,7c-1,1-3.9,2.1-6.9,1.7
						c-3-0.5-5.2-0.9-6.2-3s-0.1-9.7-0.1-9.7S79.4,44.6,80.7,40.1z"/>
					<g>
						<path class="st12" d="M77.2,43.9c0,0,0.2,2.8,2.5,6.5C79.4,47.7,78.3,45.6,77.2,43.9L77.2,43.9z"/>
					</g>
					<path class="st13" d="M78.5,43.3c0,0,1.1,2.6,4.5,5.4C81.7,46.2,80,44.5,78.5,43.3"/>
					<g>
						<path class="st12" d="M79.5,42c1.6,1.4,3.5,2.6,6.1,3.4C82.3,42.6,79.5,42,79.5,42L79.5,42z"/>
					</g>
				</g>
				<g>
					<g>
						<path class="st10" d="M74.8,44.4c0,0,1.8,6.8,1.2,8.7c-0.7,1.9-1.8,3.6-4.8,4.5c-3,0.8-5.5,0.9-7.7-0.2
							c-1.3-0.6-3.5-2.8-4.1-5.8c-0.7-2.9-1.2-5.2,0.5-6.9c1.7-1.8,9-3.7,9-3.7S70.1,44.8,74.8,44.4z"/>
						<path class="st10" d="M69.9,42.6c0,0-2.5,1.3-5.2,4.8C67.2,46,68.8,44.2,69.9,42.6z"/>
						<path class="st10" d="M71,43.6c0,0-2,1.9-3.4,6.1C69.5,47.6,70.5,45.5,71,43.6"/>
						<path class="st10" d="M72.7,43.9c0,0,0.5,2.8-0.8,6.9C71.5,48.1,72,45.9,72.7,43.9z"/>
					</g>
					<g>
						<path class="st9" d="M74.8,44.4c0,0,1.8,6.8,1.2,8.7c-0.7,1.9-1.8,3.6-4.8,4.5c-3,0.8-5.5,0.9-7.7-0.2
							c-1.3-0.6-3.5-2.8-4.1-5.8c-0.7-2.9-1.2-5.2,0.5-6.9c1.7-1.8,9-3.7,9-3.7S70.1,44.8,74.8,44.4z"/>
						<g>
							<path class="st12" d="M69.9,42.6L69.9,42.6L69.9,42.6z M69.9,42.6c0,0-2.5,1.3-5.2,4.8C67.2,46,68.8,44.2,69.9,42.6
								L69.9,42.6z"/>
						</g>
						<path class="st13" d="M71,43.6c0,0-2,1.9-3.4,6.1C69.5,47.6,70.5,45.5,71,43.6"/>
						<g>
							<path class="st12" d="M72.7,43.9c-0.7,1.9-1.2,4.2-0.8,6.9C73.1,46.8,72.7,43.9,72.7,43.9L72.7,43.9z"/>
						</g>
					</g>
				</g>
				<g>
					<g>
						<g>
							<path class="st10" d="M69,40.2c0,0-5.9,3.8-7.9,3.8c-2,0-4-0.6-5.6-3.1c-1.7-2.6-2.5-5.1-2.1-7.4c0.2-1.4,1.7-4.2,4.3-5.7
								c2.6-1.6,4.6-2.6,6.7-1.7s6.3,7.5,6.3,7.5S67.1,35.9,69,40.2z"/>
							<g>
								<path class="st10" d="M69.1,35c0,0-1.9-2-6.1-3.4C65.1,33.4,67.2,34.4,69.1,35z"/>
							</g>
							<g>
								<path class="st10" d="M68.7,37.9c0,0-2.5,1.4-6.9,1.4C64.4,38.1,66.6,37.9,68.7,37.9z"/>
							</g>
						</g>
					</g>
					<g>
						<path class="st5" d="M69,40.2c0,0-5.9,3.8-7.9,3.8c-2,0-4-0.6-5.6-3.1c-1.7-2.6-2.5-5.1-2.1-7.4c0.2-1.4,1.7-4.2,4.3-5.7
							c2.6-1.6,4.6-2.6,6.7-1.7s6.3,7.5,6.3,7.5S67.1,35.9,69,40.2z"/>
						<g>
							<path d="M63.6,31.8c2,1.8,4.2,2.8,6.1,3.4C69.6,35.2,67.7,33.1,63.6,31.8L63.6,31.8z"/>
						</g>
						<path class="st11" d="M69.3,36.7c0,0-2.5-1.4-6.9-1.4C65,36.6,67.3,36.7,69.3,36.7"/>
						<g>
							<path class="st12" d="M68.2,37.9c-1.8,0-4,0.3-6.3,1.4c4.4,0,6.9-1.4,6.9-1.4C68.5,37.9,68.4,37.9,68.2,37.9L68.2,37.9z"/>
						</g>
					</g>
				</g>
				<g>
					<g>
						<path class="st10" d="M78.5,33.6c0,0,3.1-6.3,4.8-7.3c1.8-1.1,3.7-1.6,6.5-0.3c2.8,1.5,4.8,3,5.6,5.2c0.6,1.3,0.8,4.4-0.7,7.1
							c-1.4,2.6-2.4,4.7-4.9,5c-2.4,0.3-9.2-3.1-9.2-3.1S82.4,36.4,78.5,33.6z"/>
						<path class="st10" d="M81,38.2c0,0,2.7,0.7,7-0.3C85.3,37.4,83,37.7,81,38.2z"/>
						<path class="st10" d="M80.8,36.7c0,0,2.8-0.2,6.5-2.4C84.6,34.7,82.5,35.7,80.8,36.7"/>
						<path class="st10" d="M79.9,35.4c0,0,1.5-2.4,5.2-4.8C83.5,33,81.6,34.4,79.9,35.4z"/>
					</g>
					<g>
						<path class="st5" d="M78.5,33.6c0,0,3.1-6.3,4.8-7.3c1.8-1.1,3.7-1.6,6.5-0.3c2.8,1.5,4.8,3,5.6,5.2c0.6,1.3,0.8,4.4-0.7,7.1
							c-1.4,2.6-2.4,4.7-4.9,5c-2.4,0.3-9.2-3.1-9.2-3.1S82.4,36.4,78.5,33.6z"/>
						<g>
							<path class="st12" d="M84.6,37.9c-1.5,0-2.8,0.2-4.1,0.6c0,0,1,0.3,2.6,0.3c1.2,0,2.6-0.1,4.4-0.5
								C86.6,38,85.6,37.9,84.6,37.9L84.6,37.9z"/>
						</g>
						<path class="st11" d="M79.9,36.8c0,0,2.8-0.2,6.5-2.4C83.7,34.8,81.6,35.8,79.9,36.8"/>
						<g>
							<path d="M84.6,30.9c-3.7,2.3-5.2,4.8-5.2,4.8C81.2,34.6,83.1,33.2,84.6,30.9L84.6,30.9z"/>
						</g>
					</g>
				</g>
				<circle class="st14" cx="74.5" cy="38.5" r="6.7"/>
				<circle class="st5" cx="74.5" cy="38.5" r="6.7"/>
			</g>
			<g>
				<path class="st7" d="M103.6,64.5H44.4c0,0-6.3,0-3.8-9c2.4-8.8,13.6-20.1,33-20.1c23.7,0,33.9,14.5,35.2,23
					C109.9,65.1,103.6,64.5,103.6,64.5z"/>
				<path class="st4" d="M103.6,64.5H44.4c0,0-6.3,0-3.8-9c2.4-8.8,13.6-20.1,33-20.1c23.7,0,33.9,14.5,35.2,23
					C109.9,65.1,103.6,64.5,103.6,64.5z"/>
				<path class="st15" d="M54.2,44.2c-0.1,0.1,0,0.3,0.1,0.4c0.2,0.1,0.5,0,0.7-0.2l0.1-0.1c0.1-0.1,0-0.3-0.1-0.4
					c-0.2-0.2-0.5-0.3-0.7-0.1c-0.2,0.2-0.2,0.6,0.1,0.7"/>
				<path class="st15" d="M82,43.8c-0.1,0.1,0,0.3,0.1,0.4c0.2,0.1,0.5,0,0.7-0.2l0.1-0.1c0.1-0.1,0-0.3-0.1-0.4
					c-0.2-0.2-0.5-0.3-0.7-0.1c-0.2,0.2-0.2,0.6,0.1,0.7"/>
				<path class="st15" d="M82.5,39.9c-0.1,0.1,0,0.3,0.1,0.4c0.2,0.1,0.5,0,0.7-0.2l0.1-0.1c0.1-0.1,0-0.3-0.1-0.4
					c-0.2-0.2-0.5-0.3-0.7-0.1c-0.2,0.2-0.2,0.6,0.1,0.7"/>
				<path class="st15" d="M77.9,40.8c-0.1,0.1,0,0.3,0.1,0.4c0.2,0.1,0.5,0,0.7-0.2l0.1-0.1c0.1-0.1,0-0.3-0.1-0.4
					c-0.2-0.2-0.5-0.3-0.7-0.1s-0.2,0.6,0.1,0.7"/>
				<path class="st15" d="M59,43.4c-0.1,0.1,0,0.3,0.1,0.4c0.2,0.1,0.5,0,0.7-0.2l0.1-0.1c0.1-0.1,0-0.3-0.1-0.4
					c-0.2-0.2-0.5-0.3-0.7-0.1c-0.2,0.2-0.2,0.6,0.1,0.7"/>
				<path class="st15" d="M91.9,45.4c-0.1,0.1,0,0.3,0.1,0.4c0.2,0.1,0.5,0,0.7-0.2l0.1-0.1c0.1-0.1,0-0.3-0.1-0.4
					c-0.2-0.2-0.5-0.3-0.7-0.1c-0.2,0.2-0.2,0.6,0.1,0.7"/>
				<path class="st15" d="M90.6,42.5c-0.1,0.1,0,0.3,0.1,0.4c0.2,0.1,0.5,0,0.7-0.2l0.1-0.1c0.1-0.1,0-0.3-0.1-0.4
					c-0.2-0.2-0.5-0.3-0.7-0.1c-0.2,0.2-0.2,0.6,0.1,0.7"/>
				<path class="st15" d="M88.7,40.8c-0.1,0.1,0,0.3,0.1,0.4c0.2,0.1,0.5,0,0.7-0.2l0.1-0.1c0.1-0.1,0-0.3-0.1-0.4
					c-0.2-0.2-0.5-0.3-0.7-0.1s-0.2,0.6,0.1,0.7"/>
				<path class="st15" d="M65.6,45.8c-0.1,0.1,0,0.3,0.1,0.4c0.2,0.1,0.5,0,0.7-0.2l0.1-0.1c0.1-0.1,0-0.3-0.1-0.4
					c-0.2-0.2-0.5-0.3-0.7-0.1c-0.2,0.2-0.2,0.6,0.1,0.7"/>
				<path class="st15" d="M68.3,43.4c-0.1,0.1,0,0.3,0.1,0.4c0.2,0.1,0.5,0,0.7-0.2l0.1-0.1c0.1-0.1,0-0.3-0.1-0.4
					c-0.2-0.2-0.5-0.3-0.7-0.1c-0.2,0.2-0.2,0.6,0.1,0.7"/>
				<path class="st15" d="M65.2,39.5c-0.1,0.1,0,0.3,0.1,0.4c0.2,0.1,0.5,0,0.7-0.2l0.1-0.1c0.1-0.1,0-0.3-0.1-0.4
					c-0.2-0.2-0.5-0.3-0.7-0.1s-0.2,0.6,0.1,0.7"/>
				<path class="st15" d="M85.8,44.1c-0.1,0.1,0,0.3,0.1,0.4c0.2,0.1,0.5,0,0.7-0.2l0.1-0.1c0.1-0.1,0-0.3-0.1-0.4
					c-0.2-0.2-0.5-0.3-0.7-0.1c-0.2,0.2-0.2,0.6,0.1,0.7"/>
				<path class="st15" d="M80.6,41.2c-0.1,0.1,0,0.3,0.1,0.4c0.2,0.1,0.5,0,0.7-0.2l0.1-0.1c0.1-0.1,0-0.3-0.1-0.4
					c-0.2-0.2-0.5-0.3-0.7-0.1c-0.2,0.2-0.2,0.6,0.1,0.7"/>
				<path class="st15" d="M65.6,42.2c-0.1,0.1,0,0.3,0.1,0.4c0.2,0.1,0.5,0,0.7-0.2l0.1-0.1c0.1-0.1,0-0.3-0.1-0.4
					c-0.2-0.2-0.5-0.3-0.7-0.1s-0.2,0.6,0.1,0.7"/>
				<path class="st15" d="M68.8,39.1c-0.1,0.1,0,0.3,0.1,0.4c0.2,0.1,0.5,0,0.7-0.2l0.1-0.1c0.1-0.1,0-0.3-0.1-0.4
					c-0.2-0.2-0.5-0.3-0.7-0.1c-0.2,0.2-0.2,0.6,0.1,0.7"/>
				<path class="st15" d="M61.6,42.9c-0.1,0.1,0,0.3,0.1,0.4c0.2,0.1,0.5,0,0.7-0.2l0.1-0.1c0.1-0.1,0-0.3-0.1-0.4
					c-0.2-0.2-0.5-0.3-0.7-0.1c-0.2,0.2-0.2,0.6,0.1,0.7"/>
				<path class="st15" d="M63,47c-0.1,0.1,0,0.3,0.1,0.4c0.2,0.1,0.5,0,0.7-0.2l0.1-0.1c0.1-0.1,0-0.3-0.1-0.4
					c-0.2-0.2-0.5-0.3-0.7-0.1c-0.2,0.2-0.2,0.6,0.1,0.7"/>
				<path class="st15" d="M61.6,45.4c-0.1,0.1,0,0.3,0.1,0.4c0.2,0.1,0.5,0,0.7-0.2l0.1-0.1c0.1-0.1,0-0.3-0.1-0.4
					c-0.2-0.2-0.5-0.3-0.7-0.1c-0.2,0.2-0.2,0.6,0.1,0.7"/>
				<path class="st15" d="M57.7,45.1c-0.1,0-0.2,0.1-0.1,0.2c0,0.2,0.3,0.4,0.5,0.3s0.2-0.5,0-0.6s-0.5,0-0.6,0.3"/>
				<path class="st15" d="M84.9,47.5c-0.1,0-0.2,0.1-0.1,0.2c0,0.2,0.3,0.4,0.5,0.3s0.2-0.5,0-0.6c-0.2-0.1-0.5,0-0.6,0.3"/>
				<path class="st15" d="M73.8,39.9c-0.1,0-0.2,0.1-0.1,0.2c0,0.2,0.3,0.4,0.5,0.3c0.2-0.1,0.2-0.5,0-0.6c-0.2-0.1-0.5,0-0.6,0.3"
					/>
				<path class="st15" d="M74.3,42c-0.1,0-0.2,0.1-0.1,0.2c0,0.2,0.3,0.4,0.5,0.3c0.2-0.1,0.2-0.5,0-0.6c-0.2-0.1-0.5,0-0.6,0.3"/>
				<path class="st15" d="M82.7,41.4c-0.1,0-0.2,0.1-0.1,0.2c0,0.2,0.3,0.4,0.5,0.3c0.2-0.1,0.2-0.5,0-0.6s-0.5,0-0.6,0.3"/>
				<path class="st15" d="M61.3,40.6c-0.1,0-0.2,0.1-0.1,0.2c0,0.2,0.3,0.4,0.5,0.3c0.2-0.1,0.2-0.5,0-0.6c-0.2-0.1-0.5,0-0.6,0.3"
					/>
				<path class="st15" d="M91.2,48.8c-0.1,0-0.2,0.1-0.1,0.2c0,0.2,0.3,0.4,0.5,0.3c0.2-0.1,0.2-0.5,0-0.6c-0.2-0.1-0.5,0-0.6,0.3"
					/>
				<path class="st15" d="M59.2,48.8c-0.1,0-0.2,0.1-0.1,0.2c0,0.2,0.3,0.4,0.5,0.3c0.2-0.1,0.2-0.5,0-0.6c-0.2-0.1-0.5,0-0.6,0.3"
					/>
				<path class="st15" d="M95.2,44.4c-0.1,0-0.2,0.1-0.1,0.2c0,0.2,0.3,0.4,0.5,0.3s0.2-0.5,0-0.6s-0.5,0-0.6,0.3"/>
				<path class="st15" d="M96.6,47.5c-0.1,0-0.2,0.1-0.1,0.2c0,0.2,0.3,0.4,0.5,0.3c0.2-0.1,0.2-0.5,0-0.6c-0.2-0.1-0.5,0-0.6,0.3"
					/>
				<path class="st15" d="M50.4,47.9c-0.1,0-0.2,0.1-0.1,0.2c0,0.2,0.3,0.4,0.5,0.3c0.2-0.1,0.2-0.5,0-0.6s-0.5,0-0.6,0.3"/>
				<path class="st15" d="M68.4,49.1c-0.1,0-0.2,0.1-0.1,0.2c0,0.2,0.3,0.4,0.5,0.3c0.2-0.1,0.2-0.5,0-0.6c-0.2-0.1-0.5,0-0.6,0.3"
					/>
				<path class="st15" d="M70.3,41.3c-0.1,0-0.2,0.1-0.1,0.2c0,0.2,0.3,0.4,0.5,0.3c0.2-0.1,0.2-0.5,0-0.6s-0.6,0-0.6,0.2"/>
				<path class="st15" d="M70.6,39.2c-0.1,0-0.2,0.1-0.1,0.2c0,0.2,0.3,0.4,0.5,0.3c0.2-0.1,0.2-0.5,0-0.6s-0.5,0-0.6,0.3"/>
				<path class="st15" d="M80,44.8c-0.1,0-0.2,0.1-0.1,0.2c0,0.2,0.3,0.4,0.5,0.3c0.2-0.1,0.2-0.5,0-0.6c-0.2-0.1-0.5,0-0.6,0.3"/>
				<path class="st15" d="M86,39.9c-0.1,0-0.2,0.1-0.1,0.2c0,0.2,0.3,0.4,0.5,0.3c0.2-0.1,0.2-0.5,0-0.6s-0.5,0-0.6,0.3"/>
				<path class="st15" d="M71.7,40.3c-0.1,0-0.2,0.1-0.1,0.2c0,0.2,0.3,0.4,0.5,0.3c0.2-0.1,0.2-0.5,0-0.6c-0.2-0.1-0.5,0-0.6,0.3"
					/>
				<path class="st15" d="M71.7,44.3c-0.1,0-0.2,0.1-0.1,0.2c0,0.2,0.3,0.4,0.5,0.3c0.2-0.1,0.2-0.5,0-0.6c-0.2-0.1-0.5,0-0.6,0.3"
					/>
				<path class="st15" d="M77.6,43.6c-0.1,0-0.2,0.1-0.1,0.2c0,0.2,0.3,0.4,0.5,0.3c0.2-0.1,0.2-0.5,0-0.6c-0.2-0.1-0.5,0-0.6,0.3"
					/>
				<path class="st15" d="M80.4,38.2c-0.1,0-0.2,0.1-0.1,0.2c0,0.2,0.3,0.4,0.5,0.3c0.2-0.1,0.2-0.5,0-0.6c-0.2-0.1-0.5,0-0.6,0.3"
					/>
				<path class="st15" d="M87.4,42.3c-0.1,0-0.2,0.1-0.1,0.2c0,0.2,0.3,0.4,0.5,0.3c0.2-0.1,0.2-0.5,0-0.6c-0.2-0.1-0.5,0-0.6,0.3"
					/>
				<path class="st15" d="M74.1,45.6c-0.1,0-0.2,0.1-0.1,0.2c0,0.2,0.3,0.4,0.5,0.3c0.2-0.1,0.2-0.5,0-0.6c-0.2-0.1-0.5,0-0.6,0.3"
					/>
				<path class="st15" d="M68.4,40.9c-0.1,0-0.2,0.1-0.1,0.2c0,0.2,0.3,0.4,0.5,0.3c0.2-0.1,0.2-0.5,0-0.6c-0.2-0.1-0.5,0-0.6,0.3"
					/>
				<path class="st15" d="M75.4,40.3c-0.1,0-0.2,0.1-0.1,0.2c0,0.2,0.3,0.4,0.5,0.3c0.2-0.1,0.2-0.5,0-0.6c-0.2-0.1-0.5,0-0.6,0.3"
					/>
				<path class="st15" d="M76.3,38.2c-0.1,0-0.2,0.1-0.1,0.2c0,0.2,0.3,0.4,0.5,0.3c0.2-0.1,0.2-0.5,0-0.6c-0.2-0.1-0.5,0-0.6,0.3"
					/>
				<path class="st15" d="M85.3,42c-0.1,0-0.2,0.1-0.1,0.2c0,0.2,0.3,0.4,0.5,0.3c0.2-0.1,0.2-0.5,0-0.6s-0.5,0-0.6,0.3"/>
				<path class="st15" d="M63.2,41.6c-0.1,0-0.2,0.1-0.1,0.2c0,0.2,0.3,0.4,0.5,0.3c0.2-0.1,0.2-0.5,0-0.6c-0.2-0.1-0.5,0-0.6,0.3"
					/>
				<path class="st15" d="M54.3,46.8c-0.2,0.1-0.2,0.4,0,0.5c0.2,0.1,0.4,0.1,0.6,0c0.1-0.1,0.2-0.2,0.3-0.3c0-0.2-0.1-0.3-0.2-0.4
					c-0.1-0.1-0.3-0.1-0.5-0.1c-0.1,0-0.3,0-0.4,0.1s-0.1,0.3,0,0.3"/>
				<path class="st15" d="M57.3,41.6c-0.2,0.1-0.2,0.4,0,0.5c0.2,0.1,0.4,0.1,0.6,0c0.1-0.1,0.2-0.2,0.3-0.3c0-0.2-0.1-0.3-0.2-0.4
					c-0.2,0-0.4,0-0.6,0c-0.1,0-0.3,0-0.4,0.1c-0.1,0.1-0.1,0.3,0,0.3"/>
				<path class="st15" d="M89.3,44.8c-0.2,0.1-0.2,0.4,0,0.5c0.2,0.1,0.4,0.1,0.6,0c0.1-0.1,0.2-0.2,0.3-0.3c0-0.2-0.1-0.3-0.2-0.4
					c-0.1-0.1-0.3-0.1-0.5-0.1c-0.1,0-0.3,0-0.4,0.1c-0.1,0.1-0.1,0.3,0,0.3"/>
			</g>
			<g>
				<path d="M43.6,67.6h3l3.3,6.7l3.3-6.7h3v12.2h-3v-7l-2.4,4.9h-1.7l-2.4-4.9v7h-3L43.6,67.6L43.6,67.6z"/>
				<path d="M58.2,67.6h9v2.3h-5.9v2.5h5.3v2.3h-5.3v2.6h5.9v2.3h-9V67.6z"/>
				<path d="M69.3,67.6H72l5.2,7.3v-7.3h3v12.2h-2.6l-5.2-7.2v7.2h-3V67.6z"/>
				<path d="M83.7,78.4c-1-1-1.6-2.6-1.6-4.7c0-2.2,0.5-3.8,1.6-4.8c1-1,2.5-1.6,4.6-1.6s3.5,0.5,4.6,1.6c1,1,1.6,2.6,1.6,4.8
					c0,2.1-0.5,3.7-1.6,4.7c-1,1-2.5,1.6-4.6,1.6S84.8,79.5,83.7,78.4z M90.6,76.4c0.5-0.6,0.7-1.5,0.7-2.7c0-1.4-0.2-2.3-0.7-2.8
					c-0.5-0.6-1.2-0.9-2.2-0.9c-1.1,0-1.8,0.3-2.2,0.9c-0.5,0.6-0.7,1.6-0.7,2.8c0,1.3,0.2,2.1,0.7,2.7c0.5,0.6,1.3,0.9,2.2,0.9
					S90.1,77,90.6,76.4z"/>
				<path d="M98,79.8c-0.7-0.1-1.3-0.3-1.8-0.5v-2.6c0.6,0.3,1.2,0.5,1.8,0.6c0.7,0.1,1.3,0.2,1.9,0.2c0.8,0,1.4-0.1,1.8-0.2
					c0.3-0.1,0.5-0.5,0.5-0.9c0-0.3-0.1-0.6-0.3-0.8c-0.2-0.2-0.5-0.3-0.8-0.5c-0.4-0.1-1-0.3-1.8-0.6c-0.9-0.3-1.5-0.5-1.9-0.9
					c-0.5-0.3-0.9-0.7-1.1-1.1c-0.2-0.4-0.3-1-0.3-1.7c0-1.2,0.4-2,1.3-2.6c0.9-0.6,2-0.9,3.7-0.9c0.7,0,1.4,0.1,2,0.2
					c0.7,0.1,1.3,0.2,1.7,0.4v2.6c-1.1-0.4-2.1-0.6-3.2-0.6c-0.8,0-1.4,0.1-1.8,0.2c-0.4,0.1-0.6,0.4-0.6,0.9c0,0.3,0.1,0.5,0.2,0.7
					c0.2,0.2,0.4,0.3,0.7,0.4c0.3,0.1,0.9,0.3,1.6,0.5c1,0.3,1.8,0.6,2.2,1c0.5,0.4,0.9,0.8,1.1,1.3c0.2,0.5,0.3,1.1,0.3,1.7
					c0,1.1-0.4,1.9-1.3,2.6s-2.1,1-3.8,1C99.5,80,98.8,79.9,98,79.8z"/>
				<path d="M43.6,81.8h9v2.4h-5.9v2.5h5.3v2.3h-5.3v2.5h5.9V94h-9L43.6,81.8L43.6,81.8z"/>
				<path d="M56.5,94.1c-0.7-0.1-1.3-0.3-1.8-0.5v-2.6c0.6,0.3,1.2,0.5,1.8,0.6c0.7,0.1,1.3,0.2,1.9,0.2c0.8,0,1.4-0.1,1.8-0.2
					c0.3-0.1,0.5-0.5,0.5-0.9c0-0.3-0.1-0.6-0.3-0.8c-0.2-0.2-0.5-0.3-0.8-0.5c-0.4-0.1-1-0.3-1.8-0.6c-0.9-0.3-1.5-0.5-1.9-0.9
					c-0.5-0.3-0.9-0.7-1.1-1.1c-0.2-0.4-0.3-1-0.3-1.7c0-1.2,0.4-2,1.3-2.6c0.9-0.6,2-0.9,3.7-0.9c0.7,0,1.4,0.1,2,0.2
					c0.7,0.1,1.3,0.2,1.7,0.4v2.6c-1.1-0.4-2.1-0.6-3.2-0.6c-0.8,0-1.4,0.1-1.8,0.2c-0.4,0.1-0.6,0.4-0.6,0.9c0,0.3,0.1,0.5,0.2,0.7
					c0.2,0.2,0.4,0.3,0.7,0.4c0.3,0.1,0.9,0.3,1.6,0.5c1,0.3,1.8,0.6,2.2,1c0.5,0.4,0.9,0.8,1.1,1.3c0.2,0.5,0.3,1.1,0.3,1.7
					c0,1.1-0.4,1.9-1.3,2.6c-0.9,0.7-2.1,1-3.8,1C57.9,94.2,57.2,94.2,56.5,94.1z"/>
				<path d="M68.5,81.8h3l3.3,6.7l3.3-6.7h3V94h-3v-7l-2.4,4.9H74L71.6,87v7h-3L68.5,81.8L68.5,81.8z"/>
				<path d="M98,94.1c-0.7-0.1-1.3-0.3-1.8-0.5v-2.6c0.6,0.3,1.2,0.5,1.8,0.6c0.7,0.1,1.3,0.2,1.9,0.2c0.8,0,1.4-0.1,1.8-0.2
					c0.3-0.1,0.5-0.5,0.5-0.9c0-0.3-0.1-0.6-0.3-0.8c-0.2-0.2-0.5-0.3-0.8-0.5c-0.4-0.1-1-0.3-1.8-0.6c-0.9-0.3-1.5-0.5-1.9-0.9
					c-0.5-0.3-0.9-0.7-1.1-1.1c-0.2-0.4-0.3-1-0.3-1.7c0-1.2,0.4-2,1.3-2.6c0.9-0.6,2-0.9,3.7-0.9c0.7,0,1.4,0.1,2,0.2
					c0.7,0.1,1.3,0.2,1.7,0.4v2.6c-1.1-0.4-2.1-0.6-3.2-0.6c-0.8,0-1.4,0.1-1.8,0.2c-0.4,0.1-0.6,0.4-0.6,0.9c0,0.3,0.1,0.5,0.2,0.7
					c0.2,0.2,0.4,0.3,0.7,0.4c0.3,0.1,0.9,0.3,1.6,0.5c1,0.3,1.8,0.6,2.2,1c0.5,0.4,0.9,0.8,1.1,1.3s0.3,1.1,0.3,1.7
					c0,1.1-0.4,1.9-1.3,2.6s-2.1,1-3.8,1C99.5,94.2,98.8,94.2,98,94.1z"/>
				<g>
					<g>
						<path d="M87.2,81.8h3.3L95,94h-3.2l-1.1-2.7h-4.1l-1,2.7h-3.2L87.2,81.8z M90.4,89l-1.7-4.2L87.2,89H90.4z"/>
					</g>
					<polygon points="92.1,84 92.5,84 94.3,80.3 91.7,80.3 91.2,81.6 					"/>
				</g>
			</g>
		</g>
	</g>
</g>
</svg>
