<?xml version="1.0" encoding="utf-8"?>
<!-- Generator: Adobe Illustrator 22.0.1, SVG Export Plug-In . SVG Version: 6.00 Build 0)  -->
<svg version="1.1" id="Capa_1" xmlns="http://www.w3.org/2000/svg" xmlns:xlink="http://www.w3.org/1999/xlink" x="0px" y="0px"
	 viewBox="0 0 168 57" style="enable-background:new 0 0 168 57;" xml:space="preserve">
<style type="text/css">
	.st0{fill:#FFFFFF;}
	.st1{fill:#FFAA24;}
	.st2{fill:#E58E00;}
	.st3{fill:none;stroke:#FFFFFF;stroke-width:0.8242;stroke-linecap:round;stroke-miterlimit:10;}
</style>
<g>
	<g>
		<path class="st0" d="M55.9,19.1l-1.3,4c-0.3,1.1-0.7,2.2-1.1,3.3c-0.4,1.1-0.7,2.2-1.1,3.4c-0.1,0.3-0.3,0.4-0.5,0.4
			c-0.2,0-0.4,0-0.6,0c-0.2,0-0.4,0-0.6,0c-0.1-0.2-0.1-0.4-0.1-0.4c-0.2,0.1-0.2,0.1-0.2,0.2c0,0.1,0.1,0.2,0.1,0.2h-1.3
			C49.1,30,49,29.7,49,29.5c-0.1-0.2-0.2-0.4-0.2-0.7l-0.5-1.7c0-0.1,0-0.2,0-0.3c0-0.1,0-0.2,0-0.3h0c-0.1,0-0.1,0-0.1,0
			c0-0.1-0.1-0.2-0.1-0.3c0-0.1-0.1-0.2-0.1-0.3c-0.4-1.1-0.7-2.2-1.1-3.3c-0.3-1.1-0.7-2.2-1-3.3c-0.1-0.1-0.1-0.2-0.2-0.3l0,11.5
			h2.7V36h-10v-0.9v-0.7c0.1,0.1,0.3,0.1,0.3,0.2c0.1,0.1,0.2,0.1,0.3,0.2c0.1,0.1,0.3,0,0.4-0.1c0.3-0.3,0.4-0.6,0.4-1
			c0-0.2-0.1-0.4-0.1-0.6c0-0.2,0-0.4-0.1-0.6l-0.3,0.1c0,0-0.1,0.1-0.2,0.1c-0.3,0.1-0.4,0.1-0.5,0.1c-0.1,0-0.2,0.1-0.3,0.3v-2.4
			h3.1c0-0.1,0-0.2,0-0.3s0-0.2,0-0.2V22c0-0.2-0.1-0.5-0.2-0.7c-0.2-0.2-0.4-0.5-0.6-0.7c-0.2-0.3-0.4-0.5-0.6-0.8
			c0.2-0.3,0.3-0.6,0.1-1c-0.2-0.1-0.3-0.1-0.5-0.1c0.2-0.1,0.3-0.2,0.4-0.2s0.2,0.1,0.3,0.2c0.1,0.1,0.1,0.1,0.2,0.1
			c0.1,0,0.2,0.1,0.2,0.1c0,0,0-0.1,0-0.1c0,0,0,0,0-0.1c-0.1-0.1-0.2-0.1-0.3-0.2c-0.2-0.1-0.3-0.3-0.3-0.4c0-0.1,0.1-0.3,0.2-0.5
			c0.1-0.2,0.2-0.3,0.4-0.5c0.1-0.2,0.3-0.3,0.4-0.5c0.1-0.1,0.2-0.3,0.2-0.5c0-1.3,0-2.5,0-3.7c0-1.2,0-2.5,0-3.7
			c0-0.1,0-0.1,0-0.1c0,0,0-0.1,0-0.1h-2.9V3.2c0.4,0,0.8,0,1.2,0c0.4,0,0.8,0,1.2,0c0.4,0,0.8,0,1.2,0c0.4,0,0.8,0,1.2-0.1H46h2.5
			v5.3l-1.4,0c0.6,1.8,1.2,3.6,1.8,5.4c0.6,1.8,1.2,3.5,1.7,5.3c0.1,0,0.1,0,0.1,0c0.6-1.8,1.2-3.6,1.8-5.4c0.6-1.8,1.2-3.6,1.8-5.4
			h-1.2V3.3h9.9v5.3h-3c0,0.1,0,0.3,0,0.5v7.1c0,0.3,0.1,0.5,0.2,0.7c0.3,0.4,0.6,0.8,0.9,1.1c0.3,0.4,0.6,0.7,0.9,1.1
			c-0.3,0.4-0.6,0.7-0.9,1.1c-0.3,0.4-0.6,0.8-0.9,1.2C60.1,21.5,60,21.7,60,22v6.7v2h2.8V36h-6.7c-0.1-0.1-0.2-0.2-0.3-0.4
			c-0.1,0.2-0.2,0.3-0.3,0.4h-2.6v-5.2H56v-0.4v-2.7c0-0.1,0-0.2,0-0.3c0-0.1,0-0.2,0.2-0.2v-0.1c-0.1-0.1-0.2-0.3-0.2-0.4
			c0-0.1,0-0.3,0-0.4L55.9,19.1L55.9,19.1z M44.6,13.6c-0.1,0.1-0.1,0.2-0.1,0.2c0,0.1,0,0.2,0,0.3c0,0.1,0.1,0.2,0.2,0.2
			c0.1,0,0.2,0,0.3-0.1c0.1-0.1,0.1-0.2,0-0.3c0-0.1-0.1-0.2-0.1-0.3L44.6,13.6z M51.5,28.5C51.5,28.5,51.5,28.5,51.5,28.5
			c0.1,0,0.1,0,0.1,0c0-0.1,0-0.3,0-0.4c0-0.1,0-0.2,0-0.3c0-0.1,0-0.1-0.1-0.2c-0.1,0-0.1-0.1-0.1,0c-0.1,0.1-0.1,0.1-0.2,0.2
			c-0.1,0.1-0.1,0.1,0,0.3C51.2,28.1,51.3,28.3,51.5,28.5z M55.5,33.1c0.2,0.1,0.3,0.1,0.4,0.1s0.1-0.1,0.2-0.4c0-0.1,0-0.2,0-0.3
			c0-0.1-0.1-0.2-0.2-0.2c-0.2,0-0.3,0.1-0.4,0.3v0.1C55.5,32.8,55.5,32.9,55.5,33.1z M61.5,35.7c0.3-0.3,0.3-0.6,0-0.9
			c-0.2,0.2-0.3,0.3-0.3,0.4C61.2,35.3,61.3,35.4,61.5,35.7z"/>
		<path class="st0" d="M83.9,26.5c0,0.1,0,0.3,0,0.5c0,0.2,0,0.5,0,0.8c0,0.3,0,0.6,0,0.9c0,0.3,0,0.6,0,0.8c0,0.5,0,1.1,0,1.6
			c0,0.5,0,1,0,1.6V36H66.9v-5.2h2.2v-2.8c0.1,0,0.2,0,0.3,0c0.1,0,0.2,0,0.3-0.1c0.1,0,0.2-0.1,0.2-0.3c0.1-0.1,0.1-0.3,0-0.5
			c0-0.2-0.1-0.3-0.2-0.4c-0.1-0.1-0.2-0.1-0.3-0.1s-0.2,0-0.3,0.2v-1.7c0-0.5,0-1,0-1.6c0-0.5,0-1.1,0-1.6c0-0.2-0.1-0.4-0.2-0.6
			c-0.3-0.4-0.6-0.8-0.9-1.2c-0.3-0.4-0.6-0.8-0.9-1.2c0.3-0.4,0.6-0.7,0.9-1.1c0.3-0.4,0.6-0.7,0.9-1.1c0.1-0.2,0.2-0.4,0.2-0.6
			c0-1.2,0-2.5,0-3.7c0-1.2,0-2.5,0-3.7V8.5h-2.2V3.3h17v9.5h-5.2V8.6h-5.6v7.7h8.6v5.3h-8.7v9.1h5.6v-4.2H83.9z M70.6,32.6
			c-0.2,0.2-0.3,0.4-0.3,0.5c0,0.1,0.1,0.2,0.4,0.4c0.1-0.2,0.2-0.3,0.2-0.4S70.7,32.8,70.6,32.6z M76.8,34.3c0.3-0.3,0.3-0.6,0.1-1
			c-0.3,0.2-0.4,0.4-0.4,0.5C76.5,33.9,76.6,34.1,76.8,34.3z M82.2,32.6c0.1-0.1,0.2-0.1,0.2-0.1c0.2,0.1,0.3,0,0.3-0.2
			c0.1-0.2,0-0.3,0-0.5c-0.1-0.1-0.1-0.2-0.2-0.2c-0.1,0-0.1,0.1-0.2,0.2c-0.1,0.1-0.1,0.2-0.1,0.4C82.2,32.3,82.2,32.5,82.2,32.6z"
			/>
		<path class="st0" d="M91.4,31.3c0.1-0.1,0.2-0.2,0.3-0.2c0.1,0,0.2,0,0.4,0.2c0.2,0.1,0.3,0.2,0.4,0.2l0-0.1
			c-0.1-0.1-0.2-0.2-0.3-0.3C92,31,92,30.9,92,30.7c0-0.1,0-0.2,0.1-0.3c0-0.1,0.1-0.2,0.1-0.3c0-0.2-0.1-0.4-0.2-0.5
			c-0.2-0.2-0.2-0.3-0.2-0.5c0-0.1,0-0.1,0.1-0.2c0.1-0.1,0.1-0.2,0.1-0.2l0.4,0.3l0,0c-0.1-0.2-0.2-0.4-0.2-0.6
			c0.1-0.1,0.2-0.1,0.3-0.1c0.1,0,0.2,0,0.3,0.1c-0.1-0.1-0.2-0.4-0.2-0.8c0-0.4-0.1-0.7-0.2-0.9c-0.1-0.1-0.1-0.2-0.2-0.3
			c-0.1,0-0.1-0.1,0-0.3c-0.1,0-0.1,0-0.3,0.1l0.3-0.8l0-0.1l-0.5,0.7l-0.1,0l0.3-1.6c0.1,0.1,0.1,0.1,0.3,0.2
			c0.1,0.1,0.2,0.2,0.3,0.2c0.1,0,0.3-0.1,0.3-0.3c0.1-0.2,0.1-0.4,0.1-0.5c0-0.2,0-0.3-0.1-0.5c-0.1-0.1-0.2-0.3-0.3-0.4l-0.4,0.4
			c0.1-0.3,0.1-0.6,0.2-0.9c0.1-0.3,0.2-0.6,0.2-0.9c0-0.1-0.1-0.4-0.3-0.6c-0.2-0.3-0.4-0.6-0.7-0.9c-0.3-0.3-0.6-0.6-0.8-0.8
			c-0.3-0.2-0.5-0.4-0.6-0.5c0.6-0.3,1.2-0.7,1.8-1.1c0.6-0.4,1.2-0.9,1.7-1.4c0.1-0.1,0.2-0.5,0.4-1.2c0.2-0.8,0.4-1.6,0.7-2.6
			c0.2-1,0.5-1.9,0.6-2.7c0.2-0.9,0.3-1.4,0.3-1.6h-2.3V5.7c0.1,0,0.1,0,0.2,0c0.1,0,0.1,0,0.1-0.1c0-0.1,0-0.2-0.1-0.3l-0.3,0V3.1
			h10v5.3h-2.1c0.1,0.3,0.1,0.6,0.2,0.9c0.1,0.3,0.2,0.7,0.2,1c0,0.1,0,0.1-0.1,0.2c0,0.1-0.1,0.2,0,0.2l0.1,0.3
			c0.2,0.3,0.4,0.6,0.4,0.9c0.1,0.3,0.1,0.7,0.2,1c0,0.2,0.1,0.5,0.2,0.9c0.1,0.4,0.2,0.8,0.2,1.2c0.1,0.4,0.2,0.8,0.3,1.1
			c0.1,0.3,0.2,0.5,0.4,0.6c0.6,0.4,1.1,0.8,1.7,1.2c0.6,0.4,1.1,0.8,1.7,1.1c-0.1,0.1-0.3,0.2-0.6,0.5c-0.3,0.2-0.6,0.5-0.9,0.8
			c-0.3,0.3-0.5,0.6-0.8,0.8c-0.2,0.3-0.3,0.5-0.3,0.6l0,0.1c0.3,1.5,0.6,3,1,4.5c0.3,1.5,0.7,3,1,4.5h2.8V36H99v-5.2h2.8l-0.9-4
			c-0.7,0-1.4,0-2.1,0c-0.7,0-1.3,0-2,0c-0.3,0-0.5-0.1-0.5-0.3l-0.2-0.2c-0.1,0.1-0.2,0.2-0.2,0.3c-0.1,0.1-0.2,0.1-0.3,0.1l-0.9,4
			h2.5V36c-1.7,0-3.3,0-5,0c-1.7,0-3.3,0-5,0.1v-4l0,0c0.1-0.2,0.2-0.3,0.3-0.3c0.1,0,0.2,0,0.3,0.1l-0.1-0.4c0.1,0,0.2-0.1,0.2-0.1
			c0.1,0,0.2-0.1,0.2-0.1c-0.1-0.1-0.2-0.2-0.3-0.4l1,0c0.3,0,0.7,0,1.1,0.1c0.4,0.1,0.7,0.2,0.9,0.5H91.4z M88.6,33.2
			c0.1,0,0.1,0,0.3,0c0.1,0,0.2,0,0.3,0c0.2,0,0.3-0.1,0.4-0.3c0.1-0.2,0.2-0.4,0.2-0.5c0-0.2,0-0.3-0.1-0.5
			c-0.1-0.2-0.2-0.3-0.4-0.3c-0.2,0-0.4,0.1-0.5,0.4c-0.1,0.2-0.1,0.5-0.1,0.6C88.5,32.9,88.5,33,88.6,33.2z M91.6,28.8
			c-0.1,0.2-0.2,0.4-0.3,0.5c-0.2,0.1-0.3,0.1-0.5,0.2l0.1-0.5L91.6,28.8z M91.4,31.3l-0.3,0.2v0.3c0,0.1,0,0.2,0.1,0.4
			c0.1,0.2,0.2,0.2,0.3,0.2c0.2,0,0.3-0.1,0.3-0.2c0-0.1,0.1-0.3,0.1-0.4v-0.4L91.4,31.3z M96.2,11.9c-0.1,0.1-0.2,0.1-0.3,0.2
			c-0.1,0.1-0.2,0.2-0.2,0.3c0,0.1,0,0.2,0.1,0.2c0.1,0.1,0.2,0.1,0.2,0.2c0.1-0.1,0.2-0.3,0.2-0.5c0-0.1,0-0.2,0-0.3
			C96.2,12,96.2,12,96.2,11.9z M98.4,15h-0.1l-1.4,6.3h2.9L98.4,15z"/>
		<path class="st0" d="M129.7,3.2v12.8h-0.5h-2c-0.1,0-0.2,0-0.3,0c-0.1,0-0.1-0.1-0.1-0.3c-0.1,0.1-0.2,0.2-0.2,0.3h-2.2V8.6H122
			c0,0.1,0,0.1,0,0.2c0,0.1,0,0.2,0,0.2c0,0.5,0,1.1,0,1.6c0,0.5,0,1.1,0,1.6c0,0.2,0,0.4,0,0.6c0,0.2,0,0.4,0,0.6v1.3v1.3
			c0,0.3,0.1,0.5,0.2,0.6c0.3,0.4,0.6,0.8,0.9,1.2c0.3,0.4,0.6,0.8,0.9,1.2c-0.3,0.3-0.6,0.7-0.9,1c-0.3,0.3-0.6,0.7-0.9,1.1
			c0-0.3-0.1-0.6-0.1-0.9c0-0.3-0.1-0.5-0.1-0.8c-0.2,0-0.3,0-0.5,0c-0.2,0-0.3,0-0.5,0c-0.4,0.4-0.5,1-0.3,1.6
			c0.1,0.1,0.1,0.2,0.2,0.2c0,0.1,0.1,0.1,0.3,0.1c0.1,0,0.3,0,0.5,0.1c0.1,0.1,0.1,0.1,0.2,0.2c0.1,0.1,0.1,0.2,0.1,0.3v7.6
			c0,0.1,0,0.1,0,0.2c0,0.1-0.1,0.1-0.1,0.2c-0.1,0.1-0.1,0.2-0.1,0.2c0,0.1-0.1,0.2-0.1,0.2c0,0.1,0,0.3,0.1,0.3
			c0.1,0.1,0.2,0.1,0.4,0c0.1,0,0.1-0.1,0.2-0.1c0.1,0,0.1,0,0.2,0h2.2c0.1,0,0.1,0,0.2,0V36H115v-5.1h2.9v-0.5V22
			c0-0.3-0.1-0.5-0.2-0.6c-0.3-0.4-0.6-0.8-0.9-1.2s-0.7-0.8-1.1-1.1c0.4-0.3,0.8-0.7,1.1-1.1c0.3-0.4,0.6-0.8,0.9-1.2
			c0.1-0.2,0.2-0.3,0.2-0.4V8.8c0,0,0,0,0,0V8.6h-2.6v7.4h-5.1V3.2H129.7z M116.6,34c-0.1-0.1-0.1-0.1-0.2-0.2
			c0-0.1-0.1-0.1-0.2-0.1c-0.2,0-0.3,0.1-0.3,0.4c0,0.2,0.1,0.3,0.3,0.3c0.1,0,0.1-0.1,0.2-0.2C116.5,34.1,116.6,34,116.6,34z
			 M120.7,13.5c-0.1,0.1-0.3,0.2-0.4,0.3c-0.1,0.1-0.2,0.1-0.4,0c-0.1,0-0.2,0-0.3,0.1c-0.2,0.3-0.4,0.6-0.4,0.9
			c0,0.3,0.1,0.6,0.5,0.9c0.1,0.1,0.2,0.1,0.4,0.1c0.1,0,0.3-0.1,0.3-0.2c0.3-0.4,0.4-0.8,0.3-1.2c0-0.1,0-0.2,0-0.3s0-0.2,0-0.3
			V13.5z M119.6,21.7c0.2-0.3,0.3-0.4,0.1-0.6c-0.1-0.1-0.2-0.1-0.2,0C119.3,21.3,119.3,21.5,119.6,21.7z M120.7,23.8
			c0.3-0.2,0.4-0.4,0.3-0.6c-0.1,0-0.1-0.1-0.2-0.1c0,0-0.1,0-0.2,0C120.5,23.3,120.5,23.5,120.7,23.8z M121.1,30.4
			c-0.3,0.2-0.4,0.4-0.3,0.6c0,0.1,0.1,0.1,0.2,0.2c0.1,0,0.2-0.1,0.3-0.2C121.4,30.9,121.4,30.7,121.1,30.4z M121,21.7
			c-0.1,0.3-0.1,0.4,0,0.6c0,0.1,0,0.1,0.1,0.1c0,0,0.1,0.1,0.1,0.1c0.1-0.1,0.1-0.1,0.2-0.1c0,0,0.1-0.1,0.1-0.1
			c0.1-0.2,0-0.3-0.1-0.4C121.2,21.9,121.1,21.8,121,21.7z"/>
	</g>
	<g>
		<path class="st2" d="M54.4,43.5c0.3-0.2,0.5-0.5,0.7-0.8c0.2-0.3,0.4-0.6,0.6-0.9c0,0,0.1-0.1,0.1-0.2v-5.2c0,0,0-0.1,0-0.1h-1.7
			v-3.6h0.3h6.1c0.5,0,1.1,0,1.6,0.1c0.5,0,0.9,0.2,1.3,0.4c0.4,0.2,0.7,0.5,1,0.8c0.4,0.4,0.7,0.9,0.9,1.4c0.2,0.5,0.4,1,0.5,1.5
			c0.1,0.5,0.2,1,0.2,1.5c0,0.5,0,1,0,1.5c-0.1,0.6-0.2,1.1-0.3,1.6c-0.1,0.5-0.4,1-0.7,1.5c0,0,0,0,0,0.1s0,0,0,0.1c0,0,0,0,0,0
			c0,0,0,0,0,0c0.3,0.4,0.6,0.8,0.8,1.3c0.2,0.5,0.3,0.9,0.4,1.4c0.2,1,0.2,2,0.2,3c0,0.6-0.1,1.2-0.2,1.7c-0.1,0.6-0.3,1.1-0.6,1.7
			c0,0.1-0.1,0.1-0.1,0.2c0,0.1-0.1,0.1-0.2,0.1c0,0,0,0-0.1,0.1s0,0.1,0,0.1c0.1,0.1,0.1,0.2,0,0.3s-0.1,0.1-0.2,0.2
			c0,0-0.1,0.1-0.1,0.1c0,0-0.1,0.1-0.1,0.1c0-0.1,0-0.2,0-0.3c0-0.1-0.1-0.1-0.2-0.1c-0.2,0-0.2,0.1-0.2,0.2c0,0.1,0,0.2-0.1,0.3
			c0.1,0,0.1,0.1,0.2,0.1c0,0.1,0.1,0.1,0.2,0.1c-0.1,0.1-0.3,0.3-0.5,0.4c-0.2,0.1-0.5,0.3-0.7,0.4c-0.1-0.1-0.2-0.1-0.3-0.2
			c0,0.1-0.1,0.1-0.1,0.2c0,0-0.1,0.1-0.1,0.2c-0.1,0-0.2,0.1-0.3,0c-0.1,0-0.2-0.1-0.3-0.2c-0.1,0.1-0.2,0.1-0.3,0.2c0,0,0,0-0.1,0
			c0,0-0.1,0-0.1,0h-1.1h-0.2c0-0.1-0.1-0.3-0.1-0.4c0-0.1,0-0.3-0.1-0.4c-0.1,0-0.2,0-0.3,0s-0.2,0-0.3,0c-0.1,0.1-0.2,0.2-0.2,0.3
			c-0.1,0.1-0.1,0.2,0,0.4c0,0.1,0,0.1-0.1,0.1c0,0,0,0,0-0.1c0,0,0-0.1,0-0.1h-0.1c0,0.1-0.1,0.2-0.1,0.2H54v-3.5h1.9v-0.3v-5.7
			c0-0.2,0-0.3-0.1-0.5c-0.1-0.2-0.2-0.3-0.4-0.5c-0.1-0.2-0.3-0.3-0.4-0.5c-0.1-0.1-0.2-0.2-0.2-0.3C54.6,43.7,54.5,43.6,54.4,43.5
			z M54.6,54.5c0.1-0.1,0.1-0.3,0.1-0.4c0,0,0,0,0,0s0,0,0,0c-0.1,0.1-0.1,0.1-0.1,0.2c0,0,0.1,0.1,0.1,0.1S54.6,54.4,54.6,54.5z
			 M58.6,45.3v0.2V50c0,0.2,0,0.3-0.1,0.4c-0.2,0.2-0.2,0.4-0.2,0.6c0,0.2,0.1,0.4,0.3,0.5c0.2,0.2,0.4,0.2,0.5,0
			c0.1-0.1,0.1-0.1,0.2-0.1c0.1,0,0.1,0,0.2,0c0.3,0,0.5,0,0.8,0c0.3,0,0.5,0,0.8,0c0.2,0,0.5,0,0.7,0c0.3,0,0.5-0.1,0.7-0.2
			c0.2-0.1,0.4-0.3,0.6-0.4c0,0,0-0.1,0-0.1c0,0,0-0.1,0-0.1c0.2-0.3,0.3-0.6,0.3-0.9c0.1-0.3,0.1-0.6,0.1-1c0-0.1,0-0.1,0.1-0.2
			c0-0.1,0.1-0.1,0.2-0.1c-0.1,0-0.2-0.1-0.2-0.1c0-0.1,0-0.1,0-0.2c0-0.3-0.1-0.5-0.1-0.7c0-0.2-0.1-0.5-0.2-0.7
			c0-0.1-0.1-0.2-0.1-0.2s0-0.1,0-0.2c0,0-0.1-0.1-0.1-0.1c0,0,0,0-0.1-0.1c-0.4-0.5-0.9-0.8-1.5-0.8c-0.4,0-0.9,0-1.3,0
			c-0.4,0-0.9,0-1.3,0c0,0-0.1,0-0.1,0C58.7,45.3,58.6,45.3,58.6,45.3z M58.6,36.5v5.2h0.2h2.8c0.5,0,0.8-0.2,1.1-0.6
			c0.2-0.2,0.3-0.4,0.3-0.6c0.1-0.4,0.2-0.8,0.2-1.2c0-0.4,0-0.8,0-1.2c-0.1-0.4-0.2-0.7-0.4-1c-0.3-0.4-0.7-0.6-1.1-0.6h-2.1H58.6z
			"/>
		<path class="st2" d="M72.1,51.9c0.1-0.1,0.1-0.1,0.2-0.1c0.1,0,0.1,0,0.2,0.1c0.1,0.1,0.2,0.1,0.2,0.2l0-0.1
			c-0.1-0.1-0.1-0.1-0.2-0.2c-0.1-0.1-0.1-0.1-0.1-0.3c0-0.1,0-0.1,0-0.2c0-0.1,0-0.1,0-0.2c0-0.1-0.1-0.3-0.2-0.4
			c-0.1-0.1-0.2-0.2-0.2-0.3c0,0,0-0.1,0.1-0.1c0-0.1,0.1-0.1,0.1-0.1l0.3,0.2l0,0c-0.1-0.1-0.1-0.3-0.1-0.4c0.1,0,0.1-0.1,0.2,0
			c0.1,0,0.1,0,0.2,0c-0.1-0.1-0.2-0.2-0.2-0.5c0-0.3,0-0.5-0.1-0.6c0-0.1-0.1-0.2-0.1-0.2c0,0,0-0.1,0-0.2c0,0-0.1,0-0.2,0.1
			l0.2-0.6l0-0.1l-0.3,0.5l-0.1,0l0.2-1.1c0,0,0.1,0.1,0.2,0.2c0.1,0.1,0.2,0.1,0.2,0.1c0.1,0,0.2-0.1,0.2-0.2
			c0.1-0.1,0.1-0.2,0.1-0.3c0-0.1,0-0.2-0.1-0.3c-0.1-0.1-0.1-0.2-0.2-0.3l-0.3,0.3c0-0.2,0.1-0.4,0.2-0.6c0.1-0.2,0.1-0.4,0.1-0.6
			c0-0.1-0.1-0.2-0.2-0.4c-0.1-0.2-0.3-0.4-0.5-0.6s-0.4-0.4-0.6-0.5c-0.2-0.2-0.3-0.3-0.4-0.3c0.4-0.2,0.8-0.5,1.2-0.8
			c0.4-0.3,0.8-0.6,1.1-0.9c0.1,0,0.2-0.3,0.3-0.8c0.1-0.5,0.3-1.1,0.5-1.8c0.2-0.6,0.3-1.3,0.4-1.8c0.1-0.6,0.2-1,0.2-1.1h-1.5
			v-1.8c0,0,0.1,0,0.2,0c0.1,0,0.1,0,0.1-0.1c0-0.1,0-0.1-0.1-0.2l-0.2,0v-1.5h6.7v3.6h-1.4c0,0.2,0.1,0.4,0.2,0.6
			c0.1,0.2,0.1,0.5,0.1,0.7c0,0,0,0.1,0,0.2c0,0.1,0,0.1,0,0.2l0.1,0.2c0.2,0.2,0.3,0.4,0.3,0.6c0,0.2,0.1,0.5,0.1,0.7
			c0,0.1,0.1,0.3,0.1,0.6c0,0.3,0.1,0.5,0.2,0.8c0.1,0.3,0.1,0.5,0.2,0.7c0.1,0.2,0.2,0.4,0.2,0.4c0.4,0.3,0.8,0.5,1.2,0.8
			c0.4,0.3,0.8,0.5,1.2,0.8c-0.1,0.1-0.2,0.2-0.4,0.3c-0.2,0.2-0.4,0.3-0.6,0.5c-0.2,0.2-0.4,0.4-0.5,0.6c-0.1,0.2-0.2,0.3-0.2,0.4
			l0,0.1c0.2,1,0.4,2,0.7,3c0.2,1,0.5,2,0.7,3H84V55h-6.7v-3.5h1.9l-0.6-2.7c-0.5,0-0.9,0-1.4,0c-0.5,0-0.9,0-1.4,0
			c-0.2,0-0.3-0.1-0.4-0.2l-0.1-0.1c-0.1,0.1-0.1,0.2-0.1,0.2c0,0.1-0.1,0.1-0.2,0.1l-0.6,2.7h1.7V55c-1.1,0-2.3,0-3.4,0
			c-1.1,0-2.2,0-3.4,0v-2.7l0,0c0-0.1,0.1-0.2,0.2-0.2c0.1,0,0.1,0,0.2,0.1l-0.1-0.3c0.1,0,0.1,0,0.2-0.1c0,0,0.1,0,0.2-0.1
			c-0.1-0.1-0.1-0.1-0.2-0.3l0.7,0c0.2,0,0.5,0,0.7,0.1c0.2,0.1,0.4,0.2,0.6,0.3H72.1z M70.2,53.1c0,0,0.1,0,0.2,0
			c0.1,0,0.1,0,0.2,0c0.1,0,0.2-0.1,0.3-0.2c0.1-0.1,0.1-0.2,0.1-0.3c0-0.1,0-0.2-0.1-0.3c-0.1-0.1-0.2-0.2-0.3-0.2
			c-0.2,0-0.3,0.1-0.3,0.2c0,0.2-0.1,0.3-0.1,0.4C70.1,52.9,70.2,53,70.2,53.1z M72.3,50.1c0,0.2-0.1,0.3-0.2,0.3s-0.2,0.1-0.4,0.1
			l0.1-0.3L72.3,50.1z M72.1,51.9L71.9,52v0.2c0,0.1,0,0.2,0.1,0.3s0.1,0.2,0.2,0.2c0.1,0,0.2,0,0.2-0.1c0-0.1,0-0.2,0-0.3V52
			L72.1,51.9z M75.3,38.7c-0.1,0-0.1,0.1-0.2,0.1C75.1,38.9,75,39,75,39.1c0,0.1,0,0.1,0.1,0.2s0.1,0.1,0.1,0.1
			c0.1-0.1,0.1-0.2,0.1-0.3c0-0.1,0-0.1,0-0.2C75.4,38.8,75.3,38.7,75.3,38.7z M76.9,40.8L76.9,40.8l-1.1,4.3h2L76.9,40.8z"/>
		<path class="st2" d="M91.9,38.4c-0.1,0-0.2,0-0.3,0c-0.1,0-0.1,0.1-0.2,0.2c0,0.1-0.1,0.2-0.1,0.3c0,0.1,0,0.2,0.1,0.2
			c0.1,0.1,0.2,0.1,0.4,0.1c0,0.1,0,0.2,0,0.3c0,0.1,0,0.2,0,0.3v1.8c0,0.2,0.1,0.3,0.2,0.4c0.2,0.2,0.4,0.5,0.6,0.7
			c0.2,0.2,0.4,0.5,0.6,0.7c-0.2,0.2-0.4,0.4-0.6,0.6c-0.2,0.2-0.4,0.4-0.5,0.6c-0.1,0.2-0.2,0.3-0.3,0.5c-0.1,0.2-0.1,0.4-0.1,0.6
			c0,0.4,0,0.8,0,1.1c0,0.4,0,0.7,0,1.1v3.2c0,0.1,0,0.1,0,0.2h3.4v-6.2h3.5V55H98h-0.9h-0.9c-0.2,0-0.3,0-0.4,0c-0.1,0-0.3,0-0.4,0
			h-0.8h-0.9h-0.8h-0.9H91h-0.9h-0.9h-0.9h-0.9v-3.5h1.6v-0.3v-5.6c0-0.1,0-0.3-0.1-0.4c-0.2-0.3-0.4-0.6-0.6-0.8
			c-0.2-0.3-0.5-0.5-0.7-0.7c0.3-0.3,0.5-0.6,0.8-0.9c0.2-0.3,0.4-0.6,0.6-1c0.1-0.1,0.1-0.2,0.1-0.3v-4.9v-0.2h-2v-3.5
			c0.1,0,0.2,0,0.4,0c0.1,0,0.2,0,0.3,0.1c0.1,0,0.1-0.1,0.2-0.1c0,0.1,0,0.2,0.1,0.2c0,0.1,0,0.1,0.1,0.2c0.1,0.1,0.1,0.2,0.3,0.2
			c0.1,0,0.1,0,0.2,0c0.1,0,0.1,0.1,0.2,0.1c0.1,0,0.1,0.1,0.1,0c0,0,0.1-0.1,0.1-0.1c0,0,0-0.1,0-0.1c0-0.1,0-0.1,0-0.2
			c0-0.2,0-0.3,0-0.3c0,0,0.1,0,0.3,0h0.9h0.2v0.6c0,0.2,0.1,0.3,0.3,0.3s0.3-0.1,0.3-0.2c0-0.1,0-0.2,0.1-0.3c0-0.1,0-0.2-0.1-0.3
			c0.1,0,0.2,0,0.3,0c0.1,0,0.2,0,0.3,0.1c0,0.1,0.1,0.1,0.1,0c0.2,0,0.3-0.1,0.4-0.1c0,0.1,0,0.1,0,0.2c0,0,0,0.1,0,0.1l0.1,0
			l0.1-0.3h0.3c0,0,0,0.1,0,0.1c0,0,0,0.1,0,0.1c0,0.1,0,0.2,0.1,0.3c0.1,0.1,0.1,0.1,0.2,0.2c0.1,0.1,0.2,0.1,0.3,0
			c0.1-0.1,0.2-0.2,0.2-0.3c0-0.2,0.1-0.3,0.3-0.4c0,0,0,0,0.1,0c0,0,0.1,0,0.1,0v0.3v1.1c0,0.1,0,0.2,0,0.3s0,0.2-0.1,0.3
			c-0.1,0.1-0.1,0.1-0.1,0.2c0,0.1,0,0.2,0.1,0.2c0.1,0.1,0.1,0.2,0.1,0.4v0.5v0c0,0,0,0,0,0s0,0,0,0h-2V38.4z M87.4,33.6
			c0.1-0.1,0.2-0.2,0.1-0.4c0,0,0,0-0.1,0s-0.1,0-0.1,0c-0.1,0-0.1,0.1-0.1,0.2C87.2,33.5,87.3,33.5,87.4,33.6z M88.1,35
			c0.2-0.1,0.2-0.2,0.1-0.3c-0.1-0.1-0.1-0.1-0.2-0.1C87.9,34.6,88,34.8,88.1,35z M88.4,33.6c0,0.1,0,0.1,0,0.2c0,0.1,0,0.1,0,0.2
			c0,0,0.1,0.1,0.1,0.2c0,0,0.1-0.1,0.1-0.1c0,0,0,0,0-0.1c0.1-0.1,0.1-0.2,0-0.2C88.5,33.7,88.4,33.7,88.4,33.6z M89.8,34.9
			c-0.2,0.1-0.2,0.3-0.1,0.4c0.1,0.1,0.1,0.1,0.2,0C89.9,35.2,89.9,35.1,89.8,34.9z M90,39.1c-0.1-0.1-0.1-0.2-0.2-0.2
			c0,0,0,0.1-0.1,0.1c0,0,0,0,0,0.1c0,0,0,0.1,0,0.1c0,0,0.1,0.1,0.1,0C89.8,39.2,89.9,39.2,90,39.1z M90.2,39.4
			c0,0.2,0.1,0.3,0.2,0.3c0.2,0,0.2-0.2,0.2-0.3c0-0.1,0-0.1-0.1-0.2s-0.1-0.1-0.1-0.1C90.3,39.1,90.2,39.2,90.2,39.4z M90.7,35.6
			c-0.2,0.1-0.2,0.2-0.3,0.3c0,0.1,0,0.2-0.1,0.4c0,0.1,0,0.2,0.1,0.3c0.1,0.1,0.1,0.1,0.2,0.2c0.1,0.1,0.2,0.1,0.4-0.1
			s0.3-0.1,0.5,0c0,0,0.1,0.1,0.2,0.1l0.1-0.1c-0.1-0.1-0.2-0.1-0.3-0.1c-0.1,0-0.1-0.1-0.2-0.1c0,0-0.1-0.1-0.1-0.2
			c0-0.2,0-0.3-0.1-0.4C91,35.8,90.9,35.7,90.7,35.6z M90.7,38.6c0.2-0.1,0.3-0.3,0.3-0.6c0-0.1-0.1-0.2-0.2-0.2
			c-0.1,0-0.2,0-0.3,0.1C90.4,38.2,90.4,38.4,90.7,38.6z M90.9,37.1c0,0-0.1-0.1-0.1-0.1c0,0,0-0.1-0.1-0.1c-0.1,0-0.1,0-0.1,0
			c0,0,0,0.1,0,0.1c0,0,0,0.1,0.1,0.1c0,0,0,0,0.1,0.1c0,0,0.1-0.1,0.1-0.1C90.9,37.1,90.9,37.1,90.9,37.1z M91.1,41.3
			c0,0-0.1,0.1-0.1,0.1c0,0.1,0,0.1,0,0.1c0,0.1,0,0.2,0.1,0.3c0,0,0,0,0.1,0c0,0,0.1,0,0.1,0c0.1-0.1,0.1-0.2,0.1-0.2
			C91.4,41.5,91.3,41.4,91.1,41.3z M96.6,50.9L96.6,50.9c0.1,0,0.1-0.1,0.1-0.1c0,0,0-0.1,0-0.2c0,0,0-0.1-0.1-0.1
			c0,0,0,0.1-0.1,0.1c0,0,0,0,0,0.1C96.5,50.7,96.6,50.8,96.6,50.9z"/>
		<path class="st2" d="M107,38.4c-0.1,0-0.2,0-0.3,0c-0.1,0-0.1,0.1-0.2,0.2c0,0.1-0.1,0.2-0.1,0.3c0,0.1,0,0.2,0.1,0.2
			c0.1,0.1,0.2,0.1,0.4,0.1c0,0.1,0,0.2,0,0.3c0,0.1,0,0.2,0,0.3v1.8c0,0.2,0.1,0.3,0.2,0.4c0.2,0.2,0.4,0.5,0.6,0.7
			c0.2,0.2,0.4,0.5,0.6,0.7c-0.2,0.2-0.4,0.4-0.6,0.6c-0.2,0.2-0.4,0.4-0.5,0.6c-0.1,0.2-0.2,0.3-0.3,0.5c-0.1,0.2-0.1,0.4-0.1,0.6
			c0,0.4,0,0.8,0,1.1s0,0.7,0,1.1v3.2c0,0.1,0,0.1,0,0.2h3.4v-6.2h3.5V55h-0.9h-0.9h-0.9c-0.2,0-0.3,0-0.4,0c-0.1,0-0.3,0-0.4,0
			h-0.8h-0.9H108h-0.9h-0.9h-0.9h-0.9h-0.9h-0.9v-3.5h1.6v-0.3v-5.6c0-0.1,0-0.3-0.1-0.4c-0.2-0.3-0.4-0.6-0.6-0.8
			c-0.2-0.3-0.5-0.5-0.7-0.7c0.3-0.3,0.5-0.6,0.8-0.9c0.2-0.3,0.4-0.6,0.6-1c0.1-0.1,0.1-0.2,0.1-0.3v-4.9v-0.2h-2v-3.5
			c0.1,0,0.2,0,0.4,0c0.1,0,0.2,0,0.3,0.1c0.1,0,0.1-0.1,0.2-0.1c0,0.1,0,0.2,0.1,0.2c0,0.1,0,0.1,0.1,0.2c0.1,0.1,0.1,0.2,0.3,0.2
			c0.1,0,0.1,0,0.2,0c0.1,0,0.1,0.1,0.2,0.1c0.1,0,0.1,0.1,0.1,0c0,0,0.1-0.1,0.1-0.1c0,0,0-0.1,0-0.1c0-0.1,0-0.1,0-0.2
			c0-0.2,0-0.3,0-0.3c0,0,0.1,0,0.3,0h0.9h0.2v0.6c0,0.2,0.1,0.3,0.3,0.3s0.3-0.1,0.3-0.2c0-0.1,0-0.2,0.1-0.3c0-0.1,0-0.2-0.1-0.3
			c0.1,0,0.2,0,0.3,0c0.1,0,0.2,0,0.3,0.1c0,0.1,0.1,0.1,0.1,0c0.2,0,0.3-0.1,0.4-0.1c0,0.1,0,0.1,0,0.2c0,0,0,0.1,0,0.1l0.1,0
			l0.1-0.3h0.3c0,0,0,0.1,0,0.1c0,0,0,0.1,0,0.1c0,0.1,0,0.2,0.1,0.3c0.1,0.1,0.1,0.1,0.2,0.2c0.1,0.1,0.2,0.1,0.3,0
			c0.1-0.1,0.2-0.2,0.2-0.3c0-0.2,0.1-0.3,0.3-0.4c0,0,0,0,0.1,0c0,0,0.1,0,0.1,0v0.3v1.1c0,0.1,0,0.2,0,0.3s0,0.2-0.1,0.3
			c-0.1,0.1-0.1,0.1-0.1,0.2c0,0.1,0,0.2,0.1,0.2c0.1,0.1,0.1,0.2,0.1,0.4v0.5v0c0,0,0,0,0,0c0,0,0,0,0,0h-2V38.4z M102.5,33.6
			c0.1-0.1,0.2-0.2,0.1-0.4c0,0,0,0-0.1,0s-0.1,0-0.1,0c-0.1,0-0.1,0.1-0.1,0.2C102.4,33.5,102.4,33.5,102.5,33.6z M103.3,35
			c0.2-0.1,0.2-0.2,0.1-0.3c-0.1-0.1-0.1-0.1-0.2-0.1C103.1,34.6,103.1,34.8,103.3,35z M103.5,33.6c0,0.1,0,0.1,0,0.2
			c0,0.1,0,0.1,0,0.2c0,0,0.1,0.1,0.1,0.2c0,0,0.1-0.1,0.1-0.1c0,0,0,0,0-0.1c0.1-0.1,0.1-0.2,0-0.2
			C103.7,33.7,103.6,33.7,103.5,33.6z M104.9,34.9c-0.2,0.1-0.2,0.3-0.1,0.4c0.1,0.1,0.1,0.1,0.2,0
			C105.1,35.2,105.1,35.1,104.9,34.9z M105.1,39.1c-0.1-0.1-0.1-0.2-0.2-0.2c0,0,0,0.1-0.1,0.1c0,0,0,0,0,0.1c0,0,0,0.1,0,0.1
			c0,0,0.1,0.1,0.1,0C105,39.2,105,39.2,105.1,39.1z M105.4,39.4c0,0.2,0.1,0.3,0.2,0.3c0.2,0,0.2-0.2,0.2-0.3c0-0.1,0-0.1-0.1-0.2
			s-0.1-0.1-0.1-0.1C105.5,39.1,105.4,39.2,105.4,39.4z M105.9,35.6c-0.2,0.1-0.2,0.2-0.3,0.3c0,0.1,0,0.2-0.1,0.4
			c0,0.1,0,0.2,0.1,0.3c0.1,0.1,0.1,0.1,0.2,0.2c0.1,0.1,0.2,0.1,0.4-0.1s0.3-0.1,0.5,0c0,0,0.1,0.1,0.2,0.1l0.1-0.1
			c-0.1-0.1-0.2-0.1-0.3-0.1c-0.1,0-0.1-0.1-0.2-0.1c0,0-0.1-0.1-0.1-0.2c0-0.2,0-0.3-0.1-0.4C106.2,35.8,106,35.7,105.9,35.6z
			 M105.8,38.6c0.2-0.1,0.3-0.3,0.3-0.6c0-0.1-0.1-0.2-0.2-0.2c-0.1,0-0.2,0-0.3,0.1C105.5,38.2,105.6,38.4,105.8,38.6z M106.1,37.1
			c0,0-0.1-0.1-0.1-0.1c0,0,0-0.1-0.1-0.1c-0.1,0-0.1,0-0.1,0c0,0,0,0.1,0,0.1c0,0,0,0.1,0.1,0.1c0,0,0,0,0.1,0.1
			c0,0,0.1-0.1,0.1-0.1C106,37.1,106,37.1,106.1,37.1z M106.3,41.3c0,0-0.1,0.1-0.1,0.1c0,0.1,0,0.1,0,0.1c0,0.1,0,0.2,0.1,0.3
			c0,0,0,0,0.1,0c0,0,0.1,0,0.1,0c0.1-0.1,0.1-0.2,0.1-0.2C106.5,41.5,106.4,41.4,106.3,41.3z M111.7,50.9L111.7,50.9
			c0.1,0,0.1-0.1,0.1-0.1c0,0,0-0.1,0-0.2c0,0,0-0.1-0.1-0.1c0,0,0,0.1-0.1,0.1c0,0,0,0,0,0.1C111.7,50.7,111.7,50.8,111.7,50.9z"/>
	</g>
</g>
</svg>
