<?xml version="1.0" encoding="utf-8"?>
<!-- Generator: Adobe Illustrator 22.0.1, SVG Export Plug-In . SVG Version: 6.00 Build 0)  -->
<svg version="1.1" id="Capa_1" xmlns="http://www.w3.org/2000/svg" xmlns:xlink="http://www.w3.org/1999/xlink" x="0px" y="0px"
	 viewBox="0 0 168 57" style="enable-background:new 0 0 168 57;" xml:space="preserve">
<style type="text/css">
	.st0{fill:#FFFFFF;}
	.st1{fill:#FFAA24;}
	.st2{fill:none;stroke:#FFFFFF;stroke-width:0.3376;stroke-miterlimit:10;}
</style>
<g>
	<g>
		<path class="st0" d="M29.6,26.8c0.3,0.1,0.5,0.2,0.6,0.5c0,0.3,0.1,0.5,0,0.8c-0.3,0.9-0.7,1.7-1.4,2.4c-0.7,0.8-1.6,1.1-2.8,1.1
			c-0.9,0-1.8-0.3-2.6-0.9c-0.6,0.9-1.2,1.7-1.7,2.3c-0.6,0.6-1.1,1.1-1.6,1.4c-0.4,0.3-1,0.5-1.7,0.7c-0.7,0.2-1.3,0.3-1.9,0.2v2.2
			c0,1,0,1.8,0,2.4c0,0.6,0,1-0.1,1.2c-0.1,0.2-0.2,0.3-0.3,0.4c-0.1,0.1-0.2,0.2-0.3,0.1l-0.1-0.4l0-0.3l-0.1,0.5
			c-0.1,0.3-0.2,0.5-0.3,0.5c-0.1,0-0.2-0.1-0.2-0.3c0-0.1,0-0.2,0-0.3c0-0.1,0-0.2,0-0.3c0-0.2,0-0.3-0.1-0.2
			c0,0.1-0.1,0.2-0.2,0.5c-0.1,0.3-0.1,0.5-0.1,0.6c-0.1,0.1-0.1,0.2-0.2,0.2c-0.1,0-0.1,0-0.1-0.2c0-0.1,0,0-0.1,0
			c-0.1,0.1-0.2,0.1-0.3,0c0-0.1-0.1-0.2-0.1-0.3c0-0.1,0-0.2-0.1-0.4c0-0.3-0.1-0.4-0.1-0.3c0,0,0,0.2,0,0.4
			c-0.1,0.2-0.1,0.3-0.1,0.4c-0.1,0.1-0.2,0.1-0.2,0C13,41.6,13,41.5,13,41.3c0-0.1,0-0.1-0.1,0c-0.1,0.2-0.2,0.2-0.3-0.1
			c-0.1-0.2-0.2-0.8-0.4-1.6c-0.1-0.6-0.2-1.3-0.3-2c-0.1-0.7-0.2-1.6-0.2-2.6c-0.1-1-0.2-2.2-0.2-3.7c-0.1-1.4-0.1-3.1-0.2-5.1
			c0-0.6-0.1-1.4-0.2-2.5C11,22.7,11,21.6,11,20.4c0-1.2,0.1-2.3,0.3-3.3c0.2-1,0.4-1.8,0.9-2.4c0.2-0.1,0.3-0.2,0.4-0.3
			c0.1-0.1,0.1,0,0.1,0c0,0.1,0,0.1,0,0.1c0,0,0.1,0,0.1-0.1c0-0.1,0.1-0.2,0.2-0.2c0.1-0.1,0.1-0.1,0.2,0c0.1,0.1,0.1,0.1,0,0.2
			c-0.1,0.1,0,0.1,0,0.1c0.1,0,0.1,0,0,0.1c0,0,0,0,0,0c0,0,0.1-0.1,0.2-0.2c0.1-0.1,0.1-0.2,0.2-0.3c0.1,0,0.1,0,0.1,0.1
			c0,0,0.1,0,0.2,0c0.1,0,0.2,0,0.2,0.1c0.2,0.2,0.3,0.3,0.3,0.1c0,0,0.2,0,0.4,0.2c0.4,0.3,0.7,0.9,0.9,1.5c0,0.1,0.1,0.3,0.1,0.5
			c0,0.3,0.1,0.6,0.1,0.9c0,0.3,0,0.7,0.1,1c0,0.3,0,0.6,0,0.9c0,0.1,0.1,0,0.3-0.5c1.3-2.4,2.8-3.9,4.6-4.4c0.8-0.2,1.5-0.2,2.1,0
			c0.6,0.2,1.2,0.5,1.6,1c0.4,0.5,0.8,1,1.1,1.7c0.3,0.7,0.4,1.4,0.5,2.1c0.1,1.3,0.1,2.7-0.2,4.3c-0.3,1.6-0.8,3.3-1.6,5.1
			c0.3,0.3,0.6,0.6,1,0.6c0.4,0.1,0.8,0,1.1-0.1c0.4-0.1,0.7-0.4,0.9-0.7c0.3-0.3,0.5-0.7,0.5-1.1c0,0,0-0.1,0.1-0.2
			c0-0.1,0.1-0.2,0.2-0.3c0.1-0.1,0.3-0.2,0.5-0.3C29.1,26.8,29.3,26.8,29.6,26.8z M17.1,22c-0.1,0.3-0.3,0.6-0.4,1.1
			c-0.1,0.4-0.2,0.9-0.3,1.4c-0.1,0.5-0.2,0.9-0.2,1.3c-0.1,0.4-0.1,0.7-0.1,0.9c0,0.2,0,0.2,0,0.1c0-0.1,0.1-0.4,0.2-0.9
			c0.2-1,0.5-2,0.7-2.9c0.3-0.9,0.5-1.7,0.8-2.3c0-0.1,0-0.1,0-0.1c0,0,0-0.1,0-0.1c0-0.1,0-0.1,0-0.1c0,0-0.1,0.2-0.3,0.6
			C17.5,21.2,17.3,21.6,17.1,22z M20.7,28.3C20.7,28.2,20.7,28.2,20.7,28.3c-0.4-0.2-0.9-0.2-1.3,0c-0.4,0.1-0.8,0.4-1.1,0.7
			c-0.3,0.3-0.7,0.7-0.9,1.1c-0.3,0.4-0.5,0.8-0.6,1.2c-0.1,0.3-0.2,0.7-0.2,1.1c0,0.4,0,0.8,0.1,0.9l0.1,0.2l0.3-0.2
			c0.3-0.2,0.6-0.5,1.1-1c0.5-0.5,0.9-1,1.1-1.4c0.3-0.4,0.5-0.9,0.8-1.5C20.4,28.9,20.6,28.5,20.7,28.3z M21.6,17.1
			c-0.4,0-0.7,0.2-1.1,0.6c-0.3,0.4-0.7,0.9-1,1.6c-0.3,0.6-0.6,1.3-0.9,2.1c-0.3,0.8-0.5,1.5-0.7,2.2c-0.2,0.7-0.4,1.4-0.5,2
			c-0.2,0.6-0.3,1-0.4,1.3c0.3-0.2,0.7-0.4,1-0.5c0.3-0.1,0.6-0.2,0.9-0.3c0.6-0.1,1.2-0.2,1.6-0.1c0.4,0.1,0.7,0.1,0.8,0.1l0.1-0.2
			c0.1-0.3,0.2-0.8,0.3-1.4c0.1-0.6,0.2-1.2,0.3-1.8c0-0.3,0.1-0.7,0.1-1.2c0.1-0.5,0.1-1.1,0.1-1.7c0-0.6-0.1-1.1-0.2-1.6
			C22,17.7,21.9,17.3,21.6,17.1z M22.8,25.2c-0.2,0.6-0.3,1-0.3,1.1c0,0.1,0,0.2,0,0.2c0.1,0,0.1,0,0.2,0c0,0,0.1-0.1,0.2-0.5
			c0.1-0.3,0.2-0.7,0.3-1.1c0.1-0.5,0.1-0.9,0.2-1.5c0.1-0.5,0.1-1,0.1-1.4c0-0.4,0-0.7,0-0.8c0-0.1-0.1,0-0.1,0.4
			c0,0.2,0,0.4-0.1,0.7c-0.1,0.3-0.1,0.6-0.2,1c-0.1,0.3-0.1,0.7-0.2,1C22.9,24.8,22.9,25.1,22.8,25.2z M24,26.1
			c-0.2,0.5-0.3,0.8-0.3,0.9c0,0.1,0,0.2,0,0.3c0.1,0.1,0.1,0.1,0.2,0c0-0.1,0.1-0.3,0.3-0.7c0.2-0.4,0.3-1,0.4-1.7
			c0.1-0.7,0.2-1.3,0.3-1.9c0.1-0.6,0.1-0.9,0-1.1c0-0.1-0.1,0-0.1,0.5c-0.1,0.4-0.2,1-0.3,1.7C24.3,24.8,24.2,25.5,24,26.1z"/>
		<path class="st0" d="M47.5,26.9c0.3,0.1,0.5,0.2,0.6,0.5c0.1,0.2,0.2,0.5,0.1,0.8c0,0,0,0.2-0.1,0.5C48,29,47.9,29.4,47.7,30
			c-0.2,0.5-0.4,1.2-0.6,1.9c-0.2,0.7-0.4,1.5-0.6,2.3c-0.4,1.8-1,3.2-1.5,4.2c-0.6,1.1-1.2,1.8-1.9,2.3c-0.7,0.5-1.4,0.7-2.2,0.7
			c-0.8,0-1.6-0.3-2.4-0.7c-0.4-0.2-0.7-0.5-0.9-0.8c-0.2-0.3-0.5-0.8-0.6-1.3c-0.2-0.6-0.4-1.2-0.5-2c-0.2-0.8-0.3-1.8-0.5-2.9
			l-0.2,0.6c-0.2,0.4-0.3,0.8-0.5,1.2c-0.2,0.4-0.5,0.8-1,1.1c-0.3,0.3-0.6,0.4-0.9,0.5c-0.3,0.1-0.7,0.1-1.1,0.1
			c-0.3,0-0.6,0-0.7,0c-0.2,0-0.3,0-0.5-0.1c-0.4-0.1-0.7-0.3-0.9-0.4s-0.5-0.3-0.7-0.5c-0.6-0.6-1-1.5-1.3-2.7
			c-0.2-1.2-0.3-2.5-0.2-3.9c0.1-1.4,0.3-2.7,0.7-4.1c0.4-1.4,1-2.5,1.7-3.4c0.8-1.1,1.8-2,3-2.7c1.2-0.7,2.4-1.1,3.6-1.3
			c1.5-0.2,2.7-0.1,3.8,0.3c0.3,0.1,0.6,0.2,0.8,0.3c0.2,0.1,0.4,0.3,0.6,0.5c0.1,0.1,0.2,0.1,0.3,0c0.1-0.1,0.2,0,0.5,0.2
			c0.2,0.2,0.4,0.4,0.5,0.6c0.2,0.3,0.3,0.6,0.3,1c0.1,0.4,0.1,0.8,0,1.2c0,0.3-0.1,0.9-0.2,1.6c-0.1,0.7-0.3,1.5-0.5,2.4
			c-0.2,0.9-0.4,1.8-0.6,2.8c-0.2,1-0.4,1.9-0.6,2.8c-0.2,0.9-0.3,1.7-0.5,2.5c-0.1,0.7-0.2,1.3-0.2,1.7C41,36.7,41,37.2,41,37.6
			c0,0.4,0.1,0.7,0.3,0.9c0.1,0.1,0.2,0.2,0.4,0.1c0.1,0,0.3-0.1,0.4-0.2c0.1-0.1,0.3-0.2,0.4-0.4c0.1-0.2,0.2-0.3,0.3-0.4
			c0.3-0.5,0.6-1,0.8-1.6c0.3-0.5,0.6-1.4,0.9-2.5c0.3-0.8,0.5-1.5,0.7-2.2c0.2-0.7,0.4-1.3,0.5-1.9c0.1-0.5,0.3-1.1,0.5-1.8
			c0.1-0.3,0.2-0.5,0.5-0.6C46.9,26.9,47.2,26.8,47.5,26.9z M30.8,24.9c0.2-0.5,0.3-0.7,0.2-0.7c0,0-0.2,0.3-0.5,0.8
			c-0.3,0.6-0.6,1.1-0.7,1.6c-0.1,0.5-0.2,1.2-0.3,2.2c0,0.5,0,0.8,0,0.8c0.1-0.1,0.1-0.2,0.1-0.3c0-0.1,0-0.4,0.1-0.7
			c0.1-0.4,0.2-0.8,0.3-1.2c0.1-0.4,0.2-0.9,0.4-1.3C30.6,25.6,30.7,25.2,30.8,24.9z M31.6,28.8c0.1-0.7,0.3-1.4,0.6-2.3
			c0.3-0.8,0.5-1.5,0.7-2.2c-0.2,0-0.4,0.2-0.5,0.6c-0.2,0.4-0.3,0.9-0.5,1.4c-0.1,0.5-0.3,1-0.4,1.5c-0.1,0.5-0.1,0.8-0.1,0.9
			c-0.1,0.7-0.1,1,0,1C31.3,29.9,31.4,29.6,31.6,28.8z M33.4,33.8c0.2-0.3,0.4-0.6,0.7-1.1c0.3-0.5,0.5-1.1,0.8-1.6
			c0.3-0.6,0.5-1.2,0.8-1.7c0.3-0.6,0.5-1.1,0.7-1.5c0.3-0.5,0.5-1,0.6-1.6c0.1-0.5,0.2-1.1,0.4-1.7c0.1-0.6,0.2-1.1,0.4-1.7
			c0.2-0.6,0.4-1.1,0.7-1.7c0-0.1,0-0.1-0.2-0.1c-0.1,0-0.3,0.1-0.5,0.2c-0.6,0.3-1.2,0.8-1.7,1.3c-0.5,0.5-0.9,1.1-1.3,1.9
			c-0.2,0.3-0.3,0.7-0.5,1.1c-0.2,0.5-0.3,0.9-0.5,1.4c-0.2,0.5-0.3,1-0.5,1.5c-0.1,0.5-0.2,1-0.3,1.4c0,0.2-0.1,0.5-0.1,0.9
			c0,0.4,0,0.8,0,1.3c0,0.4,0,0.8,0,1.2c0,0.4,0,0.6,0,0.7l0,0.2L33.4,33.8z M41.3,23.2c-0.2,0.8-0.3,1.7-0.5,2.7
			c-0.2,1.1-0.4,2.1-0.5,3.2c-0.1,1-0.3,2-0.4,2.8c-0.1,0.9-0.1,1.5-0.1,1.8c0,0.2,0,0.3,0,0.1c0.1-0.6,0.1-1.2,0.3-2
			c0.1-0.8,0.2-1.5,0.4-2.3c0.1-0.8,0.3-1.6,0.4-2.4c0.2-0.8,0.3-1.5,0.5-2.2c0.1-0.4,0.1-0.8,0.2-1.2c0.1-0.4,0.1-0.7,0.2-0.9
			c0-0.2,0-0.4,0-0.5c0-0.1,0-0.2,0-0.3c-0.1-0.1-0.2,0-0.3,0.3C41.4,22.6,41.4,22.9,41.3,23.2z"/>
		<path class="st0" d="M60.6,27.1c0.3,0.1,0.5,0.2,0.6,0.5c0.1,0.3,0.2,0.5,0.1,0.8c-0.2,0.3-0.4,0.8-0.7,1.7
			c-0.3,0.8-0.6,1.8-1,2.9c-0.4,1.1-0.8,2.2-1.4,3.4c-0.5,1.2-1.1,2.3-1.6,3.3c-0.6,1-1.2,1.8-1.9,2.5c-0.7,0.7-1.4,1.1-2.1,1.2
			c-1.3,0.1-2.4-0.1-3.2-0.6c-0.8-0.5-1.3-1.2-1.7-2.1c-0.3-0.9-0.5-1.9-0.5-3.1c0-1.2,0.1-2.3,0.4-3.5c0.2-1.2,0.6-2.3,1-3.5
			c0.4-1.1,0.9-2.1,1.3-2.9c0.2-0.3,0.3-0.5,0.4-0.8c0.1-0.3,0.1-0.4,0.1-0.4c0,0.3-0.2,0.6-0.5,0.9c-0.3,0.3-0.6,0.6-1.1,0.9
			c-0.4,0.3-0.9,0.4-1.5,0.5c-0.5,0.1-1.1,0-1.6-0.3c-0.8-0.3-1.4-1-1.7-2c-0.3-1-0.4-2-0.3-3c0.1-1.1,0.3-2,0.6-2.9
			c0.4-0.9,0.8-1.5,1.3-1.7c0.3-0.2,0.7-0.3,1.2-0.3c0.4,0,0.8,0,1.2,0.1c0.4,0.1,0.7,0.2,1,0.5c0.3,0.2,0.5,0.5,0.7,0.8
			c0.2,0.5,0.3,1.2,0.2,2c0,0.8-0.2,1.6-0.5,2.4c0.4-0.3,0.8-0.7,1.3-1.1c0.4-0.4,0.8-0.6,1.1-0.7c1.5-0.3,2.5-0.2,3,0.3
			c0.5,0.5,0.5,1.6,0,3.3c-0.3,1-0.6,2.1-1,3.3c-0.4,1.2-0.7,2.5-0.9,3.8c-0.3,1.3-0.5,2.6-0.5,3.8c-0.1,1.3,0,2.4,0.3,3.5
			c0.2-0.2,0.5-0.4,0.7-0.6c0.3-0.2,0.5-0.6,0.8-0.9c0.3-0.4,0.6-0.9,0.9-1.4c0.3-0.6,0.7-1.3,1.1-2.1c0.4-0.9,0.8-1.8,1.2-2.7
			c0.4-0.9,0.7-1.7,0.9-2.4c0.3-0.7,0.6-1.5,0.9-2.4c0.1-0.3,0.2-0.4,0.5-0.6C60.1,27,60.4,27,60.6,27.1z M46.8,26
			c0.2-1.1,0.3-2.2,0.5-3.3c0.2-1.1,0.1-2-0.2-2.8c-0.2,0.3-0.3,0.6-0.4,0.9c-0.1,0.2-0.2,0.4-0.2,0.6c-0.1,0.2-0.2,0.5-0.2,1
			c-0.1,0.5-0.1,1-0.1,1.4c0,0.5,0,0.9,0.1,1.4C46.5,25.6,46.6,25.9,46.8,26z M49.4,32.7c-0.4,1-0.6,1.7-0.7,2.3
			c-0.1,0.5-0.1,1.1-0.2,1.6c0,0.2,0,0.3,0,0.4c0,0.1,0,0.2,0,0.3v0.3c0.1,0.1,0.1,0,0.1-0.1c0-0.1,0.1-0.5,0.1-1.1
			c0.2-1.1,0.5-2.4,0.9-4c0.5-1.6,1.1-3.2,1.8-4.8c0.1-0.3,0.2-0.5,0.3-0.7c0.1-0.2,0.2-0.4,0.2-0.6c0.1-0.2,0.2-0.4,0.2-0.6
			c0,0-0.2,0.3-0.4,0.9c-0.3,0.6-0.5,1.3-0.9,2.1c-0.3,0.8-0.7,1.6-1,2.3C49.8,31.8,49.5,32.3,49.4,32.7z M53.7,25.4
			c-0.1-0.2-0.2,0-0.4,0.4c-0.2,0.4-0.4,0.9-0.6,1.4c-0.2,0.6-0.4,1.1-0.6,1.7c-0.2,0.5-0.3,0.9-0.3,1c-0.4,0.9-0.8,1.7-1,2.3
			c-0.3,0.6-0.5,1.2-0.6,1.7c-0.2,0.5-0.3,1-0.3,1.4c0,0.4-0.1,0.9-0.1,1.4v0.9l0-0.7c0.3-1.3,0.6-2.7,1.1-4.3
			c0.5-1.6,1.2-3.5,2.2-5.7c0.2-0.4,0.3-0.7,0.4-1C53.7,25.6,53.8,25.5,53.7,25.4z"/>
		<path class="st0" d="M73.8,27.1c0.3,0.1,0.5,0.2,0.6,0.5c0.1,0.3,0.2,0.5,0.1,0.8c-0.2,0.3-0.4,0.8-0.7,1.7
			c-0.3,0.8-0.6,1.8-1,2.9c-0.4,1.1-0.8,2.2-1.4,3.4c-0.5,1.2-1.1,2.3-1.6,3.3c-0.6,1-1.2,1.8-1.9,2.5c-0.7,0.7-1.4,1.1-2.1,1.2
			c-1.3,0.1-2.4-0.1-3.2-0.6c-0.8-0.5-1.3-1.2-1.7-2.1c-0.3-0.9-0.5-1.9-0.5-3.1c0-1.2,0.1-2.3,0.4-3.5c0.2-1.2,0.6-2.3,1-3.5
			c0.4-1.1,0.9-2.1,1.3-2.9c0.2-0.3,0.3-0.5,0.4-0.8c0.1-0.3,0.1-0.4,0.1-0.4c0,0.3-0.2,0.6-0.5,0.9c-0.3,0.3-0.6,0.6-1.1,0.9
			c-0.4,0.3-0.9,0.4-1.5,0.5c-0.5,0.1-1.1,0-1.6-0.3c-0.8-0.3-1.4-1-1.7-2c-0.3-1-0.4-2-0.3-3c0.1-1.1,0.3-2,0.6-2.9
			c0.4-0.9,0.8-1.5,1.3-1.7c0.3-0.2,0.7-0.3,1.2-0.3c0.4,0,0.8,0,1.2,0.1c0.4,0.1,0.7,0.2,1,0.5c0.3,0.2,0.5,0.5,0.7,0.8
			c0.2,0.5,0.3,1.2,0.2,2c0,0.8-0.2,1.6-0.5,2.4c0.4-0.3,0.8-0.7,1.3-1.1c0.4-0.4,0.8-0.6,1.1-0.7c1.5-0.3,2.5-0.2,3,0.3
			c0.5,0.5,0.5,1.6,0,3.3c-0.3,1-0.6,2.1-1,3.3c-0.4,1.2-0.7,2.5-0.9,3.8c-0.3,1.3-0.5,2.6-0.5,3.8c-0.1,1.3,0,2.4,0.3,3.5
			c0.2-0.2,0.5-0.4,0.7-0.6c0.3-0.2,0.5-0.6,0.8-0.9c0.3-0.4,0.6-0.9,0.9-1.4c0.3-0.6,0.7-1.3,1.1-2.1c0.4-0.9,0.8-1.8,1.2-2.7
			c0.4-0.9,0.7-1.7,0.9-2.4c0.3-0.7,0.6-1.5,0.9-2.4c0.1-0.3,0.2-0.4,0.5-0.6C73.2,27,73.5,27,73.8,27.1z M60,26
			c0.2-1.1,0.3-2.2,0.5-3.3c0.2-1.1,0.1-2-0.2-2.8c-0.2,0.3-0.3,0.6-0.4,0.9c-0.1,0.2-0.2,0.4-0.2,0.6c-0.1,0.2-0.2,0.5-0.2,1
			c-0.1,0.5-0.1,1-0.1,1.4c0,0.5,0,0.9,0.1,1.4C59.6,25.6,59.8,25.9,60,26z M62.6,32.7c-0.4,1-0.6,1.7-0.7,2.3
			c-0.1,0.5-0.1,1.1-0.2,1.6c0,0.2,0,0.3,0,0.4c0,0.1,0,0.2,0,0.3v0.3c0.1,0.1,0.1,0,0.1-0.1c0-0.1,0.1-0.5,0.1-1.1
			c0.2-1.1,0.5-2.4,0.9-4c0.5-1.6,1.1-3.2,1.8-4.8c0.1-0.3,0.2-0.5,0.3-0.7c0.1-0.2,0.2-0.4,0.2-0.6c0.1-0.2,0.2-0.4,0.2-0.6
			c0,0-0.2,0.3-0.4,0.9c-0.3,0.6-0.5,1.3-0.9,2.1c-0.3,0.8-0.7,1.6-1,2.3C62.9,31.8,62.7,32.3,62.6,32.7z M66.9,25.4
			c-0.1-0.2-0.2,0-0.4,0.4c-0.2,0.4-0.4,0.9-0.6,1.4c-0.2,0.6-0.4,1.1-0.6,1.7c-0.2,0.5-0.3,0.9-0.3,1c-0.4,0.9-0.8,1.7-1,2.3
			c-0.3,0.6-0.5,1.2-0.6,1.7c-0.2,0.5-0.3,1-0.3,1.4c0,0.4-0.1,0.9-0.1,1.4v0.9l0-0.7c0.3-1.3,0.6-2.7,1.1-4.3
			c0.5-1.6,1.2-3.5,2.2-5.7c0.2-0.4,0.3-0.7,0.4-1C66.9,25.6,66.9,25.5,66.9,25.4z"/>
		<path class="st0" d="M84.2,26.9c0.3,0.1,0.5,0.2,0.6,0.4c0.2,0.2,0.2,0.5,0.2,0.8c0,0.1-0.1,0.6-0.3,1.5c-0.2,0.9-0.5,2.1-1,3.3
			c-0.2,0.6-0.5,1.4-0.9,2.3c-0.3,0.9-0.8,1.7-1.3,2.5c-0.5,0.8-1.1,1.4-1.8,2c-0.7,0.5-1.5,0.8-2.3,0.8c-1.7,0-3.2-0.5-4.2-1.5
			c-1.1-1-1.7-2.4-1.9-4.2c-0.1-0.8,0-1.6,0-2.4c0.1-0.9,0.3-1.9,0.6-3.2c0.2-0.9,0.3-1.6,0.5-2.3c0.2-0.7,0.4-1.4,0.7-2.2
			c0.1-0.2,0.2-0.5,0.3-1c0.1-0.4,0.3-0.9,0.4-1.3c0.1-0.4,0.3-0.8,0.4-1.2c0.1-0.3,0.3-0.6,0.4-0.7c0.2-0.2,0.4-0.2,0.7-0.1
			c0.3,0.1,0.5,0.1,0.5,0.1c0.2-0.2,0.2-0.1,0.2,0v0.2c0.2-0.2,0.3-0.3,0.3-0.4c0.1,0,0.1-0.1,0.2,0c0.1,0,0.1,0.1,0.2,0.1
			c0.1,0,0.2,0.1,0.4,0.3l0.3,0.1l0,0.9c0.1,1.1,0,2.2-0.1,3.3c-0.2,1.1-0.3,2.2-0.6,3.3c-0.2,1.1-0.4,2.2-0.6,3.3
			c-0.2,1.1-0.2,2.2-0.2,3.4c0,0.3,0,0.7,0.1,1.1c0.1,0.5,0.2,0.9,0.4,1.3c0.2,0.4,0.4,0.6,0.8,0.8c0.3,0.2,0.7,0.1,1.2-0.2
			c0.6-0.4,1.2-1,1.7-1.9c0.5-0.9,1-1.9,1.4-2.9c0.4-1,0.7-2.1,1-3.1c0.3-1,0.5-1.8,0.5-2.4c0.1-0.3,0.2-0.5,0.5-0.7
			C83.7,26.8,83.9,26.8,84.2,26.9z M72.6,35.9c0,0,0-0.1,0-0.3c0-0.2,0-0.3,0-0.5c0-0.2-0.1-0.4-0.1-0.6c0-0.2,0-0.4-0.1-0.5v-1.1
			v-0.6c0,0.1,0,0.1,0,0.2c0,0.1,0,0.2,0,0.3c0,0.1,0,0.2,0,0.4c0,0.3-0.1,0.5-0.1,0.7c0,0.2,0,0.4,0,0.5c0,0.1,0,0.2,0,0.4
			c0,0.2,0.1,0.4,0.1,0.5c0,0.2,0.1,0.3,0.1,0.5c0,0.1,0.1,0.2,0.1,0.2V35.9z M75.7,14.4c0,0,0.1,0,0.1,0c0.1,0,0.1,0.1,0,0.3
			c-0.1,0.2-0.1,0.2-0.1,0.2c0,0,0.1-0.1,0.3-0.2c0.2-0.2,0.3-0.2,0.4-0.2c0.1,0,0.2,0.1,0.2,0.2c0,0.1,0,0.1,0.1,0
			c0.2-0.2,0.2-0.2,0.3,0c0,0.1,0.1,0.3,0.3,0.4c0.1,0.2,0.1,0.3,0.2,0.2c0.2,0,0.3,0.1,0.5,0.4c0.2,0.2,0.3,0.5,0.3,0.6
			c0,0.2-0.1,0.4-0.3,0.6c-0.2,0.3-0.3,0.4-0.3,0.5c0,0.1,0,0.3-0.2,0.4c-0.2,0.1-0.3,0.2-0.4,0.1c-0.1-0.1-0.2-0.1-0.2,0
			c0,0.1-0.1,0.1-0.2,0.1c-0.1,0-0.2-0.1-0.2-0.2c-0.1-0.1-0.1-0.1-0.1,0c0,0.3-0.1,0.3-0.3,0.1c-0.1-0.1-0.1-0.1-0.2-0.1
			c0,0-0.2,0-0.3-0.1c-0.9-0.5-1.3-1.2-1.1-2c0.1-0.4,0.2-0.7,0.4-1c0.2-0.3,0.4-0.3,0.5-0.3C75.6,14.5,75.6,14.5,75.7,14.4z"/>
		<path class="st0" d="M97.4,26.8c0.3,0.1,0.5,0.2,0.7,0.5c0.2,0.2,0.2,0.5,0.2,0.7c0,0,0,0.3-0.1,0.7c-0.1,0.4-0.2,0.9-0.3,1.6
			c-0.1,0.7-0.3,1.4-0.5,2.3c-0.2,0.9-0.4,1.7-0.7,2.7c-0.3,1.1-0.6,2.1-0.9,3c-0.3,0.9-0.6,1.7-1,2.4c-0.9,2-1.9,3.2-2.8,3.7
			c-0.4,0.3-0.9,0.4-1.3,0.4c-0.5,0-0.9-0.1-1.4-0.3c-0.5-0.2-0.9-0.5-1.4-0.8c-1.3-0.9-2.3-2.5-3.1-4.6c-0.8-2.1-1.3-4.7-1.6-7.8
			c0-0.9-0.1-2.1-0.1-3.6c-0.1-1.5,0-3.1,0.1-4.9c0.2-1.8,0.5-3.6,1-5.5c0.5-1.9,1.4-3.7,2.5-5.3c0.5-0.5,1.3-0.7,2.4-0.7
			c0.9,0.1,1.6,0.5,2.1,1c0.6,0.6,1,1.2,1.3,2c0.3,0.8,0.5,1.6,0.5,2.5c0.1,0.9,0,1.7-0.1,2.4c-0.1,0.6-0.3,1.3-0.5,1.9
			c-0.2,0.7-0.5,1.4-0.8,2.1c-0.3,0.8-0.8,1.6-1.3,2.4c-0.5,0.9-1.1,1.8-1.8,2.9l-0.5,0.7c0,0.7,0,1.4,0,2.1c0,0.7,0.1,1.4,0.1,2.1
			c0,0.6,0,1.2,0.1,1.7c0,0.5,0.1,0.9,0.1,1.1c0.1,0.5,0.2,1.2,0.3,1.9c0.1,0.7,0.3,1.3,0.5,1.7c0.1,0.2,0.2,0.5,0.3,0.8
			c0.1,0.3,0.2,0.6,0.4,0.8c0.1,0.3,0.2,0.5,0.3,0.7c0.1,0.2,0.2,0.3,0.3,0.4c0.1,0.1,0.3,0.1,0.5,0c0.1-0.1,0.3-0.2,0.5-0.5
			c0.2-0.3,0.5-0.7,0.8-1.3c0.3-0.6,0.7-1.4,1.1-2.3c0.4-1,0.8-2.3,1.3-3.8c0.3-0.9,0.5-1.7,0.7-2.6c0.2-0.8,0.4-1.6,0.5-2.2
			c0.1-0.6,0.3-1.4,0.5-2.2c0.1-0.3,0.2-0.5,0.4-0.7C96.9,26.8,97.2,26.7,97.4,26.8z M88,26.6l0.3-0.5c0.3-0.4,0.6-0.9,0.8-1.5
			c0.3-0.5,0.5-1.1,0.8-1.6c0.2-0.5,0.5-1.1,0.6-1.6c0.2-0.5,0.3-0.9,0.4-1.3c0.3-0.9,0.4-2,0.5-3.1c0-1.2-0.3-2.2-0.9-3.1
			c-0.2-0.2-0.3-0.4-0.4-0.5c-0.1-0.1-0.3,0-0.5,0.3c-0.3,0.6-0.6,1.5-0.9,2.7c-0.3,1.2-0.4,2.5-0.5,3.8c-0.1,0.7-0.1,1.5-0.1,2.4
			c0,0.9,0,1.6,0,2.1V26V26.6z M88.1,27.5c0.1-0.1,0.2-0.4,0.4-0.7c0.6-1,1.1-1.9,1.5-2.7c0.4-0.8,0.7-1.6,1-2.2
			c0-0.1,0.1-0.2,0.1-0.3c0-0.1,0.1-0.1,0.1-0.2c0-0.1,0-0.2,0-0.2c0,0-0.2,0.3-0.4,0.8c-0.2,0.6-0.5,1.2-0.8,1.8
			c-0.3,0.6-0.7,1.4-1.2,2.3c-0.4,0.6-0.6,1.1-0.7,1.3V27.5z M88.1,28.4c0.2-0.2,0.4-0.6,0.8-1.3c0.4-0.7,0.8-1.4,1.2-2.1
			c0.2-0.3,0.3-0.7,0.6-1.2c0.2-0.4,0.4-0.8,0.6-1.2c0.1-0.2,0.1-0.3,0.2-0.5c0-0.2,0.1-0.3,0.2-0.4c0.1-0.1,0.1-0.3,0.1-0.4
			c0,0-0.1,0.1-0.1,0.1c0,0.1-0.1,0.2-0.1,0.4c-0.1,0.3-0.3,0.7-0.5,1.2c-0.2,0.5-0.5,0.9-0.8,1.5c-0.3,0.5-0.6,1.1-0.9,1.6
			c-0.3,0.6-0.6,1.1-0.9,1.6c-0.1,0.1-0.1,0.2-0.2,0.3c0,0.1-0.1,0.2-0.1,0.2V28.4z"/>
		<path class="st0" d="M110.7,26.8c0.3,0.1,0.5,0.2,0.7,0.5c0.2,0.2,0.2,0.5,0.2,0.7c0,0,0,0.3-0.1,0.7c-0.1,0.4-0.2,0.9-0.3,1.6
			c-0.1,0.7-0.3,1.4-0.5,2.3c-0.2,0.9-0.4,1.7-0.7,2.7c-0.3,1.1-0.6,2.1-0.9,3c-0.3,0.9-0.6,1.7-1,2.4c-0.9,2-1.9,3.2-2.8,3.7
			c-0.4,0.3-0.9,0.4-1.3,0.4c-0.5,0-0.9-0.1-1.4-0.3c-0.5-0.2-0.9-0.5-1.4-0.8c-1.3-0.9-2.3-2.5-3.1-4.6c-0.8-2.1-1.3-4.7-1.6-7.8
			c0-0.9-0.1-2.1-0.1-3.6c-0.1-1.5,0-3.1,0.1-4.9c0.2-1.8,0.5-3.6,1-5.5c0.5-1.9,1.4-3.7,2.5-5.3c0.5-0.5,1.3-0.7,2.4-0.7
			c0.9,0.1,1.6,0.5,2.1,1c0.6,0.6,1,1.2,1.3,2c0.3,0.8,0.5,1.6,0.5,2.5c0.1,0.9,0,1.7-0.1,2.4c-0.1,0.6-0.3,1.3-0.5,1.9
			c-0.2,0.7-0.5,1.4-0.8,2.1c-0.3,0.8-0.8,1.6-1.3,2.4c-0.5,0.9-1.1,1.8-1.8,2.9l-0.5,0.7c0,0.7,0,1.4,0,2.1c0,0.7,0.1,1.4,0.1,2.1
			c0,0.6,0,1.2,0.1,1.7c0,0.5,0.1,0.9,0.1,1.1c0.1,0.5,0.2,1.2,0.3,1.9c0.1,0.7,0.3,1.3,0.5,1.7c0.1,0.2,0.2,0.5,0.3,0.8
			c0.1,0.3,0.2,0.6,0.4,0.8c0.1,0.3,0.2,0.5,0.3,0.7c0.1,0.2,0.2,0.3,0.3,0.4c0.1,0.1,0.3,0.1,0.5,0c0.1-0.1,0.3-0.2,0.5-0.5
			c0.2-0.3,0.5-0.7,0.8-1.3c0.3-0.6,0.7-1.4,1.1-2.3c0.4-1,0.8-2.3,1.3-3.8c0.3-0.9,0.5-1.7,0.7-2.6c0.2-0.8,0.4-1.6,0.5-2.2
			c0.1-0.6,0.3-1.4,0.5-2.2c0.1-0.3,0.2-0.5,0.4-0.7C110.2,26.8,110.4,26.7,110.7,26.8z M101.2,26.6l0.3-0.5
			c0.3-0.4,0.6-0.9,0.8-1.5c0.3-0.5,0.5-1.1,0.8-1.6c0.2-0.5,0.5-1.1,0.6-1.6c0.2-0.5,0.3-0.9,0.4-1.3c0.3-0.9,0.4-2,0.5-3.1
			c0-1.2-0.3-2.2-0.9-3.1c-0.2-0.2-0.3-0.4-0.4-0.5c-0.1-0.1-0.3,0-0.5,0.3c-0.3,0.6-0.6,1.5-0.9,2.7c-0.3,1.2-0.4,2.5-0.5,3.8
			c-0.1,0.7-0.1,1.5-0.1,2.4c0,0.9,0,1.6,0,2.1V26V26.6z M101.4,27.5c0.1-0.1,0.2-0.4,0.4-0.7c0.6-1,1.1-1.9,1.5-2.7
			c0.4-0.8,0.7-1.6,1-2.2c0-0.1,0.1-0.2,0.1-0.3c0-0.1,0.1-0.1,0.1-0.2c0-0.1,0-0.2,0-0.2c0,0-0.2,0.3-0.4,0.8
			c-0.2,0.6-0.5,1.2-0.8,1.8c-0.3,0.6-0.7,1.4-1.2,2.3c-0.4,0.6-0.6,1.1-0.7,1.3V27.5z M101.4,28.4c0.2-0.2,0.4-0.6,0.8-1.3
			c0.4-0.7,0.8-1.4,1.2-2.1c0.2-0.3,0.3-0.7,0.6-1.2c0.2-0.4,0.4-0.8,0.6-1.2c0.1-0.2,0.1-0.3,0.2-0.5c0-0.2,0.1-0.3,0.2-0.4
			c0.1-0.1,0.1-0.3,0.1-0.4c0,0-0.1,0.1-0.1,0.1c0,0.1-0.1,0.2-0.1,0.4c-0.1,0.3-0.3,0.7-0.5,1.2c-0.2,0.5-0.5,0.9-0.8,1.5
			c-0.3,0.5-0.6,1.1-0.9,1.6c-0.3,0.6-0.6,1.1-0.9,1.6c-0.1,0.1-0.1,0.2-0.2,0.3c0,0.1-0.1,0.2-0.1,0.2V28.4z"/>
		<path class="st0" d="M124.9,26.9c0.3,0.1,0.4,0.2,0.6,0.5c0.1,0.3,0.1,0.5,0,0.8c0,0-0.1,0.2-0.2,0.6c-0.1,0.3-0.3,0.8-0.5,1.3
			c-0.2,0.5-0.5,1.2-0.8,1.9c-0.3,0.7-0.7,1.4-1.1,2.1c-1.1,1.9-2.1,3.4-3.2,4.4c-1.1,1-2.1,1.6-3.3,1.7c-1.6-0.1-2.8-0.5-3.8-1.3
			c-1-0.8-1.8-1.7-2.3-2.9c-0.6-1.2-0.9-2.5-1-3.9c-0.1-1.4,0-2.9,0.2-4.3c0.2-1.4,0.6-2.8,1.2-4.1c0.5-1.3,1.2-2.4,1.9-3.3
			c0.8-0.9,1.7-1.7,2.7-2.2c1-0.6,2.2-0.7,3.5-0.3c0.5,0.2,1,0.4,1.3,0.8c0.3,0.4,0.5,0.8,0.5,1.3c0,0.6-0.2,1.4-0.6,2.2
			c-0.4,0.9-1,1.7-1.7,2.6c-0.6,0.7-1.1,1.2-1.5,1.6c-0.4,0.4-0.7,0.7-1,1c-0.3,0.3-0.4,0.5-0.6,0.7c-0.1,0.2-0.2,0.4-0.2,0.6
			c0,0.7,0,1.4,0,2.1c0,0.7,0,1.4,0,2.1c0,0.7,0,1.4,0,2c0,0.6,0.1,1.1,0.2,1.5c0.1,0.3,0.2,0.7,0.4,1.1c0.2,0.4,0.3,0.6,0.5,0.7
			c0.4,0.2,0.8,0.1,1.4-0.4s1-0.9,1.5-1.6c0.5-0.6,1-1.2,1.4-1.9c0.4-0.6,0.7-1,0.8-1.3c0.4-0.7,0.7-1.4,1-2
			c0.3-0.7,0.6-1.3,0.8-1.8c0.2-0.5,0.4-1.1,0.7-1.8c0.1-0.3,0.3-0.4,0.5-0.6C124.3,26.9,124.6,26.9,124.9,26.9z M110.4,28
			c-0.1,0.6-0.1,1.1-0.1,1.5c0,0.4,0.1,0.6,0.1,0.5c0,0,0.1-0.3,0.1-0.7c0-0.4,0.1-0.8,0.1-1c0.2-0.8,0.5-1.7,0.8-2.8
			c0.3-1,0.7-1.9,1-2.6c0.2-0.5,0.1-0.4-0.2,0.2C111.2,25.1,110.6,26.6,110.4,28z M112.7,25.3c-0.1,0.2-0.1,0.4-0.2,0.6
			c-0.1,0.3-0.1,0.5-0.2,0.8c0,0.3-0.1,0.5-0.1,0.7c0,0.2,0,0.3,0,0.3c0.1,0.1,0.3-0.3,0.6-1.2c0.1-0.3,0.2-0.6,0.3-1
			c0.1-0.4,0.2-0.7,0.3-1.1c0.1-0.3,0.2-0.7,0.3-0.9c0.1-0.3,0.2-0.5,0.2-0.7c0.2-0.6,0.1-0.5-0.2,0.2
			C113.4,23.8,113,24.5,112.7,25.3z M114.9,24.5c-0.1,0.3-0.2,0.6-0.2,0.9c-0.1,0.2-0.1,0.3-0.1,0.4c0.1-0.1,0.4-0.5,0.9-1
			c0.5-0.5,1-1.1,1.4-1.8c0.5-0.6,0.8-1.3,1.1-1.9c0.3-0.6,0.2-1.1-0.1-1.4c-0.1-0.1-0.1-0.1-0.2-0.1c0,0-0.2,0.1-0.4,0.4
			c-0.5,0.5-0.9,1.2-1.4,2C115.6,22.7,115.2,23.6,114.9,24.5z"/>
		<path class="st0" d="M138,27.1c0.3,0.1,0.5,0.2,0.6,0.5c0.1,0.3,0.2,0.5,0.1,0.8c-0.2,0.3-0.4,0.8-0.7,1.7c-0.3,0.8-0.6,1.8-1,2.9
			c-0.4,1.1-0.8,2.2-1.4,3.4c-0.5,1.2-1.1,2.3-1.6,3.3c-0.6,1-1.2,1.8-1.9,2.5c-0.7,0.7-1.4,1.1-2.1,1.2c-1.3,0.1-2.4-0.1-3.2-0.6
			c-0.8-0.5-1.3-1.2-1.7-2.1c-0.3-0.9-0.5-1.9-0.5-3.1c0-1.2,0.1-2.3,0.4-3.5c0.2-1.2,0.6-2.3,1-3.5c0.4-1.1,0.9-2.1,1.3-2.9
			c0.2-0.3,0.3-0.5,0.4-0.8c0.1-0.3,0.1-0.4,0.1-0.4c0,0.3-0.2,0.6-0.5,0.9c-0.3,0.3-0.6,0.6-1.1,0.9c-0.4,0.3-0.9,0.4-1.5,0.5
			c-0.5,0.1-1.1,0-1.6-0.3c-0.8-0.3-1.4-1-1.7-2c-0.3-1-0.4-2-0.3-3c0.1-1.1,0.3-2,0.6-2.9c0.4-0.9,0.8-1.5,1.3-1.7
			c0.3-0.2,0.7-0.3,1.2-0.3c0.4,0,0.8,0,1.2,0.1c0.4,0.1,0.7,0.2,1,0.5c0.3,0.2,0.5,0.5,0.7,0.8c0.2,0.5,0.3,1.2,0.2,2
			c0,0.8-0.2,1.6-0.5,2.4c0.4-0.3,0.8-0.7,1.3-1.1c0.4-0.4,0.8-0.6,1.1-0.7c1.5-0.3,2.5-0.2,3,0.3c0.5,0.5,0.5,1.6,0,3.3
			c-0.3,1-0.6,2.1-1,3.3c-0.4,1.2-0.7,2.5-0.9,3.8c-0.3,1.3-0.5,2.6-0.5,3.8c-0.1,1.3,0,2.4,0.3,3.5c0.2-0.2,0.5-0.4,0.7-0.6
			c0.3-0.2,0.5-0.6,0.8-0.9c0.3-0.4,0.6-0.9,0.9-1.4c0.3-0.6,0.7-1.3,1.1-2.1c0.4-0.9,0.8-1.8,1.2-2.7c0.4-0.9,0.7-1.7,0.9-2.4
			c0.3-0.7,0.6-1.5,0.9-2.4c0.1-0.3,0.2-0.4,0.5-0.6C137.5,27,137.7,27,138,27.1z M124.2,26c0.2-1.1,0.3-2.2,0.5-3.3
			c0.2-1.1,0.1-2-0.2-2.8c-0.2,0.3-0.3,0.6-0.4,0.9c-0.1,0.2-0.2,0.4-0.2,0.6c-0.1,0.2-0.2,0.5-0.2,1c-0.1,0.5-0.1,1-0.1,1.4
			c0,0.5,0,0.9,0.1,1.4C123.8,25.6,124,25.9,124.2,26z M126.8,32.7c-0.4,1-0.6,1.7-0.7,2.3c-0.1,0.5-0.1,1.1-0.2,1.6
			c0,0.2,0,0.3,0,0.4c0,0.1,0,0.2,0,0.3v0.3c0.1,0.1,0.1,0,0.1-0.1c0-0.1,0.1-0.5,0.1-1.1c0.2-1.1,0.5-2.4,0.9-4
			c0.5-1.6,1.1-3.2,1.8-4.8c0.1-0.3,0.2-0.5,0.3-0.7c0.1-0.2,0.2-0.4,0.2-0.6c0.1-0.2,0.2-0.4,0.2-0.6c0,0-0.2,0.3-0.4,0.9
			c-0.3,0.6-0.5,1.3-0.9,2.1c-0.3,0.8-0.7,1.6-1,2.3C127.1,31.8,126.9,32.3,126.8,32.7z M131.1,25.4c-0.1-0.2-0.2,0-0.4,0.4
			c-0.2,0.4-0.4,0.9-0.6,1.4c-0.2,0.6-0.4,1.1-0.6,1.7c-0.2,0.5-0.3,0.9-0.3,1c-0.4,0.9-0.8,1.7-1,2.3c-0.3,0.6-0.5,1.2-0.6,1.7
			c-0.2,0.5-0.3,1-0.3,1.4c0,0.4-0.1,0.9-0.1,1.4v0.9l0-0.7c0.3-1.3,0.6-2.7,1.1-4.3c0.5-1.6,1.2-3.5,2.2-5.7c0.2-0.4,0.3-0.7,0.4-1
			C131.1,25.6,131.1,25.5,131.1,25.4z"/>
		<path class="st0" d="M156.1,26.9c0.3,0.1,0.5,0.2,0.6,0.5c0.1,0.2,0.2,0.5,0.1,0.8c0,0,0,0.2-0.1,0.5c-0.1,0.3-0.2,0.8-0.4,1.3
			c-0.2,0.5-0.4,1.2-0.6,1.9c-0.2,0.7-0.4,1.5-0.6,2.3c-0.4,1.8-1,3.2-1.5,4.2c-0.6,1.1-1.2,1.8-1.9,2.3c-0.7,0.5-1.4,0.7-2.2,0.7
			c-0.8,0-1.6-0.3-2.4-0.7c-0.4-0.2-0.7-0.5-0.9-0.8c-0.2-0.3-0.5-0.8-0.6-1.3c-0.2-0.6-0.4-1.2-0.5-2c-0.2-0.8-0.3-1.8-0.5-2.9
			l-0.2,0.6c-0.2,0.4-0.3,0.8-0.5,1.2c-0.2,0.4-0.5,0.8-1,1.1c-0.3,0.3-0.6,0.4-0.9,0.5c-0.3,0.1-0.7,0.1-1.1,0.1
			c-0.3,0-0.6,0-0.7,0c-0.2,0-0.3,0-0.5-0.1c-0.4-0.1-0.7-0.3-0.9-0.4s-0.5-0.3-0.7-0.5c-0.6-0.6-1-1.5-1.3-2.7
			c-0.2-1.2-0.3-2.5-0.2-3.9c0.1-1.4,0.3-2.7,0.7-4.1c0.4-1.4,1-2.5,1.7-3.4c0.8-1.1,1.8-2,3-2.7c1.2-0.7,2.4-1.1,3.6-1.3
			c1.5-0.2,2.7-0.1,3.8,0.3c0.3,0.1,0.6,0.2,0.8,0.3c0.2,0.1,0.4,0.3,0.6,0.5c0.1,0.1,0.2,0.1,0.3,0c0.1-0.1,0.2,0,0.5,0.2
			c0.2,0.2,0.4,0.4,0.5,0.6c0.2,0.3,0.3,0.6,0.3,1c0.1,0.4,0.1,0.8,0,1.2c0,0.3-0.1,0.9-0.2,1.6c-0.1,0.7-0.3,1.5-0.5,2.4
			c-0.2,0.9-0.4,1.8-0.6,2.8c-0.2,1-0.4,1.9-0.6,2.8c-0.2,0.9-0.3,1.7-0.5,2.5c-0.1,0.7-0.2,1.3-0.2,1.7c-0.1,0.6-0.1,1.1-0.1,1.5
			c0,0.4,0.1,0.7,0.3,0.9c0.1,0.1,0.2,0.2,0.4,0.1c0.1,0,0.3-0.1,0.4-0.2c0.1-0.1,0.3-0.2,0.4-0.4c0.1-0.2,0.2-0.3,0.3-0.4
			c0.3-0.5,0.6-1,0.8-1.6c0.3-0.5,0.6-1.4,0.9-2.5c0.3-0.8,0.5-1.5,0.7-2.2c0.2-0.7,0.4-1.3,0.5-1.9c0.1-0.5,0.3-1.1,0.5-1.8
			c0.1-0.3,0.2-0.5,0.5-0.6C155.5,26.9,155.8,26.8,156.1,26.9z M139.4,24.9c0.2-0.5,0.3-0.7,0.2-0.7c0,0-0.2,0.3-0.5,0.8
			c-0.3,0.6-0.6,1.1-0.7,1.6c-0.1,0.5-0.2,1.2-0.3,2.2c0,0.5,0,0.8,0,0.8c0.1-0.1,0.1-0.2,0.1-0.3c0-0.1,0-0.4,0.1-0.7
			c0.1-0.4,0.2-0.8,0.3-1.2c0.1-0.4,0.2-0.9,0.4-1.3C139.2,25.6,139.3,25.2,139.4,24.9z M140.2,28.8c0.1-0.7,0.3-1.4,0.6-2.3
			c0.3-0.8,0.5-1.5,0.7-2.2c-0.2,0-0.4,0.2-0.5,0.6c-0.2,0.4-0.3,0.9-0.5,1.4c-0.1,0.5-0.3,1-0.4,1.5c-0.1,0.5-0.1,0.8-0.1,0.9
			c-0.1,0.7-0.1,1,0,1C139.9,29.9,140,29.6,140.2,28.8z M142,33.8c0.2-0.3,0.4-0.6,0.7-1.1c0.3-0.5,0.5-1.1,0.8-1.6
			c0.3-0.6,0.5-1.2,0.8-1.7c0.3-0.6,0.5-1.1,0.7-1.5c0.3-0.5,0.5-1,0.6-1.6c0.1-0.5,0.2-1.1,0.4-1.7c0.1-0.6,0.2-1.1,0.4-1.7
			c0.2-0.6,0.4-1.1,0.7-1.7c0-0.1,0-0.1-0.2-0.1c-0.1,0-0.3,0.1-0.5,0.2c-0.6,0.3-1.2,0.8-1.7,1.3c-0.5,0.5-0.9,1.1-1.3,1.9
			c-0.2,0.3-0.3,0.7-0.5,1.1c-0.2,0.5-0.3,0.9-0.5,1.4c-0.2,0.5-0.3,1-0.5,1.5c-0.1,0.5-0.2,1-0.3,1.4c0,0.2-0.1,0.5-0.1,0.9
			c0,0.4,0,0.8,0,1.3c0,0.4,0,0.8,0,1.2c0,0.4,0,0.6,0,0.7l0,0.2L142,33.8z M149.9,23.2c-0.2,0.8-0.3,1.7-0.5,2.7
			c-0.2,1.1-0.4,2.1-0.5,3.2c-0.1,1-0.3,2-0.4,2.8c-0.1,0.9-0.1,1.5-0.1,1.8c0,0.2,0,0.3,0,0.1c0.1-0.6,0.1-1.2,0.3-2
			c0.1-0.8,0.2-1.5,0.4-2.3c0.1-0.8,0.3-1.6,0.4-2.4c0.2-0.8,0.3-1.5,0.5-2.2c0.1-0.4,0.1-0.8,0.2-1.2c0.1-0.4,0.1-0.7,0.2-0.9
			c0-0.2,0-0.4,0-0.5c0-0.1,0-0.2,0-0.3c-0.1-0.1-0.2,0-0.3,0.3C150,22.6,150,22.9,149.9,23.2z"/>
	</g>
	<path class="st2" d="M12.2,12.4c-2.3,1.4-3.5,4.1-3.7,6.8c-0.2,2.7,0.4,5.3,1.1,7.9"/>
	<path class="st2" d="M10.3,11.5c-1.4,1-2.4,2.4-3.1,3.9"/>
	<path class="st2" d="M8.3,11.3C8,11.9,7.6,12.4,7.2,13"/>
	<path class="st2" d="M28.2,37.4c0,0.7,0.4,1.3,0.9,1.6c0.4,0.3,0.9,0.4,1.4,0.4c1.7,0.2,3.5-0.2,5-1.2"/>
	<path class="st2" d="M30,41.5c1.6,0.5,3.5,0.2,4.9-0.8c0.1,0,0.1,0.2,0,0.2"/>
	<path class="st2" d="M45.1,16.2c0.7-0.8,1.7-1.3,2.8-1.3c1.1,0,2.1,0.6,2.7,1.5c-0.1-0.1-0.1-0.2-0.2-0.4"/>
	<path class="st2" d="M45.5,13.7c0.6-0.7,1.3-1.3,2.2-1.5c0.9-0.2,1.9-0.1,2.5,0.5"/>
	<path class="st2" d="M75.5,12.5c0.9-0.7,2.3-0.5,3,0.5"/>
	<path class="st2" d="M75.9,11.2c0.1-0.3,0.5-0.6,0.8-0.6s0.7,0.1,0.9,0.4"/>
	<path class="st2" d="M88.3,45.8c1.1,0.7,2.4,1,3.7,0.8s2.5-0.9,3.2-2"/>
	<path class="st2" d="M91.3,48.4c1.5,0.1,3.1-0.5,4.1-1.6"/>
	<path class="st2" d="M94.6,49.3c0.5-0.1,0.9-0.4,1.2-0.7"/>
	<path class="st2" d="M108.6,16.2c0.2,0,0.3,0.2,0.3,0.3c0.3,0.9,0.3,1.8,0.1,2.7c-0.2,0.9-0.6,1.8-1,2.6c-0.1,0-0.2-0.2-0.1-0.2"/>
	<path class="st2" d="M108.1,17.2c0.3,0.7,0.3,1.6-0.1,2.2"/>
	<path class="st2" d="M124,16.5c0.1-0.4,0.5-0.6,0.9-0.7c0.4,0,0.8,0.1,1.2,0.3c0.4,0.2,0.7,0.4,1,0.7c0,0,0,0,0,0"/>
	<path class="st2" d="M124.1,14.6c0.6-0.5,1.6-0.4,2.1,0.1"/>
	<path class="st2" d="M149.3,44.3c0.8,0.7,2,0.6,3,0.2c1-0.4,1.7-1.2,2.4-2.1c2-2.5,3.4-5.5,4.1-8.6c-0.1,0.1-0.1,0.3-0.2,0.4"/>
	<path class="st2" d="M152.4,46.4c0.5,0.2,0.9-0.1,1.4-0.3c1.6-1,2.9-2.4,3.9-4c1-1.6,1.7-3.4,2.4-5.1"/>
</g>
</svg>
