<?xml version="1.0" encoding="utf-8"?>
<!-- Generator: Adobe Illustrator 22.0.1, SVG Export Plug-In . SVG Version: 6.00 Build 0)  -->
<svg version="1.1" id="Capa_1" xmlns="http://www.w3.org/2000/svg" xmlns:xlink="http://www.w3.org/1999/xlink" x="0px" y="0px"
	 viewBox="0 0 168 57" style="enable-background:new 0 0 168 57;" xml:space="preserve">
<style type="text/css">
	.st0{fill:#FFFFFF;}
	.st1{fill:#FFAA24;}
</style>
<g>
	<path class="st0" d="M23.4,37.5c0.2-0.4,0.2-1.1,0.2-1.4c0-0.8,0-0.6-0.1-2.8c0-0.3,0.1-0.7,0.2-1c0-0.5-0.1-1.2-0.1-1.7
		c0-0.4,0.1-0.8,0.1-1.2c0-0.8-0.1-1.6-0.1-2.4l0-0.1c0.1-0.7,0.1-1.1,0.1-1.8c0-0.8,0-1.6,0-2.4c0-0.3,0.1-1.1,0.1-1.1
		c0-0.6-0.1-1.3-0.2-1.9c0-0.2,0.1-0.5,0.1-0.5c0-0.1-0.1-0.2-0.1-0.2l0-1.4l0.1-0.1c0-0.2-0.1-1.2-0.1-2.4c0,0,0-0.2,0-0.3
		C23.5,13,23.6,12.5,23,12c0,0,0,0,0,0c0,0-0.2,0.1-0.4,0.1c-0.5,0-1.1-0.2-1.1-1.2c0-1.3-0.1-2.5,1.3-2.5c0.4,0,0.5,0,0.9,0.1
		c1.7,0,3-0.3,4.3-0.3c0.8,0,1.6,0.3,2.3,0.4c0.3,0,0.6,0,0.8,0c0.2,0,0.4,0,0.6,0.1c0.2,0,1.4-0.1,2.5-0.1c1.3,0,5.7,1.4,7.3,4.6
		c0.3,1.3,0.9,1.6,0.9,2.7c0,0.8,0.2,1.5,0.2,2.2c0,0.1-0.4,2.9-0.5,2.8c0,0-1.6,3.5-3.7,4.1c0,0-1.4,0.7-1.8,0.7
		c1.4,0.4,2.7,0.9,3.9,2.2c0.7,0.8,1.4,2.3,1.7,2.6c-0.1,0-0.2,0.3-0.2,0.4c0,0.5,0.3,0.8,0.3,1.3c0,0.1,0,0.3-0.1,0.4
		c0,0.2,0,0.4,0.1,0.6c0,0.5-0.1,1-0.1,1.5c0,0.1,0.1,0.3,0.1,0.5c0,0.1-0.1,0.1-0.1,0.3c0,0.1,0.1,0.1,0.1,0.1c0,0.1,0,0.1-0.1,0.2
		c0.1,0.3,0.1,0.5,0.1,0.8c0,0.2-0.1,0.5-0.1,0.8c0,0.3,0.5,0.4,0.5,0.8l0.1-0.1c0.1,0.1,0,0.4,0.4,0.5l0.3,0.4l0,1.3
		c-0.2,0.5-0.4,1.4-1.1,1.4c-0.2,0-0.4-0.1-0.6-0.1c-0.4,0-0.8,0-1.3,0c0,0-0.8-0.1-0.9-0.1c-0.8,0-2.1,0-3.2,0
		c-1.9,0-2.3-3.1-2.3-4.8c0-0.2,0.1-0.5,0.1-0.7C34,35.7,34,35.6,34,35.5c0-0.5,0.1-1,0.1-1.6c0-1.1-0.1-2.2-0.1-3.3
		c0-0.4,0.1-0.8,0.1-1.4c0-1.4-0.2-2.4-2.6-2.4c-0.2,0-0.4,0-0.4,0.1c0,0.8,0.2,3.1,0.3,3.1c0,0,0,0.1,0,0.2c0,0.4-0.1,0.8-0.1,1.2
		c0,0.4,0.2,2.4,0.1,4.2c0,0.3,0,1-0.2,1.3c0.1,0.8,0.2,0.7,0.4,0.9c0.8,0.9,0.9,1.8,0.9,2.4c0,0.7-0.4,1.2-1.1,1.2
		c-0.4,0-1.7-0.2-1.9-0.2c-1.5,0-2.9,0-4.4,0l-2.5,0.1c-0.1-0.1-0.6-0.4-0.6-0.8l0-1.6C22.3,38.7,22.7,37.9,23.4,37.5z M25.2,14.1
		C25.2,14.2,25.3,14.2,25.2,14.1c0.1,0.1,0.1,0,0.1,0C25.4,14.1,25.3,14.1,25.2,14.1L25.2,14.1z M25.4,21.3
		C25.4,21.4,25.4,21.4,25.4,21.3c0.1,0.1,0.1,0,0.1,0C25.5,21.3,25.5,21.3,25.4,21.3L25.4,21.3z M25.6,22.8c0-0.1,0.2-0.2,0.2-0.4
		c-0.1-0.1-0.2-0.2-0.3-0.3c0,0,0,0.1,0,0.2C25.5,22.6,25.5,22.7,25.6,22.8z M25.6,18.4C25.6,18.4,25.6,18.5,25.6,18.4
		C25.7,18.5,25.7,18.4,25.6,18.4C25.7,18.4,25.7,18.3,25.6,18.4C25.6,18.3,25.6,18.4,25.6,18.4z M26,23.1l0-0.2l-0.3,0
		C25.7,23,25.9,23.1,26,23.1z M25.9,32.7C25.9,32.8,26,32.8,25.9,32.7c0.1,0.1,0.1,0,0.1,0C26.1,32.7,26,32.7,25.9,32.7L25.9,32.7z
		 M26.6,30.6c0.1,0,0.2-0.1,0.2-0.2l-0.2,0L26.6,30.6z M26.8,30.2C26.8,30.3,26.9,30.3,26.8,30.2c0.1,0.1,0.1,0,0.1,0
		C27,30.2,26.9,30.1,26.8,30.2C26.9,30.1,26.8,30.2,26.8,30.2z M28.6,21.3c0-0.1-0.1-0.3-0.2-0.3c-0.1,0-0.2,0.1-0.2,0.2
		C28.3,21.2,28.5,21.3,28.6,21.3z M29,19.2C29,19.2,29,19.3,29,19.2C29.1,19.3,29.1,19.2,29,19.2C29.1,19.1,29.1,19.1,29,19.2
		C29,19.1,29,19.1,29,19.2z M29.1,26.9L29.1,26.9l0.1-0.1l-0.1,0L29.1,26.9z M29.9,36.1c0.3,0,0.2-0.2,0.3-0.3l-0.1,0L29.9,36.1z
		 M30.5,18.4c0-0.1,0-0.5-0.1-0.5C30.4,18,30.3,18.4,30.5,18.4z M30.6,30.5c0,0,0-0.1,0-0.2l-0.1,0C30.5,30.5,30.6,30.5,30.6,30.5z
		 M31.6,24.3c0.1,0,0.4-0.1,0.5-0.1c0,0.1,0.1,0.1,0.2,0.1c1.8,0,1.4-1.5,2-2.7c0-4-0.1-2.8-0.1-8.9c0,0-0.2-0.4-0.2-0.5
		c-0.3-0.9-1-1-1.8-1.2c-0.5,0-0.8,0.1-0.8,0.1c0,0.5,0,0.5,0.1,0.8l0,2.7l0,0.1l0,0.2c0,0.4,0.1,0.8,0.1,1.1c0,0.1,0,0.2-0.1,0.3
		c0,0.5,0,0.8,0,1.3c0,0.2,0,0.5-0.2,0.7c0,0.1,0.1,0.1,0.1,0.1l0,1.7c0,0.6-0.1,1.7-0.1,1.8c0,0.3,0,0.9,0,1.6c0,0.2,0,0.3-0.1,0.5
		C31.3,24.2,31.6,24.3,31.6,24.3z M35.4,22.9c0.1,0,0.3-0.1,0.3-0.2c0,0,0-0.1-0.2-0.1c0,0,0,0-0.1,0.1
		C35.3,22.8,35.4,22.9,35.4,22.9z M35.5,23.8l0-0.3l-0.1,0C35.4,23.5,35.4,23.8,35.5,23.8z M35.9,29.6c0,0,0.4-0.2,0.4-0.2l0.1,0.2
		c0.1,0,0.2-0.1,0.2-0.2c0,0-0.2-0.1-0.5-0.1c0,0-0.4,0.1-0.4,0.3C35.8,29.6,35.8,29.6,35.9,29.6z M36,26.3c0,0,0.2,0,0.2-0.2l0-0.1
		C36.1,26.2,36,26.2,36,26.3z M36.4,17.4l0.1-0.1c0-0.1-0.2-0.1-0.3-0.1l0,0C36.3,17.3,36.3,17.4,36.4,17.4z M36.3,16.9
		c0.2-0.1,0.2-0.1,0.2-0.3C36.3,16.6,36.3,16.8,36.3,16.9z M36.7,20.6L36.7,20.6c0.1,0,0.1,0,0.1,0C36.9,20.6,36.8,20.6,36.7,20.6
		C36.8,20.6,36.7,20.6,36.7,20.6z M36.9,17.9l0.1,0l0-0.2l-0.1,0L36.9,17.9z M37.4,13.6c0,0,0,0.4,0.2,0.4l0-0.2
		C37.5,13.8,37.5,13.7,37.4,13.6L37.4,13.6L37.4,13.6z M38.1,16.4c0-0.4,0.1-0.4,0.1-0.5c0-0.1-0.2-0.5-0.4-0.5c0,0,0,0,0,0.1
		c0,0.1,0,0.2-0.1,0.3C38.2,16.1,37.7,16.4,38.1,16.4z M37.8,20.8l0.1,0.2L37.8,20.8L37.8,20.8z M38,10.6C38,10.7,38,10.7,38,10.6
		c0.1,0.1,0.1,0,0.1,0C38.1,10.6,38.1,10.5,38,10.6C38,10.5,38,10.6,38,10.6z M38.1,15.9C38.1,15.9,38.1,15.9,38.1,15.9
		C38,15.9,38,15.9,38.1,15.9C38,15.8,38,15.8,38.1,15.9C38.1,15.8,38.1,15.8,38.1,15.9z M38.6,20C38.6,20,38.6,20.1,38.6,20
		c0.1,0.1,0.1,0,0.1,0C38.8,20,38.7,19.9,38.6,20C38.6,19.9,38.6,20,38.6,20z M38.7,18.7C38.7,18.8,38.7,18.8,38.7,18.7
		C38.8,18.8,38.8,18.8,38.7,18.7C38.8,18.7,38.8,18.6,38.7,18.7C38.7,18.6,38.7,18.7,38.7,18.7z M38.8,32.4l0-0.3c0,0-0.1,0-0.1,0.2
		C38.7,32.4,38.8,32.4,38.8,32.4z M39.5,15C39.5,15.1,39.5,15.1,39.5,15c0.1,0.1,0.1,0,0.1,0C39.6,15,39.6,14.9,39.5,15
		C39.5,14.9,39.5,15,39.5,15z M39.7,32.2c0.1,0,0.1-0.2,0.1-0.5c-0.1,0-0.2,0.2-0.2,0.4C39.6,32.1,39.6,32.2,39.7,32.2z"/>
	<path class="st0" d="M50.2,28.8c0-0.4,0.2-0.4,0.2-0.8l-0.1-0.1c0.1-0.1,0.3-0.3,0.5-0.4c-0.1,0-0.1,0-0.3,0.1c0,0-0.2-0.1-0.2-0.1
		c0-0.3,0.3-0.5,0.3-0.8c-0.2,0-0.2,0-0.3,0.1c-0.1,0-0.1-0.4-0.1-0.5c0-0.2,0-0.4,0.1-0.6c-0.1-0.2-0.2-0.8-0.2-0.9
		c0-0.2,0-0.3,0.1-0.5l0-1.3c0,0,0.1-0.2,0.1-0.3c0,0,0-0.3-0.1-0.4c0-0.5,0.1-1.2,0.1-1.6c0,0,0,0,0,0s0.1-3.3,1.1-3.3l0.4,0.4
		l0.1-0.1c0-0.5-0.4-0.5-0.9-0.7c0-2.2,1.2-2.3,1.2-3.5c1-1.2-0.2-0.6,2.5-3.2c1.7-1.6,4.2-1.7,4.9-1.7c2.1,0,3.9,0.7,5.7,3.1
		c0,0,0-0.1,0-0.1c0.1,0,0.4,0.4,1.4,2.4c1,1.4,1.5,4.4,1.5,5c0.2,2.3,0.4,4.5,0.4,6.9c0,0.3,0,1.4-0.1,1.5l-0.1,0.1
		c0,1.9-0.3,2.4-0.3,2.9c0,0.7-0.2,2.9-1.3,5.2c-1.7,3.6-3.3,3.8-4.4,5.1c-0.3,0.3-2.2,0.7-3.2,0.7c-1.5,0-3.2-0.4-4.7-1.9
		c-1.9-1.5-2.6-3.6-3.4-5.6c0,0-0.8-1.6-0.8-3.3C50.6,30.1,50.2,30.3,50.2,28.8z M50.9,23.2C51,23.1,51,23,51,23
		c0-0.2-0.1-0.3-0.4-0.3C50.6,22.8,50.6,23.1,50.9,23.2z M51.1,25.2c0.1,0,0.2-0.2,0.2-0.3C51.1,24.9,51.1,25,51.1,25.2z M51.1,26.2
		c0,0,0.1-0.1,0.2-0.1c0.1,0,0.1,0,0.2,0.1c0.1-0.3,0.3-0.4,0.4-0.4c0.1,0,0.1,0,0.2,0c0,0,0,0,0,0l-0.2-0.2c0,0,0.1-0.1,0.1-0.1
		c-0.1,0-0.2,0.1-0.4,0.1c-0.1,0-0.1-0.1-0.4-0.1c0,0-0.1,0-0.1,0C51.1,25.7,51.1,26,51.1,26.2z M51.5,23.9c0.2,0,0.3-0.2,0.3-0.5
		c-0.1,0.1-0.3,0.2-0.4,0.2C51.4,23.7,51.4,23.9,51.5,23.9z M52.5,21.3C52.5,21.3,52.5,21.3,52.5,21.3l0.1,0c0,0,0-0.4-0.1-0.4
		c0,0,0-0.4,0.2-0.4c0.1,0.2,0.1,0.9,0.4,0.9c0-1.5-0.9-1.2-0.9-1.6l0.1-0.1c0,0,0.2,0,0.2,0.1c0,0,0,0,0-0.1c0-0.1-0.2-0.3-0.4-0.4
		c-0.2,0.3-0.8,0.5-0.8,0.9l0.1,0c0-0.1,0-0.4,0.2-0.4c0,0.2,0.1,0.3,0.3,0.4l-0.1,0.3C52.2,20.7,52.5,21,52.5,21.3z M52,22.4
		c0-0.5,0.2-0.4,0.2-0.7l-0.1-0.1c0,0-0.2-0.5-0.5-0.5c-0.1,0.1-0.1,0.3-0.1,0.4C51.5,21.7,51.8,22.2,52,22.4z M51.7,15
		C51.7,15,51.7,15.1,51.7,15c0.1,0.1,0.1,0,0.1,0C51.8,15,51.8,14.9,51.7,15L51.7,15z M51.9,25.3C51.9,25.3,52,25.3,51.9,25.3
		c0.1-0.1,0-0.2,0-0.2l0.1,0c0-0.2-0.1-0.2-0.1-0.4l-0.1,0c0,0.1,0,0.3-0.1,0.6C51.8,25.3,51.7,25.3,51.9,25.3z M51.7,34.2
		c0.1,0,0.1,0,0.1-0.1l-0.2,0C51.6,34.1,51.6,34.2,51.7,34.2z M51.7,30.2c0,0,0.4-0.4,0.4-0.7c0-0.1,0-0.2,0-0.2c-0.1,0-0.1,0-0.1,0
		C51.9,29.4,51.7,30,51.7,30.2z M52,29.1C52,29.1,52,29.2,52,29.1C52.1,29.2,52.1,29.1,52,29.1C52.1,29.1,52.1,29,52,29.1
		C52,29,52,29.1,52,29.1z M52.1,28.8L52.1,28.8c0.1,0,0.1,0,0.1,0C52.2,28.8,52.2,28.8,52.1,28.8C52.1,28.8,52.1,28.8,52.1,28.8z
		 M52.2,31.7l0.1-0.5C52.2,31.2,52.1,31.4,52.2,31.7L52.2,31.7z M52.2,26C52.2,26.1,52.2,26.1,52.2,26C52.3,26.1,52.3,26.1,52.2,26
		C52.3,26,52.3,26,52.2,26C52.2,26,52.2,26,52.2,26z M52.6,24.4c0.1,0,0.3-0.3,0.3-0.4c0-0.4-0.1-0.5-0.5-0.5
		c-0.1,0-0.1,0.1-0.1,0.1C52.6,24,52.6,24.1,52.6,24.4z M52.9,27.4c0,0,0.1,0,0.1-0.1c-0.2-0.2-0.4-0.1-0.8-0.2
		c0,0.1,0.2,0.1,0.2,0.2c0,0,0,0,0,0C52.6,27.3,52.7,27.4,52.9,27.4z M52.6,25.1c0.2,0,0.1-0.6,0.1-0.6c0,0-0.2,0.3-0.3,0.3
		C52.4,24.9,52.5,25.1,52.6,25.1z M52.8,25.5l0.1-0.1c-0.1,0-0.3,0-0.3-0.1l0,0.1C52.6,25.4,52.6,25.5,52.8,25.5z M53,31.7
		c0,0,0-0.1,0-0.1c0-0.1-0.2-0.2-0.2-0.2c-0.1,0-0.2,0.2-0.2,0.2C52.8,31.6,52.9,31.6,53,31.7z M53.2,32.6c0.1-0.1,0.1-0.2,0.1-0.3
		c0-0.2,0-0.3-0.1-0.5c0,0.3-0.2,0.6-0.2,0.6C53,32.5,53.2,32.6,53.2,32.6z M53.3,24.5c-0.1,0-0.1,0.3-0.1,0.8
		c0.1,0,0.3-0.2,0.3-0.4l0,0c0.1-0.1,0.2-0.2,0.2-0.4L53.3,24.5z M53.3,24.4C53.3,24.4,53.3,24.5,53.3,24.4c0.1,0.1,0.1,0,0.1,0
		C53.4,24.4,53.4,24.3,53.3,24.4L53.3,24.4z M53.7,14.8c0.1,0,0.1-0.2,0.1-0.2c-0.1,0-0.2,0-0.3,0.1L53.7,14.8z M53.8,34.8
		c0-0.2-0.1-0.3-0.4-0.3c0,0,0,0.1,0,0.2C53.3,34.8,53.7,34.8,53.8,34.8z M53.6,24.4C53.6,24.4,53.6,24.5,53.6,24.4
		c0.1,0.1,0.1,0,0.1,0C53.7,24.4,53.7,24.3,53.6,24.4L53.6,24.4z M53.9,21.5c0.1,0,0.1-0.1,0.1-0.2l-0.1-0.1c0-0.2,0.3-0.3,0.3-0.5
		c-0.4,0-0.1,0.4-0.4,0.4C53.8,21.3,53.8,21.4,53.9,21.5z M53.9,34.2c0,0,0.1-0.2,0.1-0.2c0-0.1-0.1-0.1-0.1-0.1l-0.1,0.1
		C53.8,34.1,53.9,34.2,53.9,34.2z M54,26.7l0.2-0.2l-0.1,0C54.1,26.5,54,26.6,54,26.7z M54.1,32.1c0.1-0.1,0.1-0.1,0.1-0.2
		s0-0.1,0-0.1L54,31.9C54,32,54.1,32,54.1,32.1z M54.4,25.8c0.2,0,0.4-0.1,0.4-0.4l0,0c0,0,0.1-0.1,0.1-0.2l0,0c0,0-0.1,0-0.2,0.1
		c-0.2-0.1-0.1-0.3-0.3-0.3c-0.1,0-0.1,0-0.1,0c0,0.3,0.1,0.2,0.3,0.3l-0.1,0.1l0,0L54.4,25.8z M54.3,26.4c0.1,0,0.2,0,0.2-0.2
		c0-0.1-0.1-0.1-0.1-0.3c-0.1,0-0.1,0.1-0.1,0.2C54.2,26.2,54.2,26.4,54.3,26.4z M54.2,31.2l0.2,0c0-0.2-0.1-0.1-0.2-0.1L54.2,31.2z
		 M54.3,33.7c0.2-0.2,0.2-0.3,0.2-0.7c-0.1,0-0.4,0.3-0.4,0.5C54.2,33.6,54.2,33.7,54.3,33.7z M54.4,32.9
		C54.4,32.9,54.3,33,54.4,32.9c-0.1,0.1,0,0.1,0,0.1C54.5,33,54.5,33,54.4,32.9C54.5,33,54.5,32.9,54.4,32.9z M54.6,20.8l0.1,0
		c0-0.1,0-0.2-0.1-0.2c0,0,0,0,0,0L54.6,20.8z M55.7,13.4c0,0,0.1-0.2,0.1-0.3c0-0.4-0.4-0.7-0.5-0.9c-0.1,0-0.4,0.1-0.5,0.1
		c0.1,0,0.1,0.1,0.2,0.1c0,0.7,0.6,0.7,0.6,0.7C55.7,13.3,55.7,13.3,55.7,13.4L55.7,13.4z M55.3,22c0,0,0.1-0.1,0.2-0.1
		c0.2,0,0.1,0.1,0.3,0.1c0-0.2,0-0.3-0.2-0.5c-0.2,0-0.3,0.2-0.5,0.3C55.2,21.8,55.3,21.9,55.3,22z M55.2,31.7
		c0.1,0,0.3-0.4,0.3-0.7l-0.1-0.1c0,0.2-0.3,0.4-0.4,0.6C55,31.6,55.1,31.7,55.2,31.7z M55.3,36.6c0.1,0,0.1-0.1,0.1-0.3
		c0-1.2-0.4-0.9-0.5-0.9c0.2,0,0.2,0,0.2,0.4c0,0.3-0.1,0.5-0.1,0.6C55.1,36.4,55.2,36.5,55.3,36.6z M55.4,24.3l0-0.1
		c0-0.1,0-0.2,0-0.3l-0.2,0.2L55.4,24.3z M55.2,24.7c0-0.1,0.1-0.1,0.1-0.2c0,0,0,0-0.1,0l0,0L55.2,24.7z M55.4,30.2l0-0.7l-0.1-0.1
		c0,0.1,0,0.2-0.1,0.4C55.2,29.9,55.2,30.2,55.4,30.2z M55.9,27.4c-0.2,0-0.3,0.1-0.3,0.2c0,0.1,0,0.1,0,0.2l-0.1,0l0.1,0l0.1,0
		c0.6,0,0.8-0.2,0.8-0.7c0,0-0.1-0.2-0.1-0.2C56.1,26.9,56.1,27.2,55.9,27.4z M55.7,33.1c0.1,0,0.3-0.3,0.3-0.4l-0.1-0.1l-0.3,0.2
		C55.6,32.8,55.7,33,55.7,33.1z M55.8,33.9c0-0.1,0-0.1-0.2-0.1C55.7,33.8,55.7,33.9,55.8,33.9z M56,31.2l0-0.5c0,0-0.1-0.1-0.1-0.1
		c0,0,0,0-0.1,0C55.8,30.8,55.8,31.2,56,31.2z M56.1,36.8c0-0.3-0.3-0.2-0.4-0.2C55.8,36.7,56,36.8,56.1,36.8z M56.1,32.5
		C56.1,32.5,56.2,32.5,56.1,32.5c0.1,0.1,0.1,0,0.1,0C56.3,32.5,56.2,32.4,56.1,32.5L56.1,32.5z M56.9,31.7c0.2-0.1,0.2-0.1,0.2-0.2
		c-0.3-0.2-0.1-0.5-0.4-0.7c0,0.1-0.1,0.4-0.1,0.5c0,0,0,0,0,0C56.7,31.5,56.9,31.4,56.9,31.7z M57.3,34.6c0,0,0-0.2,0-0.2
		s0,0,0-0.1c-0.1,0-0.1,0-0.1,0.1C57.2,34.5,57.2,34.6,57.3,34.6z M57.3,29.7c0.2-0.1,0.1-0.2,0.1-0.3
		C57.3,29.5,57.3,29.6,57.3,29.7z M59.4,38.7c1.4,0,1.6-0.9,1.6-3.2c0-0.4-0.1-1.1-0.1-1.8c0-0.2,0.1-0.4,0.1-0.6
		c0-0.1,0-0.3-0.1-0.4l0-2.2c0-0.8-0.2-1.7-0.2-2.5c0-0.2,0-1,0.1-1.3l-0.1-3.4c0.1-0.1,0.1-0.2,0.1-0.3c0,0-0.1-1-0.1-1.4
		c0,0,0-0.1,0.1-0.3c0-0.9-0.1-3.4-0.1-3.8c0,0,0.1-0.6,0.1-0.7l0-3.8c-0.4-0.7-0.2-1.3-1.2-1.3c-1.4,0-1.6,1.4-1.6,2.6
		c0,1.6,0.1,3,0.1,4.5c0,0.1-0.1,0.3-0.1,0.4c0,3.4,0.2,0.2,0.1,7.3c0,0.3-0.1,0.8-0.1,1.3c0,0.7,0.2,1.3,0.2,2
		c0,0.7-0.2,1.5-0.2,2.2c0,1.1,0.2,2.1,0.2,3.2c0,0.6-0.1,1.1-0.1,1.7C58.2,36.6,58.4,38.7,59.4,38.7z M61,28.5c0,0,0.2,0,0.2,0
		c0-0.2,0-0.1,0-0.1C61,28.3,61,28.4,61,28.5z M62.8,25.7c0.1,0,0.1-0.1,0.1-0.1c0-0.1,0-0.1-0.1-0.2l-0.1,0.1
		C62.8,25.5,62.8,25.6,62.8,25.7z M62.8,26.2c0.1,0,0.2,0,0.3-0.1l0-0.1C62.9,26,62.8,26.2,62.8,26.2z M62.9,27.7l0.1-0.3
		c0,0,0,0-0.1,0c-0.1,0-0.1,0-0.1,0.2L62.9,27.7z M63.7,13.2c0-0.1,0.1-0.3,0.2-0.3l-0.3-0.3l-0.2,0.1
		C63.5,12.8,63.6,13.2,63.7,13.2z M63.6,19.8C63.6,19.8,63.6,19.8,63.6,19.8L63.6,19.8l0.2,0c-0.1,0-0.1-0.1-0.1-0.2l0,0
		C63.6,19.6,63.6,19.7,63.6,19.8z M63.8,19.8C63.8,19.8,63.8,19.8,63.8,19.8c0.1,0.1,0.1,0,0.1,0C63.9,19.8,63.9,19.7,63.8,19.8
		L63.8,19.8z"/>
	<path class="st0" d="M76.6,41.8c-0.3,0-0.6-0.2-0.9-0.4c0-1.3,0-1.7,0-1.8c0-1.1,1.7-0.9,1.7-1.8c0-0.8-0.1-1.8-0.1-2.2
		c0-0.3,0.1-0.6,0.1-0.8c0-0.5-0.1-0.9-0.1-1.3c0-0.6,0.1-1.5,0.1-1.9c0-0.6-0.2-2.2-0.2-2.7c0.1-0.3,0-0.7,0.1-0.9
		c0.1,0,0.7,0.3,0.7,0.8c0.2,0,0.2,0,0.2-0.1c0-0.7-1-1-1-1.8c0-0.1,0.1-0.6,0.1-0.8c0-0.7-0.1-3.1-0.1-3.1c0-0.6,0.2-1.2,0.2-1.7
		C77,20.2,77,19,77,17.9c0-1.2,0.1-2.3,0.1-3.4c0-0.6,0-0.9-0.5-1.3c-1.2-0.4-1.4-1.1-1.4-2.3c0-1.5,1.1-1.7,2.8-1.7
		c0.9,0,3.6,0,3.8,0.1c0.3,0.1,3,5.6,3.7,8.1c0.5,1.6-0.2-1.5,2.4,5.3c0.1,0.5,0.3,1.3,0.6,1.6c0,0,0.1-0.1,0.1-0.2
		c0-0.7-0.2-0.5-0.2-2.5c0-0.3,0.1-0.8,0.1-1.5c0-2-0.4-4.2-0.4-6c0-0.2,0.1-0.5,0.1-0.8c0-0.6-1.8-1.2-1.8-1.3c0,0-0.2-1.5-0.2-2
		c0-0.4,0.2-0.8,1.7-0.7c1.4,0,3.6-0.2,4.7-0.2c0.5,0,0.9,0.3,1,0.8l0,1.7c0,0,0,0.1,0,0.1c0,0.7-1.6,0.6-1.6,1.3l0,2.6
		c0,0.8,0.2,1.6,0.2,2.4c0,1-0.1,2.8-0.1,3.3c0.1,2.9,0.2,3.9,0.2,5.8c0,1.9-0.1,1.3-0.1,1.6c-0.1,0.2,0.1,1,0.1,4.2
		c0,0.7,0.2,1.7,0.2,2.3c0,0.1,0,0.3-0.1,0.4c0,0.7,0.2,1.3,0.2,1.9c0,0.1,0,0.3-0.1,0.5c0.1,0.9,0.3,2.1,0.3,3.1
		c0,0.3-0.2,0.5-0.5,0.7c-0.3-0.1-0.6-0.1-0.9-0.2c-1.8,0-1.9,0.2-2.6,0.2c-0.4,0-1.6-3.6-2.3-5c-0.3-0.6-0.9-1.8-1.2-2.5
		c-0.2-0.2-0.8-2.9-1.3-3.1c0-0.2-1-1.9-1-2.2c-0.2-1.3-1-2.4-1.4-3.2c0,0-0.4-2.2-0.9-2.2c-0.2,0,0,0.5-0.2,0.8l0.1,0.1
		c0,0-0.3,0.2-0.5,0.4c0,0.2,0.2,0.4,0.4,0.4c0,0,0-0.1,0-0.2l0.1-0.1c0,0.1,0.2,0.2,0.2,0.3c-0.1,0.1-0.2,0.1-0.2,0.3
		c0,0.2,0.3,2.3,0.3,2.3c0,0.3-0.1,0.6-0.1,0.9c0,1.6,0.2,3.3,0.2,4.8c0,0.3-0.1,0.7-0.2,1c0,0.6,0.1,1.5,0.1,2.6c0,1.6,2,1.1,2,2.4
		l0,1.8c0,0.4-0.4,0.4-0.7,0.4c-0.4,0-0.7-0.1-1-0.1c0,0,0,0,0,0s-0.8,0.1-1.7,0.1c-0.4,0-0.8,0-1.3-0.1
		C77.9,41.6,77,41.6,76.6,41.8z M77.1,40c-0.1,0-0.7,0.7-0.7,0.8c0,0.1,0,0.1,0,0.1c0.3-0.1,0.5-0.4,0.7-0.5c0.2,0,0,0.3,0.2,0.3
		c0.2,0,0.4-0.1,0.5-0.3l-0.1-0.2c0-0.2,0-0.4,0.2-0.4c0,0,0.2,0.3,0.4,0.3c-0.2-0.5-0.2-0.3-0.5-0.5c-0.2,0-0.5,0.1-0.5,0.4
		c0,0,0.1,0.4,0.1,0.4l-0.1,0.1L77.1,40z M77.8,14.7c0,0,0.1,0,0.1-0.1c0-0.1-0.2-0.1-0.3-0.1C77.7,14.6,77.7,14.6,77.8,14.7z
		 M79.8,38.8c-0.1-0.4-0.4-0.5-0.8-0.8c0,0-0.1,0.5-0.4,0.5c0,0-0.3-0.9-0.5-0.9c0,0,0,0,0,0l0,0.1c0,0-0.4,0.3-0.5,0.3c0,0,0,0,0,0
		c0,0-0.1,0-0.1,0.2c0,0.3,0.1,0.3,0.3,0.3l0,0.1c0,0,0.6-0.2,0.6-0.3c0,0.1,0.1,0.2,0.2,0.3c0-0.1,0.1-0.1,0.3-0.1
		C79.3,38.7,79.5,38.8,79.8,38.8z M77.6,34.5c0.1,0,0.1-0.1,0.3-0.1c0,0,0-0.1,0-0.2C77.7,34.2,77.6,34.4,77.6,34.5z M78.1,40.9
		c0,0,0.1-0.1,0.1-0.2l-0.4,0C77.8,40.7,78,40.9,78.1,40.9z M78.2,27.4c0.2-0.1,0.4-0.1,0.4-0.3c0-0.2-0.1-0.4-0.3-0.5
		c0,0.1-0.1,0.4-0.1,0.5C78.1,27.1,78.2,27.2,78.2,27.4z M78.5,25.7c0,0,0.5-0.2,0.5-0.4c-0.3,0-0.5,0-0.5-0.1
		c-0.2,0-0.2,0.1-0.2,0.2C78.3,25.5,78.4,25.7,78.5,25.7z M78.3,40.1c0.2,0,0.1,0,0.2-0.2C78.5,39.9,78.3,40,78.3,40.1z M78.5,28.1
		c0,0.1,0,0.2,0,0.4c0.1,0,0.1-0.3,0.1-0.4c0.3,0.1-0.1,0.4,0.8,0.4c0-0.4-0.3-0.2-0.3-0.4c0.1-0.1,0.3-0.4,0.3-0.4
		c0,0,0.2,0.1,0.3,0.1l-0.3-0.3c0,0-0.2,0.1-0.3,0.2c0,0-0.1-0.2-0.2-0.3c-0.2,0-0.2,0.1-0.2,0.2c-0.1,0-0.2,0-0.2,0
		C78.5,27.6,78.5,27.8,78.5,28.1z M78.8,22.8c0.1,0,0.1,0,0.1-0.1c0-0.1,0-0.1-0.1-0.1c0,0-0.1,0-0.2,0.1
		C78.7,22.8,78.8,22.8,78.8,22.8z M78.7,25.4C78.7,25.5,78.7,25.5,78.7,25.4c-0.1,0.1-0.1,0-0.1,0S78.7,25.3,78.7,25.4
		C78.7,25.3,78.7,25.4,78.7,25.4z M78.7,37.3C78.7,37.3,78.6,37.4,78.7,37.3c0,0.1,0.1,0,0.2,0c-0.2-0.1,0-0.4-0.2-0.4
		c-0.1,0-0.1,0-0.1,0.1l0.1,0l-0.1,0.1C78.6,37.2,78.7,37.2,78.7,37.3z M78.6,39.6c0,0,0.1,0,0.1,0l0.3,0.2c0.1,0,0.1,0,0.1-0.1
		c0,0-0.2-0.3-0.4-0.4C78.7,39.2,78.6,39.4,78.6,39.6C78.6,39.5,78.6,39.6,78.6,39.6z M78.8,22c0,0,0.3-0.1,0.3-0.2
		c0-0.1,0-0.2-0.1-0.3C78.9,21.7,78.8,21.9,78.8,22z M79.1,25.1c0.1-0.1,0.2-0.2,0.5-0.2c0,0-0.2-0.2-0.4-0.2l0-0.1
		c0-0.1-0.1-0.3-0.3-0.3c-0.1,0-0.2,0.1-0.2,0.2c0,0,0.1,0.1,0.2,0.1C79,24.6,79.1,25,79.1,25.1z M79,29.1c0,0,0-0.1,0-0.2
		c0,0,0-0.1-0.1-0.1c-0.1,0-0.2,0.1-0.2,0.2C78.8,29.1,78.9,29.1,79,29.1z M79.1,30.1c0.1-0.1,0.3-0.2,0.3-0.3c-0.1,0-0.2,0-0.3-0.2
		c0,0-0.2,0.2-0.2,0.2C78.9,30,79,30,79.1,30.1z M79.4,26.7C79.3,26.5,79.3,26,79,26C79,26.2,79.1,26.7,79.4,26.7z M79.2,21.1
		c0,0.1-0.1,0.3-0.1,0.5C79.4,21.6,79.3,21.3,79.2,21.1L79.2,21.1z M79.1,32.4C79.1,32.5,79.1,32.5,79.1,32.4l0.3,0
		c0,0,0-0.6-0.2-0.6C79.2,31.8,79.1,32.3,79.1,32.4z M79.3,22c0.1,0,0.1-0.1,0.1-0.1c0-0.1,0-0.1,0-0.2c0.2,0,0.2,0.1,0.7,0.1
		c0.1,0,0.1-0.1,0.1-0.2c-0.2,0-0.5,0-0.8-0.1c-0.1,0-0.2,0.4-0.2,0.4C79.2,22,79.3,22,79.3,22z M80.2,22.3c0.1,0,0.2,0,0.3,0l0.1,0
		c0.1,0,0.1-0.1,0.1-0.2c0-0.1,0-0.2-0.1-0.2C80.5,21.9,80.2,22,80.2,22.3z M80.1,40.5c0.1,0,0.2-0.1,0.2-0.1c0,0,0,0,0,0l0-0.5
		c0,0,0.1,0,0.2,0c0,0,0.2,0,0.2,0l0-0.3C80.2,39.6,80.4,40.4,80.1,40.5L80.1,40.5z M81.2,22.1c0,0,0.1,0.2,0.1,0.2
		c0,0,0.1-0.2,0.1-0.4c0,0-0.2-0.2-0.2-0.3c0,0-0.1,0-0.2,0.2c0,0.1,0.1,0.1,0.2,0.1C81.2,22,81.2,22.1,81.2,22.1z M82.4,26.4
		c0.1,0,0.2-0.2,0.2-0.2c0,0,0,0,0,0l0,0.1l0.3,0c0,0,0.1-0.3,0.1-0.4c0,0,0,0,0,0s-0.2-0.6-0.7-0.6c0,0-0.2,0.3-0.2,0.4
		c0,0.1,0.2,0.2,0.2,0.3l-0.2,0.2L82.4,26.4z M82.4,25.2c0,0,0.2,0,0.2-0.2c0,0,0-0.3,0-0.4c-0.1,0-0.2,0-0.2,0.1
		C82.3,24.7,82.4,25.1,82.4,25.2z M83.3,18.4c0.1,0,0.2,0,0.2-0.1C83.3,18.3,83.3,18.4,83.3,18.4z M83.8,17.6
		C83.8,17.6,83.8,17.7,83.8,17.6c0.1,0.1,0.1,0,0.1,0C83.9,17.6,83.9,17.6,83.8,17.6L83.8,17.6z M84.6,27.8c0.1,0,0.2,0,0.2-0.2
		C84.8,27.6,84.6,27.6,84.6,27.8z M85.1,27.3c0,0,0.4,0.1,0.6,0.1c0.1,0,0.1,0,0.3-0.1c-0.2,0-0.3-0.1-0.4-0.3
		c-0.1,0.1-0.1,0.3-0.2,0.3c0,0-0.1-0.1-0.2-0.1L85.1,27.3z M85.2,29.4C85.2,29.5,85.3,29.5,85.2,29.4c0.1,0.1,0.1,0,0.1,0
		C85.4,29.4,85.3,29.4,85.2,29.4L85.2,29.4z M87.7,30.9c0.1,0,0.1-0.1,0.1-0.2c0-0.1,0-0.1-0.1-0.1L87.7,30.9z M87.9,35.7
		c0.1,0,0.2,0,0.2-0.1l0-0.1L87.9,35.7z M88.3,35.6c0.1,0,0.2,0,0.2-0.2C88.4,35.4,88.3,35.5,88.3,35.6z M88.5,36
		c0-0.1,0-0.3,0.1-0.4c0,0,0.2,0.5,0.2,0.4c0,0-0.2,0.3-0.3,0.3C88.5,36.2,88.5,36.1,88.5,36z M89.1,17.2
		C89.1,17.3,89.2,17.3,89.1,17.2c0.1,0.1,0.1,0,0.1,0C89.3,17.2,89.2,17.2,89.1,17.2L89.1,17.2z M89.9,22.5c0,0,0.1,0,0.1-0.1
		c0,0,0-0.1-0.1-0.1L89.9,22.5L89.9,22.5z M90.4,22.2c0,0,0-0.1-0.1-0.2L90.1,22L90.4,22.2z"/>
	<path class="st0" d="M101.8,41.9l-0.2,0c-0.2,0-1,0-1.1,0c-0.8-0.3-0.7-0.7-0.7-1.4c0-2.9,1.7-0.7,1.7-3.2l0-3.6
		c0-0.2,0-0.9-0.1-1.1c0-1.2,0.3-3.5,0.3-3.9c0.1-1-0.1-2.1-0.1-3.2c0-0.5,0.2-0.9,0.1-1.4c0,0-0.1-0.7-0.1-0.8
		c0-0.3,0.1-0.4,0.1-0.8c0-0.4-0.1-0.9-0.1-1.3c0-0.1,0.1-0.3,0.1-0.5c0-0.1,0-0.1-0.1-0.3c0-2,0.1-2.4,0.1-3.3
		c0,0.1-0.1-0.4-0.1-0.5l0-3.1c0-1.5-1.8-0.8-1.8-1.8l0-1.7c0.1-0.4,0.6-1.1,1-1.1c0.6,0,1.4,0.1,1.5,0.2c0,0,0.4,0,0.4,0l7.8,0.1
		l0.1-0.1c0.1,0,0.7,0.1,0.9,0.2c0,0,0.4,0,0.4,0c1.5,0,3,0.5,4.5,1.5c0.9,0.6,1.7,1,2.3,2.1c0,0.1,1.1,1.1,1.2,2.2
		c-0.1-0.4,0.5,1.7,0.5,3.5c0,0-0.1,0.5-0.1,0.6c-0.9,4.4-1.2,3.9-3.3,6c-0.6,0-0.7,0.9-1.6,0.9c-0.8,0.1-0.8-0.2-1.2-0.6
		c0,0-0.2,0.1-0.3,0.1c0.2,0,0.1,0.3,0.1,0.4l-0.4,0.5l-0.5,0l-0.1-0.1c-0.1,0-0.4,0.1-0.5,0.1l0.1,0.1c0.1,0.3-0.5,0.2-0.5,0.3
		c-0.2,0.1,0,0.7-0.3,0.7c0,0,0.1,0.2,0.2,0.2c0.1,0,0.1,0,0.1-0.1c0,0,0-0.1,0-0.2c0-0.1,0-0.1,0.2-0.1l0.1,0
		c0.2,0.1,0.2-0.4,0.2-0.5l0,0c0,0,0.1,0.2,0.1,0.3c-0.1-0.4,0,1.2-0.6,1.1c0,0.2,0.5,0.3,0.6,0.3c0,0,0.1,0,0.1-0.1
		c-0.1-0.1-0.3-0.1-0.3-0.3c0.4,0,0.5-0.5,0.8-0.5c0,0.1,0,0.3-0.1,0.5l0.1,0.2l-0.1,0.2c0,0.1,0,0.1,0.1,0.2
		c-0.1,0.1-0.4,0.5-0.4,0.7c0,0.3,0.4,0.4,0.4,0.8c0,0.3-0.3,0.5-0.3,0.6c0,0.4,0.7,0.5,0.8,0.8c0.2,0.1,0.3-0.5,0.5-0.6
		c0.1-0.1,0.5,0,0.5-0.2c0-0.1-0.2-0.7-0.1-0.9c-0.1,0-0.2,0.1-0.3,0.1c-0.3,0-0.4-0.1-0.4-0.4l0.4,0l0-0.2l0.1,0
		c0,0,0.3,0.2,0.3,0.4c0.1,0,0.1,0,0.1-0.3c0-0.1-0.3-0.3-0.4-0.3l0.1-0.1c0.2,0.1,0.7-0.6,0.7-0.7c0,0-0.2,0-0.2,0
		c0-0.1,0-0.1,0-0.2c0.3,0.1-0.4-0.2-0.4-0.5l0,0c0,0,0,1.4-0.5,1.4c-0.4-0.2-0.2-0.6-0.5-0.6c0.1-0.2,0.3-1.1,0.4-1.2
		c0.3,0-0.4-0.1-0.4-0.7c0-0.1,0-0.1,0-0.1c0.5,0,0.5,0,0.8,0.2c0.1,0,0.1,0,0.3,0c0.1,0,0.8,0.2,0.8,0.3c0,0.2-0.1,0.2-0.1,0.5
		l0.4,0c0-0.2,0.1-0.2,0.3-0.2c0,0,1.4,0.6,2.4,2.2c-0.3,0,0.7,1.8,0.7,3.2l0,4.4c0.1,0.2,0.1,0.5,0.1,0.8c0,1.8,1.3,0.6,1.2,2.8
		c0,0,0.1,1.4-0.6,1.4c-1.1,0-5.4-0.1-5.7,0.1c0,0,0,0-0.1,0c-0.1,0-0.2,0-0.3,0c-0.9,0-1.5-0.9-1.7-1.1c-0.6-0.5-0.6-2.6-0.6-3.6
		c0-1.2,0.2-1.2,0.3-1.8c0.2,0-0.2-0.2-0.2-0.5c0-0.1,0.1-0.1,0.1-0.3c0-0.5,0-1.2-0.1-1.4c0,0,0-0.2,0.1-0.4c0-0.4,0-0.7,0-1
		c0.1-0.7,0.2-0.9,0.2-1.6c0-1.9-0.7-2.5-2.9-2.5c0,0-0.4,0-0.4,0.1c0,0.1,0.1,0.3,0.1,0.4c0,0.2-0.1,0.3-0.1,0.5l0.3,0.1l0,0.6
		l-0.1,0c0.1,0.1,0.2,0.3,0.2,0.5c0,0-0.1,0.3-0.2,0.3c0,0-0.1-0.1-0.1-0.2c0-0.1,0-0.2,0.1-0.3c-0.5,0,0-0.3-0.5-0.6
		c-0.1,0-0.1,0.1-0.2,0.1l0-0.2l0.1,0c0,0,0.1-0.2,0.1-0.3c0,0,0.1-0.1-0.1-0.1c0-0.2,0,0.2-0.4,0.3c0,0.1,0.1,0.2,0.1,0.3
		c0,0.1,0,0.2-0.1,0.2l-0.3-0.4c0,0-0.1,0.3-0.3,0.3c0-0.1-0.1-0.2-0.1-0.4c0-0.3,0.5-0.3,0.6-0.6c0.2,0,0.3,0,0.4,0.2
		c0.1-0.3,0.3-0.4,0.6-0.7l-0.5,0c0,0,0-0.3,0-0.3c-0.1,0.1-0.1,0.6-0.2,0.6c0-0.1,0-0.2,0-0.4c0-0.2,0.3-0.2,0.3-0.5l-0.2,0
		c0,0,0.1-0.1,0.2-0.1l0,0c-0.1-0.1-0.1-0.1-0.1-0.3c0-0.1,0-0.1,0.1-0.2l-0.1-0.1l-0.2,0.2c-0.1-0.1-0.2-0.3-0.4-0.3
		c0,0-0.2,0-0.2,0.2c0,0.1-0.1,0.7,0.2,0.6c0,0,0-0.1,0-0.2l0.1,0.1c0,0-0.1,0.7-0.1,0.7c-0.4,0-0.2-0.6-0.4-0.6
		c-0.2,0,0,0.4-0.3,0.3c0.2,0.1,0.2,0.2,0.2,0.4s-0.2,0.6-0.2,0.6c-0.1,0-0.1-0.2-0.2-0.2c-0.4,0-0.3,0.5-0.5,0.8
		c-0.2-0.3-0.4,0-0.4-0.5c-0.5,0-0.2,0.2-0.5,0.3c-0.1,0-0.5,0-0.5,0.1c0,0,0,0.1,0.1,0.3c0,0,0.1,0.1-0.1,0.1c-0.1,0-0.3,0-0.4,0
		c-0.2,0-0.4,0.6-0.4,0.9c0,0.2,0.1,0.2,0.3,0.3l-0.1,0.2c0.2,0,0.7,0,0.6,0.2c-0.3,0.1-0.1,0.8-0.5,0.7c-0.1,0-0.1,0-0.2-0.1
		c-0.1,1.6-0.7,0.7-0.7,1.4c0,0,0.1,0,0.2-0.1c0,0,0.3,0.2,0.5,0.5c0,0,0.1,0.1,0.1-0.1l-0.2-0.7l0,0c0-0.2,0.5-0.3,0.7-0.3
		c0.1,0,0.3,0.2,0.3,0.4c0-0.1,0.3-0.1,0.4-0.3c0,0-0.1-0.1-0.1-0.1c0,0-0.1,0-0.1,0c-0.1,0-0.2-0.1-0.2-0.5c0-0.3,0-0.2,0.3-0.4
		c0,0,0.2,0,0.3,0.1l-0.1,0c0.1-0.1,0.1-0.1,0.1-0.3c0-0.1-0.1-0.1-0.1-0.2c0-0.2,0.3-0.8,0.4-1c-0.1,0-0.2,0-0.2,0
		c-0.2,0-0.8,0.5-1,0.4c-0.1-0.1,0.2-0.8,0.7-0.8c0.2,0,0.2,0.1,0.5,0.1c0.3,0,0.3-0.4,0.6-0.5c0,0.2,0.1,0.5,0.2,0.5
		c0.1,0,0.1-0.1,0.3-0.1c0.1,0,0.3,0.2,0.3,0.4c0,0-0.1,0-0.1,0c-0.1,0-0.2,0.1-0.2,0.2l0.1,0.1c0,0.3,0,0.3-0.1,0.4
		c0,0,0.2,0.1,0.3,0.2c0.3-0.3,0-0.7,0.5-1l0,0.1c-0.1,0.2,0.6,0.2,0.6,0.4c0,0.1,0,0.2,0,0.2c0,0-0.2,0-0.4-0.1
		c0-0.1-0.2,0.2-0.2,0.4c0.2,1.1,0.6,0.8,0.6,1.2c0,0.1-0.3,0.4-0.3,0.5c0.3,0.2,0.3,0.4,0.5,0.6c0,0,0-0.1,0-0.1
		c0-0.5,0.3-0.8,0.7-0.8c0.1,0,0.3,0.2,0.3,0.3c0.1-0.1-0.1,0.5-0.1,0.8c0.3,0,0.2,0.7,0.3,0.9c-0.1,0.3-0.4,1.1-0.4,1.4
		c0-0.1,0-0.1-0.1-0.1c0,0-0.1,0.2-0.1,0.4c0,0.1,0.1,0.3,0.2,0.4c0,0,0.1-0.2,0.2-0.2c0,0,0,0.1,0,0.2c0,0.2-0.1,0.3-0.1,0.6
		c0.2,0.3,0.2,0.8,0.2,1.1c0,1.3,0.4,1.1,0.9,1.7c0.1,0.2,0.1,0.4,0.2,0.6c0-0.1,0.4,2.2-1.1,2.2l-4,0c-0.7,0-1.1,0.2-1.8,0.2
		c-0.1,0-0.2,0-0.3-0.1L101.8,41.9z M102.6,31.8C102.6,31.8,102.6,31.8,102.6,31.8c0,0.1,0,0.1,0,0.1L102.6,31.8
		C102.6,31.8,102.6,31.8,102.6,31.8z M102.7,31.7C102.7,31.7,102.7,31.8,102.7,31.7C102.8,31.8,102.8,31.7,102.7,31.7
		C102.8,31.7,102.8,31.6,102.7,31.7C102.7,31.6,102.7,31.7,102.7,31.7z M102.8,31.5L102.8,31.5L102.8,31.5L102.8,31.5z M103,32.7
		C103,32.8,103,32.8,103,32.7c0.1,0.1,0.1,0,0.1,0C103.1,32.7,103,32.7,103,32.7C103,32.7,103,32.7,103,32.7z M103.5,34.5
		c0.1,0,0.4-0.4,0.4-0.6C103.5,33.9,103.5,34.1,103.5,34.5z M103.7,26L103.7,26L103.7,26L103.7,26z M103.9,35l0-0.3
		c-0.1,0-0.2,0-0.2,0.1C103.6,34.9,103.8,35,103.9,35z M103.9,19.3l0-0.1L103.9,19.3z M103.9,23.1C103.9,23.1,103.9,23.2,103.9,23.1
		c0.1,0.1,0.1,0,0.1,0C104,23.1,103.9,23,103.9,23.1L103.9,23.1z M104,28.2C103.9,28.2,103.9,28.2,104,28.2c0,0.1,0,0.1,0,0.1
		L104,28.2C104,28.2,104,28.2,104,28.2z M104.1,28.5C104.1,28.5,104.1,28.6,104.1,28.5C104.2,28.6,104.2,28.5,104.1,28.5
		C104.2,28.5,104.2,28.5,104.1,28.5C104.1,28.5,104.1,28.5,104.1,28.5z M104.3,31.9C104.3,31.9,104.2,31.9,104.3,31.9l-0.1,0
		C104.1,31.8,104.2,31.8,104.3,31.9C104.2,31.8,104.3,31.8,104.3,31.9z M104.1,34c0,0,0.5-0.1,0.5-0.1l-0.1-0.1
		C104.3,33.8,104.2,33.9,104.1,34z M104.2,28.7l0.1,0C104.3,28.6,104.2,28.7,104.2,28.7L104.2,28.7z M104.2,34.6c0,0,0,0,0.1,0
		C104.3,34.6,104.2,34.6,104.2,34.6z M104.8,33.6c0.2,0,0.2-0.1,0.2-0.3c0,0-0.1,0-0.2,0c0,0-0.1,0-0.1-0.1c0.2-0.1,0.2-0.4,0.2-0.5
		c-0.4,0-0.5-0.1-0.7,0.3c0.2,0,0.2-0.2,0.5-0.2c0,0.2-0.1,0.2-0.3,0.2C104.5,33.3,104.8,33.3,104.8,33.6z M104.5,19.8
		C104.5,19.9,104.5,19.9,104.5,19.8c0.1,0.1,0.1,0,0.1,0C104.6,19.8,104.6,19.8,104.5,19.8C104.5,19.8,104.5,19.8,104.5,19.8z
		 M104.6,26.8c0,0,0.2,0,0.2-0.1c0-0.1-0.1-0.2-0.2-0.2l-0.1,0.1C104.5,26.6,104.6,26.6,104.6,26.8z M104.8,34.8
		c0.1,0,0.3-0.1,0.3-0.3l0.1,0.1c0,0,0-0.2-0.2-0.2c-0.3,0.1-0.3,0.3-0.6,0.3C104.5,34.6,104.7,34.7,104.8,34.8z M104.7,19.2l0.1,0
		l0-0.2C104.8,19,104.7,19.1,104.7,19.2z M104.6,27.7L104.6,27.7L104.6,27.7L104.6,27.7z M104.7,31c0,0.1,0,0.1,0,0.1
		c-0.1,0-0.1,0-0.1-0.1L104.7,31z M104.8,20.7c0.2,0,0.9-0.7,1.1-1.3c0,0,0.1-0.1-0.1-0.1C105.7,19.3,104.8,20.5,104.8,20.7z
		 M104.9,21.7C104.8,21.7,104.8,21.7,104.9,21.7C104.8,21.8,104.8,21.8,104.9,21.7C104.9,21.8,104.9,21.8,104.9,21.7
		C104.9,21.7,104.9,21.7,104.9,21.7z M104.7,23.8L104.7,23.8c0-0.1,0-0.1,0-0.1L104.7,23.8z M104.7,26.3
		C104.7,26.4,104.8,26.4,104.7,26.3c0.1,0.1,0.1,0,0.1,0C104.9,26.3,104.8,26.3,104.7,26.3L104.7,26.3z M104.7,34.4
		C104.6,34.4,104.6,34.4,104.7,34.4c0,0.1,0,0.1,0,0.1L104.7,34.4C104.7,34.4,104.7,34.4,104.7,34.4z M104.9,22.5L104.9,22.5
		L104.9,22.5L104.9,22.5z M105.1,30.2c0,0-0.1,0.2-0.2,0.3l0-0.1C104.8,30.3,105,30.2,105.1,30.2z M106.3,24.3c0,0.1,0,0.2-0.1,0.3
		c0,0,0,0.1,0.1,0.1c1,0,0.1-0.3,0.9-0.9c0.2,0,0.1,0,0.1,0.1c0,0,0,0.2-0.1,0.3c0,0,0,0,0,0.2c0.1-0.1,0.4-0.3,0.5-0.3
		c0,0,0.2,0,0.2,0.1c0.2-0.1,0.1-0.2,0.1-0.4c0-0.1,0-0.6-0.4-0.6c-0.2,0-0.4,0.2-0.5,0.4c-0.1,0-0.1,0-0.1-0.1c0-0.1,0-0.2,0-0.4
		c0,0.1,0.2,0.1,0.3,0.1c0.4-0.2,0.1-0.4,0.3-0.4c0.1,0,0.2,0,0.2,0.2c0.1-0.4,0-0.7-0.4-0.9c0,0-0.1,0-0.2,0.1
		c-0.2,0-0.4-0.1-0.5-0.2c0-0.1,0.1-0.2,0.1-0.3c-0.1,0.1-0.4,0.2-0.5,0.2c-0.1,0-0.1,0-0.2,0c0.1-0.1,0.1-0.1,0.1-0.2
		c0,0-1,0.6-1,0.5c-0.1,0-0.2,0-0.3-0.1c0,0.2,0.2,0.2,0.2,0.6l-0.1,0.1c0,0.2,0.1,0.4,0.1,0.6c0.1,0.1,0.2-0.2,0.4-0.2
		c-0.1,0.1,0-0.5-0.1-0.5c0.1,0,0.3,0.1,0.4,0.1c0.2-0.5,0.1-0.5,0.7-0.5c0,0.1-0.1,0.3-0.1,0.4c-0.1,0,0.1,0.1,0.1,0.2
		c0,0.1-0.2,0.3-0.2,0.3c-0.1,0-0.4-0.3-0.7-0.3c0,0.1,0.2,0.4,0.2,0.8c0,0.3-0.5,0.2-0.6,0.5l0,0.1c0.3,0,0.4-0.4,0.9-0.4
		C106.2,24,106.3,24.2,106.3,24.3z M105.1,25.6l0.3-0.4c0.1,0,0.1,0.1,0.1,0.2c0.1-0.1,0.1-0.1,0.1-0.3c0-0.1-0.2-0.2-0.4-0.2
		c0,0.4-0.2,0.2-0.2,0.4C105,25.5,105,25.6,105.1,25.6z M105.2,27.8c0.1,0,0.3-0.2,0.3-0.2c-0.1-0.1-0.2-0.2-0.3-0.3
		c-0.1,0-0.1,0-0.1,0C105.2,27.4,105.2,27.6,105.2,27.8z M105.1,36.1C105.1,36.1,105.1,36.2,105.1,36.1
		C105.2,36.2,105.2,36.1,105.1,36.1C105.2,36.1,105.2,36,105.1,36.1C105.1,36,105.1,36.1,105.1,36.1z M105.5,17.7l0-0.2
		c0,0-0.2,0-0.2,0.1C105.4,17.7,105.5,17.8,105.5,17.7z M105.3,18.1L105.3,18.1l0-0.2L105.3,18.1z M105.3,18.4L105.3,18.4
		L105.3,18.4z M105.3,20.9C105.3,20.9,105.3,21,105.3,20.9c0.1,0.1,0.1,0,0.1,0C105.4,20.9,105.4,20.8,105.3,20.9L105.3,20.9z
		 M105.3,22.8L105.3,22.8L105.3,22.8z M105.3,26c0.2,0,0.2-0.1,0.3-0.1c0.1,0-0.1-0.1-0.2-0.2c-0.1,0-0.2,0-0.2,0.1L105.3,26z
		 M105.2,26.5C105.2,26.5,105.3,26.5,105.2,26.5c0.1,0.1,0.1,0,0.1,0C105.4,26.5,105.3,26.4,105.2,26.5L105.2,26.5z M105.1,38.7
		C105.1,38.7,105.2,38.8,105.1,38.7c0.1,0.1,0.1,0,0.1,0C105.2,38.7,105.2,38.6,105.1,38.7L105.1,38.7z M105.2,35l0.1-0.3
		C105.1,34.7,105.2,35,105.2,35z M105.2,37C105.2,37,105.2,37.1,105.2,37C105.3,37.1,105.3,37,105.2,37C105.3,37,105.3,37,105.2,37
		C105.2,37,105.2,37,105.2,37z M105.7,31.8c0-0.2,0.1-0.5,0-0.6c0.1-0.4,0.3-0.4,0.3-0.8c0,0,0-0.1-0.1-0.1c0.1,0-0.5,0.8-0.6,0.9
		l0,0.1C105.6,31.6,105.5,31.8,105.7,31.8z M105.5,35.8c0-0.1,0-0.3-0.1-0.3c-0.1,0-0.1,0-0.1,0C105.3,35.7,105.4,35.8,105.5,35.8z
		 M105.3,36.8c0.2,0,0.2-0.2,0.2-0.3c0,0-0.2,0-0.2,0L105.3,36.8z M105.3,37.6l0.2,0c0-0.1,0-0.1-0.1-0.1L105.3,37.6z M105.4,33.3
		C105.4,33.3,105.4,33.3,105.4,33.3c0.1,0,0.1,0,0.1,0C105.5,33.2,105.5,33.2,105.4,33.3C105.4,33.2,105.4,33.2,105.4,33.3z
		 M106,26.7c0.1,0,0.1,0,0.1,0.1c0,0,0,0.1,0,0.2c0,0.1,0,0.2,0.1,0.2l0.3-0.4l-0.2-0.2c0.1,0,0.1-0.1,0.1-0.1
		c0-0.1-0.1-0.1-0.2-0.1c-0.1,0.1-0.2,0.2-0.4,0.2c-0.1,0-0.2,0-0.3-0.1l0,0.2L106,26.7z M105.6,21.6
		C105.6,21.7,105.6,21.7,105.6,21.6C105.7,21.7,105.7,21.7,105.6,21.6C105.7,21.6,105.7,21.6,105.6,21.6
		C105.6,21.6,105.6,21.6,105.6,21.6z M105.7,17.6C105.7,17.7,105.7,17.7,105.7,17.6c0.1,0.1,0.1,0,0.1,0S105.8,17.5,105.7,17.6
		C105.7,17.5,105.7,17.6,105.7,17.6z M105.7,30.1c0-0.1-0.1-0.1-0.1-0.1C105.6,30.1,105.6,30.1,105.7,30.1z M105.5,33.6
		C105.5,33.6,105.6,33.6,105.5,33.6c0.1,0,0.1,0,0.1,0C105.7,33.6,105.6,33.6,105.5,33.6L105.5,33.6z M105.6,27.9
		c0.1,0,0.3-0.3,0.3-0.3c0,0,0.1,0,0.1,0c0,0,0,0,0-0.1c-0.1,0-0.2,0-0.3-0.1C105.9,27.4,105.5,27.9,105.6,27.9z M105.7,34.4
		c0.2,0,0.4-0.1,0.4-0.3c0,0-0.2-0.1-0.3-0.1l-0.2,0.1C105.6,34.1,105.6,34.2,105.7,34.4z M106.1,23.6
		C106.1,23.7,106,23.7,106.1,23.6c-0.1,0.1-0.1,0-0.1,0L106.1,23.6C106,23.6,106.1,23.6,106.1,23.6z M106.2,23.7
		C106.2,23.8,106.1,23.8,106.2,23.7c-0.1,0.1-0.1,0-0.1,0C106,23.7,106,23.7,106.2,23.7C106.1,23.7,106.2,23.7,106.2,23.7z
		 M106.3,20c-0.1,0-0.2,0.2-0.2,0.2C106.2,20.2,106.3,20.1,106.3,20L106.3,20z M108,37.1c0.1,0,0.1-0.3,0.3-0.3c0,0,0.1,0.1,0.3,0.1
		l0-0.1c-0.3-0.3-1.2-0.4-0.8-0.9c0-0.1,0.2-0.3,0.2-0.4c-0.5-0.7-0.7-0.6-0.6-1.2c0,0,0.3,0,0.4,0c0-0.3,0.1-0.8,0.2-0.8
		c0,0,0.1,0.2,0.1,0.2c0-0.1,0.2-0.1,0.4-0.1c0-0.3-0.3-0.4-0.5-0.4c-0.2,0-0.1,0.1-0.3,0.1c0,0-0.1-0.3-0.2-0.3
		c-0.1,0-0.2,0.1-0.4,0.1c0-0.2-0.3,0-0.3-0.5c0.2-0.4,0.6-0.1,0.6-0.5c0.1-0.2-0.5-0.5-0.4-0.7c-0.1,0-0.1,0.1-0.1,0.2
		c0,0,0,0.1,0.1,0.2c0,0.1-0.2,0.2-0.2,0.2c-0.1,0-0.2-0.3-0.2-0.4l0.1-0.1c0,0,0-0.1-0.1-0.1c0,0-0.1,0-0.2,0
		c-0.1,0-0.1-0.2-0.1-0.3c-0.1,0-0.2,0.1-0.2,0.2c0,0.6,0.4,0.3,0.4,0.5c0,0.1,0,0.1-0.1,0.1c0,0.2,0.2,0.2,0.2,0.5
		c0,0.3,0,0.2-0.1,0.4c0.3,0.2,0.2,0.5,0.4,0.8c0.1,0,0.2,0,0.2,0c0.2,0,0.4,0.1,0.7,0.1l0,0.1l-0.1,0c0,0.1,0.1,0.1,0.1,0.2
		c0,0.1,0,0.1-0.1,0.1c0,0-0.1,0-0.1,0c-0.1,0-0.3,0.4-0.3,0.6c0,0.1,0.1,0.6,0.2,0.6c0,0,0.2,0,0.2,0
		C107.6,35.9,107.5,37.1,108,37.1z M106.1,28C106.1,28,106.2,28.1,106.1,28c0.1,0.1,0.1,0,0.1,0C106.3,28,106.2,27.9,106.1,28
		L106.1,28z M106.1,32.2C106.1,32.2,106.1,32.2,106.1,32.2c0.1,0,0.1,0,0.1,0C106.2,32.2,106.2,32.2,106.1,32.2L106.1,32.2z
		 M106.2,21.2c0,0,0.2-0.1,0.3-0.1c-0.1,0-0.1-0.1-0.1-0.1c0,0,0,0,0-0.1l0.1,0l0-0.1l-0.4,0L106.2,21.2z M107,20.2
		c0.3,0,0.1-0.1,0.4-0.4c0-0.6-0.5-0.4-0.5-0.7c-0.1,0-0.5,0.4-0.5,0.5c0.2,0,0.3-0.1,0.4-0.1C106.9,19.5,106.9,20.1,107,20.2z
		 M106.5,28.7c0.1-0.1,0.1,0.2,0.1,0.3C106.5,29,106.4,28.8,106.5,28.7L106.5,28.7z M106.8,23.7c0,0,0,0,0,0.1c0,0.1,0,0.2-0.1,0.2
		c0,0-0.2,0-0.2-0.1C106.5,23.7,106.7,23.7,106.8,23.7z M106.7,28.5l-0.2,0C106.6,28.4,106.7,28.4,106.7,28.5z M106.5,36.7
		C106.5,36.7,106.5,36.7,106.5,36.7C106.6,36.7,106.6,36.7,106.5,36.7C106.6,36.6,106.6,36.6,106.5,36.7
		C106.5,36.6,106.5,36.6,106.5,36.7z M106.7,37.6c0-0.3-0.3-0.2-0.2-0.2C106.5,37.6,106.6,37.6,106.7,37.6z M106.7,17.8
		C106.7,17.9,106.8,17.9,106.7,17.8c0.1,0.1,0.1,0,0.1,0C106.9,17.8,106.8,17.8,106.7,17.8L106.7,17.8z M106.8,27.7
		C106.8,27.8,106.8,27.8,106.8,27.7c0.1,0.1,0.1,0,0.1,0C106.9,27.7,106.9,27.7,106.8,27.7L106.8,27.7z M106.7,30.9L106.7,30.9
		c0.1,0,0.1,0,0.1,0C106.9,30.8,106.8,30.8,106.7,30.9C106.8,30.8,106.7,30.8,106.7,30.9z M107,22.9L107,22.9L107,22.9L107,22.9
		L107,22.9z M107.1,36.6l0.1-0.4c-0.1,0-0.4,0-0.4,0.2C106.8,36.6,107,36.6,107.1,36.6z M107.1,20.1
		C107.1,20.2,107.1,20.2,107.1,20.1C107,20.2,107,20.2,107.1,20.1C107,20.1,107,20.1,107.1,20.1C107.1,20.1,107.1,20.1,107.1,20.1z
		 M107.5,21.6c0.1,0,0.1,0,0.1-0.1c0-0.3-0.3-0.3-0.4-0.3C107.2,21.4,107.3,21.6,107.5,21.6z M107.3,28c-0.1,0-0.2,0-0.2,0
		C107.2,27.9,107.3,27.9,107.3,28z M107.5,27.8C107.5,27.9,107.5,27.9,107.5,27.8c-0.1,0.1-0.1,0-0.1,0
		C107.4,27.8,107.4,27.8,107.5,27.8C107.5,27.8,107.5,27.8,107.5,27.8z M107.3,38.5C107.3,38.6,107.3,38.6,107.3,38.5
		c0.1,0.1,0.1,0,0.1,0C107.4,38.5,107.4,38.5,107.3,38.5C107.3,38.5,107.3,38.5,107.3,38.5z M107.3,38.9
		C107.3,39,107.3,39,107.3,38.9c0.1,0.1,0.1,0,0.1,0C107.4,38.9,107.4,38.9,107.3,38.9C107.3,38.9,107.3,38.9,107.3,38.9z
		 M107.5,30.6C107.5,30.6,107.5,30.7,107.5,30.6C107.5,30.7,107.5,30.6,107.5,30.6C107.5,30.6,107.5,30.5,107.5,30.6
		C107.5,30.5,107.5,30.6,107.5,30.6z M107.7,23.6l0,0.1l-0.1,0l0-0.1L107.7,23.6z M107.7,29.4c0.2,0,0.2,0.1,0.2,0.2
		c0,0.1-0.1,0.1-0.2,0.1c-0.1,0-0.2,0-0.2-0.2C107.5,29.4,107.6,29.4,107.7,29.4z M107.8,16.1C107.8,16.1,107.7,16.2,107.8,16.1
		c-0.1,0.1,0,0.1,0,0.1C107.8,16.2,107.8,16.2,107.8,16.1C107.8,16.1,107.8,16.1,107.8,16.1z M107.9,34.8c0,0,0-0.1,0-0.2
		s0-0.2-0.1-0.3c0,0.1-0.1,0.3-0.2,0.4C107.6,34.8,107.8,34.8,107.9,34.8z M108,25.2L108,25.2L108,25.2L108,25.2z M108.1,31.5
		C108.1,31.5,108.1,31.6,108.1,31.5C108,31.6,108,31.5,108.1,31.5C108,31.5,108,31.4,108.1,31.5C108.1,31.4,108.1,31.5,108.1,31.5z
		 M107.9,39C107.9,39,107.9,39,107.9,39C108,39,108,39,107.9,39C108,38.9,108,38.9,107.9,39C107.9,38.9,107.9,38.9,107.9,39z
		 M108.1,23.2C108.1,23.3,108.1,23.3,108.1,23.2c0.1,0.1,0.1,0,0.1,0C108.2,23.2,108.2,23.2,108.1,23.2L108.1,23.2z M108.2,31.3
		l-0.1,0.1L108.2,31.3L108.2,31.3z M108.6,31.3c0,0,0-0.3-0.2-0.3c0,0-0.1,0-0.1,0c0,0,0,0,0-0.3c0-0.1,0-0.1,0.1-0.1
		c0.2,0.1,0.9,0,0.9,0.5c0,0.2-0.1,0.5-0.3,0.7c0-0.1-0.3-0.3-0.4-0.4C108.6,31.4,108.6,31.3,108.6,31.3z M108.4,23.5l0-0.2
		l-0.1,0.1L108.4,23.5z M108.3,25.7C108.3,25.7,108.3,25.8,108.3,25.7c0.1,0.1,0.1,0,0.1,0C108.4,25.7,108.4,25.6,108.3,25.7
		C108.3,25.6,108.3,25.7,108.3,25.7z M108.4,19.5l0.1,0l0-0.2C108.4,19.2,108.4,19.3,108.4,19.5z M108.4,27.4
		C108.4,27.4,108.4,27.5,108.4,27.4C108.5,27.5,108.5,27.4,108.4,27.4C108.5,27.4,108.5,27.3,108.4,27.4
		C108.4,27.3,108.4,27.4,108.4,27.4z M108.5,18.8C108.5,18.8,108.6,18.8,108.5,18.8c0.1,0.1,0.1,0,0.1,0
		C108.7,18.8,108.6,18.7,108.5,18.8L108.5,18.8z M108.6,33.1c0,0,0-0.1,0-0.1c-0.1,0-0.1,0-0.1,0.1
		C108.4,33.1,108.5,33.1,108.6,33.1z M108.9,27.2C109,27.2,109,27.1,108.9,27.2c0-0.2,0-0.3,0-0.6c0-0.1,0.2,0,0.2-0.3l-0.1-0.1
		c0,0.3-0.5,0-0.5,0.8C108.5,27.1,108.8,27.1,108.9,27.2z M108.5,31.9L108.5,31.9L108.5,31.9z M108.8,23.9
		C108.8,23.9,108.8,23.9,108.8,23.9c0.1,0.1,0.1,0,0.1,0C109,23.8,108.9,23.8,108.8,23.9C108.8,23.8,108.8,23.8,108.8,23.9z
		 M109.1,21.8C109.1,21.9,109.1,21.9,109.1,21.8C109.2,21.9,109.2,21.9,109.1,21.8C109.2,21.8,109.2,21.8,109.1,21.8
		C109.1,21.8,109.1,21.8,109.1,21.8z M109.1,27.8C109.1,27.8,109.1,27.8,109.1,27.8C109,27.8,109,27.8,109.1,27.8
		C109,27.7,109,27.7,109.1,27.8C109.1,27.7,109.1,27.7,109.1,27.8z M109.1,35.2C109.1,35.3,109.1,35.3,109.1,35.2
		C109,35.3,109,35.3,109.1,35.2C109,35.2,109,35.2,109.1,35.2C109.1,35.2,109.1,35.2,109.1,35.2z M110,25.4l0-0.2l0.9,0
		c0,0,0.9-0.8,0.9-0.9c0-0.6,0.1-0.7,0.3-1.9c0,0,0-0.1,0-0.3c0-0.7,0.1-1.3,0.1-1.9c0-0.2,0-0.2,0-0.5c0,0,0-0.2,0-0.3
		c0,0,0-0.7,0-1c0,0.2,0.1-0.6,0.1-1c0-0.2,0-0.3,0-0.7l0-0.2l0-2.4c0-2-1.9-2-2.2-2.2c-0.6-0.1-0.6,1.1-0.6,1.8
		c0,1,0.2,1.7,0.2,2.6c-0.1,0.8-0.2,1.6-0.2,2.3c0,0,0.2,0.8,0.2,0.9c0,1.2-0.4,2.9-0.4,3.1c0,0.1,0.1,0.3,0.1,0.4
		c0,1.3,0,1.2-0.1,1.9C109.3,25.4,109.8,25.4,110,25.4z M109.2,27.1C109.2,27.1,109.2,27.1,109.2,27.1
		C109.3,27.1,109.3,27.1,109.2,27.1C109.3,27.1,109.3,27.1,109.2,27.1C109.2,27.1,109.2,27.1,109.2,27.1z M109.6,26.8
		c0,0,0.4,0.1,0.4-0.1c-0.2,0-0.3-0.2-0.5-0.2C109.5,26.5,109.5,26.8,109.6,26.8z M110.4,26.2c0.1,0,0.1-0.1,0.1-0.3
		c0-0.3,0-0.2-0.3-0.2l0-0.3c-0.1,0-0.2,0.1-0.3,0.1C109.8,26,110.4,26,110.4,26.2z M110.2,26.5C110.2,26.5,110.2,26.6,110.2,26.5
		c0.1,0.1,0.1,0,0.1,0C110.4,26.5,110.3,26.4,110.2,26.5C110.2,26.4,110.2,26.5,110.2,26.5z M111,26.6l0.1,0c0-0.1-0.1-0.4-0.1-0.6
		c-0.1,0-0.3,0-0.3,0C110.8,26.2,111,26.4,111,26.6z M111.4,27.3c0.2,0,0.1-0.6,0.1-0.7l-0.5,0.5L111.4,27.3z M111.8,25.1
		C111.8,25.1,111.8,25.2,111.8,25.1c0.1,0.1,0.1,0,0.1,0C111.9,25.1,111.9,25,111.8,25.1L111.8,25.1z M111.9,24.9
		C111.9,25,111.9,25,111.9,24.9C112,25,112,25,111.9,24.9C112,24.9,112,24.8,111.9,24.9C111.9,24.8,111.9,24.9,111.9,24.9z
		 M112.4,26.4c0.3,0,0.6,0,0.6-0.4c0-0.1-0.1-0.1-0.1-0.2c0.1-0.1,0.2-0.1,0.4-0.1c0.1,0,0.1,0.1,0.2,0.1c0,0,0-0.1,0.1-0.2
		c-0.1,0-0.2-0.3-0.3-0.4c0-0.3,0.3-0.7,0.4-1c0,0,0-0.1-0.1-0.1c-0.2,0-0.5,0.2-0.6,0.2c-0.8-0.1-0.5,0.6-0.9,0.6c0,0,0,0.1,0,0.2
		c0,0.1,0,0.2-0.1,0.3l0.2,0c0,0.2-0.1,0.3-0.2,0.6C112.1,26.1,112.2,26.4,112.4,26.4z M112.1,35.4C112.1,35.4,112,35.4,112.1,35.4
		C112,35.3,112.1,35.3,112.1,35.4C112.1,35.3,112.1,35.3,112.1,35.4C112.1,35.4,112.1,35.4,112.1,35.4z M112.8,25.2
		c0-0.1,0.2,0.2,0.1,0.4c-0.1,0-0.3,0-0.3-0.1C112.7,25.3,112.7,25.2,112.8,25.2z M113.1,30.7c0-0.2,0-0.2-0.1-0.3l0,0.1L113.1,30.7
		z M113.1,22.8l0.1,0c0-0.1,0.2-0.3,0.2-0.4c0,0,0,0,0,0c-0.1-0.2-0.2-0.1-0.2-0.1C113.1,22.3,113.1,22.6,113.1,22.8z M113,23.2
		l0,0.4l0.5,0c0.1-0.3,0.4-0.3,0.4-0.4l-0.1-0.1c0-0.1,0.1,0,0.1-0.2C113.6,22.9,113.2,23.2,113,23.2z M113.2,28.1
		C113.2,28.1,113.1,28.1,113.2,28.1C113.1,28,113.2,28,113.2,28.1C113.2,28,113.2,28,113.2,28.1C113.2,28.1,113.2,28.1,113.2,28.1z
		 M113.1,34.7L113.1,34.7c0.1,0,0.2-0.2,0.3-0.3c0-0.3,0-0.3-0.3-0.3c0,0.1,0,0.2,0.1,0.2C113.1,34.5,113.1,34.6,113.1,34.7z
		 M113.3,22.9L113.3,22.9L113.3,22.9L113.3,22.9z M113.2,29.7l0.1-0.2l-0.1,0L113.2,29.7z M113.5,21.4c0.1,0,0.1-0.1,0.1-0.1
		c0,0-0.1,0-0.2,0c0,0-0.1,0-0.1,0.1C113.4,21.4,113.4,21.4,113.5,21.4z M113.3,32.6C113.3,32.6,113.3,32.7,113.3,32.6
		c0.1,0.1,0.1,0,0.1,0C113.4,32.6,113.4,32.5,113.3,32.6L113.3,32.6z M113.4,37.2c0,0,0-0.2,0-0.2l-0.1,0
		C113.3,37.2,113.4,37.2,113.4,37.2z M113.4,33.2C113.4,33.2,113.4,33.3,113.4,33.2C113.5,33.3,113.5,33.2,113.4,33.2
		C113.5,33.2,113.5,33.1,113.4,33.2C113.4,33.1,113.4,33.2,113.4,33.2z M113.5,20.3C113.5,20.4,113.6,20.4,113.5,20.3
		c0.1,0.1,0.1,0,0.1,0C113.7,20.3,113.6,20.3,113.5,20.3L113.5,20.3z M113.6,24.3C113.6,24.4,113.6,24.4,113.6,24.3
		c-0.1,0.1-0.1,0-0.1,0L113.6,24.3C113.6,24.3,113.6,24.3,113.6,24.3z M113.5,27.5c1.1,0,0.2,0.3,0.7,0.5l-0.1,0
		c0,0.2-0.2-0.3-0.6-0.3L113.5,27.5z M113.4,36l0.2,0C113.5,36,113.4,36,113.4,36z M113.7,26.9C113.7,26.9,113.7,27,113.7,26.9
		c-0.1,0.1-0.1,0-0.1,0C113.6,26.9,113.6,26.8,113.7,26.9C113.7,26.8,113.7,26.9,113.7,26.9z M113.5,33.2
		C113.5,33.3,113.5,33.3,113.5,33.2c0.1,0.1,0.1,0,0.1,0C113.7,33.2,113.6,33.2,113.5,33.2C113.5,33.2,113.5,33.2,113.5,33.2z
		 M113.7,33.2c0.2-0.3,0.3-0.7,0.3-1.2c0,0.1-0.4,0.7-0.4,0.7C113.6,32.8,113.7,33.1,113.7,33.2z M113.8,18.1
		C113.8,18.2,113.9,18.2,113.8,18.1c0.1,0.1,0.1,0,0.1,0C113.9,18.2,113.9,18.1,113.8,18.1L113.8,18.1z M113.8,21.4
		C113.8,21.4,113.8,21.4,113.8,21.4c0,0.1,0,0.1,0,0.1C113.8,21.5,113.8,21.5,113.8,21.4C113.8,21.4,113.8,21.4,113.8,21.4z
		 M113.6,33.6c0,0.1,0,0.2,0.1,0.2c0-0.1,0-0.5-0.1-0.5C113.6,33.4,113.6,33.5,113.6,33.6z M113.9,25.9
		C113.9,25.9,113.9,26,113.9,25.9c0.1,0.1,0.1,0,0.1,0C114,25.9,114,25.8,113.9,25.9L113.9,25.9z M113.8,37c0.2,0,0.3-0.5,0.3-0.4
		l-0.1-0.1C113.9,36.6,113.8,37,113.8,37z M115,25.3c0.1,0,0.1-0.2,0.1-0.3c0,0-0.1,0-0.2,0l0,0c0.2-0.2,0.1-0.4,0.3-0.5
		c-0.3,0-0.2-0.6-0.6-0.6c0,0-0.5,0.1-0.5,0.3C114.1,25.1,114.4,24.9,115,25.3z M114,25.7c0,0,0.1-0.1,0.1-0.2l-0.2,0
		C113.9,25.6,113.9,25.7,114,25.7z M114,26.8l-0.1,0c0-0.1,0-0.2,0.1-0.2C114,26.6,114,26.7,114,26.8z M114.5,29.3
		c0,0.3-0.3,0.2-0.5,0.5l-0.1-0.2C113.9,29.4,114.4,29.3,114.5,29.3z M114.1,30.5c0,0-0.1-0.3-0.1-0.4c0-0.1,0-0.2,0-0.2
		c0.2,0.1,0.3,0.5,0.3,0.8c0,0.1,0,0.2-0.2,0.2c-0.1,0-0.2,0-0.2-0.2C113.9,30.6,114.1,30.7,114.1,30.5z M114.1,34.3
		c0.1,0,0.3-0.2,0.3-0.4c0-0.1-0.2-0.1-0.3-0.1c-0.1,0-0.2,0-0.2,0.1C113.8,34.1,114,34.3,114.1,34.3z M113.8,35.7
		c0,0,0.2,0.1,0.3,0.1c0.5,0.1,0.1-0.5,0.5-0.5c0.1,0,0.2,0,0.3,0.1l0.1-0.1c0.1,0,0.1,0.2,0.1,0.2c0,0.1,0,0.1-0.1,0.2
		c0.5-0.2,0.3-0.4,0.5-0.7c-0.1-0.1-0.2-0.2-0.3-0.3c0-0.1,0.1-0.2,0.1-0.4c0.1,0.1,0-0.3-0.3-0.3c-0.1,0-0.2,0-0.2,0.1
		c0,0.1,0.3,0.1,0.3,0.2c-0.2,0.6-0.1,0.7-0.3,0.7c0,0-0.1,0-0.1,0c0,0-0.1,0-0.1,0.1l0-0.1C114.4,35.5,114.1,35.6,113.8,35.7
		L113.8,35.7z M113.9,31.9C113.9,32,113.9,32,113.9,31.9C114,32,114,32,113.9,31.9C114,31.9,114,31.9,113.9,31.9
		C113.9,31.9,113.9,31.9,113.9,31.9z M114.2,19.3c0,0,0-0.1,0-0.1c0-0.1,0.1-0.2,0.2-0.2l-0.3,0.1C114.1,19.2,114.1,19.2,114.2,19.3
		z M114.1,21.3c0,0,0.2-0.1,0.2-0.2C114.2,21.2,114.1,21.2,114.1,21.3z M114,22.5C114,22.6,114.1,22.6,114,22.5c0.1,0.1,0.1,0,0.1,0
		C114.2,22.5,114.1,22.5,114,22.5L114,22.5z M114,22.8L114,22.8c0.1,0,0.1,0,0.1,0C114.2,22.8,114.1,22.8,114,22.8
		C114.1,22.8,114,22.8,114,22.8z M114.1,23.1l0.2-0.1l0-0.1C114.2,22.9,114.1,23,114.1,23.1z M114.2,38.1c0.3,0,0.3-0.3,0.3-0.5
		c0.1-0.3-0.2-0.4-0.3-0.4l0,0.1C114.1,37.6,114.2,37.8,114.2,38.1z M114.6,24.6l-0.1,0.1c0,0-0.1,0-0.1,0
		C114.3,24.6,114.5,24.6,114.6,24.6z M114.4,27.5l0,0.1l-0.1,0.1L114.4,27.5L114.4,27.5z M114.3,34.9L114.3,34.9L114.3,34.9z
		 M114.5,24.1C114.5,24.1,114.5,24.2,114.5,24.1c-0.1,0.1-0.1,0-0.1,0L114.5,24.1C114.5,24,114.5,24.1,114.5,24.1z M114.3,35.1
		c0-0.1,0.1,0,0.1-0.2C114.3,35,114.4,35.1,114.3,35.1z M114.6,22C114.6,22.1,114.6,22.1,114.6,22c0.1,0.1,0.1,0,0.1,0
		C114.7,22,114.7,22,114.6,22L114.6,22z M114.5,32.2L114.5,32.2L114.5,32.2L114.5,32.2z M114.4,38.5
		C114.4,38.5,114.4,38.6,114.4,38.5c0.1,0.1,0.1,0,0.1,0C114.5,38.5,114.5,38.4,114.4,38.5L114.4,38.5z M114.6,33.7
		c0.1-0.1,0.1-0.4,0.1-0.5c-0.1,0-0.2,0-0.2,0.2C114.5,33.5,114.5,33.7,114.6,33.7z M114.7,28c0,0-0.1,0.2-0.1,0.3
		c0.1,0,0.4-0.2,0.4-0.3L114.7,28z M115.2,22.3c0.1,0.1,0.1-0.2,0.2-0.1l0-0.2c0,0-0.1,0-0.2,0.1c-0.1,0-0.1-0.1-0.1-0.1
		c0-1.1,0.4-0.6,0.4-1c-0.7,0.2-0.7,0.3-0.7,0.4c0,0.1,0.1,0.3,0.1,0.5s-0.1,0.1-0.1,0.2C114.8,22.3,115,22,115.2,22.3z M115,23.8
		c0,0,0.2-0.3,0.2-0.3c0-0.1-0.1-0.2-0.2-0.2c-0.1,0-0.2,0.1-0.2,0.2C114.8,23.6,114.8,23.8,115,23.8z M115,20.2c0,0,0-0.1,0-0.1
		l-0.1,0.1L115,20.2z M114.8,31L114.8,31c0-0.1,0-0.1,0-0.1C114.9,30.9,114.9,30.9,114.8,31C114.9,31,114.9,31,114.8,31z
		 M114.9,27.1l0.1,0c0-0.1,0-0.1-0.1-0.1C114.9,27,114.9,27,114.9,27.1z M115,18.1L115,18.1L115,18.1L115,18.1z M115.4,20.6
		C115.4,20.6,115.4,20.7,115.4,20.6C115.5,20.7,115.5,20.6,115.4,20.6C115.5,20.6,115.5,20.6,115.4,20.6
		C115.4,20.6,115.4,20.6,115.4,20.6z M115.4,23.7C115.4,23.7,115.5,23.8,115.4,23.7c0.1,0.1,0.1,0,0.1,0
		C115.6,23.7,115.5,23.6,115.4,23.7L115.4,23.7z M115.4,30.5C115.4,30.6,115.4,30.6,115.4,30.5c0.1,0.1,0.1,0,0.1,0
		C115.5,30.5,115.5,30.5,115.4,30.5L115.4,30.5z M115.3,33.3C115.3,33.3,115.4,33.3,115.3,33.3c0.1,0.1,0.1,0,0.1,0
		C115.5,33.3,115.4,33.2,115.3,33.3L115.3,33.3z M115.7,36.2c0.1,0,0.2-0.2,0.2-0.3c0-0.1-0.1-0.2-0.1-0.2s0,0.1-0.1,0.1
		c-0.1,0-0.2,0-0.4-0.1C115.4,35.9,115.5,36.2,115.7,36.2z M115.7,30.8c0.1,0,0.2-0.1,0.2-0.2c-0.1,0-0.3,0.1-0.4,0.2L115.7,30.8z
		 M115.5,31.6l0.1,0l0-0.2l-0.1,0L115.5,31.6z M115.7,22.1c0.1,0,0.2-0.2,0.2-0.3l-0.1-0.1C115.7,21.8,115.7,21.8,115.7,22.1z
		 M115.6,32.8l0.1,0L115.6,32.8L115.6,32.8z M116,27.6c0-0.1,0-0.1,0-0.1l-0.1,0C115.8,27.6,115.9,27.6,116,27.6z M116.2,33.1
		l0.1-0.1l-0.1-0.2c-0.1,0-0.2,0.1-0.4,0.2C115.9,33.1,116,33.1,116.2,33.1z M116.1,19.2L116.1,19.2L116.1,19.2L116.1,19.2
		L116.1,19.2z M116.5,24.1c0,0,0,0,0-0.1c0-0.2-0.2-0.4-0.1-0.6l0.6,0c0.1,0,0.2-0.4,0.2-0.5l-0.1,0c-0.2,0-0.4,0.4-0.4,0.4
		c-0.1,0-0.1-0.1-0.2-0.1c-0.3,0.4-0.5,0.2-0.5,0.5c0,0,0,0.1,0,0.1C116,23.9,116.2,24.1,116.5,24.1z M116.7,30
		c0-0.1-0.2-0.1-0.2-0.1c0-0.3,0.6-0.4,0.6-0.8c0,0-0.1,0-0.1,0c-0.5,0-0.5-0.4-0.6-0.4c-0.1,0-0.3,0.2-0.3,0.3
		c0,0.5,0.5,0.1,0.5,0.5c0,0.2-0.1,0.4-0.4,0.4C116.3,29.9,116.5,30,116.7,30z M116.1,34.6c0,0,0.1,0,0.2-0.1c0-0.1-0.1-0.2-0.3-0.2
		C116,34.4,116,34.5,116.1,34.6z M116.3,28c0-0.2,0.1-0.4,0-0.5l-0.1,0.1C116.2,27.8,116.2,28,116.3,28z M116.5,33.4l0-0.4
		c-0.2,0.2-0.3,0.1-0.4,0.3C116.2,33.4,116.4,33.4,116.5,33.4z M116.7,32.1c0,0,0-0.1,0-0.1C116.6,32.1,116.6,32,116.7,32.1z
		 M116.8,22.2C116.8,22.2,116.8,22.2,116.8,22.2C116.8,22.3,116.8,22.3,116.8,22.2C116.9,22.3,116.9,22.3,116.8,22.2
		C116.9,22.2,116.9,22.2,116.8,22.2z M117,23.1C117,23.1,117,23.2,117,23.1c-0.1,0.1-0.1,0-0.1,0L117,23.1C117,23,117,23.1,117,23.1
		z M117.4,24.3L117.4,24.3c0.1-0.2-0.2-0.7-0.3-0.7l-0.1,0C117,23.7,117.4,24.2,117.4,24.3z M117.1,30.8L117.1,30.8l0.1-0.3
		C117.2,30.5,117,30.6,117.1,30.8z M117.2,31l0.1,0l0-0.1L117.2,31L117.2,31z M117.4,31.5L117.4,31.5L117.4,31.5L117.4,31.5z
		 M117.5,32.7l0.2,0l0-0.2C117.7,32.5,117.5,32.6,117.5,32.7z M117.9,32.9C117.9,32.9,117.9,33,117.9,32.9c0.1,0.1,0.1,0,0.1,0
		C118,32.9,118,32.9,117.9,32.9C117.9,32.9,117.9,32.9,117.9,32.9z M118.8,31.7l0.3,0c0-0.1-0.1-0.1-0.1-0.1
		C118.9,31.6,118.8,31.6,118.8,31.7L118.8,31.7z"/>
	<path class="st0" d="M127.8,29.6c0-0.4,0.2-0.4,0.2-0.8l-0.1-0.1c0.1-0.1,0.3-0.3,0.5-0.4c-0.1,0-0.1,0-0.3,0.1
		c0,0-0.2-0.1-0.2-0.1c0-0.3,0.3-0.5,0.3-0.8c-0.2,0-0.2,0-0.3,0.1c-0.1,0-0.1-0.4-0.1-0.5c0-0.2,0-0.4,0.1-0.6
		c-0.1-0.2-0.2-0.8-0.2-0.9c0-0.2,0-0.3,0.1-0.5l0-1.3c0,0,0.1-0.2,0.1-0.3c0,0,0-0.3-0.1-0.4c0-0.5,0.1-1.2,0.1-1.6c0,0,0,0,0,0
		s0.1-3.3,1.1-3.3l0.4,0.4l0.1-0.1c0-0.5-0.4-0.5-0.9-0.7c0-2.2,1.2-2.3,1.2-3.5c1-1.2-0.2-0.6,2.5-3.2c1.7-1.6,4.2-1.7,4.9-1.7
		c2.1,0,3.9,0.7,5.7,3.1c0,0,0-0.1,0-0.1c0.1,0,0.4,0.4,1.4,2.4c1,1.4,1.5,4.4,1.5,5c0.2,2.3,0.4,4.5,0.4,6.9c0,0.3,0,1.4-0.1,1.5
		l-0.1,0.1c0,1.9-0.3,2.4-0.3,2.9c0,0.7-0.2,2.9-1.3,5.2c-1.7,3.6-3.3,3.8-4.4,5.1c-0.3,0.3-2.2,0.7-3.2,0.7c-1.5,0-3.2-0.4-4.7-1.9
		c-1.9-1.5-2.6-3.6-3.4-5.6c0,0-0.8-1.6-0.8-3.3C128.1,30.9,127.8,31.1,127.8,29.6z M128.5,24c0.1-0.1,0.1-0.2,0.1-0.2
		c0-0.2-0.1-0.3-0.4-0.3C128.2,23.6,128.2,23.9,128.5,24z M128.7,26c0.1,0,0.2-0.2,0.2-0.3C128.7,25.8,128.7,25.8,128.7,26z
		 M128.7,27c0,0,0.1-0.1,0.2-0.1c0.1,0,0.1,0,0.2,0.1c0.1-0.3,0.3-0.4,0.4-0.4c0.1,0,0.1,0,0.2,0c0,0,0,0,0,0l-0.2-0.2
		c0,0,0.1-0.1,0.1-0.1c-0.1,0-0.2,0.1-0.4,0.1c-0.1,0-0.1-0.1-0.4-0.1c0,0-0.1,0-0.1,0C128.7,26.5,128.7,26.8,128.7,27z M129.1,24.7
		c0.2,0,0.3-0.2,0.3-0.5c-0.1,0.1-0.3,0.2-0.4,0.2C129,24.5,129,24.7,129.1,24.7z M130.1,22.1C130.1,22.1,130.1,22.1,130.1,22.1
		l0.1,0c0,0,0-0.4-0.1-0.4c0,0,0-0.4,0.2-0.4c0.1,0.2,0.1,0.9,0.4,0.9c0-1.5-0.9-1.2-0.9-1.6l0.1-0.1c0,0,0.2,0,0.2,0.1
		c0,0,0,0,0-0.1c0-0.1-0.2-0.3-0.4-0.4c-0.2,0.3-0.8,0.5-0.8,0.9l0.1,0c0-0.1,0-0.4,0.2-0.4c0,0.2,0.1,0.3,0.3,0.4l-0.1,0.3
		C129.8,21.5,130.1,21.8,130.1,22.1z M129.6,23.2c0-0.5,0.2-0.4,0.2-0.7l-0.1-0.1c0,0-0.2-0.5-0.5-0.5c-0.1,0.1-0.1,0.3-0.1,0.4
		C129.1,22.5,129.4,23,129.6,23.2z M129.3,15.8C129.3,15.8,129.3,15.9,129.3,15.8c0.1,0.1,0.1,0,0.1,0
		C129.4,15.8,129.4,15.7,129.3,15.8L129.3,15.8z M129.5,26.1C129.5,26.1,129.6,26.1,129.5,26.1c0.1-0.1,0-0.2,0-0.2l0.1,0
		c0-0.2-0.1-0.2-0.1-0.4l-0.1,0c0,0.1,0,0.3-0.1,0.6C129.4,26.1,129.3,26.1,129.5,26.1z M129.3,35c0.1,0,0.1,0,0.1-0.1l-0.2,0
		C129.2,35,129.2,35,129.3,35z M129.3,31c0,0,0.4-0.4,0.4-0.7c0-0.1,0-0.2,0-0.2c-0.1,0-0.1,0-0.1,0C129.5,30.2,129.3,30.8,129.3,31
		z M129.6,29.9C129.6,29.9,129.6,30,129.6,29.9C129.7,30,129.7,29.9,129.6,29.9C129.7,29.9,129.7,29.8,129.6,29.9
		C129.6,29.8,129.6,29.9,129.6,29.9z M129.7,29.6L129.7,29.6c0.1,0,0.1,0,0.1,0C129.8,29.6,129.8,29.6,129.7,29.6
		C129.7,29.6,129.7,29.6,129.7,29.6z M129.8,32.5l0.1-0.5C129.8,32,129.7,32.2,129.8,32.5L129.8,32.5z M129.8,26.8
		C129.8,26.9,129.8,26.9,129.8,26.8C129.9,26.9,129.9,26.9,129.8,26.8C129.9,26.8,129.9,26.8,129.8,26.8
		C129.8,26.8,129.8,26.8,129.8,26.8z M130.2,25.2c0.1,0,0.3-0.3,0.3-0.4c0-0.4-0.1-0.5-0.5-0.5c-0.1,0-0.1,0.1-0.1,0.1
		C130.2,24.8,130.2,24.9,130.2,25.2z M130.5,28.2c0,0,0.1,0,0.1-0.1c-0.2-0.2-0.4-0.1-0.8-0.2c0,0.1,0.2,0.1,0.2,0.2c0,0,0,0,0,0
		C130.2,28.1,130.3,28.2,130.5,28.2z M130.2,25.9c0.2,0,0.1-0.6,0.1-0.6c0,0-0.2,0.3-0.3,0.3C130,25.7,130.1,25.9,130.2,25.9z
		 M130.4,26.3l0.1-0.1c-0.1,0-0.3,0-0.3-0.1l0,0.1C130.2,26.2,130.2,26.3,130.4,26.3z M130.6,32.5c0,0,0-0.1,0-0.1
		c0-0.1-0.2-0.2-0.2-0.2c-0.1,0-0.2,0.2-0.2,0.2C130.3,32.4,130.5,32.4,130.6,32.5z M130.8,33.4c0.1-0.1,0.1-0.2,0.1-0.3
		c0-0.2,0-0.3-0.1-0.5c0,0.3-0.2,0.6-0.2,0.6C130.6,33.3,130.8,33.4,130.8,33.4z M130.9,25.4c-0.1,0-0.1,0.3-0.1,0.8
		c0.1,0,0.3-0.2,0.3-0.4l0,0c0.1-0.1,0.2-0.2,0.2-0.4L130.9,25.4z M130.9,25.2C130.9,25.2,130.9,25.3,130.9,25.2
		c0.1,0.1,0.1,0,0.1,0C131,25.2,131,25.1,130.9,25.2L130.9,25.2z M131.3,15.6c0.1,0,0.1-0.2,0.1-0.2c-0.1,0-0.2,0-0.3,0.1
		L131.3,15.6z M131.4,35.6c0-0.2-0.1-0.3-0.4-0.3c0,0,0,0.1,0,0.2C130.9,35.6,131.3,35.6,131.4,35.6z M131.2,25.2
		C131.2,25.2,131.2,25.3,131.2,25.2c0.1,0.1,0.1,0,0.1,0C131.3,25.2,131.3,25.1,131.2,25.2L131.2,25.2z M131.5,22.3
		c0.1,0,0.1-0.1,0.1-0.2l-0.1-0.1c0-0.2,0.3-0.3,0.3-0.5c-0.4,0-0.1,0.4-0.4,0.4C131.4,22.1,131.3,22.2,131.5,22.3z M131.5,35
		c0,0,0.1-0.2,0.1-0.2c0-0.1-0.1-0.1-0.1-0.1l-0.1,0.1C131.4,34.9,131.5,35,131.5,35z M131.6,27.5l0.2-0.2l-0.1,0
		C131.7,27.3,131.6,27.4,131.6,27.5z M131.7,32.9c0.1-0.1,0.1-0.1,0.1-0.2c0,0,0-0.1,0-0.1l-0.1,0.1
		C131.6,32.8,131.7,32.8,131.7,32.9z M132,26.6c0.2,0,0.4-0.1,0.4-0.4l0,0c0,0,0.1-0.1,0.1-0.2l0,0c0,0-0.1,0-0.2,0.1
		c-0.2-0.1-0.1-0.3-0.3-0.3c-0.1,0-0.1,0-0.1,0c0,0.3,0.1,0.2,0.3,0.3l-0.1,0.1l0,0L132,26.6z M131.9,27.2c0.1,0,0.2,0,0.2-0.2
		c0-0.1-0.1-0.1-0.1-0.3c-0.1,0-0.1,0.1-0.1,0.2C131.8,27,131.8,27.2,131.9,27.2z M131.8,32l0.2,0c0-0.2-0.1-0.1-0.2-0.1L131.8,32z
		 M131.9,34.5c0.2-0.2,0.2-0.3,0.2-0.7c-0.1,0-0.4,0.3-0.4,0.5C131.8,34.4,131.8,34.5,131.9,34.5z M132,33.7
		C132,33.7,131.9,33.8,132,33.7c-0.1,0.1,0,0.1,0,0.1C132.1,33.9,132.1,33.8,132,33.7C132.1,33.8,132.1,33.7,132,33.7z M132.2,21.6
		l0.1,0c0-0.1,0-0.2-0.1-0.2c0,0,0,0,0,0L132.2,21.6z M133.3,14.2c0,0,0.1-0.2,0.1-0.3c0-0.4-0.4-0.7-0.5-0.9
		c-0.1,0-0.4,0.1-0.5,0.1c0.1,0,0.1,0.1,0.2,0.1c0,0.7,0.6,0.7,0.6,0.7C133.3,14.1,133.3,14.1,133.3,14.2L133.3,14.2z M132.9,22.8
		c0,0,0.1-0.1,0.2-0.1c0.2,0,0.1,0.1,0.3,0.1c0-0.2,0-0.3-0.2-0.5c-0.2,0-0.3,0.2-0.5,0.3C132.8,22.6,132.9,22.7,132.9,22.8z
		 M132.8,32.5c0.1,0,0.3-0.4,0.3-0.7l-0.1-0.1c0,0.2-0.3,0.4-0.4,0.6C132.6,32.4,132.7,32.5,132.8,32.5z M132.9,37.4
		c0.1,0,0.1-0.1,0.1-0.3c0-1.2-0.4-0.9-0.5-0.9c0.2,0,0.2,0,0.2,0.4c0,0.3-0.1,0.5-0.1,0.6C132.7,37.2,132.8,37.3,132.9,37.4z
		 M133,25.1l0-0.1c0-0.1,0-0.2,0-0.3l-0.2,0.2L133,25.1z M132.8,25.5c0-0.1,0.1-0.1,0.1-0.2c0,0,0,0-0.1,0l0,0L132.8,25.5z M133,31
		l0-0.7l-0.1-0.1c0,0.1,0,0.2-0.1,0.4C132.8,30.7,132.8,31,133,31z M133.5,28.2c-0.2,0-0.3,0.1-0.3,0.2c0,0.1,0,0.1,0,0.2l-0.1,0
		l0.1,0l0.1,0c0.6,0,0.8-0.2,0.8-0.7c0,0-0.1-0.2-0.1-0.2C133.7,27.7,133.6,28,133.5,28.2z M133.3,33.9c0.1,0,0.3-0.3,0.3-0.4
		l-0.1-0.1l-0.3,0.2C133.2,33.6,133.3,33.8,133.3,33.9z M133.4,34.7c0-0.1,0-0.1-0.2-0.1C133.2,34.6,133.3,34.7,133.4,34.7z
		 M133.6,32l0-0.5c0,0-0.1-0.1-0.1-0.1c0,0,0,0-0.1,0C133.4,31.6,133.4,32,133.6,32z M133.7,37.6c0-0.3-0.3-0.2-0.4-0.2
		C133.4,37.5,133.5,37.6,133.7,37.6z M133.7,33.3C133.7,33.3,133.8,33.3,133.7,33.3c0.1,0.1,0.1,0,0.1,0
		C133.9,33.3,133.8,33.2,133.7,33.3L133.7,33.3z M134.4,32.5c0.2-0.1,0.2-0.1,0.2-0.2c-0.3-0.2-0.1-0.5-0.4-0.7
		c0,0.1-0.1,0.4-0.1,0.5c0,0,0,0,0,0C134.3,32.3,134.5,32.2,134.4,32.5z M134.9,35.4c0,0,0-0.2,0-0.2s0,0,0-0.1
		c-0.1,0-0.1,0-0.1,0.1C134.8,35.3,134.8,35.4,134.9,35.4z M134.9,30.5c0.2-0.1,0.1-0.2,0.1-0.3C134.9,30.3,134.9,30.4,134.9,30.5z
		 M137,39.5c1.4,0,1.6-0.9,1.6-3.2c0-0.4-0.1-1.1-0.1-1.8c0-0.2,0.1-0.4,0.1-0.6c0-0.1,0-0.3-0.1-0.4l0-2.2c0-0.8-0.2-1.7-0.2-2.5
		c0-0.2,0-1,0.1-1.3l-0.1-3.4c0.1-0.1,0.1-0.2,0.1-0.3c0,0-0.1-1-0.1-1.4c0,0,0-0.1,0.1-0.3c0-0.9-0.1-3.4-0.1-3.8
		c0,0,0.1-0.6,0.1-0.7l0-3.8c-0.4-0.7-0.2-1.3-1.2-1.3c-1.4,0-1.6,1.4-1.6,2.6c0,1.6,0.1,3,0.1,4.5c0,0.1-0.1,0.3-0.1,0.4
		c0,3.4,0.2,0.2,0.1,7.3c0,0.3-0.1,0.8-0.1,1.3c0,0.7,0.2,1.3,0.2,2c0,0.7-0.2,1.5-0.2,2.2c0,1.1,0.2,2.1,0.2,3.2
		c0,0.6-0.1,1.1-0.1,1.7C135.8,37.4,136,39.5,137,39.5z M138.6,29.3c0,0,0.2,0,0.2,0c0-0.2,0-0.1,0-0.1
		C138.6,29.1,138.6,29.3,138.6,29.3z M140.4,26.5c0.1,0,0.1-0.1,0.1-0.1c0-0.1,0-0.1-0.1-0.2l-0.1,0.1
		C140.4,26.3,140.4,26.4,140.4,26.5z M140.4,27.1c0.1,0,0.2,0,0.3-0.1l0-0.1C140.5,26.8,140.4,27,140.4,27.1z M140.5,28.5l0.1-0.3
		c0,0,0,0-0.1,0c-0.1,0-0.1,0-0.1,0.2L140.5,28.5z M141.3,14c0-0.1,0.1-0.3,0.2-0.3l-0.3-0.3l-0.2,0.1C141.1,13.6,141.2,14,141.3,14
		z M141.2,20.6C141.2,20.6,141.2,20.6,141.2,20.6L141.2,20.6l0.2,0c-0.1,0-0.1-0.1-0.1-0.2l0,0C141.2,20.4,141.2,20.5,141.2,20.6z
		 M141.4,20.6C141.4,20.6,141.4,20.7,141.4,20.6c0.1,0.1,0.1,0,0.1,0C141.5,20.6,141.5,20.5,141.4,20.6L141.4,20.6z"/>
</g>
<g>
	<path class="st1" d="M65.2,39c0-5.5,0.1-6.3,0.4-7.1c0.6-1.9,2-3,4.4-3c2.8,0,4.6,1.4,4.7,4.7c0,0.2,0,0.3-0.2,0.3l-2.3,0.4
		c-0.2,0-0.3-0.1-0.3-0.3c-0.1-1.7-0.7-2.4-1.8-2.4c-0.9,0-1.3,0.4-1.6,1.1c-0.1,0.5-0.2,0.9-0.2,6.2c0,5.3,0.1,5.7,0.2,6.2
		c0.2,0.7,0.7,1.1,1.6,1.1c1.1,0,1.7-0.7,1.8-2.4c0-0.2,0.1-0.3,0.3-0.3l2.3,0.4c0.2,0,0.2,0.2,0.2,0.3c-0.2,3.3-1.9,4.7-4.7,4.7
		c-2.4,0-3.8-1.1-4.4-3C65.3,45.3,65.2,44.4,65.2,39z"/>
	<path class="st1" d="M82.7,48.8c-0.2,0-0.3-0.1-0.3-0.3v-1.1h0c-0.5,1-1.3,1.6-2.6,1.6c-2,0-3.2-1.3-3.2-4.3v-9.6
		c0-0.2,0.1-0.3,0.3-0.3h2.4c0.2,0,0.3,0.1,0.3,0.3v9.1c0,1.3,0.5,2,1.4,2c1,0,1.5-0.7,1.5-2v-9.1c0-0.2,0.1-0.3,0.3-0.3H85
		c0.2,0,0.3,0.1,0.3,0.3v13.3c0,0.2-0.1,0.3-0.3,0.3H82.7z"/>
	<path class="st1" d="M88.6,48.8c-0.2,0-0.3-0.1-0.3-0.3V35.2c0-0.2,0.1-0.3,0.3-0.3h2.4c0.2,0,0.3,0.1,0.3,0.3v1.4h0
		c0.5-1.1,1.5-1.9,3.1-1.9c0.1,0,0.4,0,0.5,0c0.2,0.1,0.3,0.1,0.2,0.3l-0.7,2.5c-0.1,0.1-0.1,0.2-0.3,0.2h-0.5
		c-1.5,0-2.4,0.9-2.4,2.7v8.2c0,0.2-0.1,0.3-0.3,0.3H88.6z"/>
	<path class="st1" d="M97.1,48.8c-0.2,0-0.3-0.1-0.3-0.3V35.2c0-0.2,0.1-0.3,0.3-0.3h2.4c0.2,0,0.3,0.1,0.3,0.3v1.4h0
		c0.5-1.1,1.5-1.9,3.1-1.9c0.1,0,0.4,0,0.5,0c0.2,0.1,0.3,0.1,0.2,0.3l-0.7,2.5c-0.1,0.1-0.1,0.2-0.3,0.2h-0.5
		c-1.5,0-2.4,0.9-2.4,2.7v8.2c0,0.2-0.1,0.3-0.3,0.3H97.1z"/>
	<path class="st1" d="M105.6,54c-0.2,0-0.3-0.1-0.3-0.3v-2.1c0-0.2,0.1-0.3,0.3-0.3l0.4,0c0.8-0.1,1.2-0.4,1.5-1.6l0.3-1.4
		l-3.5-13.1c-0.1-0.2,0-0.3,0.2-0.3h2.4c0.2,0,0.3,0.1,0.3,0.3l1.8,8.6h0l1.8-8.6c0-0.2,0.1-0.3,0.3-0.3h2.3c0.2,0,0.3,0.1,0.2,0.3
		l-3.7,14.4c-0.9,3.6-1.9,4.4-4.2,4.4H105.6z"/>
</g>
</svg>
