<?xml version="1.0" encoding="utf-8"?>
<!-- Generator: Adobe Illustrator 22.0.1, SVG Export Plug-In . SVG Version: 6.00 Build 0)  -->
<svg version="1.1" id="Capa_1" xmlns="http://www.w3.org/2000/svg" xmlns:xlink="http://www.w3.org/1999/xlink" x="0px" y="0px"
	 viewBox="0 0 168 57" style="enable-background:new 0 0 168 57;" xml:space="preserve">
<style type="text/css">
	.st0{fill:#FFFFFF;}
	.st1{fill:#FFAA24;}
	.st2{fill:#E58E00;}
	.st3{fill:none;stroke:#FFFFFF;stroke-width:0.8242;stroke-linecap:round;stroke-miterlimit:10;}
</style>
<g>
	<g>
		<path class="st0" d="M86.6,52.1c0.4,0.2,0.6,0.3,0.8,0.4c0.2,0.1,0.3,0.2,0.4,0.3c0,0.1,0,0.2-0.1,0.4c-0.1,0.2-0.3,0.4-0.5,0.7
			c-0.3-0.1-0.5-0.3-0.8-0.4c-0.3-0.1-0.5-0.3-0.8-0.4c-0.2,0.3-0.5,0.6-0.9,0.9c-0.4,0.2-0.8,0.4-1.4,0.5c-0.5,0.1-1,0.1-1.4,0
			c-0.5-0.1-0.9-0.3-1.3-0.6c-0.4-0.3-0.8-0.6-1.1-1.1c-0.3-0.4-0.5-0.9-0.7-1.5c-0.5-1.7-0.9-3.3-1.2-5c-0.4-1.7-0.8-3.4-1.2-5.3
			c-0.1-1.6-0.3-3.2-0.5-4.8c-0.2-1.6-0.3-3.3-0.4-5.1c0-0.5,0-1.1,0.1-1.6s0.2-1.1,0.5-1.6c0.2-0.5,0.4-0.9,0.7-1.3
			c0.3-0.4,0.6-0.7,1-0.9c0.4-0.2,0.8-0.4,1.3-0.4c0.4-0.1,0.9,0,1.4,0.1c0.3,0.1,0.6,0.2,0.9,0.4c0.3,0.2,0.5,0.5,0.8,0.8
			c0.2,0.3,0.4,0.6,0.6,0.9c0.2,0.3,0.3,0.6,0.4,1c0.2,0.9,0.4,2.1,0.6,3.5c0.2,1.4,0.4,3.1,0.7,5c0.2,1.3,0.4,2.5,0.7,3.7
			c0.3,1.2,0.5,2.5,0.7,3.7c0.2,1,0.3,2,0.3,2.9c0.1,1,0.1,2,0.1,2.9c0,0.7-0.1,1.3-0.2,1.8c0.2,0.2,0.4,0.3,0.5,0.5
			c0.2,0.1,0.3,0.3,0.5,0.4c-0.1-0.2-0.2-0.4-0.3-0.6C86.7,52.4,86.6,52.2,86.6,52.1z M85.1,48.7c-0.1-1.6-0.3-3.1-0.6-4.6
			c-0.3-1.5-0.5-3-0.8-4.6l-0.1,0c-0.3-1.8-0.6-3.6-0.8-5.3c-0.3-1.8-0.6-3.5-0.9-5.3c0-0.2-0.1-0.4-0.2-0.6
			c-0.1-0.3-0.3-0.5-0.5-0.7c-0.2-0.2-0.4-0.5-0.6-0.6c-0.2-0.2-0.5-0.3-0.7-0.3c-0.9-0.1-1.5,0.1-2,0.8c-0.5,0.6-0.7,1.5-0.8,2.7
			c0.1,2,0.2,3.9,0.4,5.9c0.1,1.9,0.3,3.9,0.4,5.8c0.1,1.1,0.2,2.1,0.3,3.2c0.1,1.1,0.3,2.1,0.7,3.1c0.4,1.2,0.7,2.2,1.2,2.9
			c0.4,0.7,0.9,1.3,1.3,1.6c0.4,0.4,0.8,0.6,1.3,0.6c0.4,0.1,0.8,0.1,1.1,0c0.3-0.1,0.6-0.2,0.8-0.3c0.2-0.1,0.3-0.2,0.4-0.3
			l0.1-0.2c-0.2-0.2-0.5-0.3-0.7-0.5c-0.3-0.2-0.5-0.4-0.8-0.6c-0.2-0.2-0.5-0.4-0.7-0.5s-0.3-0.3-0.4-0.3c-0.1-0.1-0.1-0.2-0.1-0.2
			c0.1-0.1,0.2-0.2,0.4-0.2c0.2-0.1,0.3-0.1,0.5-0.2c0.2,0,0.2-0.1,0.3-0.1c0.2,0.2,0.4,0.4,0.8,0.7c0.3,0.3,0.7,0.6,1.1,0.9
			c0.1-0.4,0.1-0.9,0.1-1.4C85.2,49.6,85.2,49.2,85.1,48.7z"/>
		<path class="st0" d="M95.4,23c0.1,0.2,0.3,0.5,0.4,1s0.2,1,0.3,1.6c0.1,0.6,0.2,1.3,0.2,2c0.1,0.7,0.1,1.4,0.2,2.1
			c0.1,0.7,0.1,1.3,0.2,1.9c0.1,0.6,0.1,1.1,0.2,1.6c0.2,1.7,0.5,3.4,0.9,5.1c0.4,1.7,0.7,3.4,0.9,5.1c0.1,0.9,0.2,1.9,0.3,2.9
			c0,1,0,1.9-0.2,2.8c-0.1,0.5-0.2,1-0.5,1.5c-0.2,0.5-0.5,0.9-0.9,1.2c-0.4,0.3-0.8,0.6-1.3,0.8c-0.5,0.2-1.1,0.3-1.8,0.2
			c-1.3,0-2.3-0.4-2.9-1c-0.7-0.6-1.1-1.5-1.3-2.6c-0.7-3.9-1.3-7.8-2-11.6c-0.7-3.8-1.4-7.7-2-11.6c0-0.2-0.1-0.5,0-0.7
			c0-0.2,0-0.5,0-0.7c0.2-0.1,0.3-0.1,0.5-0.2c0.2,0,0.3-0.1,0.5-0.2c0.2,0.6,0.4,1.1,0.7,1.7c0.3,0.5,0.4,1.1,0.5,1.7
			c0.5,3.4,1,6.7,1.5,10.1c0.5,3.3,1,6.7,1.4,10.1c0.1,0.8,0.2,1.4,0.4,1.9c0.2,0.5,0.4,0.9,0.7,1.2c0.3,0.3,0.8,0.5,1.3,0.7
			c0.5,0.2,1.3,0.3,2.1,0.4c0.7-0.9,1.2-1.7,1.5-2.6s0.4-1.8,0.4-2.7c0-0.9-0.1-1.8-0.3-2.7c-0.2-0.9-0.3-1.8-0.5-2.7
			c-0.4-3-0.9-5.9-1.3-8.9c-0.5-2.9-0.9-5.9-1.4-8.9c0.1,0,0.1-0.1,0.3-0.1s0.2-0.1,0.4-0.1c0.1,0,0.3,0,0.4-0.1
			C95.2,23.1,95.3,23.1,95.4,23z"/>
		<path class="st0" d="M104.6,51.2c-0.3,0-0.5-0.1-0.7-0.5s-0.3-0.8-0.4-1.3c-0.1-0.5-0.2-1-0.2-1.6c-0.1-0.6-0.1-1-0.2-1.4
			c-0.6-3.7-1.2-7.3-1.8-10.8c-0.6-3.5-1.2-7.1-1.8-10.8c0-0.1-0.1-0.3-0.1-0.4c0-0.2-0.1-0.3-0.1-0.4c0-0.3,0-0.6,0-0.8
			c0-0.2,0.1-0.4,0.2-0.5c0.1-0.1,0.3-0.2,0.6-0.3c0.3-0.1,0.7-0.2,1.2-0.3c0,0,0.1,0,0.1,0c0,0,0,0,0.1,0c0.5-0.1,0.9-0.2,1.4-0.2
			c0.5-0.1,0.9-0.2,1.3-0.4c0.2-0.1,0.4-0.2,0.7-0.2c0.2,0,0.5,0,0.7,0c0.2,0.1,0.4,0.2,0.6,0.4s0.3,0.4,0.4,0.8l-3.4,0.5l-2.2,0.3
			l1,6.7c0.1,0.4,0.1,0.8,0.3,1.1c0.1,0.4,0.2,0.8,0.3,1.2c0.1,0.4,0.1,0.8,0.2,1.1c0,0.4,0,0.7-0.1,1c-0.2,0.4-0.3,0.9-0.3,1.2
			c0,0.4,0.1,0.8,0.1,1.1c0.1,0.4,0.2,0.7,0.3,1.1c0.1,0.3,0.2,0.7,0.3,1.1c0.2,0.9,0.4,1.5,0.8,1.8c0.4,0.3,1,0.5,1.8,0.5
			c0.1,0,0.3,0,0.6-0.1c0.2-0.1,0.5-0.1,0.8-0.2c0.3-0.1,0.5-0.1,0.7-0.2c0.2-0.1,0.3-0.1,0.4-0.1c0,0,0,0.1,0.1,0.2
			c0,0.1,0.1,0.2,0.1,0.3c0,0.1,0,0.2,0,0.3c0,0.1-0.1,0.2-0.2,0.3c-0.3,0-0.6,0.1-0.8,0.2s-0.5,0.2-0.8,0.2c-0.1,0-0.3,0.1-0.5,0.1
			c-0.2,0.1-0.4,0.1-0.7,0.1c-0.2,0-0.5,0.1-0.7,0.1c-0.2,0-0.4,0.1-0.6,0.1c0,0.7,0.1,1.3,0.2,2c0.1,0.7,0.1,1.3,0.2,2
			c0.1,0.7,0.1,1.3,0.2,1.9c0.1,0.6,0.2,1.1,0.3,1.6c0.5-0.1,1-0.2,1.6-0.4c0.6-0.2,1.2-0.3,1.7-0.4s1,0,1.3,0.1
			c0.4,0.1,0.5,0.4,0.5,0.9c-0.8,0.1-1.8,0.3-2.7,0.4C106.4,50.9,105.5,51.1,104.6,51.2z"/>
		<path class="st0" d="M117.1,49.1c-0.5-0.1-0.9-0.2-1.4-0.5c-0.4-0.3-0.8-0.7-1-1.1c-0.3-0.5-0.5-0.9-0.5-1.3c0-0.3,0-0.6,0.1-0.7
			c0.1-0.2,0.3-0.4,0.5-0.4c0.1,0.2,0.2,0.5,0.3,0.7c0.1,0.2,0.2,0.4,0.3,0.7c0.3,0.5,0.6,0.9,0.9,1.2c0.2,0.1,0.4,0.2,0.6,0.3
			c0.2,0.1,0.4,0.1,0.7,0.1c0.1,0,0.2,0,0.3,0c0.2,0,0.3-0.1,0.4-0.1c0.2-0.1,0.4-0.2,0.7-0.3c0.4-0.3,0.8-0.6,1-1.1
			c0.3-0.5,0.5-1,0.6-1.6c0.1-0.6,0.2-1.2,0.2-1.8c0-0.6,0-1.2-0.1-1.7c0-0.3-0.1-0.6-0.2-0.9c-0.1-0.3-0.1-0.5-0.2-0.8
			c-0.2-0.6-0.4-1-0.7-1.5c-0.5-0.9-1-1.6-1.7-2.2c-0.6-0.5-1.1-0.9-1.6-1.1c-0.5-0.2-0.8-0.4-1-0.4c-0.2-0.1-0.2-0.1-0.3-0.3
			c-0.1,0-0.2-0.1-0.4-0.1c-0.2-0.1-0.3-0.1-0.5-0.2c-0.3-0.1-0.6-0.3-0.9-0.5c-0.2-0.1-0.3-0.2-0.5-0.4c-0.2-0.1-0.3-0.3-0.5-0.4
			c-0.3-0.3-0.6-0.7-0.9-1s-0.5-0.7-0.7-1.1c-0.2-0.4-0.4-0.8-0.5-1.2c-0.1-0.4-0.2-0.7-0.2-1c-0.1-0.6,0-1.1,0.1-1.7
			c0-0.1,0-0.3,0.1-0.4c0-0.1,0.1-0.2,0.1-0.4c0-0.1,0.1-0.3,0.1-0.4c0-0.1,0.1-0.3,0.1-0.4c0.1-0.7,0.4-1.4,0.7-2.1
			c0.3-0.7,0.7-1.3,1.2-1.8c0.6-0.6,1.2-0.9,2-1.1c0.4-0.1,0.7-0.1,1.1-0.1c0.4,0,0.8,0.1,1.1,0.3c0.3,0.1,0.6,0.3,0.8,0.5
			c0.2,0.2,0.5,0.4,0.7,0.6c0,0.2,0,0.4,0,0.5c0,0.1-0.1,0.1-0.2,0.2c-0.1,0-0.3-0.1-0.6-0.3c-0.2-0.2-0.4-0.3-0.6-0.4
			c-0.2-0.1-0.5-0.1-0.8-0.2c-0.8-0.1-1.6,0.2-2.3,0.8c-0.3,0.3-0.7,0.7-1.1,1.1c-0.4,0.4-0.6,0.9-0.8,1.3c-0.2,0.5-0.3,0.9-0.4,1.4
			c-0.1,0.5-0.1,1-0.1,1.5c0,0.5,0.1,0.9,0.2,1.4c0.1,0.5,0.2,0.9,0.4,1.3c0.2,0.4,0.4,0.7,0.6,1c0.2,0.3,0.4,0.6,0.6,0.8
			c0.2,0.3,0.4,0.5,0.7,0.6c0.2,0.2,0.4,0.3,0.6,0.4c0.2,0.1,0.3,0.2,0.5,0.2c0.1,0,0.2,0.1,0.3,0.1c0.1,0,0.2,0.1,0.2,0.2l0,0
			c0,0.1,0.1,0.1,0.4,0.2c0.1,0,0.1,0,0.2,0.1c0.1,0,0.1,0,0.2,0.1c0.1,0,0.1,0.1,0.2,0.1c0.1,0,0.1,0.1,0.2,0.1
			c0.3,0.1,0.7,0.3,1,0.6c0.4,0.2,0.8,0.5,1.1,0.8c0.8,0.7,1.5,1.5,2,2.4c0.3,0.4,0.5,0.9,0.7,1.3c0.2,0.4,0.3,0.8,0.4,1.2
			c0.1,0.3,0.1,0.7,0.1,1c0,0.3,0,0.7,0,1c0,0.3-0.1,0.6-0.1,1c0,0.3-0.1,0.6-0.1,0.9c0,0.4-0.1,0.9-0.2,1.3
			c-0.1,0.4-0.2,0.9-0.4,1.3c-0.2,0.4-0.3,0.8-0.6,1.2c-0.2,0.4-0.5,0.7-0.9,1c-0.1,0.1-0.2,0.1-0.3,0.2c-0.1,0.1-0.2,0.1-0.3,0.2
			c-0.2,0.1-0.4,0.2-0.6,0.3C118,49.1,117.5,49.2,117.1,49.1z"/>
		<path class="st0" d="M129.8,47.6c-0.5,0.1-1,0.1-1.4,0c-0.5-0.1-0.9-0.3-1.3-0.6c-0.4-0.3-0.8-0.6-1.1-1.1
			c-0.3-0.4-0.5-0.9-0.7-1.5c-0.5-1.7-0.9-3.3-1.2-5c-0.4-1.7-0.8-3.4-1.2-5.3c-0.1-1.6-0.3-3.2-0.5-4.8c-0.2-1.7-0.3-3.3-0.5-5.1
			c0-0.5,0-1.1,0.1-1.6c0.1-0.6,0.3-1.1,0.4-1.6c0.2-0.5,0.4-0.9,0.8-1.3c0.3-0.4,0.7-0.7,1-0.9c0.4-0.2,0.8-0.4,1.3-0.4
			c0.4-0.1,0.9,0,1.4,0.1c0.3,0.1,0.6,0.2,0.8,0.4c0.3,0.2,0.5,0.5,0.8,0.8c0.2,0.3,0.4,0.6,0.6,0.9c0.2,0.3,0.3,0.6,0.4,1
			c0.2,0.9,0.4,2.1,0.6,3.5c0.2,1.4,0.4,3.1,0.7,5c0.2,1.3,0.4,2.5,0.7,3.7c0.3,1.2,0.5,2.5,0.7,3.7c0.1,1,0.2,2,0.3,2.9
			c0.1,1,0.1,2,0.2,2.9c0,1-0.2,1.9-0.6,2.6C131.6,46.9,130.9,47.4,129.8,47.6z M124.3,35c0.1,1.1,0.2,2.1,0.3,3.2
			c0.1,1.1,0.3,2.1,0.7,3.1c0.4,1.2,0.7,2.2,1.1,2.9c0.4,0.7,0.8,1.3,1.3,1.6c0.4,0.4,0.8,0.6,1.3,0.6c0.4,0.1,0.8,0.1,1.1,0
			c0.3-0.1,0.6-0.2,0.8-0.3c0.2-0.1,0.3-0.2,0.4-0.3c0.3-0.6,0.5-1.2,0.5-1.9s0-1.3-0.1-2c-0.1-1.6-0.3-3.1-0.6-4.6
			c-0.3-1.5-0.6-3-0.8-4.6l0,0c-0.3-1.8-0.6-3.6-0.8-5.3c-0.3-1.8-0.6-3.5-0.9-5.3c0-0.2-0.1-0.4-0.2-0.6c-0.1-0.3-0.3-0.5-0.4-0.7
			c-0.2-0.2-0.4-0.5-0.6-0.6c-0.2-0.2-0.5-0.3-0.7-0.3c-0.9-0.1-1.6,0.1-2,0.8c-0.5,0.6-0.7,1.5-0.8,2.7c0.1,2,0.2,3.9,0.4,5.9
			C124,31.1,124.1,33,124.3,35z"/>
	</g>
	<path class="st0" d="M40.5,38.2c0,0-0.1,0.1-0.1,0.1c0,0.1-0.1,0.1-0.1,0.2c0,0.1,0.1,0.1,0.2,0c0.1,0,0.1-0.1,0.1-0.2
		C40.7,38.3,40.6,38.2,40.5,38.2"/>
	<path class="st0" d="M94.6,37.7c0,0.1,0,0.1-0.1,0.2c0,0.1,0,0.1,0,0.2c0.1,0.1,0.2,0,0.2,0c0.1-0.1,0.1-0.2,0.1-0.3
		C94.8,37.6,94.7,37.5,94.6,37.7"/>
	<path class="st0" d="M69,38.1c0-0.1,0-0.1,0-0.2c0-0.1,0-0.2-0.1-0.2c-0.1,0-0.2,0.1-0.2,0.2c0,0.1,0,0.3,0.1,0.3
		C68.8,38.2,69,38.3,69,38.1"/>
	<g>
		<path class="st2" d="M47.6,2.6c0.3,0,0.5,0.1,0.5,0.2c0,0.1,0,0.3-0.1,0.4c-0.1,0.2-0.3,0.3-0.5,0.5C47.3,3.9,47.1,4,47,4
			C46,4,45.1,4.1,44.3,4c-0.8,0-1.7,0-2.7,0c0,1.9,0,3.9,0,5.9c0,2.1,0,4.1,0,6.2c0,2.1,0,4.1-0.1,6.1s-0.1,3.9-0.1,5.6
			c0,1.8-0.1,3.4-0.2,4.8c-0.1,1.4-0.1,2.7-0.2,3.6c0,0.1-0.1,0.1-0.2,0.1c-0.1,0-0.2,0-0.4,0c-0.2,0-0.3-0.1-0.5-0.1
			c-0.2,0-0.3,0-0.4,0c0.1-5.3,0.1-10.5,0.2-15.8c0-5.3,0.1-10.8,0.2-16.3c-0.5,0-0.9,0-1.3,0c-0.3,0-0.7,0-1,0c-0.3,0-0.6,0-1,0
			c-0.3,0-0.8,0-1.3,0c0-0.1-0.1-0.2-0.1-0.2c-0.1-0.1-0.1-0.2-0.1-0.2c0.1-0.2,0.2-0.4,0.3-0.7c0.1-0.2,0.2-0.3,0.4-0.3H47.6z"/>
		<path class="st2" d="M59.3,26.3c-0.1-0.1-0.3-0.3-0.5-0.4c-0.2-0.2-0.5-0.3-0.8-0.4c-0.3-0.1-0.7-0.2-1-0.2c-0.4,0-0.7,0-1.1,0
			c-0.5,0.4-0.8,0.6-0.9,0.7c-0.3,0-0.6,0.1-0.9,0.1c-0.3,0-0.7,0.1-1.1,0.1c-0.1,1.5-0.1,2.8-0.1,4.1c0,1.3,0.1,2.7,0.2,4.2
			c0,0.5,0,0.9-0.2,1.2c-0.2,0.3-0.4,0.6-0.6,0.7c-0.2,0.1-0.4,0.2-0.6,0.1c-0.2-0.1-0.3-0.2-0.3-0.5c0-0.1,0-0.4,0-0.8s0-0.9,0-1.4
			c0-0.5,0-1.1,0-1.6c0-0.6,0-1,0-1.5c0-4.2-0.1-8.4-0.1-12.6c0-4.2-0.1-8.4-0.1-12.6c0-0.2,0-0.3,0-0.5c0-0.2,0-0.3,0-0.4
			c0-0.3,0.1-0.6,0.1-0.8c0.1-0.2,0.2-0.4,0.3-0.5C51.8,3,52,2.9,52.3,2.8c0.3-0.1,0.7-0.1,1.3-0.2c0,0,0.1,0,0.1,0c0,0,0,0,0.1,0
			c0.2,0,0.5-0.1,0.8-0.1c0.3-0.1,0.5-0.1,0.8-0.1c0.2,0,0.5-0.1,0.7-0.1c0.2,0,0.5,0,0.7,0.1c0.7,0.2,1.3,0.6,2,1.2
			s1.3,1.4,1.8,2.3c0.5,0.9,0.9,2,1.2,3.1s0.4,2.4,0.3,3.7c-0.1,1.3-0.3,2.7-0.8,4.1c-0.5,1.4-1.2,2.8-2.3,4.2
			c-0.3,0.6-0.7,1.2-1,1.7c-0.4,0.6-0.8,1-1.1,1.5c0.4-0.1,0.7-0.1,1.1-0.1c0.3,0,0.7,0.1,1,0.3c0.3,0.1,0.6,0.3,0.9,0.5
			c0.3,0.2,0.5,0.4,0.7,0.6c0.3,0.3,0.5,0.7,0.7,1.3s0.3,1.1,0.3,1.8c0.1,0.7,0.1,1.4,0.1,2.1c0,0.7,0,1.4,0,2.1c0,0.7,0,1.4,0.1,2
			c0,0.6,0.1,1.1,0.2,1.6c-0.3-0.1-0.5-0.1-0.8-0.1c-0.3,0-0.5,0-0.8,0C60,35.9,60,35.5,60,34.9c0-0.6,0-1.2,0-1.8c0-0.7,0-1.3,0-2
			c0-0.7,0-1.4,0-2c0-0.6-0.1-1.2-0.2-1.7C59.6,26.9,59.5,26.5,59.3,26.3z M53.2,24.4c0.1,0.1,0.4,0.1,0.8-0.1
			c0.4-0.2,0.8-0.5,1.4-0.9c0.5-0.4,1.1-0.9,1.8-1.5c0.6-0.6,1.3-1.4,1.9-2.2c0.2-0.7,0.5-1.6,0.8-2.5c0.3-1,0.5-2,0.7-3.1
			c0.2-1.1,0.3-2.1,0.3-3.2c0-1.1-0.2-2.1-0.6-3c-0.4-0.9-0.9-1.7-1.7-2.4c-0.8-0.7-1.9-1.2-3.2-1.5c-0.4-0.1-0.9-0.1-1.3-0.1
			C53.6,4,53.2,4,53,4c0,1.3,0,2.6,0,3.8c0,1.3,0,2.5,0,3.8c0,0.4,0,0.9,0.1,1.3c0.1,0.5,0.1,0.9,0.1,1.4c0,0.4,0,0.9,0,1.3
			c0,0.4-0.1,0.8-0.3,1.1c-0.3,0.5-0.4,0.9-0.5,1.4c-0.1,0.4-0.1,0.9,0,1.3c0,0.4,0.1,0.8,0.2,1.2c0.1,0.4,0.1,0.8,0.1,1.2
			c0,0.7,0.1,1.2,0.2,1.6C52.8,23.8,53,24.2,53.2,24.4z"/>
		<path class="st2" d="M69.4,4.2c-0.5,0-0.9,0-1.3,0c-0.3,0-0.6,0-0.9,0s-0.6,0-0.9,0c-0.3,0-0.8,0-1.2,0c-0.2-0.1-0.3-0.3-0.2-0.4
			c0-0.2,0.1-0.3,0.2-0.4c0.1-0.1,0.3-0.3,0.4-0.4c0.2-0.1,0.3-0.2,0.4-0.2c0.4,0,0.8,0,1.1,0c0.3,0,0.6,0,0.8,0c0.2,0,0.5,0,0.8,0
			c0.3,0,0.6,0,1.1,0c0.4,0,0.8,0,1.1,0c0.3,0,0.7,0,1.1,0c0.5,0,0.9,0,1.2,0c0.3,0,0.6,0,0.8,0s0.5,0,0.8,0c0.3,0,0.7,0,1.2,0
			c0.3,0,0.5,0.1,0.5,0.3c0,0.2-0.1,0.3-0.2,0.5c-0.2,0.2-0.3,0.3-0.6,0.5c-0.2,0.1-0.4,0.2-0.5,0.2c-0.5,0-0.9,0-1.1,0
			c-0.2,0-0.5,0-0.7,0c-0.2,0-0.4,0-0.6,0c-0.2,0-0.6,0-1.1,0c-0.1,1.7-0.1,3.3-0.1,5c0,1.7-0.1,3.4-0.2,5.2
			c-0.1,0.8-0.2,1.7-0.5,2.5c-0.3,0.8-0.4,1.7-0.4,2.5c-0.1,2.4-0.1,4.7-0.1,7c0,2.3,0,4.6,0,7c0,0.3,0,0.5-0.1,0.8
			c0,0.3-0.1,0.5-0.1,0.7h0.3c0.5,0,0.8,0,1.1,0c0.2,0,0.4,0,0.6,0s0.4,0,0.7,0c0.3,0,0.7,0,1.3-0.1c0,0,0.1,0.1,0.2,0.1
			c0.1,0,0.3,0,0.4,0.1c0.1,0,0.3,0,0.4,0c0.1,0,0.2,0,0.2,0.1c-0.2,0.2-0.5,0.5-0.8,0.8c-0.3,0.3-0.6,0.4-0.8,0.4
			c-1.3,0-2.7,0.1-4.1,0c-1.4,0-2.8-0.1-4.1-0.1c-0.1,0-0.1,0-0.1-0.1c0-0.1,0-0.2,0-0.3c0-0.1,0-0.2,0-0.4c0-0.1,0-0.2-0.1-0.3
			c0.1-0.1,0.2-0.1,0.2-0.1c0,0,0.1,0,0.1,0c0,0,0,0,0.1,0c0,0,0.1,0,0.2,0c0.4,0,0.6,0,0.8,0c0.2,0,0.4,0,0.5,0c0.2,0,0.4,0,0.6,0
			c0.2,0,0.6,0,1,0c-0.1-2.6,0-5.1,0-7.7c0.1-2.6,0.2-5.1,0.3-7.7c0.1-2.6,0.3-5.1,0.4-7.7C69.4,9.4,69.4,6.8,69.4,4.2z"/>
		<path class="st2" d="M78.8,35.9c0-0.1,0-0.4,0-0.8c0-0.4,0-0.9,0-1.4c0-0.5,0-1.1,0-1.6c0-0.6,0-1,0-1.5c0-4.2,0.1-8.4,0-12.6
			c0-4.2,0-8.4,0-12.6c0-0.2,0-0.3,0-0.5c0-0.2,0-0.3,0-0.4c0-0.3,0.1-0.6,0.2-0.9C79,3.3,79.1,3.2,79.3,3c0.2-0.1,0.4-0.2,0.7-0.3
			c0.3-0.1,0.7-0.1,1.3-0.2c0,0,0.1,0,0.1,0c0,0,0,0,0.1,0c0.5,0,1-0.1,1.5-0.2c0.5-0.1,1-0.1,1.4,0c0.7,0.2,1.3,0.6,2,1.3
			C87,4.4,87.5,5.1,88,6.1s0.9,1.9,1.2,3.1s0.4,2.4,0.3,3.7s-0.4,2.7-0.9,4.1c-0.5,1.4-1.3,2.8-2.3,4.2c-0.3,0.6-0.7,1.2-1.1,1.7
			c-0.4,0.6-0.8,1-1.2,1.5c-0.3,0.3-0.6,0.6-0.9,0.9c-0.4,0.4-0.7,0.6-0.9,0.7c-0.3,0-0.6,0.1-0.9,0.1c-0.3,0-0.7,0.1-1,0.1
			c-0.1,1.5-0.2,2.8-0.2,4.1c0,1.3,0.1,2.7,0.2,4.2c0,0.5,0,0.9-0.2,1.3c-0.2,0.3-0.4,0.6-0.6,0.7c-0.2,0.1-0.4,0.2-0.6,0.1
			C78.9,36.3,78.8,36.2,78.8,35.9z M80.3,16.7c-0.3,0.5-0.4,0.9-0.5,1.4c-0.1,0.4-0.1,0.9,0,1.3c0,0.4,0.1,0.8,0.1,1.2
			c0.1,0.4,0.1,0.8,0.1,1.2c0,0.7,0,1.2,0.1,1.6c0.1,0.4,0.3,0.7,0.5,1c0.1,0.1,0.4,0.1,0.8-0.1c0.4-0.2,0.8-0.5,1.4-0.9
			c0.5-0.4,1.1-0.9,1.8-1.5c0.6-0.6,1.3-1.4,1.9-2.2c0.2-0.7,0.5-1.6,0.8-2.5s0.5-2,0.7-3.1c0.2-1.1,0.3-2.1,0.3-3.2
			c0-1.1-0.2-2.1-0.5-3c-0.3-0.9-0.9-1.7-1.7-2.4C85.4,4.8,84.3,4.3,83,4c-0.4-0.1-0.9-0.1-1.3-0.1c-0.4,0.1-0.8,0.1-1,0.1
			c0,1.3,0,2.6,0,3.8c0,1.3,0,2.5,0,3.8c0,0.4,0,0.9,0.1,1.3c0,0.5,0.1,0.9,0.1,1.4s0,0.9,0,1.3C80.6,16,80.5,16.3,80.3,16.7z"/>
		<path class="st2" d="M101.8,35.1c0.2-0.1,0.4,0,0.4,0.1c0,0.1,0,0.3-0.1,0.5c-0.1,0.2-0.3,0.4-0.5,0.6c-0.2,0.2-0.4,0.3-0.6,0.3
			c-0.4,0-0.8,0-1.2,0c-0.4,0-0.8,0-1.2,0c-0.9,0-1.8,0-2.7,0c-0.9,0-1.8,0-2.7-0.1c-0.2,0-0.3,0-0.5,0c-0.2,0-0.3,0-0.5,0
			c0-0.1,0-0.2,0-0.3c0-0.1,0-0.1,0-0.2c0-0.2-0.1-0.4-0.2-0.6c0,0,0.1,0,0.1,0c0,0,0,0,0.1,0c-0.1-2.6-0.1-5.2,0-7.8
			c0.1-2.6,0.2-5.2,0.3-7.8c0.1-2.6,0.2-5.2,0.3-7.8c0.1-2.6,0.1-5.2,0-7.9c0-0.4,0-0.8,0.1-1.1c0.1-0.3,0.2-0.4,0.3-0.4
			c0.2,0,0.4,0,0.4,0c0.1,0,0.2,0,0.2,0c0.1,0,0.1,0,0.2,0c0.1,0,0.2,0,0.5,0c0.1,0,0.2,0.1,0.2,0.4c0.1,0.2,0.1,0.7,0,1.2
			c-0.1,1.7-0.1,3.4-0.2,5.1c-0.1,1.7-0.1,3.5-0.2,5.2c0,0.4-0.1,0.9-0.2,1.3c-0.1,0.4-0.2,0.8-0.3,1.2c-0.1,0.4-0.2,0.8-0.2,1.2
			c-0.1,0.4-0.1,0.8-0.1,1.2c0,2.4,0,4.7,0,7c0,2.3,0.1,4.6,0.1,7c0,0.2,0,0.5,0,0.7c0,0.2-0.1,0.5-0.1,0.7c0.5,0,1.2,0,1.9,0
			c0.8,0,1.5,0,2.3,0c0.8,0,1.6,0,2.3,0C100.7,35.1,101.3,35.1,101.8,35.1z"/>
		<path class="st2" d="M106.5,36.4c-0.3,0-0.5-0.2-0.7-0.6c-0.1-0.4-0.2-0.9-0.2-1.5c0-0.6,0-1.2,0-1.9c0-0.6,0.1-1.2,0.1-1.6
			c0-4.3-0.1-8.5-0.1-12.6c-0.1-4.1-0.1-8.3-0.2-12.6c0-0.2,0-0.3,0-0.5c0-0.2,0-0.3,0-0.5c0-0.4,0.1-0.7,0.1-0.9s0.2-0.4,0.3-0.5
			s0.4-0.2,0.8-0.3c0.3-0.1,0.8-0.1,1.4-0.1c0,0,0.1,0,0.1,0c0,0,0,0.1,0.1,0.1c0.5,0,1.1-0.1,1.6,0c0.6,0,1.1-0.1,1.6-0.2
			c0.3-0.1,0.5-0.1,0.8-0.1c0.3,0,0.5,0,0.8,0.2c0.2,0.1,0.4,0.3,0.6,0.5s0.3,0.6,0.3,1h-3.9h-2.6v7.8c0,0.4,0,0.9,0.1,1.4
			c0.1,0.5,0.1,0.9,0.1,1.4c0,0.5,0,0.9,0,1.3c0,0.4-0.1,0.8-0.3,1.1c-0.3,0.5-0.5,0.9-0.5,1.4c-0.1,0.4-0.1,0.9,0,1.3
			c0,0.4,0.1,0.8,0.2,1.3c0.1,0.4,0.1,0.8,0.1,1.3c0,1,0.2,1.8,0.6,2.3c0.4,0.5,1.1,0.7,1.9,0.8c0.1,0,0.4,0,0.6,0
			c0.3,0,0.6,0,0.9-0.1s0.6-0.1,0.8-0.1c0.3,0,0.4-0.1,0.5-0.1c0,0,0,0.1,0,0.2c0,0.1,0,0.2,0,0.3c0,0.1,0,0.2-0.1,0.4
			c0,0.1-0.1,0.2-0.2,0.3c-0.3,0-0.7,0-0.9,0s-0.6,0.1-0.9,0.1c-0.2,0-0.4,0-0.6,0.1c-0.2,0-0.5,0-0.8,0s-0.6,0-0.8,0s-0.5,0-0.7,0
			c-0.1,0.8-0.1,1.5-0.2,2.3c-0.1,0.8-0.1,1.5-0.1,2.3c0,0.8-0.1,1.5-0.1,2.1c0,0.7,0,1.3,0,1.8c0.6,0,1.2,0,1.9-0.1
			c0.7-0.1,1.4-0.1,2-0.1c0.6,0,1.1,0.1,1.5,0.3c0.4,0.2,0.5,0.6,0.5,1.1c-1,0-2,0-3.2,0C108.6,36.4,107.5,36.4,106.5,36.4z"/>
		<path class="st2" d="M39.6,36.2c0,0.4,0.5,1,0.2,1.5c-0.1,0.1-0.1,0.3-0.1,0.4c0,0.2,0.1,0.4,0.3,0.5c0.1,0.1,0.3,0.2,0.4,0.2
			c0.1,0,0.2-0.1,0.3-0.2c0.1-0.1,0.1-0.3,0.1-0.4c0-0.2,0-0.4-0.1-0.6c-0.2-0.5,0.4-1,0.3-1.5"/>
		<path class="st2" d="M47.4,3.8C47.2,4,46.9,4,46.7,4c-0.2,0-0.5-0.1-0.7-0.1c-0.2,0-0.4,0.1-0.5,0.2c-0.3,0.2-0.6,0.4-0.7,0.7
			c0,0.2,0,0.3,0,0.5s-0.1,0.3-0.2,0.4c-0.1,0.1-0.3,0-0.4-0.1c-0.1-0.1-0.1-0.3,0-0.5c0-0.1,0.1-0.1,0.1-0.2c0.1-0.1,0-0.3-0.1-0.4
			c-0.1-0.1-0.2-0.2-0.3-0.2c-0.5-0.2-1.1-0.2-1.7-0.2c-0.3,0-0.6,0-0.7-0.3"/>
		<path class="st2" d="M35.5,4c0,0.2,0.1,0.3,0.3,0.4c0.1,0.1,0.3,0.1,0.5,0c0.2,0,0.4,0,0.6,0c0.1,0,0.3,0,0.4,0.1
			c0.1,0.1,0.2,0.2,0.3,0.3c0.1,0.2,0.2,0.3,0.2,0.5c0,0.1-0.1,0.2-0.1,0.3c0,0.2,0.3,0.4,0.5,0.3s0.3-0.4,0.2-0.6
			c0-0.1-0.1-0.1-0.2-0.2C38,4.9,37.9,4.7,38,4.6s0.2-0.3,0.3-0.3c0.1,0,0.1,0,0.2,0c0.1,0,0.1-0.1,0.2-0.1C39,4,39.4,4,39.7,4.1"/>
		<path class="st0" d="M38,5.4c0,0.1,0,0.1-0.1,0.2c0,0.1,0,0.1,0,0.2c0.1,0.1,0.2,0,0.2,0c0.1-0.1,0.1-0.2,0.1-0.3
			C38.2,5.3,38.1,5.2,38,5.4"/>
		<path class="st2" d="M92.1,36.2c0,0.2,0.1,0.3,0.3,0.4s0.3,0.1,0.5,0c0.2,0,0.4,0,0.6,0c0.1,0,0.3,0,0.4,0.1
			c0.1,0.1,0.2,0.2,0.3,0.3c0.1,0.2,0.2,0.3,0.2,0.5c0,0.1-0.1,0.2-0.1,0.3c0,0.2,0.3,0.4,0.5,0.3s0.3-0.4,0.2-0.6
			c0-0.1-0.1-0.1-0.2-0.2c-0.1-0.1-0.1-0.3-0.1-0.4c0-0.2,0.2-0.3,0.3-0.3c0.1,0,0.1,0,0.2,0c0.1,0,0.1-0.1,0.2-0.1
			c0.3-0.2,0.7-0.2,1.1-0.1"/>
		<path class="st0" d="M44.5,5.4c0-0.1,0-0.1,0-0.2c0-0.1,0-0.1-0.1-0.2c-0.1,0-0.1,0.1-0.2,0.1c0,0.1,0,0.2,0.1,0.3
			C44.4,5.6,44.5,5.6,44.5,5.4"/>
		<path class="st2" d="M72.6,36c-0.2,0.2-0.6,0.2-0.9,0.2c-0.3,0-0.6-0.1-0.9-0.1c-0.2,0-0.4,0.1-0.6,0.3c-0.4,0.2-0.8,0.5-0.9,0.9
			c0,0.2,0,0.4,0,0.6s-0.1,0.4-0.2,0.5c-0.2,0.1-0.4,0-0.5-0.2c-0.1-0.2-0.1-0.4,0.1-0.6c0.1-0.1,0.1-0.1,0.2-0.2
			c0.1-0.1,0-0.3-0.1-0.5c-0.1-0.1-0.3-0.2-0.4-0.3c-0.7-0.3-1.4-0.3-2.1-0.3c-0.3,0-0.8,0-0.9-0.3"/>
		<path class="st2" d="M52.9,4c0.5,0,0.9,0.1,1.4,0.1c0.2,0,0.4,0,0.5,0.1c0.1,0,0.2,0.1,0.3,0.2c0.4,0.1,0.8-0.1,1.1,0.2
			c0.1,0.1,0.1,0.2,0.2,0.2c0.2,0.1,0.4,0.1,0.6,0.1c0.4,0,0.8,0.2,1,0.5c0.1,0.1,0.1,0.2,0.2,0.3c0.1,0.1,0.2,0.1,0.3,0.2
			c0.3,0.2,0.6,0.5,0.8,0.8c0.1,0.2,0.3,0.3,0.3,0.5c0,0.1-0.1,0.2-0.1,0.4s-0.1,0.3,0,0.4s0.2,0.2,0.3,0.1c0.1-0.1,0-0.3-0.1-0.4
			c-0.1-0.1,0-0.3,0.1-0.3c0.1,0,0.1,0.1,0.1,0.1c0.1,0.1,0.3,0.5,0.3,0.5V6.2L58,4.3c0,0-2-0.9-2.1-0.9c-0.1,0-2.5,0-2.5,0
			l-0.5,0.3V4z"/>
		<path class="st0" d="M59.8,7.8C59.8,7.8,59.7,7.8,59.8,7.8c-0.1-0.1-0.1-0.1-0.2-0.1c0,0-0.1,0.1,0,0.1c0,0.1,0.1,0.1,0.1,0.1
			C59.8,7.9,59.8,7.9,59.8,7.8"/>
		<path class="st2" d="M64.9,4c0,0.2,0.2,0.3,0.3,0.3c0.2,0,0.3,0,0.5,0c0.2,0,0.3,0,0.4,0.1c0.1,0,0.1,0.1,0.2,0.1
			c0.1,0,0.2-0.1,0.4,0c0.1,0,0.1,0.1,0.2,0.1c0.1,0,0.3-0.1,0.4-0.1c0.2-0.1,0.4,0,0.5,0.2c0,0.1,0.1,0.2,0,0.2
			c0,0.1-0.1,0.1-0.1,0.1c-0.1,0.1,0,0.3,0.1,0.3s0.3,0.1,0.4,0c0.1-0.1,0.1-0.2,0-0.4c0,0-0.1-0.1-0.1-0.1c0-0.1,0-0.2,0-0.2
			c0.1,0,0.2,0,0.2-0.1c0,0,0.1-0.1,0.1-0.1c0.1-0.1,0.2,0,0.3,0c0,0,0.1,0,0.1-0.1c0.1-0.1,0.2-0.1,0.2-0.1c0.1,0,0.2-0.1,0.3-0.1"
			/>
		<path class="st2" d="M79.8,4.1c0.2-0.1,0.3,0,0.5,0c0.1,0,0.1,0.1,0.2,0.1c0.2,0.1,0.4-0.1,0.6,0.1c0.1,0,0.1,0.1,0.2,0.2
			c0,0,0.1,0,0.1,0.1c0.2,0.1,0.4,0.1,0.6,0.1c0.2,0,0.5-0.1,0.7,0C82.8,4.7,83,4.8,83,5c0.1,0.2,0.1,0.3,0,0.5c0,0,0,0.1-0.1,0.1
			c0,0,0,0.1,0,0.1c0.1,0.2,0.3,0.3,0.5,0.2c0.2-0.1,0.2-0.4,0.1-0.5c0,0-0.1-0.1-0.1-0.1c-0.1-0.1-0.2-0.2-0.2-0.4
			c0-0.1,0.1-0.3,0.2-0.3c0,0,0.1,0,0.2-0.2c0-0.2,0.1-0.4,0.2-0.5c0.1-0.1,0.2-0.1,0.2-0.2c0-0.1,0-0.1-0.1-0.2s-0.1-0.1-0.2-0.1"
			/>
		<path class="st0" d="M83.2,5.7c0,0,0-0.1,0-0.1c0,0,0-0.1-0.1-0.1c-0.1,0-0.1,0-0.1,0.1c0,0.1,0,0.1,0.1,0.2
			C83.1,5.8,83.2,5.8,83.2,5.7"/>
		<path class="st0" d="M68,5.1C68,5.1,68,5.1,68,5.1c-0.1,0.1-0.1,0.2-0.1,0.2c0,0,0.1,0,0.1,0c0,0,0.1-0.1,0.1-0.2
			C68.1,5.1,68.1,5,68,5.1"/>
		<path class="st2" d="M107.3,4.1c0,0.2,0.2,0.2,0.3,0.3c0.2,0,0.3,0,0.5,0c0.2,0,0.3,0,0.5,0.1c0.1,0,0.1,0.1,0.2,0.1
			c0.1,0,0.2-0.1,0.4-0.1c0.1,0,0.1,0.1,0.2,0.1c0.1,0,0.3-0.1,0.4-0.1c0.2-0.1,0.4,0,0.6,0.2c0,0.1,0.1,0.1,0.1,0.2
			c0,0.1-0.1,0.1-0.1,0.2c-0.1,0.1,0,0.3,0.1,0.3c0.1,0.1,0.3,0.1,0.4,0c0.1-0.1,0.1-0.3,0-0.4c0,0-0.1-0.1-0.1-0.1
			c-0.1-0.1-0.1-0.2,0-0.2c0.1,0,0.2,0,0.2-0.1c0,0,0.1-0.1,0.1-0.1c0.1-0.1,0.2,0,0.3-0.1c0,0,0.1,0,0.1-0.1
			c0.1-0.1,0.2-0.1,0.2-0.1c0.1,0,0.2-0.1,0.3-0.1"/>
		<path class="st0" d="M110.5,5C110.5,5.1,110.5,5.1,110.5,5c-0.1,0.1-0.1,0.2-0.1,0.2c0,0,0.1,0,0.1,0c0,0,0.1-0.1,0.1-0.2
			C110.7,5,110.6,5,110.5,5"/>
	</g>
</g>
</svg>
