<?xml version="1.0" encoding="utf-8"?>
<!-- Generator: Adobe Illustrator 22.0.1, SVG Export Plug-In . SVG Version: 6.00 Build 0)  -->
<svg version="1.1" id="Capa_1" xmlns="http://www.w3.org/2000/svg" xmlns:xlink="http://www.w3.org/1999/xlink" x="0px" y="0px"
	 viewBox="0 0 168 57" style="enable-background:new 0 0 168 57;" xml:space="preserve">
<style type="text/css">
	.st0{fill:#FFFFFF;}
	.st1{fill:#FFAA24;}
	.st2{fill:none;stroke:#FFFFFF;stroke-width:0.3376;stroke-miterlimit:10;}
	.st3{fill:none;stroke:#FFFFFF;stroke-width:1.1992;stroke-miterlimit:10;}
	.st4{fill:none;stroke:#FFFFFF;stroke-width:1.6803;stroke-miterlimit:10;}
	.st5{fill:none;stroke:#FFFFFF;stroke-width:0.9633;stroke-miterlimit:10;}
	.st6{fill:none;stroke:#FFFFFF;stroke-width:1.3497;stroke-miterlimit:10;}
</style>
<g>
	<g>
		<g>
			<line class="st3" x1="146.6" y1="4" x2="132" y2="26"/>
			<polyline class="st3" points="147.3,9.1 143.5,8.6 142.1,5.4 139,6.8 141.3,11.8 147.2,12.2 146.6,15.4 139.6,14.4 136.6,8 
				133.7,10 137.2,17.9 145.3,18.3 144.2,21.6 135.2,20.9 131.3,12.2 129.2,15.2 133.2,24.1 141.7,24.7 			"/>
			<path class="st4" d="M143.5,22.8c1.9-2.5,5.3-10.2,3.1-18.8c-10,2.4-17.6,8.4-18.1,13.7c-0.2,2.3,0.2,6.3,3.5,8.2
				C137,29,141.5,25.4,143.5,22.8z"/>
		</g>
	</g>
	<g>
		<g>
			<line class="st5" x1="158.5" y1="30.6" x2="137.7" y2="34.7"/>
			<polyline class="st5" points="156,33.9 154.1,31.4 155.1,28.8 152.6,27.9 151,32 154.1,35.6 152,37 148.5,32.5 150.6,27.2 
				147.7,26.7 145.3,33.1 149.6,38 147.1,39.2 142.4,33.7 145.1,26.5 142.2,27.1 139.5,34.4 143.9,39.6 			"/>
			<path class="st6" d="M146.1,39.5c2.5-0.3,8.8-2.8,12.4-8.9c-7-4.3-14.8-5.3-18.1-2.5c-1.5,1.2-3.4,3.7-2.7,6.7
				C138.9,39.3,143.4,39.9,146.1,39.5z"/>
		</g>
	</g>
	<g>
		<path class="st0" d="M31.9,20.6l-9.7,24.1c-0.1,0.3-0.3,0.5-0.5,0.7c-0.3,0.2-0.5,0.3-0.9,0.3c-0.3,0-0.6-0.1-0.9-0.3
			c-0.3-0.2-0.4-0.4-0.5-0.7L9.6,20.6c-0.1-0.2-0.1-0.4-0.1-0.6c0-0.4,0.1-0.8,0.4-1.1c0.3-0.3,0.6-0.4,1.1-0.4
			c0.3,0,0.6,0.1,0.9,0.3c0.3,0.2,0.4,0.4,0.6,0.7l8.3,20.6l8.3-20.6c0.1-0.3,0.3-0.5,0.5-0.7c0.2-0.2,0.5-0.3,0.9-0.3
			c0.4,0,0.8,0.1,1.1,0.4c0.3,0.3,0.4,0.6,0.4,1.1C32,20.2,32,20.4,31.9,20.6z"/>
		<path class="st0" d="M51.3,37.7H38.4c0.1,0.7,0.3,1.4,0.6,2c0.3,0.6,0.8,1.1,1.3,1.6c0.5,0.4,1.1,0.8,1.7,1
			c0.6,0.3,1.3,0.4,2.1,0.4c0.4,0,0.8,0,1.2-0.1c0.4-0.1,0.7-0.2,1-0.3c0.3-0.1,0.6-0.3,0.9-0.5c0.3-0.2,0.6-0.5,1-0.7
			c0.1-0.1,0.3-0.2,0.4-0.3c0.1-0.1,0.3-0.1,0.6-0.1c0.4,0,0.8,0.1,1.1,0.4c0.3,0.3,0.4,0.6,0.4,1.1c0,0.3,0,0.5-0.1,0.6
			c-0.1,0.2-0.2,0.3-0.3,0.4c-0.4,0.4-0.8,0.8-1.3,1.1c-0.5,0.3-1,0.6-1.6,0.8c-0.6,0.2-1.1,0.4-1.7,0.5c-0.6,0.1-1.1,0.2-1.7,0.2
			c-1.2,0-2.3-0.2-3.4-0.7c-1.1-0.5-2-1.1-2.8-1.9c-0.8-0.8-1.4-1.7-1.9-2.8c-0.5-1.1-0.7-2.2-0.7-3.4c0-1.2,0.2-2.3,0.7-3.4
			c0.5-1.1,1.1-2,1.9-2.8c0.8-0.8,1.7-1.4,2.8-1.9c1.1-0.5,2.2-0.7,3.4-0.7c1.2,0,2.3,0.2,3.3,0.6c1,0.4,1.9,0.9,2.7,1.7
			c0.8,0.7,1.4,1.6,1.9,2.6c0.5,1,0.8,2.1,0.8,3.3c0,0.5-0.1,0.8-0.4,1.1C52.1,37.5,51.7,37.7,51.3,37.7z M44.1,31.1
			c-1.2,0-2.3,0.3-3.2,1c-1,0.6-1.7,1.5-2.1,2.5h10.6c-0.4-1.1-1.1-1.9-2.1-2.6C46.3,31.5,45.2,31.1,44.1,31.1z"/>
		<path class="st0" d="M66,53c-0.8,0-1.5-0.1-2.2-0.3c-0.7-0.2-1.4-0.5-2.1-0.9c-0.7-0.4-1.3-0.8-1.8-1.4c-0.6-0.5-1-1.1-1.4-1.8
			c0-0.1-0.1-0.2-0.1-0.4c0-0.1-0.1-0.3-0.1-0.4c0-0.4,0.1-0.8,0.4-1.1c0.3-0.3,0.7-0.5,1.1-0.5c0.3,0,0.6,0.1,0.8,0.2
			c0.2,0.1,0.4,0.3,0.5,0.5c0,0.1,0.1,0.2,0.2,0.3c0.1,0.1,0.1,0.2,0.2,0.3l0.3,0.4c0.5,0.6,1.2,1.1,1.9,1.4
			c0.8,0.3,1.6,0.5,2.4,0.5c0.8,0,1.5-0.2,2.2-0.5c0.7-0.3,1.3-0.7,1.8-1.2c0.5-0.5,0.9-1.1,1.2-1.8c0.3-0.7,0.5-1.4,0.5-2.2v-0.7
			c-0.8,0.7-1.7,1.2-2.7,1.6c-1,0.4-2,0.6-3.1,0.6c-1.2,0-2.3-0.2-3.4-0.7c-1.1-0.5-2-1.1-2.8-1.9c-0.8-0.8-1.4-1.7-1.9-2.8
			c-0.5-1.1-0.7-2.2-0.7-3.4c0-1.2,0.2-2.3,0.7-3.4c0.5-1.1,1.1-2,1.9-2.8c0.8-0.8,1.7-1.4,2.8-1.9c1.1-0.5,2.2-0.7,3.4-0.7
			c1.1,0,2.1,0.2,3.1,0.6c1,0.4,1.9,0.9,2.7,1.6v-0.6c0-0.4,0.1-0.8,0.4-1.1c0.3-0.3,0.7-0.4,1.1-0.4c0.4,0,0.8,0.1,1.1,0.4
			c0.3,0.3,0.4,0.6,0.4,1.1v14.6c0,1.2-0.2,2.3-0.7,3.4c-0.5,1.1-1.1,2-1.9,2.8c-0.8,0.8-1.7,1.4-2.8,1.9C68.3,52.8,67.2,53,66,53z
			 M66,31.1c-0.8,0-1.5,0.2-2.2,0.5c-0.7,0.3-1.3,0.7-1.8,1.2c-0.5,0.5-0.9,1.1-1.2,1.8c-0.3,0.7-0.5,1.4-0.5,2.2
			c0,0.8,0.2,1.5,0.5,2.2c0.3,0.7,0.7,1.3,1.2,1.8c0.5,0.5,1.1,0.9,1.8,1.2c0.7,0.3,1.4,0.5,2.2,0.5c0.8,0,1.5-0.2,2.2-0.5
			c0.7-0.3,1.3-0.7,1.8-1.2c0.5-0.5,0.9-1.1,1.2-1.8c0.3-0.7,0.5-1.4,0.5-2.2c0-0.8-0.2-1.5-0.5-2.2c-0.3-0.7-0.7-1.3-1.2-1.8
			c-0.5-0.5-1.1-0.9-1.8-1.2C67.5,31.3,66.7,31.1,66,31.1z"/>
		<path class="st0" d="M89.4,53c-0.8,0-1.5-0.1-2.2-0.3c-0.7-0.2-1.4-0.5-2.1-0.9c-0.7-0.4-1.3-0.8-1.8-1.4c-0.6-0.5-1-1.1-1.4-1.8
			c0-0.1-0.1-0.2-0.1-0.4c0-0.1-0.1-0.3-0.1-0.4c0-0.4,0.1-0.8,0.4-1.1c0.3-0.3,0.7-0.5,1.1-0.5c0.3,0,0.6,0.1,0.8,0.2
			c0.2,0.1,0.4,0.3,0.5,0.5c0,0.1,0.1,0.2,0.2,0.3c0.1,0.1,0.1,0.2,0.2,0.3l0.3,0.4c0.5,0.6,1.2,1.1,1.9,1.4
			c0.8,0.3,1.6,0.5,2.4,0.5c0.8,0,1.5-0.2,2.2-0.5c0.7-0.3,1.3-0.7,1.8-1.2c0.5-0.5,0.9-1.1,1.2-1.8c0.3-0.7,0.5-1.4,0.5-2.2v-0.7
			c-0.8,0.7-1.7,1.2-2.7,1.6c-1,0.4-2,0.6-3.1,0.6c-1.2,0-2.3-0.2-3.4-0.7c-1.1-0.5-2-1.1-2.8-1.9c-0.8-0.8-1.4-1.7-1.9-2.8
			c-0.5-1.1-0.7-2.2-0.7-3.4c0-1.2,0.2-2.3,0.7-3.4c0.5-1.1,1.1-2,1.9-2.8c0.8-0.8,1.7-1.4,2.8-1.9c1.1-0.5,2.2-0.7,3.4-0.7
			c1.1,0,2.1,0.2,3.1,0.6c1,0.4,1.9,0.9,2.7,1.6v-0.6c0-0.4,0.1-0.8,0.4-1.1c0.3-0.3,0.7-0.4,1.1-0.4c0.4,0,0.8,0.1,1.1,0.4
			c0.3,0.3,0.4,0.6,0.4,1.1v14.6c0,1.2-0.2,2.3-0.7,3.4c-0.5,1.1-1.1,2-1.9,2.8c-0.8,0.8-1.7,1.4-2.8,1.9C91.7,52.8,90.6,53,89.4,53
			z M89.4,31.1c-0.8,0-1.5,0.2-2.2,0.5c-0.7,0.3-1.3,0.7-1.8,1.2s-0.9,1.1-1.2,1.8c-0.3,0.7-0.5,1.4-0.5,2.2c0,0.8,0.2,1.5,0.5,2.2
			c0.3,0.7,0.7,1.3,1.2,1.8c0.5,0.5,1.1,0.9,1.8,1.2c0.7,0.3,1.4,0.5,2.2,0.5c0.8,0,1.5-0.2,2.2-0.5c0.7-0.3,1.3-0.7,1.8-1.2
			c0.5-0.5,0.9-1.1,1.2-1.8c0.3-0.7,0.5-1.4,0.5-2.2c0-0.8-0.2-1.5-0.5-2.2c-0.3-0.7-0.7-1.3-1.2-1.8c-0.5-0.5-1.1-0.9-1.8-1.2
			C90.9,31.3,90.2,31.1,89.4,31.1z"/>
		<path class="st0" d="M107.5,25.8c-0.5,0-1-0.2-1.4-0.6c-0.4-0.4-0.6-0.9-0.6-1.4c0-0.6,0.2-1,0.6-1.4c0.4-0.4,0.9-0.6,1.4-0.6
			c0.6,0,1,0.2,1.4,0.6c0.4,0.4,0.6,0.8,0.6,1.4c0,0.5-0.2,1-0.6,1.4C108.6,25.6,108.1,25.8,107.5,25.8z M107.5,45.7
			c-0.4,0-0.8-0.1-1.1-0.4c-0.3-0.3-0.4-0.6-0.4-1.1V29.6c0-0.4,0.1-0.8,0.4-1.1c0.3-0.3,0.6-0.4,1.1-0.4c0.4,0,0.8,0.1,1.1,0.4
			c0.3,0.3,0.5,0.6,0.5,1.1v14.6c0,0.4-0.2,0.8-0.5,1.1C108.3,45.5,107.9,45.7,107.5,45.7z"/>
		<path class="st0" d="M131.4,37.7h-12.9c0.1,0.7,0.3,1.4,0.6,2c0.3,0.6,0.8,1.1,1.3,1.6c0.5,0.4,1.1,0.8,1.7,1
			c0.6,0.3,1.3,0.4,2.1,0.4c0.4,0,0.8,0,1.2-0.1c0.4-0.1,0.7-0.2,1-0.3c0.3-0.1,0.6-0.3,0.9-0.5c0.3-0.2,0.6-0.5,1-0.7
			c0.1-0.1,0.3-0.2,0.4-0.3c0.1-0.1,0.3-0.1,0.6-0.1c0.4,0,0.8,0.1,1.1,0.4c0.3,0.3,0.4,0.6,0.4,1.1c0,0.3,0,0.5-0.1,0.6
			c-0.1,0.2-0.2,0.3-0.3,0.4c-0.4,0.4-0.8,0.8-1.3,1.1c-0.5,0.3-1,0.6-1.6,0.8c-0.6,0.2-1.1,0.4-1.7,0.5c-0.6,0.1-1.1,0.2-1.7,0.2
			c-1.2,0-2.3-0.2-3.4-0.7c-1.1-0.5-2-1.1-2.8-1.9c-0.8-0.8-1.4-1.7-1.9-2.8c-0.5-1.1-0.7-2.2-0.7-3.4c0-1.2,0.2-2.3,0.7-3.4
			c0.5-1.1,1.1-2,1.9-2.8c0.8-0.8,1.7-1.4,2.8-1.9c1.1-0.5,2.2-0.7,3.4-0.7c1.2,0,2.3,0.2,3.3,0.6c1,0.4,1.9,0.9,2.7,1.7
			c0.8,0.7,1.4,1.6,1.9,2.6c0.5,1,0.8,2.1,0.8,3.3c0,0.5-0.1,0.8-0.4,1.1C132.2,37.5,131.9,37.7,131.4,37.7z M124.2,31.1
			c-1.2,0-2.3,0.3-3.2,1c-1,0.6-1.7,1.5-2.1,2.5h10.6c-0.4-1.1-1.1-1.9-2.1-2.6C126.4,31.5,125.4,31.1,124.2,31.1z"/>
	</g>
</g>
</svg>
