<?xml version="1.0" encoding="utf-8"?>
<!-- Generator: Adobe Illustrator 22.0.1, SVG Export Plug-In . SVG Version: 6.00 Build 0)  -->
<svg version="1.1" id="Capa_1" xmlns="http://www.w3.org/2000/svg" xmlns:xlink="http://www.w3.org/1999/xlink" x="0px" y="0px"
	 viewBox="0 0 30 30" style="enable-background:new 0 0 30 30;" xml:space="preserve">
<style type="text/css">
	.st0{fill-rule:evenodd;clip-rule:evenodd;fill:#E58E00;}
</style>
<g>
	<circle class="st0" cx="15" cy="15" r="15"/>
	<path id="whatsapp-1" d="M4.7,25.4L6.1,20c-0.9-1.6-1.4-3.3-1.4-5.1C4.8,9.2,9.4,4.6,15,4.6c2.8,0,5.3,1.1,7.3,3
		c1.9,1.9,3,4.5,3,7.3c0,5.7-4.6,10.3-10.3,10.3l0,0c-1.7,0-3.4-0.4-4.9-1.3L4.7,25.4z M10.4,22.1c1.4,0.9,2.8,1.4,4.7,1.4
		c4.7,0,8.5-3.8,8.5-8.5c0-4.7-3.8-8.5-8.5-8.6c-4.7,0-8.5,3.8-8.5,8.5c0,1.9,0.6,3.4,1.5,4.9l-0.9,3.2L10.4,22.1z M20.2,17.4
		c-0.1-0.1-0.2-0.2-0.5-0.3c-0.3-0.1-1.5-0.7-1.8-0.8c-0.2-0.1-0.4-0.1-0.6,0.1c-0.2,0.3-0.7,0.8-0.8,1c-0.2,0.2-0.3,0.2-0.6,0.1
		c-0.3-0.1-1.1-0.4-2.1-1.3c-0.8-0.7-1.3-1.5-1.4-1.8c-0.1-0.3,0-0.4,0.1-0.5c0.1-0.1,0.3-0.3,0.4-0.4c0.1-0.1,0.2-0.3,0.3-0.4
		c0.1-0.2,0-0.3,0-0.4c-0.1-0.1-0.6-1.4-0.8-1.9c-0.2-0.5-0.4-0.4-0.6-0.4c-0.1,0-0.3,0-0.5,0c-0.2,0-0.4,0.1-0.7,0.3
		c-0.2,0.3-0.9,0.9-0.9,2.1c0,1.3,0.9,2.5,1,2.7c0.1,0.2,1.8,2.8,4.4,3.9c0.6,0.3,1.1,0.4,1.5,0.5c0.6,0.2,1.2,0.2,1.6,0.1
		c0.5-0.1,1.5-0.6,1.7-1.2C20.3,18,20.3,17.5,20.2,17.4z"/>
</g>
</svg>
